<?xml version="1.0" encoding="utf-8" ?>
<svg baseProfile="full" height="200mm" version="1.1" viewBox="0,0,200,200" width="200mm" xmlns="http://www.w3.org/2000/svg" xmlns:ev="http://www.w3.org/2001/xml-events" xmlns:xlink="http://www.w3.org/1999/xlink"><defs /><rect fill="#1a1a1a" height="200" width="200" x="0" y="0" /><text alignment-baseline="middle" fill="#e1ed5e" style="dominant-baseline: central; font-size:9.0px; font-family:Arial;" text-anchor="middle" x="100.0" y="100.0">2025</text><line stroke="#e1ed5e" stroke-width="0.3" x1="100.0" x2="100.0" y1="15.0" y2="10.0" /><path d="M 100.0 14.0 a86.0,86.0 0 0,1 42.46469731375804,11.215312516191453" fill="none" id="id61" stroke="none" /><text fill="#e1ed5e" style="font-size:6.75px; font-family:Arial;" text-anchor="middle"><textPath startOffset="22.20632615414155" xlink:href="#id61">January</textPath></text><path d="M 100.36148047927253 79.00311137660856 l 0.3320189100826836 -19.2855893349916 a40.28844712657279,40.28844712657279 0 0,0 0.6932938905192033,0.017905735775897966 l -0.6639394357967547 19.27701680707334" fill="#ff1402" stroke="none" /><path d="M 100.72285384407766 79.0124445844662 l 0.6304953637302108 -18.305991583138464 a39.31684613260759,39.31684613260759 0 0,0 0.6761733058252041,0.02911744491716517 l -0.9455095019447464 18.292426411697104" fill="#ff0000" stroke="none" /><path d="M 101.08401301168833 79.027996857942 l 3.0494430903227534 -58.99645980463868 a80.07521792292826,80.07521792292826 0 0,0 1.375913217811001,0.08299884275437266 l -4.064518356973366 58.935227692504" fill="#46fff9" stroke="none" /><path d="M 101.44485096284872 79.0497635885617 l 3.990014281501789 -57.8549238861739 a78.99234804559619,78.99234804559619 0 0,0 1.3556960571874934,0.1052281059853862 l -4.985300528051623 57.77767051800005" fill="#44ffea" stroke="none" /><path d="M 101.80526077348638 79.07773832637324 l 2.387005755121042 -27.664456990691043 a48.76724647970654,48.76724647970654 0 0,0 0.835719363287768,0.07936162352086015 l -2.8628502454990543 27.619269822655003" fill="#ffb510" stroke="none" /><path d="M 102.16513564639614 79.11191278185805 l 2.887132193807288 -27.85352925805483 a49.00276101447561,49.00276101447561 0 0,0 0.838258256016914,0.09418808217415817 l -3.366157153333927 27.799705222410072" fill="#ffb911" stroke="none" /><path d="M 102.52436894288641 79.15227682838746 l 6.614856258456925 -54.62937281213581 a76.02839900603479,76.02839900603479 0 0,0 1.297860059942485,0.16849948461366387 l -7.5542310469072556 54.507415004358016" fill="#3fffc0" stroke="none" /><path d="M 103.2404852339499 79.25152402106235 l 4.351152078949708 -27.859955492143524 a49.19768863645328,49.19768863645328 0 0,0 0.8355894600998205,0.13787942052323984 l -4.8300707451884035 27.780929808680657" fill="#ffbc11" stroke="none" /><path d="M 103.59715602781102 79.31037775812273 l 9.61507003670921 -55.30262389250944 a77.13225259338145,77.13225259338145 0 0,0 1.3061240639299938,0.23868582414829254 l -10.565589221742103 55.12892258701041" fill="#41ffd0" stroke="none" /><path d="M 103.95276090670814 79.375362276772 l 7.114231662802419 -37.12049734032961 a58.79607935944465,58.79607935944465 0 0,0 0.9923478817439908,0.1990556495536677 l -7.752145954013535 36.99253773469873" fill="#a2ff22" stroke="none" /><path d="M 104.307194497241 79.44645832069477 l 5.775091637132195 -27.558213761100554 a49.15682562221434,49.15682562221434 0 0,0 0.8266709821905369,0.1806782578328575 l -6.24860534347626 27.454722005171824" fill="#ffbb11" stroke="none" /><path d="M 104.66035177308747 79.52364482259891 l 6.353933374319912 -27.917505562015226 a49.631444010570746,49.631444010570746 0 0,0 0.8313888754649772,0.19676288572531503 l -6.833545936747413 27.803996764149044" fill="#ffc412" stroke="none" /><path d="M 105.01212808612495 79.60689891045804 l 15.036384258374856 -61.17930326862588 a84.0,84.0 0 0,0 1.4011644452598997,0.3571880153245286 l -16.08725759231978 60.91141225713248" fill="#4dd2ff" stroke="none" /><line stroke="#e1ed5e" stroke-width="0.3" x1="143.23703022742887" x2="145.7803849466894" y1="26.81831364943548" y2="22.513508569990506" /><path d="M 143.74570117128098 25.957352633546492 a86.0,86.0 0 0,1 28.547481713284135,27.462654790039103" fill="none" id="id62" stroke="none" /><text fill="#e1ed5e" style="font-size:6.75px; font-family:Arial;" text-anchor="middle"><textPath startOffset="19.985693538727396" xlink:href="#id62">February</textPath></text><line stroke="#e1ed5e" stroke-width="0.3" x1="172.23445277983987" x2="176.4835382374775" y1="55.19839476539836" y2="52.563006222186495" /><path d="M 173.08426987136738 54.67131705675599 a86.0,86.0 0 0,1 12.851231095245387,41.99856678651699" fill="none" id="id63" stroke="none" /><text fill="#e1ed5e" style="font-size:6.75px; font-family:Arial;" text-anchor="middle"><textPath startOffset="22.20632615414155" xlink:href="#id63">March</textPath></text><line stroke="#e1ed5e" stroke-width="0.3" x1="184.98032266829074" x2="189.97916517819016" y1="98.17113171792111" y2="98.06355123074" /><path d="M 185.9800911702706 98.14961562048488 a86.0,86.0 0 0,1 -9.607161424134198,41.387399972396054" fill="none" id="id64" stroke="none" /><text fill="#e1ed5e" style="font-size:6.75px; font-family:Arial;" text-anchor="middle"><textPath startOffset="21.466115282336823" xlink:href="#id64">April</textPath></text><line stroke="#e1ed5e" stroke-width="0.3" x1="174.80103733775053" x2="179.2010983576182" y1="140.37084112569926" y2="142.7455964860345" /><path d="M 175.68104954172406 140.8457921977663 a86.0,86.0 0 0,1 -30.038265399797805,32.042727171017184" fill="none" id="id65" stroke="none" /><text fill="#e1ed5e" style="font-size:6.75px; font-family:Arial;" text-anchor="middle"><textPath startOffset="22.206326154141568" xlink:href="#id65">May</textPath></text><line stroke="#e1ed5e" stroke-width="0.3" x1="143.8653032363475" x2="146.44561519142675" y1="172.8068346515853" y2="177.08958963109032" /><path d="M 144.38136562736335 173.6633856474863 a86.0,86.0 0 0,1 -40.68145358897372,12.25698825130547" fill="none" id="id66" stroke="none" /><text fill="#e1ed5e" style="font-size:6.75px; font-family:Arial;" text-anchor="middle"><textPath startOffset="21.466115282336833" xlink:href="#id66">June</textPath></text><line stroke="#e1ed5e" stroke-width="0.3" x1="102.19456741930631" x2="102.32365962044197" y1="184.97166512339345" y2="189.96999836594603" /><path d="M 102.22038585953345 185.97133177190398 a86.0,86.0 0 0,1 -42.740103519485714,-10.115201625700543" fill="none" id="id67" stroke="none" /><text fill="#e1ed5e" style="font-size:6.75px; font-family:Arial;" text-anchor="middle"><textPath startOffset="22.20632615414155" xlink:href="#id67">July</textPath></text><line stroke="#e1ed5e" stroke-width="0.3" x1="58.666819895761336" x2="56.23545636021788" y1="174.27360380694188" y2="178.64263932499728" /><path d="M 58.180547188652646 175.14741091055294 a86.0,86.0 0 0,1 -31.652253787137756,-30.449443065178592" fill="none" id="id68" stroke="none" /><text fill="#e1ed5e" style="font-size:6.75px; font-family:Arial;" text-anchor="middle"><textPath startOffset="22.20632615414155" xlink:href="#id68">August</textPath></text><line stroke="#e1ed5e" stroke-width="0.3" x1="26.63291911575756" x2="22.317208475507996" y1="142.92168965132927" y2="145.44649492493687" /><path d="M 25.769776987707644 143.4266507060508 a86.0,86.0 0 0,1 -11.730757126820373,-40.83630448921669" fill="none" id="id69" stroke="none" /><text fill="#e1ed5e" style="font-size:6.75px; font-family:Arial;" text-anchor="middle"><textPath startOffset="21.46611528233685" xlink:href="#id69">September</textPath></text><line stroke="#e1ed5e" stroke-width="0.3" x1="15.007084014347285" x2="10.007500721073583" y1="101.09737516637583" y2="101.16192664675087" /><path d="M 14.007167355692545 101.11028546245083 a86.0,86.0 0 0,1 10.666146001902534,-42.60595125391555" fill="none" id="id70" stroke="none" /><text fill="#e1ed5e" style="font-size:6.75px; font-family:Arial;" text-anchor="middle"><textPath startOffset="22.20632615414155" xlink:href="#id70">October</textPath></text><line stroke="#e1ed5e" stroke-width="0.3" x1="26.266209847984243" x2="21.928928074336255" y1="57.711370442889674" y2="55.22380399835377" /><path d="M 25.398753493254645 57.213857153982495 a86.0,86.0 0 0,1 29.58750427330803,-30.492523968695096" fill="none" id="id71" stroke="none" /><text fill="#e1ed5e" style="font-size:6.75px; font-family:Arial;" text-anchor="middle"><textPath startOffset="21.46611528233685" xlink:href="#id71">November</textPath></text><line stroke="#e1ed5e" stroke-width="0.3" x1="56.762969772571076" x2="54.21961505331055" y1="26.818313649435495" y2="22.513508569990535" /><path d="M 56.25429882871897 25.957352633546506 a86.0,86.0 0 0,1 42.265352541879196,-11.944610805530505" fill="none" id="id72" stroke="none" /><text fill="#e1ed5e" style="font-size:6.75px; font-family:Arial;" text-anchor="middle"><textPath startOffset="22.20632615414155" xlink:href="#id72">December</textPath></text></svg>