<?xml version="1.0" encoding="utf-8" ?>
<svg baseProfile="full" height="200mm" version="1.1" viewBox="0,0,200,200" width="200mm" xmlns="http://www.w3.org/2000/svg" xmlns:ev="http://www.w3.org/2001/xml-events" xmlns:xlink="http://www.w3.org/1999/xlink"><defs /><rect fill="#1a1a1a" height="200" width="200" x="0" y="0" /><text alignment-baseline="middle" fill="#e1ed5e" style="dominant-baseline: central; font-size:9.0px; font-family:Arial;" text-anchor="middle" x="100.0" y="100.0">2026</text><line stroke="#e1ed5e" stroke-width="0.3" x1="100.0" x2="100.0" y1="15.0" y2="10.0" /><path d="M 100.0 14.0 a86.0,86.0 0 0,1 42.46469731375804,11.215312516191453" fill="none" id="id73" stroke="none" /><text fill="#e1ed5e" style="font-size:6.75px; font-family:Arial;" text-anchor="middle"><textPath startOffset="22.20632615414155" xlink:href="#id73">January</textPath></text><path d="M 100.36148047927253 79.00311137660856 l 0.5696457508898459 -33.088338297805485 a54.093241418626974,54.093241418626974 0 0,0 0.9308503173650272,0.024041117421598385 l -1.139122703449741 33.073630388241526" fill="#83ff25" stroke="none" /><path d="M 101.08401301168833 79.027996857942 l 0.5855046095762033 -11.32754346979374 a32.342665326452234,32.342665326452234 0 0,0 0.5557362424506261,0.03352352779446978 l -0.7804029008664414 11.315786672618966" fill="#ff5d08" stroke="none" /><path d="M 101.80526077348638 79.07773832637324 l 1.2202572665333575 -14.142301330931843 a35.19484817570812,35.19484817570812 0 0,0 0.603130548300529,0.0572745129655142 l -1.4635129419241306 14.119201273451152" fill="#ff870c" stroke="none" /><path d="M 102.16513564639614 79.11191278185805 l 1.688926638091476 -16.293873771936173 a37.381171987518,37.381171987518 0 0,0 0.6394553161783813,0.07185025549655476 l -1.9691486577795825 16.262387562969018" fill="#ffa60f" stroke="none" /><path d="M 103.95276090670814 79.375362276772 l 2.155291273918431 -11.245836204553562 a32.45050708113298,32.45050708113298 0 0,0 0.5476928447323065,0.10986203222652823 l -2.348550528117863 11.207070216249825" fill="#ff5f08" stroke="none" /><path d="M 104.307194497241 79.44645832069477 l 1.5655711155658156 -7.470763439243381 a28.633041286605856,28.633041286605856 0 0,0 0.48152223142748984,0.10524210932331525 l -1.6939360711468334 7.442707831824196" fill="#ff2503" stroke="none" /><path d="M 105.01212808612495 79.60689891045804 l 2.2589992739107005 -9.191305521818688 a30.464838874219875,30.464838874219875 0 0,0 0.5081696316801014,0.12954375398409695 l -2.416877794275827 9.151058771665722" fill="#ff4106" stroke="none" /><path d="M 106.0581310904928 79.89281104454417 l 11.56989793694907 -38.40097226992325 a61.106074471915505,61.106074471915505 0 0,0 1.0045100344730193,0.31210615741506237 l -12.229193344132808 38.19612597762567" fill="#36ff2e" stroke="none" /><path d="M 108.09893153111575 80.62456947434976 l 5.491529028835707 -13.137626706561313 a35.2391757681229,35.2391757681229 0 0,0 0.5576452604680563,0.2387545982138433 l -5.716858047094078 13.04115258038468" fill="#ff870c" stroke="none" /><path d="M 108.43124777332544 80.76684994638697 l 8.005346813508401 -18.26159551170352 a40.93919377100336,40.93919377100336 0 0,0 0.6429751505347769,0.28848420776917905 l -8.318504082509959 18.121090973417807" fill="#ffd614" stroke="none" /><path d="M 109.08828744355905 81.06846463323043 l 4.0927562336217225 -8.525496125157053 a30.456994119059047,30.456994119059047 0 0,0 0.47067474819661725,0.23095805482209153 l -4.238902248828771 8.45378291020013" fill="#ff4106" stroke="none" /><path d="M 109.41281617654863 81.2277094730956 l 4.348117803781705 -8.671595102553528 a30.700654104656746,30.700654104656746 0 0,0 0.4703625467780253,0.24093796544013776 l -4.496740838148487 8.595464611800889" fill="#ff4506" stroke="none" /><path d="M 109.73455568895987 81.39251694778311 l 4.4057860661387025 -8.421605687699223 a30.504440710513684,30.504440710513684 0 0,0 0.46316628683003486,0.24740738996030606 l -4.550097399497048 8.344519571237164" fill="#ff4206" stroke="none" /><path d="M 110.05341064243156 81.56283822128135 l 4.525392216719347 -8.299212215569941 a30.452835453672584,30.452835453672584 0 0,0 0.45806272091753586,0.2549114082566235 l -4.667579026708918 8.220085409753137" fill="#ff4106" stroke="none" /><path d="M 110.36928655335952 81.73862282372117 l 8.19325468363447 -14.429161862701834 a37.59307489198272,37.59307489198272 0 0,0 0.5599636506137057,0.32436708958818006 l -8.440415066713504 14.285990615723604" fill="#ffa80f" stroke="none" /><line stroke="#e1ed5e" stroke-width="0.3" x1="143.23703022742887" x2="145.7803849466894" y1="26.81831364943548" y2="22.513508569990506" /><path d="M 143.74570117128098 25.957352633546492 a86.0,86.0 0 0,1 28.547481713284135,27.462654790039103" fill="none" id="id74" stroke="none" /><text fill="#e1ed5e" style="font-size:6.75px; font-family:Arial;" text-anchor="middle"><textPath startOffset="19.985693538727396" xlink:href="#id74">February</textPath></text><path d="M 110.68208982089419 81.91981866633111 l 32.04626946268258 -54.24054400100664 a84.0,84.0 0 0,0 1.23855173512945,0.7462135621655417 l -32.97518326402967 53.68088382938249" fill="#4dd2ff" stroke="none" /><path d="M 111.2981086023043 82.29822771554956 l 2.819103190613372 -4.416944860702406 a26.23991838694191,26.23991838694191 0 0,0 0.37864573866536955,0.24628172114440156 l -2.8947159550630217 4.367764215398477" fill="#ff0000" stroke="none" /><path d="M 111.90073688211348 82.69761687909136 l 6.157474399758902 -8.952301204301145 a31.865458473355737,31.865458473355737 0 0,0 0.4492557131833775,0.3147323371262077 l -6.3106612525259305 8.844984024411001" fill="#ff5607" stroke="none" /><path d="M 112.19680574252982 82.90503203632743 l 4.587141494822758 -6.429309325259711 a28.897967174747958,28.897967174747958 0 0,0 0.40244504038616724,0.2923934370253838 l -4.697131851562713 6.349396653417652" fill="#ff2904" stroke="none" /><path d="M 112.48926042617603 83.11751280151076 l 11.817730340851154 -15.974739447058235 a40.870859337494,40.870859337494 0 0,0 0.561981801566738,0.4232730418354752 l -12.090958296176275 15.768949815716912" fill="#ffd614" stroke="none" /><path d="M 112.77801427241765 83.33499621200491 l 12.134666098236272 -15.825953249221216 a40.94269083053288,40.94269083053288 0 0,0 0.5555873328987798,0.43364472590774555 l -12.405285986294482 15.614730134090246" fill="#ffd714" stroke="none" /><path d="M 113.06298171725822 83.55741782278167 l 5.950715739823678 -7.490260239440494 a30.56634811569851,30.56634811569851 0 0,0 0.4091474558865486,0.3308354550285872 l -6.078766594274717 7.386718687147777" fill="#ff4206" stroke="none" /><path d="M 113.6212207817346 84.01681056812373 l 7.57500577097047 -8.88853900285719 a32.67847755640903,32.67847755640903 0 0,0 0.42498547006846865,0.36854321176701227 l -7.726885039685703 8.756830797670505" fill="#ff6209" stroke="none" /><line stroke="#e1ed5e" stroke-width="0.3" x1="172.23445277983987" x2="176.4835382374775" y1="55.19839476539836" y2="52.563006222186495" /><path d="M 173.08426987136738 54.67131705675599 a86.0,86.0 0 0,1 12.851231095245387,41.99856678651699" fill="none" id="id75" stroke="none" /><text fill="#e1ed5e" style="font-size:6.75px; font-family:Arial;" text-anchor="middle"><textPath startOffset="22.20632615414155" xlink:href="#id75">March</textPath></text><path d="M 117.84615892207809 88.93136811851018 l 7.414070205808959 -4.598390847573208 a29.72431289006241,29.72431289006241 0 0,0 0.26593946661142287,0.4371345590346394 l -7.492125470706605 4.470088515331487" fill="#ff3605" stroke="none" /><path d="M 118.56541770881063 90.18545643968196 l 8.414265317198293 -4.448172121897627 a30.517672827652426,30.517672827652426 0 0,0 0.24151187361246054,0.466524068133843 l -8.489586623970869 4.30267533150344" fill="#ff4206" stroke="none" /><line stroke="#e1ed5e" stroke-width="0.3" x1="184.98032266829074" x2="189.97916517819016" y1="98.17113171792111" y2="98.06355123074" /><path d="M 185.9800911702706 98.14961562048488 a86.0,86.0 0 0,1 -9.607161424134198,41.387399972396054" fill="none" id="id76" stroke="none" /><text fill="#e1ed5e" style="font-size:6.75px; font-family:Arial;" text-anchor="middle"><textPath startOffset="21.466115282336823" xlink:href="#id76">April</textPath></text><line stroke="#e1ed5e" stroke-width="0.3" x1="174.80103733775053" x2="179.2010983576182" y1="140.37084112569926" y2="142.7455964860345" /><path d="M 175.68104954172406 140.8457921977663 a86.0,86.0 0 0,1 -30.038265399797805,32.042727171017184" fill="none" id="id77" stroke="none" /><text fill="#e1ed5e" style="font-size:6.75px; font-family:Arial;" text-anchor="middle"><textPath startOffset="22.206326154141568" xlink:href="#id77">May</textPath></text><line stroke="#e1ed5e" stroke-width="0.3" x1="143.8653032363475" x2="146.44561519142675" y1="172.8068346515853" y2="177.08958963109032" /><path d="M 144.38136562736335 173.6633856474863 a86.0,86.0 0 0,1 -40.68145358897372,12.25698825130547" fill="none" id="id78" stroke="none" /><text fill="#e1ed5e" style="font-size:6.75px; font-family:Arial;" text-anchor="middle"><textPath startOffset="21.466115282336833" xlink:href="#id78">June</textPath></text><line stroke="#e1ed5e" stroke-width="0.3" x1="102.19456741930631" x2="102.32365962044197" y1="184.97166512339345" y2="189.96999836594603" /><path d="M 102.22038585953345 185.97133177190398 a86.0,86.0 0 0,1 -42.740103519485714,-10.115201625700543" fill="none" id="id79" stroke="none" /><text fill="#e1ed5e" style="font-size:6.75px; font-family:Arial;" text-anchor="middle"><textPath startOffset="22.20632615414155" xlink:href="#id79">July</textPath></text><line stroke="#e1ed5e" stroke-width="0.3" x1="58.666819895761336" x2="56.23545636021788" y1="174.27360380694188" y2="178.64263932499728" /><path d="M 58.180547188652646 175.14741091055294 a86.0,86.0 0 0,1 -31.652253787137756,-30.449443065178592" fill="none" id="id80" stroke="none" /><text fill="#e1ed5e" style="font-size:6.75px; font-family:Arial;" text-anchor="middle"><textPath startOffset="22.20632615414155" xlink:href="#id80">August</textPath></text><line stroke="#e1ed5e" stroke-width="0.3" x1="26.63291911575756" x2="22.317208475507996" y1="142.92168965132927" y2="145.44649492493687" /><path d="M 25.769776987707644 143.4266507060508 a86.0,86.0 0 0,1 -11.730757126820373,-40.83630448921669" fill="none" id="id81" stroke="none" /><text fill="#e1ed5e" style="font-size:6.75px; font-family:Arial;" text-anchor="middle"><textPath startOffset="21.46611528233685" xlink:href="#id81">September</textPath></text><line stroke="#e1ed5e" stroke-width="0.3" x1="15.007084014347285" x2="10.007500721073583" y1="101.09737516637583" y2="101.16192664675087" /><path d="M 14.007167355692545 101.11028546245083 a86.0,86.0 0 0,1 10.666146001902534,-42.60595125391555" fill="none" id="id82" stroke="none" /><text fill="#e1ed5e" style="font-size:6.75px; font-family:Arial;" text-anchor="middle"><textPath startOffset="22.20632615414155" xlink:href="#id82">October</textPath></text><line stroke="#e1ed5e" stroke-width="0.3" x1="26.266209847984243" x2="21.928928074336255" y1="57.711370442889674" y2="55.22380399835377" /><path d="M 25.398753493254645 57.213857153982495 a86.0,86.0 0 0,1 29.58750427330803,-30.492523968695096" fill="none" id="id83" stroke="none" /><text fill="#e1ed5e" style="font-size:6.75px; font-family:Arial;" text-anchor="middle"><textPath startOffset="21.46611528233685" xlink:href="#id83">November</textPath></text><line stroke="#e1ed5e" stroke-width="0.3" x1="56.762969772571076" x2="54.21961505331055" y1="26.818313649435495" y2="22.513508569990535" /><path d="M 56.25429882871897 25.957352633546506 a86.0,86.0 0 0,1 42.265352541879196,-11.944610805530505" fill="none" id="id84" stroke="none" /><text fill="#e1ed5e" style="font-size:6.75px; font-family:Arial;" text-anchor="middle"><textPath startOffset="22.20632615414155" xlink:href="#id84">December</textPath></text></svg>