<?xml version="1.0" encoding="utf-8" ?>
<svg baseProfile="full" height="200mm" version="1.1" viewBox="0,0,200,200" width="200mm" xmlns="http://www.w3.org/2000/svg" xmlns:ev="http://www.w3.org/2001/xml-events" xmlns:xlink="http://www.w3.org/1999/xlink"><defs /><rect fill="#1a1a1a" height="200" width="200" x="0" y="0" /><text alignment-baseline="middle" fill="#e1ed5e" style="dominant-baseline: central; font-size:9.0px; font-family:Arial;" text-anchor="middle" x="100.0" y="100.0">2025</text><line stroke="#e1ed5e" stroke-width="0.3" x1="100.0" x2="100.0" y1="15.0" y2="10.0" /><path d="M 100.0 14.0 a86.0,86.0 0 0,1 42.46469731375804,11.215312516191453" fill="none" id="id61" stroke="none" /><text fill="#e1ed5e" style="font-size:6.75px; font-family:Arial;" text-anchor="middle"><textPath startOffset="22.20632615414155" xlink:href="#id61">January</textPath></text><path d="M 100.36148047927253 79.00311137660856 l 0.1727742250515102 -10.035731853902698 a31.037218976204485,31.037218976204485 0 0,0 0.5340963931249865,0.013794134096572196 l -0.34549725337136444 10.031270927663765" fill="#ff4206" stroke="none" /><path d="M 100.72285384407766 79.0124445844662 l 0.32809380598210264 -9.525974013915572 a30.53162244632668,30.53162244632668 0 0,0 0.525084540405645,0.022611244854538387 l -0.4920191787770791 9.51891504253684" fill="#ff3a05" stroke="none" /><path d="M 101.08401301168833 79.027996857942 l 1.5868528893067848 -30.70026228623728 a51.741246014696024,51.741246014696024 0 0,0 0.8890573905918338,0.0536303697109192 l -2.1150723287382305 30.668398647146056" fill="#a2ff22" stroke="none" /><path d="M 101.44485096284872 79.0497635885617 l 2.076302296333825 -30.106235929027385 a51.17774797827069,51.17774797827069 0 0,0 0.8783315456052555,0.06817543245128392 l -2.594224031301422 30.066035234387638" fill="#a9ff21" stroke="none" /><path d="M 101.80526077348638 79.07773832637324 l 1.2421372910110104 -14.395882200948057 a35.44937124560419,35.44937124560419 0 0,0 0.6074922843686933,0.057688712361801044 l -1.489754702469948 14.372367944071076" fill="#ff830c" stroke="none" /><path d="M 102.16513564639614 79.11191278185805 l 1.502390412889729 -14.494270616428297 a35.57192703985989,35.57192703985989 0 0,0 0.6085057434781146,0.0683727103893951 l -1.7516628598775688 14.466261952568301" fill="#ff850c" stroke="none" /><path d="M 102.52436894288641 79.15227682838746 l 3.442203528700862 -28.42774090884251 a49.63538402594382,49.63538402594382 0 0,0 0.8473121008646567,0.1100054287123547 l -3.9310303580733645 28.36427715696602" fill="#bcff1f" stroke="none" /><path d="M 103.2404852339499 79.25152402106235 l 2.264229252287433 -14.497614665760892 a35.673362433464234,35.673362433464234 0 0,0 0.6058879285161579,0.09997669965326549 l -2.513446386942466 14.456491703168004" fill="#ff870c" stroke="none" /><path d="M 103.59715602781102 79.31037775812273 l 5.003438731832252 -28.778083706027385 a50.20980145318208,50.20980145318208 0 0,0 0.8502309697717241,0.15537427518619173 l -5.498064822706877 28.687693949490455" fill="#b5ff20" stroke="none" /><path d="M 103.95276090670814 79.375362276772 l 3.7020658313452817 -19.316565914588804 a40.668121673211914,40.668121673211914 0 0,0 0.6863880183268722,0.1376829792731481 l -4.03402025913928 19.24997897923845" fill="#ffcd13" stroke="none" /><path d="M 104.307194497241 79.44645832069477 l 3.0052113054599516 -14.340595917239407 a35.652098356618,35.652098356618 0 0,0 0.5995618063730331,0.1310409884613955 l -3.2516158359865126 14.286741430682142" fill="#ff860c" stroke="none" /><path d="M 104.66035177308747 79.52364482259891 l 3.3064258734650465 -14.527562263387994 a35.89907773566317,35.89907773566317 0 0,0 0.6013545336808261,0.14232118913650893 l -3.5560040941083964 14.468495162110615" fill="#ff8a0c" stroke="none" /><path d="M 105.01212808612495 79.60689891045804 l 7.824553237556499 -31.83615869588823 a53.78360312529932,53.78360312529932 0 0,0 0.8971389575849837,0.2287006959205688 l -8.371401083826507 31.696755003798792" fill="#8aff24" stroke="none" /><path d="M 105.71112130821622 79.79150937346287 l 3.3979456439094884 -12.023444957409733 a33.49436926150436,33.49436926150436 0 0,0 0.5534701802345602,0.1615731227621144 l -3.6044060418674757 11.963173505728916" fill="#ff6709" stroke="none" /><path d="M 106.0581310904928 79.89281104454417 l 6.308808946811807 -20.93919918248198 a42.86895362679766,42.86895362679766 0 0,0 0.7047138023122123,0.21895800874941893 l -6.6683081218347375 20.827501038850038" fill="#ffeb16" stroke="none" /><path d="M 106.40334571778207 80.00007090966166 l 11.123908548317612 -34.74392793691302 a57.481253677426416,57.481253677426416 0 0,0 0.9397286565000809,0.30981376326942756 l -11.72032002706011 34.54730044938435" fill="#60ff29" stroke="none" /><path d="M 107.08798089147638 80.2323363322302 l 4.8547349314165125 -13.539365975974832 a35.38342387214187,35.38342387214187 0 0,0 0.5715563215290982,0.21050901678138503 l -5.087073578718187 13.453793691387123" fill="#ff820c" stroke="none" /><path d="M 107.4271985657038 80.35727306442388 l 5.125692856710653 -13.555930173311546 a35.4926177802712,35.4926177802712 0 0,0 0.5696004623896926,0.22099613013307454 l -5.358276484100013 13.465691339287925" fill="#ff840c" stroke="none" /><path d="M 108.09893153111575 80.62456947434976 l 5.622740371563331 -13.451529379454527 a35.57939820199505,35.57939820199505 0 0,0 0.5630291385985242,0.24105969385617557 l -5.85345326795217 13.35275015763556" fill="#ff850c" stroke="none" /><path d="M 108.43124777332544 80.76684994638697 l 2.5593355400644686 -5.838291769260841 a27.374625415634707,27.374625415634707 0 0,0 0.42993528392143215,0.19289942958282796 l -2.6594529424526807 5.793372009161481" fill="#ff0901" stroke="none" /><path d="M 108.76106565485865 80.91482961587045 l 5.4156503189370655 -11.797492810758653 a33.98114420984935,33.98114420984935 0 0,0 0.5294938471634864,0.248604460980608 l -5.61792237740015 11.702523367138042" fill="#ff6e0a" stroke="none" /><path d="M 109.08828744355905 81.06846463323043 l 6.6612952328818835 -13.875941652700593 a36.39203076038916,36.39203076038916 0 0,0 0.5623933158850708,0.2759639576574496 l -6.899159815777386 13.75922253490831" fill="#ff910d" stroke="none" /><path d="M 109.41281617654863 81.2277094730956 l 7.054363541680714 -14.068750457144183 a36.73829039011508,36.73829039011508 0 0,0 0.5628647446161111,0.2883211839776617 l -7.29548877388558 13.945236747854022" fill="#ff960d" stroke="none" /><path d="M 110.05341064243156 81.56283822128135 l 6.931434645597045 -12.71170416337225 a35.478681189365226,35.478681189365226 0 0,0 0.5336600352006473,0.2969812318076995 l -7.149218769869727 12.59050753400437" fill="#ff840c" stroke="none" /><line stroke="#e1ed5e" stroke-width="0.3" x1="143.23703022742887" x2="145.7803849466894" y1="26.81831364943548" y2="22.513508569990506" /><path d="M 143.74570117128098 25.957352633546492 a86.0,86.0 0 0,1 28.547481713284135,27.462654790039103" fill="none" id="id62" stroke="none" /><text fill="#e1ed5e" style="font-size:6.75px; font-family:Arial;" text-anchor="middle"><textPath startOffset="19.985693538727396" xlink:href="#id62">February</textPath></text><path d="M 112.19680574252982 82.90503203632743 l 4.177365494937417 -5.854969802420937 a28.19243031704547,28.19243031704547 0 0,0 0.3926194423613995,0.2852547221973046 l -4.277530253652605 5.782195845406958" fill="#ff1602" stroke="none" /><path d="M 112.48926042617603 83.11751280151076 l 8.562750833370508 -11.574787168762112 a35.397791491632574,35.397791491632574 0 0,0 0.4867261162698901,0.36659201988386436 l -8.760723103398782 11.4256785593724" fill="#ff830c" stroke="none" /><path d="M 112.77801427241765 83.33499621200491 l 3.5284181663823455 -4.601740212117255 a26.798771226447368,26.798771226447368 0 0,0 0.36365606482227075,0.28383932681070184 l -3.6071067863640467 4.540322496083329" fill="#ff0000" stroke="none" /><path d="M 113.06298171725822 83.55741782278167 l 38.0792861364254 -47.931001137418825 a82.21611636403443,82.21611636403443 0 0,0 1.1005081377693526,0.8898677121984686 l -38.89869767275924 47.268427327956225" fill="#4be4ff" stroke="none" /><path d="M 114.16331599549186 84.49514656593476 l 6.008280161632141 -6.5773794305344815 a29.908498789014928,29.908498789014928 0 0,0 0.3771206993744059,0.3504925899699401 l -6.120608744801393 6.472982254489901" fill="#ff3104" stroke="none" /><path d="M 114.42810811169701 84.74124197986012 l 6.477160560591062 -6.850061344600499 a30.42745720501909,30.42745720501909 0 0,0 0.377469640770168,0.36312549535209715 l -6.594113444973648 6.7375527624861" fill="#ff3805" stroke="none" /><path d="M 114.68862486808459 84.99185889309783 l 15.094727227739833 -15.423077261395083 a42.58059550361927,42.58059550361927 0 0,0 0.5194106750277874,0.5171801605210491 l -15.357973702934943 15.160961250223915" fill="#ffe715" stroke="none" /><path d="M 115.19652480421416 85.50635884689758 l 12.256657154866451 -11.689750967930317 a37.937411912809075,37.937411912809075 0 0,0 0.4466365687958786,0.4764407507572651 l -12.456061045632794 11.477040800294997" fill="#ffa70f" stroke="none" /><path d="M 115.4437574822437 85.77008943001954 l 12.699506108228332 -11.701351592109797 a38.26844186587485,38.26844186587485 0 0,0 0.44219432297476546,0.4882820158808792 l -12.899044071819132 11.48101678895937" fill="#ffac0f" stroke="none" /><path d="M 115.68641384162765 86.03803664274999 l 19.88946952832916 -17.70296560790328 a47.626790821143665,47.626790821143665 0 0,0 0.539788748909907,0.6170718519242584 l -20.191250140816912 17.357978199776078" fill="#d5ff1c" stroke="none" /><path d="M 116.15771136456269 86.58626213691792 l 11.772106862332762 -9.772915977063873 a36.300077995648664,36.300077995648664 0 0,0 0.39498202665474713,0.48420126147818243 l -11.938587381063918 9.568830545977589" fill="#ff900d" stroke="none" /><path d="M 116.38621287248628 86.86637796730983 l 33.63858713201455 -26.961476244911033 a64.11004228185165,64.11004228185165 0 0,0 0.6827594928230738,0.8670352205732464 l -34.097700705431585 26.37844863038475" fill="#32ff4b" stroke="none" /><path d="M 116.60985879189232 87.15038557335679 l 17.075783047490624 -13.21005981702674 a42.58907239911879,42.58907239911879 0 0,0 0.4435835627249722,0.5837039722652982 l -17.300642550439708 12.914171068880409" fill="#ffe715" stroke="none" /><path d="M 117.04232023915458 87.72973835380427 l 14.545705791071102 -10.472729850186221 a38.92360531465087,38.92360531465087 0 0,0 0.38680310575724525,0.5471055619252149 l -14.723821516632231 10.220797787929214" fill="#ffb510" stroke="none" /><path d="M 117.2510076193507 88.02491185347247 l 14.990561689999675 -10.40596013663238 a39.24831351514074,39.24831351514074 0 0,0 0.3804760188307547,0.5583016093593173 l -15.167462174499162 10.146380504002655" fill="#ffb911" stroke="none" /><path d="M 117.45458315368197 88.32363383020206 l 11.949108457447336 -7.9934401482600235 a35.37624006239652,35.37624006239652 0 0,0 0.3342269074650115,0.509050510059312 l -12.084932000270271 7.7865715742230375" fill="#ff820c" stroke="none" /><path d="M 117.65298651832404 88.62581576622439 l 7.8661964938797 -5.06835305445879 a30.357630574294276,30.357630574294276 0 0,0 0.2792503081101759,0.44170692532375 l -7.952274398235832 4.9321984814208335" fill="#ff3705" stroke="none" /><line stroke="#e1ed5e" stroke-width="0.3" x1="172.23445277983987" x2="176.4835382374775" y1="55.19839476539836" y2="52.563006222186495" /><path d="M 173.08426987136738 54.67131705675599 a86.0,86.0 0 0,1 12.851231095245387,41.99856678651699" fill="none" id="id63" stroke="none" /><text fill="#e1ed5e" style="font-size:6.75px; font-family:Arial;" text-anchor="middle"><textPath startOffset="22.20632615414155" xlink:href="#id63">March</textPath></text><path d="M 117.84615892207809 88.93136811851018 l 36.43345565464737 -22.59693587693979 a63.872114503085626,63.872114503085626 0 0,0 0.5714552973896734,0.9393222548552478 l -36.817026750323265 21.96644584887746" fill="#32ff48" stroke="none" /><path d="M 118.03404312379186 89.2402003453031 l 12.412053995731378 -7.405505985574527 a35.45339417906159,35.45339417906159 0 0,0 0.3081749578370336,0.5267708993237993 l -12.53768862803874 7.190755673896832" fill="#ff830c" stroke="none" /><path d="M 118.21658344932153 89.55222093294921 l 9.02964841000633 -5.178785138461638 a31.40934032101367,31.40934032101367 0 0,0 0.2649487919006215,0.47131433701054193 l -9.117454843199383 5.022587291516302" fill="#ff4706" stroke="none" /><path d="M 118.3937258080291 89.86733742301442 l 12.603732987038613 -6.943094341024597 a35.389601948522866,35.389601948522866 0 0,0 0.2893384774497053,0.5361002558152285 l -12.721379563706783 6.72511310187691" fill="#ff820c" stroke="none" /><path d="M 118.56541770881063 90.18545643968196 l 29.870911397939135 -15.791153514544646 a54.788043403894314,54.788043403894314 0 0,0 0.433583618540064,0.837545544125441 l -30.138304449639318 15.27463524815886" fill="#7eff26" stroke="none" /><path d="M 119.04729006885535 91.15688171328212 l 41.23924261257796 -19.146214456721356 a66.46705025930132,66.46705025930132 0 0,0 0.4728582527152564,1.0418804801214503 l -41.56270318225657 18.43351196775784" fill="#35ff69" stroke="none" /><path d="M 119.196687751892 91.48605970444005 l 8.72901480115383 -3.8714132258966414 a30.549007265910426,30.549007265910426 0 0,0 0.20905600710451314,0.4825300877205988 l -8.794361518101026 3.7205839935894396" fill="#ff3a05" stroke="none" /><path d="M 119.47837535516314 92.15188598940014 l 20.35966116285387 -8.203196576192118 a42.95013067692013,42.95013067692013 0 0,0 0.27039449090060425,0.6881244860050417 l -20.497849203636175 7.851523085291292" fill="#ffec16" stroke="none" /><path d="M 119.61058180528143 92.48833698450437 l 17.34954593698048 -6.6455928663656785 a39.57876876342688,39.57876876342688 0 0,0 0.2382178459263029,0.6383053926208967 l -17.46136837140841 6.345964336715449" fill="#ffbe11" stroke="none" /><path d="M 119.7369772167798 92.82701384747503 l 9.453796300999947 -3.435781944269188 a31.05877040544054,31.05877040544054 0 0,0 0.17828757553387237,0.5040429844973788 l -9.51153695734363 3.272541333345195" fill="#ff4206" stroke="none" /><path d="M 119.85752413597 93.16781622104841 l 11.238313628216895 -3.866656464709534 a32.884894842708775,32.884894842708775 0 0,0 0.17955576365217857,0.5368488790310404 l -11.303206685640845 3.6726344827561794" fill="#ff5e08" stroke="none" /><path d="M 119.97218684219823 93.5106431181261 l 22.840074921480504 -7.421190205424268 a45.01547597870856,45.01547597870856 0 0,0 0.23310410277374274,0.7390037072331096 l -22.964434508022453 7.026936331764739" fill="#f7ff19" stroke="none" /><path d="M 120.08093135843002 93.85539295169968 l 20.61921825285079 -6.309318604075692 a42.562923331645706,42.562923331645706 0 0,0 0.20834369143713885,0.7024313543289944 l -20.72476784139963 5.9534578630001675" fill="#ffe715" stroke="none" /><path d="M 120.18372546131832 94.20196356495316 l 10.257434403379294 -2.9465808239848914 a31.67226775769352,31.67226775769352 0 0,0 0.14601402500519825,0.525290135956811 l -10.306635198950856 2.7695793846091283" fill="#ff4b07" stroke="none" /><path d="M 120.28053869075195 94.5502522615342 l 10.166493821043746 -2.7319208603972926 a31.52715480083743,31.52715480083743 0 0,0 0.13632291912423025,0.525307817004178 l -10.212013072038278 2.556516617844264" fill="#ff4906" stroke="none" /><path d="M 120.37134235888165 94.90015583598534 l 19.68059939743738 -4.926920779846009 a41.287940778040806,41.287940778040806 0 0,0 0.1666601487024592,0.6909139116083509 l -19.76249234640066 4.587421636578252" fill="#ffd614" stroke="none" /><path d="M 120.53481517161879 95.60439243477599 l 8.655525328697546 -1.8527701514642747 a29.85160301583175,29.85160301583175 0 0,0 0.10323068709884302,0.5033894919262731 l -8.686135311711386 1.7035050033745898" fill="#ff3004" stroke="none" /><path d="M 120.6074358757038 95.95851677861258 l 11.293329412869785 -2.214821951212579 a32.508463212052376,32.508463212052376 0 0,0 0.10296556654060163,0.5500461736782858 l -11.329780703320246 2.0200977000717306" fill="#ff5808" stroke="none" /><path d="M 120.67395015179393 96.31383870115 l 62.02185045538181 -11.058483896549978 a84.0,84.0 0 0,0 0.2415525539191079,1.4256568467366484 l -62.20301487082114 9.98924126149749" fill="#4dd2ff" stroke="none" /><path d="M 120.78858239683441 97.02765380044208 l 8.579155331718606 -1.226645437330727 a29.666404400596598,29.666404400596598 0 0,0 0.06792759129280473,0.506139454934566 l -8.598998922069248 1.0787876403314964" fill="#ff2d04" stroke="none" /><path d="M 120.83666639777658 97.38593545837742 l 8.640340948419157 -1.0839742053557202 a29.708070497119635,29.708070497119635 0 0,0 0.059288321308513275,0.507946130203691 l -8.657719622731259 0.9350843368271765" fill="#ff2d04" stroke="none" /><path d="M 120.87857604477298 97.74499172005257 l 9.312094609807962 -1.0057606612510293 a30.3662511459887,30.3662511459887 0 0,0 0.0516557034852397,0.5201658846660299 l -9.32802743897543 0.8453192458805644" fill="#ff3805" stroke="none" /><path d="M 120.91429891909075 98.10471618934814 l 9.301555816392051 -0.8429203494165683 a30.3396710499309,30.3396710499309 0 0,0 0.04265687849980674,0.520521963608784 l -9.314687178711353 0.6826844686000155" fill="#ff3705" stroke="none" /><path d="M 120.94382443527127 98.46500227214037 l 30.423727125359505 -2.229791037199528 a51.5053297026587,51.5053297026587 0 0,0 0.05719399279946306,0.8847657539472875 l -30.45760170916338 1.705766218999205" fill="#a5ff21" stroke="none" /><path d="M 120.96714384426684 98.82574320788733 l 23.036573772000416 -1.290154415865883 a44.072672787728685,44.072672787728685 0 0,0 0.03590116223351457,0.7578167926232182 l -23.055368542467427 0.8934265166196651" fill="#fffb17" stroke="none" /><line stroke="#e1ed5e" stroke-width="0.3" x1="184.98032266829074" x2="189.97916517819016" y1="98.17113171792111" y2="98.06355123074" /><path d="M 185.9800911702706 98.14961562048488 a86.0,86.0 0 0,1 -9.607161424134198,41.387399972396054" fill="none" id="id64" stroke="none" /><text fill="#e1ed5e" style="font-size:6.75px; font-family:Arial;" text-anchor="middle"><textPath startOffset="21.466115282336823" xlink:href="#id64">April</textPath></text><path d="M 120.99513854157772 99.54816195383933 l 12.227317483851609 -0.2631450719293283 a33.230148739070344,33.230148739070344 0 0,0 0.007384993697261659,0.5719759004015125 l -12.230035484666587 0.05263291346735303" fill="#ff6309" stroke="none" /><path d="M 120.99980553446 99.90962569577887 l 30.860067805258517 -0.13280871346834844 a51.86035358027394,51.86035358027394 0 0,0 -0.0038418710777221084,0.8927155369654587 l -30.857781636891293 -0.398416301700795" fill="#a1ff22" stroke="none" /><path d="M 120.9904718944345 100.63252640178507 l 43.33591363276817 1.3058834339723118 a64.35558489894774,64.35558489894774 0 0,0 -0.04289718703326592,1.1069857879629406 l -43.307014312883695 -2.051646468949259" fill="#33ff4e" stroke="none" /><path d="M 120.95626037817324 101.35467743843564 l 54.50761147199764 3.523540467221834 a75.62137901780217,75.62137901780217 0 0,0 -0.09515128915232292,1.2982637424322458 l -54.43888362418098 -4.46127734615085" fill="#42ffd5" stroke="none" /><path d="M 120.89721153311464 102.0752229133903 l 14.310876892811473 1.4211589709760544 a35.38126872921826,35.38126872921826 0 0,0 -0.06540092485909789,0.6055313389363646 l -14.284293666451322 -1.6672866317972104" fill="#ff820c" stroke="none" /><path d="M 120.8583938346157 102.4346265915055 l 29.244734826700007 3.413494329196651 a50.443275269905996,50.443275269905996 0 0,0 -0.1080891074186457,0.8615765359480475 l -29.181644210034513 -3.9163886194320936" fill="#b2ff20" stroke="none" /><path d="M 120.81339534386255 102.79330883721812 l 9.482240134593557 1.2725855021244716 a30.56725414266362,30.56725414266362 0 0,0 -0.07447631266790991,0.5208871573370366 l -9.458929770909046 -1.4356181314419174" fill="#ff3b05" stroke="none" /><path d="M 120.70491114924044 103.5080841355445 l 24.12182636544457 4.087020503639277 a45.46561349735225,45.46561349735225 0 0,0 -0.1373788060780191,0.770493301434208 l -24.04790111702736 -4.501632555806703" fill="#f1ff19" stroke="none" /><path d="M 120.64145759157962 103.86396538481128 l 21.168926045107565 3.9627045284482745 a42.536630587977726,42.536630587977726 0 0,0 -0.14091791623785838,0.7185374189460414 l -21.09757819589404 -4.32650567446226" fill="#ffe615" stroke="none" /><path d="M 120.49622156327973 104.57218783832717 l 11.986114982836407 2.673798630841221 a33.280722759677616,33.280722759677616 0 0,0 -0.12954035446658183,0.5580564566559739 l -11.938314062439273 -2.87972374484576" fill="#ff6409" stroke="none" /><path d="M 120.41448212921028 104.9243191809786 l 27.650238763532947 6.669706350624458 a49.44328895335313,49.44328895335313 0 0,0 -0.20669339781640036,0.8256373792652957 l -27.531334051421485 -7.14467156928715" fill="#beff1e" stroke="none" /><path d="M 120.13307415673323 105.97154293290107 l 29.058807741947955 8.618947939052173 a51.310073753780046,51.310073753780046 0 0,0 -0.2584396239945565,0.8445956444307802 l -28.906141345447264 -9.11787055603501" fill="#a8ff21" stroke="none" /><path d="M 120.02730092923936 106.31721596034902 l 30.222778601567608 9.533177736854881 a52.690658310641616,52.690658310641616 0 0,0 -0.2802835634454216,0.8626241089567959 l -30.05420278710594 -10.052000745789472" fill="#97ff23" stroke="none" /><path d="M 119.79798401119884 107.00284435728193 l 9.779658499531726 3.4592121248734617 a31.373421272286915,31.373421272286915 0 0,0 -0.18446935125666508,0.5075804282244851 l -9.718664887269833 -3.6270403501040778" fill="#ff4706" stroke="none" /><path d="M 119.67450827220406 107.3425965602758 l 12.621207421400015 4.710279561590147 a34.471511063067005,34.471511063067005 0 0,0 -0.21225540816715624,0.5541318928829515 l -12.538257733639353 -4.926835021306242" fill="#ff750a" stroke="none" /><path d="M 119.54520255179757 107.68017299344265 l 13.576883287612423 5.334956856256976 a35.58744406890984,35.58744406890984 0 0,0 -0.2289414599509992,0.5682139282459041 l -13.483039213404032 -5.5678701523456935" fill="#ff850c" stroke="none" /><path d="M 119.26925614724726 108.34839909993367 l 40.87937320328427 17.710975444420804 a65.55111451676908,65.55111451676908 0 0,0 -0.4574809637254184,1.0314988017535558 l -40.56845115482758 -18.412022582667046" fill="#34ff5d" stroke="none" /><path d="M 119.12269723197855 108.67885076344098 l 8.533399955245331 3.872890095884529 a30.371136136615533,30.371136136615533 0 0,0 -0.22015513501933065,0.4741945749113799 l -8.465470203386168 -4.019204738074739" fill="#ff3805" stroke="none" /><path d="M 118.81262510543309 109.33194174019688 l 13.166598006221747 6.531248287894115 a35.697500034208616,35.697500034208616 0 0,0 -0.27779680670928947,0.5481194542273092 l -13.052222529726189 -6.7569219538241185" fill="#ff870c" stroke="none" /><path d="M 118.64920377521936 109.65438752849418 l 21.926804975106023 11.351148019127582 a45.690754094771556,45.690754094771556 0 0,0 -0.3675875381726119,0.6953370932419387 l -21.72816492870852 -11.726900127455654" fill="#eeff19" stroke="none" /><line stroke="#e1ed5e" stroke-width="0.3" x1="174.80103733775053" x2="179.2010983576182" y1="140.37084112569926" y2="142.7455964860345" /><path d="M 175.68104954172406 140.8457921977663 a86.0,86.0 0 0,1 -30.038265399797805,32.042727171017184" fill="none" id="id65" stroke="none" /><text fill="#e1ed5e" style="font-size:6.75px; font-family:Arial;" text-anchor="middle"><textPath startOffset="22.206326154141568" xlink:href="#id65">May</textPath></text><path d="M 118.48025628344425 109.97397251340804 l 32.236327787160455 17.398256947896964 a57.63168265349407,57.63168265349407 0 0,0 -0.4786821437035042,0.8689471334494304 l -31.93206923400544 -17.9505745997442" fill="#5eff2a" stroke="none" /><path d="M 118.12598468904814 110.60418214915192 l 26.565935839022487 15.54177758794473 a51.77817079678714,51.77817079678714 0 0,0 -0.4566813072823114,0.7654241392648701 l -26.294473656041948 -15.996763821095705" fill="#a2ff22" stroke="none" /><path d="M 117.94076556474637 110.91462005526583 l 25.88008397509488 15.744661651540154 a51.29311996278102,51.29311996278102 0 0,0 -0.46538824260299466,0.7503540299184502 l -25.60523109282392 -16.187812012823876" fill="#a8ff21" stroke="none" /><path d="M 117.75023020441432 111.22182372390056 l 21.140045448429994 13.364889401745929 a46.01043362843968,46.01043362843968 0 0,0 -0.4289818637315002,0.665789378949068 l -20.90685872132144 -13.726800380616451" fill="#eaff1a" stroke="none" /><path d="M 117.55443506779139 111.5257021239791 l 7.801383973012528 5.122148760725677 a30.332630916380456,30.332630916380456 0 0,0 -0.2903221247102489,0.43399218501866743 l -7.712058742891558 -5.2556778599501515" fill="#ff3705" stroke="none" /><path d="M 117.14729908036423 112.12312394758627 l 20.9708973591729 14.82640425094646 a46.68269454440963,46.68269454440963 0 0,0 -0.469539449244596,0.652149227919981 l -20.7125781175527 -15.185187084317572" fill="#e1ff1b" stroke="none" /><path d="M 116.93607887273984 112.41649034213515 l 11.648609139697978 8.540043062457038 a35.443767874002816,35.443767874002816 0 0,0 -0.364967403267979,0.4889334787981012 l -11.499880469734906 -8.739289420764454" fill="#ff830c" stroke="none" /><path d="M 116.498646956653 112.99209946851258 l 24.025543672054944 18.91926374281018 a51.580472352595066,51.580472352595066 0 0,0 -0.5553057565081702,0.6928293134073169 l -23.69632000349192 -19.330020889795748" fill="#a4ff21" stroke="none" /><path d="M 116.27256486870786 113.27417163493432 l 11.299458314881884 9.217412882585 a35.58212804969828,35.58212804969828 0 0,0 -0.3912407475702611,0.4712746840457107 l -11.13912156741808 -9.410548823744483" fill="#ff850c" stroke="none" /><path d="M 116.0416608686014 113.55231037782055 l 8.121693082172545 6.861365936144285 a31.632038423119553,31.632038423119553 0 0,0 -0.35496794247395497,0.41290791104664465 l -8.002382630127812 -7.000150946352457" fill="#ff4b07" stroke="none" /><path d="M 115.80600337817218 113.82643327865902 l 14.781698401515817 12.93041395752591 a40.6390990818407,40.6390990818407 0 0,0 -0.4651070391707025,0.5225526890741535 l -14.556932512696777 -13.18294081634093" fill="#ffcd13" stroke="none" /><path d="M 115.56566222782051 114.09645910891815 l 10.968018724724862 9.932775438400414 a35.797211313474094,35.797211313474094 0 0,0 -0.41755502357007895,0.4531735099665976 l -10.79541729315906 -10.120100203168347" fill="#ff880c" stroke="none" /><path d="M 115.32070863581623 114.36230785411682 l 8.687486020555612 8.144032477314227 a32.907883033893896,32.907883033893896 0 0,0 -0.3909667249973263,0.40992704809532843 l -8.546012744179322 -8.292366641992063" fill="#ff5e08" stroke="none" /><path d="M 115.07121518719521 114.62390073753431 l 30.93701983151692 30.018807475831068 a64.1071687579535,64.1071687579535 0 0,0 -0.7752674527251985,0.7853418365223469 l -30.415711753736186 -30.54688980633408" fill="#32ff4b" stroke="none" /><path d="M 114.81725581225074 114.88116024355365 l 15.279629779216673 15.345528354764825 a42.65530712497092,42.65530712497092 0 0,0 -0.5247619346267315,0.5135900007788085 l -15.013217892214147 -15.606268458466205" fill="#ffe815" stroke="none" /><path d="M 114.29624159901734 115.38237550388516 l 8.357944230621037 8.992925567568772 a33.277130854804945,33.277130854804945 0 0,0 -0.42293720083797914,0.38634310522125004 l -8.201907480316192 -9.135461439376606" fill="#ff6309" stroke="none" /><path d="M 114.0293411484842 115.62618273729858 l 19.65002339813143 21.88661984633328 a50.41339062136534,50.41339062136534 0 0,0 -0.6507111925632565,0.5741769705440248 l -19.270369852661588 -22.22161995864959" fill="#b2ff20" stroke="none" /><path d="M 113.75828350139079 115.86535959552629 l 9.625960149828446 11.100172431669717 a35.69261504358178,35.69261504358178 0 0,0 -0.4676319347492756,0.39852607985149807 l -9.433462738502122 -11.264222901744162" fill="#ff870c" stroke="none" /><path d="M 113.20401910651253 116.32954008644616 l 21.175737186560593 26.188242114663264 a54.67841846718025,54.67841846718025 0 0,0 -0.7369674598666948,0.5854915213859363 l -20.721812233976546 -26.54886755005433" fill="#80ff26" stroke="none" /><path d="M 112.92097659922987 116.55440617244103 l 18.710407213777884 23.97184750625669 a51.40935400446081,51.40935400446081 0 0,0 -0.7022793690756082,0.5384778734786122 l -18.294999116208782 -24.290364721562675" fill="#a6ff21" stroke="none" /><path d="M 112.34349029814194 116.9893568818739 l 7.3446815945964365 10.10908695841992 a33.495518671063614,33.495518671063614 0 0,0 -0.4693721802105461,0.3348845879758998 l -7.169582086537006 -10.23401580824004" fill="#ff6709" stroke="none" /><path d="M 112.04921762599082 117.19931262002967 l 10.64349480502234 15.192753604712797 a39.55003352444548,39.55003352444548 0 0,0 -0.5609383427709643,0.38581850706676024 l -10.380399577628493 -15.37371290114465" fill="#ffbe11" stroke="none" /><path d="M 111.45004920935366 117.60387380957326 l 6.857009738125752 10.54230701841626 a33.576121016406454,33.576121016406454 0 0,0 -0.4872026233511219,0.3109557654169869 l -6.6745253127277 -10.658777212657055" fill="#ff6809" stroke="none" /><path d="M 111.1453310114006 117.79835938074945 l 16.117654492137117 25.73883240725368 a51.368837317497025,51.368837317497025 0 0,0 -0.7534604937658338,0.46283697457558265 l -15.672214798438972 -26.01245784865764" fill="#a7ff21" stroke="none" /><line stroke="#e1ed5e" stroke-width="0.3" x1="143.8653032363475" x2="146.44561519142675" y1="172.8068346515853" y2="177.08958963109032" /><path d="M 144.38136562736335 173.6633856474863 a86.0,86.0 0 0,1 -40.68145358897372,12.25698825130547" fill="none" id="id66" stroke="none" /><text fill="#e1ed5e" style="font-size:6.75px; font-family:Arial;" text-anchor="middle"><textPath startOffset="21.466115282336833" xlink:href="#id66">June</textPath></text><path d="M 110.5260780823613 118.17145234162733 l 20.163184285241815 34.80824856398256 a61.22646105006773,61.22646105006773 0 0,0 -0.9165054061019032,0.5204156889064562 l -19.561030112218713 -35.150167418683644" fill="#37ff2e" stroke="none" /><path d="M 109.89434966115114 118.52300852407294 l 5.081548225010411 9.513061930379024 a31.78519724689044,31.78519724689044 0 0,0 -0.4848137068175616,0.2536316176961057 l -4.917043615666354 -9.599122967019847" fill="#ff4d07" stroke="none" /><path d="M 109.57404056367764 118.69057910512821 l 14.033939168370505 27.397257034623326 a51.78248108263434,51.78248108263434 0 0,0 -0.7968241148735555,0.39954415299487916 l -13.56026114581419 -27.634769028527504" fill="#a2ff22" stroke="none" /><path d="M 108.92500713936063 119.00905698771935 l 13.630355999836343 29.030813075893278 a53.071400227145226,53.071400227145226 0 0,0 -0.8302692135263549,0.381135873796602 l -13.12861879054257 -29.261136020023955" fill="#92ff23" stroke="none" /><path d="M 108.59647513512805 119.15986991738527 l 4.42351289246258 9.859149275163613 a31.806030295151956,31.806030295151956 0 0,0 -0.5014437643778074,0.21981821022938053 l -4.253148453427019 -9.933832038687449" fill="#ff4d07" stroke="none" /><path d="M 108.2653958097858 119.30500536409082 l 4.5304109132687005 10.581417877004776 a32.51047467878108,32.51047467878108 0 0,0 -0.5163414843170762,0.21583078232107217 l -4.347597969454163 -10.65783370234582" fill="#ff5808" stroke="none" /><path d="M 107.93186726928326 119.44442032107085 l 5.427306999090182 13.304665209221929 a35.36905625265117,35.36905625265117 0 0,0 -0.5657009788359608,0.2251040942164804 l -5.197484944212355 -13.396116147844477" fill="#ff820c" stroke="none" /><path d="M 107.59598834532513 119.57807347666477 l 9.083567677823222 23.41219435073637 a46.112587403018566,46.112587403018566 0 0,0 -0.7424780475597714,0.28074166626604063 l -8.679219409503176 -23.565084267109043" fill="#e8ff1a" stroke="none" /><path d="M 106.57524785965236 119.94407469862006 l 11.418803548224298 34.63557204164373 a57.469328553249134,57.469328553249134 0 0,0 -0.9421649110875917,0.30165145194298554 l -10.820917292045767 -34.82699634024642" fill="#60ff29" stroke="none" /><path d="M 106.2309692047433 120.05430185196036 l 4.274226094374552 13.756546929306174 a35.405262653767736,35.405262653767736 0 0,0 -0.5835546400469127,0.1758202260744289 l -4.036796479887394 -13.828082524486328" fill="#ff830c" stroke="none" /><path d="M 105.88484417918355 120.15858648285463 l 3.506056506638549 12.010027988991537 a33.511323052503386,33.511323052503386 0 0,0 -0.5551211812163596,0.15688279076734818 l -3.298804157317584 -12.068599573097405" fill="#ff6709" stroke="none" /><path d="M 105.18746579009965 120.34920634021253 l 8.094834480959 31.754128857539396 a53.769666534393345,53.769666534393345 0 0,0 -0.898841181778651,0.22091329378388913 l -7.547040014437137 -31.888763409637317" fill="#8aff24" stroke="none" /><path d="M 104.13013068566511 120.58985236759428 l 7.226499511172495 36.02611379488896 a57.74375008552155,57.74375008552155 0 0,0 -0.9762333969732412,0.187097453984989 l -6.6052984996275494 -36.14516844722241" fill="#5dff2a" stroke="none" /><path d="M 103.7750983002368 120.6578951692458 l 2.6134242929726037 14.30104351815203 a35.53787578166692,35.53787578166692 0 0,0 -0.6027071910161524,0.10478837070212974 l -2.3668681304844013 -14.343910467375165" fill="#ff850c" stroke="none" /><path d="M 103.41894727170886 120.7198165907248 l 2.3495584263132447 14.239008616845366 a35.43155539743572,35.43155539743572 0 0,0 -0.6026133754539101,0.09411581587589311 l -2.1041091872508173 -14.277342740068365" fill="#ff830c" stroke="none" /><path d="M 103.06178313531738 120.77559828337769 l 1.5287758324014602 10.37344291074906 a31.485488704314392,31.485488704314392 0 0,0 -0.5368596808345234,0.07440385988711215 l -1.3499875603801064 -10.398221336128774" fill="#ff4906" stroke="none" /><path d="M 102.70371172650421 120.8252237178851 l 3.629668527133791 27.957366296983444 a49.19199928846075,49.19199928846075 0 0,0 -0.8406504547573608,0.10179106285823693 l -3.14789064932505 -28.015702888567034" fill="#c2ff1e" stroke="none" /><path d="M 101.98527174616119 120.90594882070398 l 1.2582995208355983 13.25055143436746 a34.310162696186424,34.310162696186424 0 0,0 -0.5884285740116061,0.05077209334403347 l -1.0300266290824507 -13.270247779990157" fill="#ff730a" stroke="none" /><path d="M 101.62511606390274 120.93702456842531 l 2.13210175294528 27.468725326974443 a48.55134713537034,48.55134713537034 0 0,0 -0.8337820853030357,0.05750249424862745 l -1.6589569068633137 -27.501356165739356" fill="#caff1d" stroke="none" /><path d="M 101.26447882468166 120.96189622390904 l 1.404611198364245 23.284940483257415 a44.32726700510393,44.32726700510393 0 0,0 -0.7620320134982859,0.039388350858033876 l -1.0035911164524796 -23.305668640877652" fill="#fffe18" stroke="none" /><line stroke="#e1ed5e" stroke-width="0.3" x1="102.19456741930631" x2="102.32365962044197" y1="184.97166512339345" y2="189.96999836594603" /><path d="M 102.22038585953345 185.97133177190398 a86.0,86.0 0 0,1 -42.740103519485714,-10.115201625700543" fill="none" id="id67" stroke="none" /><text fill="#e1ed5e" style="font-size:6.75px; font-family:Arial;" text-anchor="middle"><textPath startOffset="22.20632615414155" xlink:href="#id67">July</textPath></text><path d="M 100.54218724476979 120.99299961872073 l 0.3811951509081269 14.759531388589238 a35.76445314103529,35.76445314103529 0 0,0 -0.6155578587673781,0.010597386774691513 l -0.12707760224808082 -14.763906252643089" fill="#ff880c" stroke="none" /><path d="M 100.18074693466247 120.99922214144158 l 0.31602827772245606 36.716240965658145 a57.71760101804846,57.71760101804846 0 0,0 -0.9935504247697978,0.0 l 0.3160282777224308 -36.716240965658145" fill="#5dff2a" stroke="none" /><path d="M 99.45781275523022 120.99299961872073 l -0.333854572524187 12.926547021010018 a33.93085754163189,33.93085754163189 0 0,0 -0.5837394419056454,-0.020105166665048642 l 0.5563143661044755 -12.918885055918874" fill="#ff6d0a" stroke="none" /><path d="M 99.09653310690486 120.98055641714683 l -0.6198578292550755 14.394508815639385 a35.40784882527606,35.40784882527606 0 0,0 -0.6086978998921947,-0.03146272862925686 l 0.8675437975607592 -14.381706280247927" fill="#ff830c" stroke="none" /><path d="M 98.73552117531835 120.96189622390904 l -1.827223030343119 30.29078762915003 a51.345849126311904,51.345849126311904 0 0,0 -0.8817726321130815,-0.060812203332782394 l 2.3483584232351307 -30.254847081300966" fill="#a7ff21" stroke="none" /><path d="M 97.65516085044442 120.86867818915974 l -1.6160655418678023 14.382714367516911 a35.47322149395876,35.47322149395876 0 0,0 -0.6062079242955155,-0.0734033373537418 l 1.8634008892147071 -14.35276550143782" fill="#ff840c" stroke="none" /><path d="M 97.2962882734958 120.8252237178851 l -2.405634177203496 18.529294167181074 a39.684801795268264,39.684801795268264 0 0,0 -0.6766663279668135,-0.09377978725857336 l 2.7242290963571407 -18.485139814429896" fill="#ffbf11" stroke="none" /><path d="M 96.58105272829116 120.7198165907248 l -4.948937988502077 29.992006103499175 a51.39757255647843,51.39757255647843 0 0,0 -0.8716808728490348,-0.15155289301270794 l 5.4644678328231615 -29.90237463196546" fill="#a7ff21" stroke="none" /><path d="M 96.22490169976321 120.6578951692458 l -2.8648616156201028 15.676945664213306 a36.93656353908677,36.93656353908677 0 0,0 -0.6244607744193396,-0.11967939364663262 l 3.1342900046111373 -15.625309072218204" fill="#ff990e" stroke="none" /><path d="M 95.86986931433489 120.58985236759428 l -2.1094009091617507 10.515951336468525 a31.725427949809117,31.725427949809117 0 0,0 -0.5345108237356786,-0.11201194006520838 l 2.2901031943268157 -10.478083415676776" fill="#ff4c07" stroke="none" /><path d="M 95.16358092515715 120.4354850818985 l -7.59346450207415 32.084922367300074 a53.97124423584789,53.97124423584789 0 0,0 -0.902210857491254,-0.22174147809024383 l 8.144628644308614 -31.949459630895802" fill="#88ff25" stroke="none" /><path d="M 94.81253420990036 120.34920634021253 l -2.48651395885648 9.754008539807133 a31.06595421518589,31.06595421518589 0 0,0 -0.5170403762565795,-0.13655506267621523 l 2.6540447779245486 -9.709762127827336" fill="#ff4206" stroke="none" /><path d="M 94.46302465271185 120.25689768951611 l -2.656620784845743 9.71918639024087 a31.075724196439566,31.075724196439566 0 0,0 -0.5147750417389818,-0.14548056874434678 l 2.823526994689338 -9.672017028158" fill="#ff4206" stroke="none" /><path d="M 94.11515582081647 120.15858648285463 l -8.50395857759125 29.13038633025804 a51.34628015489662,51.34628015489662 0 0,0 -0.8462967871910424,-0.25498227970225723 l 9.004130339222538 -28.979688681450057" fill="#a7ff21" stroke="none" /><path d="M 93.08242187328487 119.8279376855182 l -4.917395543066607 14.094790202141047 a35.92795665083948,35.92795665083948 0 0,0 -0.582170517848752,-0.20874563506565366 l 5.159285621545085 -14.008057026035434" fill="#ff8a0c" stroke="none" /><path d="M 92.7421414339146 119.70592522655815 l -9.541897649186549 25.907355438555765 a48.60867393713825,48.60867393713825 0 0,0 -0.7826685803571402,-0.2959382868028198 l 9.986436450303973 -25.739268901646312" fill="#c9ff1d" stroke="none" /><path d="M 92.40401165467489 119.57807347666478 l -4.549475347478182 11.725921444840054 a33.577557778355526,33.577557778355526 0 0,0 -0.5370473321779234,-0.21370221686737337 l 4.750643755697964 -11.645872383566614" fill="#ff6809" stroke="none" /><path d="M 92.06813273071674 119.44442032107085 l -4.683840286886043 11.48210833124632 a33.40069238242498,33.40069238242498 0 0,0 -0.5304801991468777,-0.2217407662666137 l 4.880791945530383 -11.399782521959732" fill="#ff6509" stroke="none" /><path d="M 91.7346041902142 119.30500536409082 l -14.16622859778492 33.08723809032711 a56.99232358615782,56.99232358615782 0 0,0 -0.8985228591710818,-0.39388601630781633 l 14.733672131613746 -32.83848752072485" fill="#65ff29" stroke="none" /><path d="M 91.40352486487194 119.15986991738527 l -9.258022954122866 20.634331246805704 a43.61606984031417,43.61606984031417 0 0,0 -0.6823464210184106,-0.3132317749110191 l 9.611837370908697 -20.471912401560612" fill="#fff517" stroke="none" /><path d="M 90.7491055286396 118.85261126421891 l -6.706426965869016 13.667182233115557 a36.223929612347945,36.223929612347945 0 0,0 -0.5574105382192845,-0.279497215516105 l 6.940691411771061 -13.54971717669015" fill="#ff8f0d" stroke="none" /><path d="M 90.42595943632237 118.69057910512821 l -13.082246968279692 25.53934989173798 a49.69500964683023,49.69500964683023 0 0,0 -0.7579887470911087,-0.39654388771748794 l 13.519926617897296 -25.310376585075776" fill="#bbff1f" stroke="none" /><line stroke="#e1ed5e" stroke-width="0.3" x1="58.666819895761336" x2="56.23545636021788" y1="174.27360380694188" y2="178.64263932499728" /><path d="M 58.180547188652646 175.14741091055294 a86.0,86.0 0 0,1 -31.652253787137756,-30.449443065178592" fill="none" id="id68" stroke="none" /><text fill="#e1ed5e" style="font-size:6.75px; font-family:Arial;" text-anchor="middle"><textPath startOffset="22.20632615414155" xlink:href="#id68">August</textPath></text><path d="M 89.7882731507175 118.34994917583269 l -10.855051248429968 19.505970111582528 a43.322970402703845,43.322970402703845 0 0,0 -0.648506150796476,-0.3682387173931164 l 11.18920616614765 -19.316228228394777" fill="#fff116" stroke="none" /><path d="M 89.1626897886671 117.98757091392108 l -15.644039363782174 25.965692773280395 a51.31424036343236,51.31424036343236 0 0,0 -0.752659684362393,-0.4623450520334362 l 16.088678248076874 -25.69255925441858" fill="#a8ff21" stroke="none" /><path d="M 88.24862548938628 117.40417183066458 l -16.243946484889328 24.05781856205766 a50.02833841901452,50.02833841901452 0 0,0 -0.7095521986599824,-0.48803647228070945 l 16.6556555681722 -23.774641300411847" fill="#b7ff1f" stroke="none" /><line stroke="#e1ed5e" stroke-width="0.3" x1="26.63291911575756" x2="22.317208475507996" y1="142.92168965132927" y2="145.44649492493687" /><path d="M 25.769776987707644 143.4266507060508 a86.0,86.0 0 0,1 -11.730757126820373,-40.83630448921669" fill="none" id="id69" stroke="none" /><text fill="#e1ed5e" style="font-size:6.75px; font-family:Arial;" text-anchor="middle"><textPath startOffset="21.46611528233685" xlink:href="#id69">September</textPath></text><line stroke="#e1ed5e" stroke-width="0.3" x1="15.007084014347285" x2="10.007500721073583" y1="101.09737516637583" y2="101.16192664675087" /><path d="M 14.007167355692545 101.11028546245083 a86.0,86.0 0 0,1 10.666146001902534,-42.60595125391555" fill="none" id="id70" stroke="none" /><text fill="#e1ed5e" style="font-size:6.75px; font-family:Arial;" text-anchor="middle"><textPath startOffset="22.20632615414155" xlink:href="#id70">October</textPath></text><line stroke="#e1ed5e" stroke-width="0.3" x1="26.266209847984243" x2="21.928928074336255" y1="57.711370442889674" y2="55.22380399835377" /><path d="M 25.398753493254645 57.213857153982495 a86.0,86.0 0 0,1 29.58750427330803,-30.492523968695096" fill="none" id="id71" stroke="none" /><text fill="#e1ed5e" style="font-size:6.75px; font-family:Arial;" text-anchor="middle"><textPath startOffset="21.46611528233685" xlink:href="#id71">November</textPath></text><line stroke="#e1ed5e" stroke-width="0.3" x1="56.762969772571076" x2="54.21961505331055" y1="26.818313649435495" y2="22.513508569990535" /><path d="M 56.25429882871897 25.957352633546506 a86.0,86.0 0 0,1 42.265352541879196,-11.944610805530505" fill="none" id="id72" stroke="none" /><text fill="#e1ed5e" style="font-size:6.75px; font-family:Arial;" text-anchor="middle"><textPath startOffset="22.20632615414155" xlink:href="#id72">December</textPath></text></svg>