<?xml version="1.0" encoding="utf-8" ?>
<svg baseProfile="full" height="200mm" version="1.1" viewBox="0,0,200,200" width="200mm" xmlns="http://www.w3.org/2000/svg" xmlns:ev="http://www.w3.org/2001/xml-events" xmlns:xlink="http://www.w3.org/1999/xlink"><defs /><rect fill="#1a1a1a" height="200" width="200" x="0" y="0" /><text alignment-baseline="middle" fill="#e1ed5e" style="dominant-baseline: central; font-size:9.0px; font-family:Arial;" text-anchor="middle" x="100.0" y="100.0">2024</text><line stroke="#e1ed5e" stroke-width="0.3" x1="100.0" x2="100.0" y1="15.0" y2="10.0" /><path d="M 100.0 14.0 a86.0,86.0 0 0,1 42.35913384403234,11.155469271406648" fill="none" id="id49" stroke="none" /><text fill="#e1ed5e" style="font-size:6.75px; font-family:Arial;" text-anchor="middle"><textPath startOffset="22.145653131862478" xlink:href="#id49">January</textPath></text><path d="M 100.0 79.0 l 0.0 -62.39158412905522 a83.39158412905522,83.39158412905522 0 0,0 1.4315274319267834,0.012287941302857878 l -1.0710345070779288 62.382390585946794" fill="#49edff" stroke="none" /><path d="M 100.36049292484886 79.00309439819443 l 1.0814787745465644 -62.990716805416696 a84.0,84.0 0 0,0 1.4415467437170346,0.03712913059981959 l -2.1626388323343404 62.96286995746683" fill="#4dd2ff" stroke="none" /><path d="M 101.80034050326958 79.07731436759882 l 5.357884236614927 -62.26673639453524 a83.49682699721248,83.49682699721248 0 0,0 1.4270022697745524,0.135138598596316 l -6.425986069774493 62.165586040433745" fill="#4ae8ff" stroke="none" /><path d="M 102.15924093988457 79.11130261209362 l 5.134680333618511 -49.67337442125615 a70.93805231006465,70.93805231006465 0 0,0 1.2102170168124207,0.13560734100496497 l -5.986633252031728 49.57791131974421" fill="#ff0000" stroke="none" /><path d="M 102.87502721639298 79.19773525538626 l 8.56898272537885 -62.000890366871396 a83.5902378269379,83.5902378269379 0 0,0 1.4197399642453248,0.20865288331329734 l -9.632047795231857 61.84465641025922" fill="#4be4ff" stroke="none" /><path d="M 103.58742460773223 79.30868818359171 l 10.674614791206547 -61.568341447187024 a83.48686317537513,83.48686317537513 0 0,0 1.4099947891943403,0.2569480199888902 l -11.729944313951941 61.37602525326677" fill="#4ae8ff" stroke="none" /><path d="M 104.29559338865022 79.4440306129975 l 12.791370657377643 -61.211339123854806 a83.53356859023783,83.53356859023783 0 0,0 1.4011267776859608,0.30536905988378804 l -13.840259851682738 60.9827386058373" fill="#4ae6ff" stroke="none" /><path d="M 104.64783097203109 79.52079915486377 l 13.822066574643765 -60.90257567031869 a83.45136706007946,83.45136706007946 0 0,0 1.3943048298967804,0.3290521433604173 l -14.86550355828043 60.65632738331204" fill="#4aeaff" stroke="none" /><path d="M 105.3480935250658 79.69241777938227 l 15.882356505181036 -60.30789459355206 a83.36418361900243,83.36418361900243 0 0,0 1.3807435027897361,0.37632778157897323 l -16.915281408905464 60.02636631782894" fill="#49eeff" stroke="none" /><path d="M 106.72888874123014 80.10723608172694 l 20.088891611176233 -59.38923848633112 a83.69485795623035,83.69485795623035 0 0,0 1.357029335409929,0.47204524582310003 l -21.10542671863118 59.035634807939424" fill="#4bdfff" stroke="none" /><path d="M 107.06938296918511 80.22567764915836 l 21.0666438513843 -58.9271522258 a83.57965126623569,83.57965126623569 0 0,0 1.3468695566409157,0.4945891572858196 l -22.07510255967934 58.55683221950546" fill="#4be4ff" stroke="none" /><line stroke="#e1ed5e" stroke-width="0.3" x1="143.13028292997686" x2="145.6673583964461" y1="26.7553504044142" y2="22.446841604673864" /><path d="M 143.63769802327073 25.89364864446614 a86.0,86.0 0 0,1 29.32050498858742,28.57503671076993" fill="none" id="id50" stroke="none" /><text fill="#e1ed5e" style="font-size:6.75px; font-family:Arial;" text-anchor="middle"><textPath startOffset="20.669276256404974" xlink:href="#id50">February</textPath></text><line stroke="#e1ed5e" stroke-width="0.3" x1="172.87174338648825" x2="177.1583165268699" y1="56.24261187166439" y2="53.66864786411523" /><path d="M 173.72905801456457 55.72781907015455 a86.0,86.0 0 0,1 12.242430191666344,42.057860355516425" fill="none" id="id51" stroke="none" /><text fill="#e1ed5e" style="font-size:6.75px; font-family:Arial;" text-anchor="middle"><textPath startOffset="22.145653131862474" xlink:href="#id51">March</textPath></text><line stroke="#e1ed5e" stroke-width="0.3" x1="184.99686870605535" x2="189.99668451229388" y1="99.2704041080226" y2="99.22748670261217" /><path d="M 185.99683186730306 99.26182062694052 a86.0,86.0 0 0,1 -10.086455211305974,41.156179273409016" fill="none" id="id52" stroke="none" /><text fill="#e1ed5e" style="font-size:6.75px; font-family:Arial;" text-anchor="middle"><textPath startOffset="21.40746469413373" xlink:href="#id52">April</textPath></text><line stroke="#e1ed5e" stroke-width="0.3" x1="174.33088141563837" x2="178.70328620479359" y1="141.23008692659167" y2="143.65538615756765" /><path d="M 175.20536237346943 141.71514677278685 a86.0,86.0 0 0,1 -30.301960400862466,31.631185727798858" fill="none" id="id53" stroke="none" /><text fill="#e1ed5e" style="font-size:6.75px; font-family:Arial;" text-anchor="middle"><textPath startOffset="22.145653131862474" xlink:href="#id53">May</textPath></text><line stroke="#e1ed5e" stroke-width="0.3" x1="143.1302829299769" x2="145.66735839644613" y1="173.24464959558577" y2="177.55315839532614" /><path d="M 143.63769802327073 174.10635135553383 a86.0,86.0 0 0,1 -40.68552437913181,11.842963189579606" fill="none" id="id54" stroke="none" /><text fill="#e1ed5e" style="font-size:6.75px; font-family:Arial;" text-anchor="middle"><textPath startOffset="21.407464694133747" xlink:href="#id54">June</textPath></text><line stroke="#e1ed5e" stroke-width="0.3" x1="101.45913802915013" x2="101.54496967792366" y1="184.9874750549273" y2="189.98673829345242" /><path d="M 101.47630435890484 185.9873277026323 a86.0,86.0 0 0,1 -42.54439059252881,-10.42667462771756" fill="none" id="id55" stroke="none" /><text fill="#e1ed5e" style="font-size:6.75px; font-family:Arial;" text-anchor="middle"><textPath startOffset="22.145653131862474" xlink:href="#id55">July</textPath></text><line stroke="#e1ed5e" stroke-width="0.3" x1="58.13341422392154" x2="55.67067388415222" y1="173.97424548756322" y2="178.32567169271397" /><path d="M 57.64086615596768 174.84453072859336 a86.0,86.0 0 0,1 -31.369924170532247,-30.572349798747897" fill="none" id="id56" stroke="none" /><text fill="#e1ed5e" style="font-size:6.75px; font-family:Arial;" text-anchor="middle"><textPath startOffset="22.145653131862474" xlink:href="#id56">August</textPath></text><line stroke="#e1ed5e" stroke-width="0.3" x1="26.387840678322732" x2="22.057713659400548" y1="142.50000000000003" y2="145.00000000000006" /><path d="M 25.521815274538298 143.00000000000003 a86.0,86.0 0 0,1 -11.493303480769221,-40.785679425670985" fill="none" id="id57" stroke="none" /><text fill="#e1ed5e" style="font-size:6.75px; font-family:Arial;" text-anchor="middle"><textPath startOffset="21.40746469413373" xlink:href="#id57">September</textPath></text><line stroke="#e1ed5e" stroke-width="0.3" x1="15.003131293944662" x2="10.003315487706104" y1="100.72959589197737" y2="100.7725132973878" /><path d="M 14.003168132696942 100.73817937305945 a86.0,86.0 0 0,1 10.791469493833604,-42.45332614584628" fill="none" id="id58" stroke="none" /><text fill="#e1ed5e" style="font-size:6.75px; font-family:Arial;" text-anchor="middle"><textPath startOffset="22.145653131862435" xlink:href="#id58">October</textPath></text><line stroke="#e1ed5e" stroke-width="0.3" x1="26.387840678322718" x2="22.05771365940052" y1="57.49999999999999" y2="54.99999999999999" /><path d="M 25.521815274538284 56.99999999999999 a86.0,86.0 0 0,1 29.574782752854787,-30.34633250058573" fill="none" id="id59" stroke="none" /><text fill="#e1ed5e" style="font-size:6.75px; font-family:Arial;" text-anchor="middle"><textPath startOffset="21.40746469413373" xlink:href="#id59">November</textPath></text><line stroke="#e1ed5e" stroke-width="0.3" x1="56.869717070023135" x2="54.33264160355391" y1="26.7553504044142" y2="22.446841604673864" /><path d="M 56.362301976729285 25.89364864446614 a86.0,86.0 0 0,1 42.16139366436587,-11.88097634709845" fill="none" id="id60" stroke="none" /><text fill="#e1ed5e" style="font-size:6.75px; font-family:Arial;" text-anchor="middle"><textPath startOffset="22.145653131862474" xlink:href="#id60">December</textPath></text></svg>