<?xml version="1.0" encoding="utf-8" ?>
<svg baseProfile="full" height="200mm" version="1.1" viewBox="0,0,200,200" width="200mm" xmlns="http://www.w3.org/2000/svg" xmlns:ev="http://www.w3.org/2001/xml-events" xmlns:xlink="http://www.w3.org/1999/xlink"><defs /><rect fill="#1a1a1a" height="200" width="200" x="0" y="0" /><text alignment-baseline="middle" fill="#e1ed5e" style="dominant-baseline: central; font-size:9.0px; font-family:Arial;" text-anchor="middle" x="100.0" y="100.0">2024</text><line stroke="#e1ed5e" stroke-width="0.3" x1="100.0" x2="100.0" y1="15.0" y2="10.0" /><path d="M 100.0 14.0 a86.0,86.0 0 0,1 42.35913384403234,11.155469271406648" fill="none" id="id49" stroke="none" /><text fill="#e1ed5e" style="font-size:6.75px; font-family:Arial;" text-anchor="middle"><textPath startOffset="22.145653131862478" xlink:href="#id49">January</textPath></text><path d="M 100.0 79.0 l 0.0 -62.389117327270924 a83.38911732727092,83.38911732727092 0 0,0 1.4314850859939148,0.012287577813953718 l -1.0709921611450601 62.37992414765141" fill="#49edff" stroke="none" /><path d="M 100.36049292484886 79.00309439819443 l 1.081436015674387 -62.98822631547678 a83.99750914302659,83.99750914302659 0 0,0 1.441503997446093,0.0371280296075116 l -2.1625533271912216 62.96038056851922" fill="#4dd2ff" stroke="none" /><path d="M 101.80034050326958 79.07731436759882 l 5.357672399736936 -62.26427452890732 a83.49435603439754,83.49435603439754 0 0,0 1.4269600397920217,0.13513459937306402 l -6.425732002913971 62.163128174029076" fill="#4ae8ff" stroke="none" /><path d="M 102.15924093988457 79.11130261209362 l 5.134477321645253 -49.671410464572496 a70.93607788870219,70.93607788870219 0 0,0 1.2101833327986453,0.13560356664096332 l -5.986396556044696 49.57595113742456" fill="#ff0000" stroke="none" /><path d="M 102.87502721639298 79.19773525538626 l 8.568643929976046 -61.998439012107454 a83.58776317090044,83.58776317090044 0 0,0 1.4196979334033812,0.20864670622694317 l -9.63166696898711 61.842211232581626" fill="#4be4ff" stroke="none" /><path d="M 103.58742460773223 79.30868818359171 l 10.674192744560658 -61.56590719428806 a83.48439260650392,83.48439260650392 0 0,0 1.4099530641959122,0.2569404163042438 l -11.729480542307623 61.37359860405245" fill="#4ae8ff" stroke="none" /><path d="M 104.29559338865022 79.4440306129975 l 12.790864919682381 -61.20891898590387 a83.53109617475536,83.53109617475536 0 0,0 1.4010853073214533,0.30536002161086057 l -13.839712643622969 60.98032750615929" fill="#4ae6ff" stroke="none" /><path d="M 104.64783097203109 79.52079915486377 l 13.821520085899094 -60.90016774007572 a83.4488978946328,83.4488978946328 0 0,0 1.3942635750985741,0.3290424073403716 l -14.864915814737554 60.653929189089126" fill="#4aeaff" stroke="none" /><path d="M 105.3480935250658 79.69241777938227 l 15.881728557903969 -60.305510175459986 a83.3617179005634,83.3617179005634 0 0,0 1.380702663611967,0.3763166506794685 l -16.91461262245063 60.023993030636376" fill="#49eeff" stroke="none" /><path d="M 106.72888874123014 80.10723608172694 l 20.088097348386427 -59.386890389524304 a83.69237916378373,83.69237916378373 0 0,0 1.3569891442422921,0.472031265248685 l -21.104592264673737 59.033300691707026" fill="#4bdfff" stroke="none" /><path d="M 107.06938296918511 80.22567764915836 l 21.06581093080107 -58.924822398688185 a83.57717702876347,83.57717702876347 0 0,0 1.3468296847932024,0.4945745157910566 l -22.074229767248397 58.55451703388841" fill="#4be4ff" stroke="none" /><path d="M 108.07796709384702 80.6158196554323 l 24.233901281541076 -58.152541033703095 a84.0,84.0 0 0,0 1.32625969931828,0.5661014013623937 l -25.228596056029787 57.7279649826813" fill="#4dd2ff" stroke="none" /><path d="M 108.73861861582097 80.90454125486305 l 20.787149906923723 -45.4236740298968 a70.95413660175942,70.95413660175942 0 0,0 1.103206018951304,0.5163561210066671 l -21.56384463974653 45.0601416773196" fill="#ff0100" stroke="none" /><line stroke="#e1ed5e" stroke-width="0.3" x1="143.13028292997686" x2="145.6673583964461" y1="26.7553504044142" y2="22.446841604673864" /><path d="M 143.63769802327073 25.89364864446614 a86.0,86.0 0 0,1 29.32050498858742,28.57503671076993" fill="none" id="id50" stroke="none" /><text fill="#e1ed5e" style="font-size:6.75px; font-family:Arial;" text-anchor="middle"><textPath startOffset="20.669276256404974" xlink:href="#id50">February</textPath></text><line stroke="#e1ed5e" stroke-width="0.3" x1="172.87174338648825" x2="177.1583165268699" y1="56.24261187166439" y2="53.66864786411523" /><path d="M 173.72905801456457 55.72781907015455 a86.0,86.0 0 0,1 12.242430191666344,42.057860355516425" fill="none" id="id51" stroke="none" /><text fill="#e1ed5e" style="font-size:6.75px; font-family:Arial;" text-anchor="middle"><textPath startOffset="22.145653131862474" xlink:href="#id51">March</textPath></text><line stroke="#e1ed5e" stroke-width="0.3" x1="184.99686870605535" x2="189.99668451229388" y1="99.2704041080226" y2="99.22748670261217" /><path d="M 185.99683186730306 99.26182062694052 a86.0,86.0 0 0,1 -10.086455211305974,41.156179273409016" fill="none" id="id52" stroke="none" /><text fill="#e1ed5e" style="font-size:6.75px; font-family:Arial;" text-anchor="middle"><textPath startOffset="21.40746469413373" xlink:href="#id52">April</textPath></text><line stroke="#e1ed5e" stroke-width="0.3" x1="174.33088141563837" x2="178.70328620479359" y1="141.23008692659167" y2="143.65538615756765" /><path d="M 175.20536237346943 141.71514677278685 a86.0,86.0 0 0,1 -30.301960400862466,31.631185727798858" fill="none" id="id53" stroke="none" /><text fill="#e1ed5e" style="font-size:6.75px; font-family:Arial;" text-anchor="middle"><textPath startOffset="22.145653131862474" xlink:href="#id53">May</textPath></text><line stroke="#e1ed5e" stroke-width="0.3" x1="143.1302829299769" x2="145.66735839644613" y1="173.24464959558577" y2="177.55315839532614" /><path d="M 143.63769802327073 174.10635135553383 a86.0,86.0 0 0,1 -40.68552437913181,11.842963189579606" fill="none" id="id54" stroke="none" /><text fill="#e1ed5e" style="font-size:6.75px; font-family:Arial;" text-anchor="middle"><textPath startOffset="21.407464694133747" xlink:href="#id54">June</textPath></text><line stroke="#e1ed5e" stroke-width="0.3" x1="101.45913802915013" x2="101.54496967792366" y1="184.9874750549273" y2="189.98673829345242" /><path d="M 101.47630435890484 185.9873277026323 a86.0,86.0 0 0,1 -42.54439059252881,-10.42667462771756" fill="none" id="id55" stroke="none" /><text fill="#e1ed5e" style="font-size:6.75px; font-family:Arial;" text-anchor="middle"><textPath startOffset="22.145653131862474" xlink:href="#id55">July</textPath></text><line stroke="#e1ed5e" stroke-width="0.3" x1="58.13341422392154" x2="55.67067388415222" y1="173.97424548756322" y2="178.32567169271397" /><path d="M 57.64086615596768 174.84453072859336 a86.0,86.0 0 0,1 -31.369924170532247,-30.572349798747897" fill="none" id="id56" stroke="none" /><text fill="#e1ed5e" style="font-size:6.75px; font-family:Arial;" text-anchor="middle"><textPath startOffset="22.145653131862474" xlink:href="#id56">August</textPath></text><line stroke="#e1ed5e" stroke-width="0.3" x1="26.387840678322732" x2="22.057713659400548" y1="142.50000000000003" y2="145.00000000000006" /><path d="M 25.521815274538298 143.00000000000003 a86.0,86.0 0 0,1 -11.493303480769221,-40.785679425670985" fill="none" id="id57" stroke="none" /><text fill="#e1ed5e" style="font-size:6.75px; font-family:Arial;" text-anchor="middle"><textPath startOffset="21.40746469413373" xlink:href="#id57">September</textPath></text><line stroke="#e1ed5e" stroke-width="0.3" x1="15.003131293944662" x2="10.003315487706104" y1="100.72959589197737" y2="100.7725132973878" /><path d="M 14.003168132696942 100.73817937305945 a86.0,86.0 0 0,1 10.791469493833604,-42.45332614584628" fill="none" id="id58" stroke="none" /><text fill="#e1ed5e" style="font-size:6.75px; font-family:Arial;" text-anchor="middle"><textPath startOffset="22.145653131862435" xlink:href="#id58">October</textPath></text><line stroke="#e1ed5e" stroke-width="0.3" x1="26.387840678322718" x2="22.05771365940052" y1="57.49999999999999" y2="54.99999999999999" /><path d="M 25.521815274538284 56.99999999999999 a86.0,86.0 0 0,1 29.574782752854787,-30.34633250058573" fill="none" id="id59" stroke="none" /><text fill="#e1ed5e" style="font-size:6.75px; font-family:Arial;" text-anchor="middle"><textPath startOffset="21.40746469413373" xlink:href="#id59">November</textPath></text><line stroke="#e1ed5e" stroke-width="0.3" x1="56.869717070023135" x2="54.33264160355391" y1="26.7553504044142" y2="22.446841604673864" /><path d="M 56.362301976729285 25.89364864446614 a86.0,86.0 0 0,1 42.16139366436587,-11.88097634709845" fill="none" id="id60" stroke="none" /><text fill="#e1ed5e" style="font-size:6.75px; font-family:Arial;" text-anchor="middle"><textPath startOffset="22.145653131862474" xlink:href="#id60">December</textPath></text></svg>