<?xml version="1.0" encoding="utf-8" ?>
<svg baseProfile="full" height="300mm" version="1.1" viewBox="0,0,200,300" width="200mm" xmlns="http://www.w3.org/2000/svg" xmlns:ev="http://www.w3.org/2001/xml-events" xmlns:xlink="http://www.w3.org/1999/xlink"><defs /><rect fill="#222222" height="300" width="200" x="0" y="0" /><text fill="#555555" style="font-size:6px; font-family:Arial;" x="11" y="19">Running for 1999 Days</text><text fill="#555555" style="font-size:6px; font-family:Arial;" x="11" y="39">Races</text><text fill="#555555" style="font-size:8px; font-family:Arial;" x="11" y="59">1</text><text fill="#FFFFFF" style="font-size:10px; font-family:Arial; font-weight:bold;" x="23" y="59">Full</text><text fill="#555555" style="font-size:6px; font-family:Arial;" x="49" y="59">4x</text><text fill="#555555" style="font-size:8px; font-family:Arial;" x="11" y="77">2</text><text fill="#FFFFFF" style="font-size:10px; font-family:Arial; font-weight:bold;" x="23" y="77">Half</text><text fill="#555555" style="font-size:6px; font-family:Arial;" x="49" y="77">47x</text><text fill="#555555" style="font-size:8px; font-family:Arial;" x="11" y="95">3</text><text fill="#FFFFFF" style="font-size:10px; font-family:Arial; font-weight:bold;" x="23" y="95">10K</text><text fill="#555555" style="font-size:6px; font-family:Arial;" x="49" y="95">118x</text><text fill="#555555" style="font-size:6px; font-family:Arial;" x="11" y="133">Stats</text><text fill="#555555" style="font-size:5px; font-family:Arial;" x="11" y="139">Distance</text><text fill="#FFFFFF" style="font-size:10px; font-family:Arial; font-weight:bold;" x="11" y="150">3659</text><text fill="#555555" style="font-size:6px; font-family:Arial;" x="35" y="150">km</text><text fill="#555555" style="font-size:5px; font-family:Arial;" x="53" y="139">Runs</text><text fill="#FFFFFF" style="font-size:10px; font-family:Arial; font-weight:bold;" x="53" y="150">312</text><text fill="#555555" style="font-size:5px; font-family:Arial;" x="11" y="167">Avg Pace</text><text fill="#FFFFFF" style="font-size:10px; font-family:Arial; font-weight:bold;" x="11" y="178">5'37"</text><text fill="#555555" style="font-size:5px; font-family:Arial;" x="53" y="167">Streak</text><text fill="#FFFFFF" style="font-size:10px; font-family:Arial; font-weight:bold;" x="53" y="178">9</text><text fill="#555555" style="font-size:6px; font-family:Arial;" x="59" y="178">d</text><text fill="#555555" style="font-size:5px; font-family:Arial;" x="11" y="195">Time</text><text fill="#FFFFFF" style="font-size:10px; font-family:Arial; font-weight:bold;" x="11" y="206">343</text><text fill="#555555" style="font-size:6px; font-family:Arial;" x="29" y="206">h</text><text fill="#555555" style="font-size:5px; font-family:Arial;" x="53" y="195">Longest</text><text fill="#FFFFFF" style="font-size:10px; font-family:Arial; font-weight:bold;" x="53" y="206">42.6</text><text fill="#555555" style="font-size:5px; font-family:Arial;" x="11" y="252.0645161290322">Runner</text><text fill="#FFFFFF" style="font-size:8px; font-family:Arial; font-weight:bold;" x="11" y="262.0645161290322">Chase Wang</text><text fill="#555555" style="font-size:7px; font-family:Arial;" x="11" y="285.5806451612903">running_page/2025</text><circle cx="85.41666666666667" cy="17.419354838709676" fill="#555555" r="3.3125"><title>2025-01-01</title></circle><circle cx="85.41666666666667" cy="26.25806451612903" fill="#4faccb" r="3.3125"><title>2025-01-02: 6 km</title></circle><circle cx="85.41666666666667" cy="35.096774193548384" fill="#4fa7c5" r="3.3125"><title>2025-01-03: 6 km</title></circle><circle cx="85.41666666666667" cy="43.935483870967744" fill="#FFFF00" r="3.3125"><title>2025-01-04: 21 km</title></circle><circle cx="85.41666666666667" cy="52.774193548387096" fill="#FFFF00" r="3.3125"><title>2025-01-05: 21 km</title></circle><circle cx="85.41666666666667" cy="61.61290322580645" fill="#FFFF00" r="3.3125"><title>2025-01-06: 10 km</title></circle><circle cx="85.41666666666667" cy="70.45161290322581" fill="#FFFF00" r="3.3125"><title>2025-01-07: 10 km</title></circle><circle cx="85.41666666666667" cy="79.29032258064517" fill="#FFFF00" r="3.3125"><title>2025-01-08: 19 km</title></circle><circle cx="85.41666666666667" cy="88.12903225806451" fill="#555555" r="3.3125"><title>2025-01-09</title></circle><circle cx="85.41666666666667" cy="96.96774193548387" fill="#FFFF00" r="3.3125"><title>2025-01-10: 10 km</title></circle><circle cx="85.41666666666667" cy="105.80645161290322" fill="#FFFF00" r="3.3125"><title>2025-01-11: 20 km</title></circle><circle cx="85.41666666666667" cy="114.64516129032258" fill="#FFFF00" r="3.3125"><title>2025-01-12: 13 km</title></circle><circle cx="85.41666666666667" cy="123.48387096774194" fill="#FFFF00" r="3.3125"><title>2025-01-13: 10 km</title></circle><circle cx="85.41666666666667" cy="132.32258064516128" fill="#FFFF00" r="3.3125"><title>2025-01-14: 10 km</title></circle><circle cx="85.41666666666667" cy="141.16129032258064" fill="#FFFF00" r="3.3125"><title>2025-01-15: 22 km</title></circle><circle cx="85.41666666666667" cy="149.99999999999997" fill="#555555" r="3.3125"><title>2025-01-16</title></circle><circle cx="85.41666666666667" cy="158.83870967741933" fill="#4ec1e8" r="3.3125"><title>2025-01-17: 8 km</title></circle><circle cx="85.41666666666667" cy="167.6774193548387" fill="#FFFF00" r="3.3125"><title>2025-01-18: 15 km</title></circle><circle cx="85.41666666666667" cy="176.51612903225805" fill="#FFFF00" r="3.3125"><title>2025-01-19: 25 km</title></circle><circle cx="85.41666666666667" cy="185.35483870967738" fill="#555555" r="3.3125"><title>2025-01-20</title></circle><circle cx="85.41666666666667" cy="194.19354838709674" fill="#FFFF00" r="3.3125"><title>2025-01-21: 10 km</title></circle><circle cx="85.41666666666667" cy="203.0322580645161" fill="#FFFF00" r="3.3125"><title>2025-01-22: 10 km</title></circle><circle cx="85.41666666666667" cy="211.87096774193546" fill="#555555" r="3.3125"><title>2025-01-23</title></circle><circle cx="85.41666666666667" cy="220.70967741935482" fill="#FFFF00" r="3.3125"><title>2025-01-24: 10 km</title></circle><circle cx="85.41666666666667" cy="229.54838709677418" fill="#518ca0" r="3.3125"><title>2025-01-25: 4 km</title></circle><circle cx="85.41666666666667" cy="238.3870967741935" fill="#4dc5ee" r="3.3125"><title>2025-01-26: 9 km</title></circle><circle cx="85.41666666666667" cy="247.22580645161287" fill="#FFFF00" r="3.3125"><title>2025-01-27: 10 km</title></circle><circle cx="85.41666666666667" cy="256.06451612903226" fill="#FFFF00" r="3.3125"><title>2025-01-28: 10 km</title></circle><circle cx="85.41666666666667" cy="264.90322580645164" fill="#555555" r="3.3125"><title>2025-01-29</title></circle><circle cx="85.41666666666667" cy="273.741935483871" fill="#FFFF00" r="3.3125"><title>2025-01-30: 10 km</title></circle><circle cx="85.41666666666667" cy="282.5806451612903" fill="#555555" r="3.3125"><title>2025-01-31</title></circle><circle cx="94.25" cy="17.419354838709676" fill="#555555" r="3.3125"><title>2025-02-01</title></circle><circle cx="94.25" cy="26.25806451612903" fill="#555555" r="3.3125"><title>2025-02-02</title></circle><circle cx="94.25" cy="35.096774193548384" fill="#555555" r="3.3125"><title>2025-02-03</title></circle><circle cx="94.25" cy="43.935483870967744" fill="#555555" r="3.3125"><title>2025-02-04</title></circle><circle cx="94.25" cy="52.774193548387096" fill="#555555" r="3.3125"><title>2025-02-05</title></circle><circle cx="94.25" cy="61.61290322580645" fill="#5093aa" r="3.3125"><title>2025-02-06: 5 km</title></circle><circle cx="94.25" cy="70.45161290322581" fill="#FFFF00" r="3.3125"><title>2025-02-07: 10 km</title></circle><circle cx="94.25" cy="79.29032258064517" fill="#518799" r="3.3125"><title>2025-02-08: 4 km</title></circle><circle cx="94.25" cy="88.12903225806451" fill="#FFFF00" r="3.3125"><title>2025-02-09: 42 km</title></circle><circle cx="94.25" cy="96.96774193548387" fill="#555555" r="3.3125"><title>2025-02-10</title></circle><circle cx="94.25" cy="105.80645161290322" fill="#555555" r="3.3125"><title>2025-02-11</title></circle><circle cx="94.25" cy="114.64516129032258" fill="#555555" r="3.3125"><title>2025-02-12</title></circle><circle cx="94.25" cy="123.48387096774194" fill="#50a2be" r="3.3125"><title>2025-02-13: 6 km</title></circle><circle cx="94.25" cy="132.32258064516128" fill="#4fa7c4" r="3.3125"><title>2025-02-14: 6 km</title></circle><circle cx="94.25" cy="141.16129032258064" fill="#FFFF00" r="3.3125"><title>2025-02-15: 15 km</title></circle><circle cx="94.25" cy="149.99999999999997" fill="#555555" r="3.3125"><title>2025-02-16</title></circle><circle cx="94.25" cy="158.83870967741933" fill="#FFFF00" r="3.3125"><title>2025-02-17: 11 km</title></circle><circle cx="94.25" cy="167.6774193548387" fill="#FFFF00" r="3.3125"><title>2025-02-18: 12 km</title></circle><circle cx="94.25" cy="176.51612903225805" fill="#FFFF00" r="3.3125"><title>2025-02-19: 18 km</title></circle><circle cx="94.25" cy="185.35483870967738" fill="#555555" r="3.3125"><title>2025-02-20</title></circle><circle cx="94.25" cy="194.19354838709674" fill="#FFFF00" r="3.3125"><title>2025-02-21: 10 km</title></circle><circle cx="94.25" cy="203.0322580645161" fill="#FFFF00" r="3.3125"><title>2025-02-22: 30 km</title></circle><circle cx="94.25" cy="211.87096774193546" fill="#FFFF00" r="3.3125"><title>2025-02-23: 15 km</title></circle><circle cx="94.25" cy="220.70967741935482" fill="#555555" r="3.3125"><title>2025-02-24</title></circle><circle cx="94.25" cy="229.54838709677418" fill="#FFFF00" r="3.3125"><title>2025-02-25: 12 km</title></circle><circle cx="94.25" cy="238.3870967741935" fill="#FFFF00" r="3.3125"><title>2025-02-26: 12 km</title></circle><circle cx="94.25" cy="247.22580645161287" fill="#FFFF00" r="3.3125"><title>2025-02-27: 10 km</title></circle><circle cx="94.25" cy="256.06451612903226" fill="#4fa6c3" r="3.3125"><title>2025-02-28: 6 km</title></circle><circle cx="103.08333333333334" cy="17.419354838709676" fill="#FFFF00" r="3.3125"><title>2025-03-01: 29 km</title></circle><circle cx="103.08333333333334" cy="26.25806451612903" fill="#FFFF00" r="3.3125"><title>2025-03-02: 10 km</title></circle><circle cx="103.08333333333334" cy="35.096774193548384" fill="#4fafd0" r="3.3125"><title>2025-03-03: 7 km</title></circle><circle cx="103.08333333333334" cy="43.935483870967744" fill="#FFFF00" r="3.3125"><title>2025-03-04: 10 km</title></circle><circle cx="103.08333333333334" cy="52.774193548387096" fill="#FFFF00" r="3.3125"><title>2025-03-05: 23 km</title></circle><circle cx="103.08333333333334" cy="61.61290322580645" fill="#555555" r="3.3125"><title>2025-03-06</title></circle><circle cx="103.08333333333334" cy="70.45161290322581" fill="#555555" r="3.3125"><title>2025-03-07</title></circle><circle cx="103.08333333333334" cy="79.29032258064517" fill="#FFFF00" r="3.3125"><title>2025-03-08: 31 km</title></circle><circle cx="103.08333333333334" cy="88.12903225806451" fill="#4fa8c5" r="3.3125"><title>2025-03-09: 6 km</title></circle><circle cx="103.08333333333334" cy="96.96774193548387" fill="#555555" r="3.3125"><title>2025-03-10</title></circle><circle cx="103.08333333333334" cy="105.80645161290322" fill="#FFFF00" r="3.3125"><title>2025-03-11: 15 km</title></circle><circle cx="103.08333333333334" cy="114.64516129032258" fill="#FFFF00" r="3.3125"><title>2025-03-12: 12 km</title></circle><circle cx="103.08333333333334" cy="123.48387096774194" fill="#4faccc" r="3.3125"><title>2025-03-13: 7 km</title></circle><circle cx="103.08333333333334" cy="132.32258064516128" fill="#4ebce1" r="3.3125"><title>2025-03-14: 8 km</title></circle><circle cx="103.08333333333334" cy="141.16129032258064" fill="#FFFF00" r="3.3125"><title>2025-03-15: 16 km</title></circle><circle cx="103.08333333333334" cy="149.99999999999997" fill="#FFFF00" r="3.3125"><title>2025-03-16: 15 km</title></circle><circle cx="103.08333333333334" cy="158.83870967741933" fill="#4fb1d3" r="3.3125"><title>2025-03-17: 7 km</title></circle><circle cx="103.08333333333334" cy="167.6774193548387" fill="#4fb0d1" r="3.3125"><title>2025-03-18: 7 km</title></circle><circle cx="103.08333333333334" cy="176.51612903225805" fill="#FFFF00" r="3.3125"><title>2025-03-19: 14 km</title></circle><circle cx="103.08333333333334" cy="185.35483870967738" fill="#555555" r="3.3125"><title>2025-03-20</title></circle><circle cx="103.08333333333334" cy="194.19354838709674" fill="#50a2bd" r="3.3125"><title>2025-03-21: 6 km</title></circle><circle cx="103.08333333333334" cy="203.0322580645161" fill="#4eb9dd" r="3.3125"><title>2025-03-22: 8 km</title></circle><circle cx="103.08333333333334" cy="211.87096774193546" fill="#FFFF00" r="3.3125"><title>2025-03-23: 43 km</title></circle><circle cx="103.08333333333334" cy="220.70967741935482" fill="#555555" r="3.3125"><title>2025-03-24</title></circle><circle cx="103.08333333333334" cy="229.54838709677418" fill="#50a0bb" r="3.3125"><title>2025-03-25: 6 km</title></circle><circle cx="103.08333333333334" cy="238.3870967741935" fill="#50a0bc" r="3.3125"><title>2025-03-26: 6 km</title></circle><circle cx="103.08333333333334" cy="247.22580645161287" fill="#4fa6c3" r="3.3125"><title>2025-03-27: 6 km</title></circle><circle cx="103.08333333333334" cy="256.06451612903226" fill="#4fa6c3" r="3.3125"><title>2025-03-28: 6 km</title></circle><circle cx="103.08333333333334" cy="264.90322580645164" fill="#FFFF00" r="3.3125"><title>2025-03-29: 21 km</title></circle><circle cx="103.08333333333334" cy="273.741935483871" fill="#FFFF00" r="3.3125"><title>2025-03-30: 16 km</title></circle><circle cx="103.08333333333334" cy="282.5806451612903" fill="#555555" r="3.3125"><title>2025-03-31</title></circle><circle cx="111.91666666666667" cy="17.419354838709676" fill="#4ebfe5" r="3.3125"><title>2025-04-01: 8 km</title></circle><circle cx="111.91666666666667" cy="26.25806451612903" fill="#FFFF00" r="3.3125"><title>2025-04-02: 21 km</title></circle><circle cx="111.91666666666667" cy="35.096774193548384" fill="#555555" r="3.3125"><title>2025-04-03</title></circle><circle cx="111.91666666666667" cy="43.935483870967744" fill="#FFFF00" r="3.3125"><title>2025-04-04: 30 km</title></circle><circle cx="111.91666666666667" cy="52.774193548387096" fill="#555555" r="3.3125"><title>2025-04-05</title></circle><circle cx="111.91666666666667" cy="61.61290322580645" fill="#FFFF00" r="3.3125"><title>2025-04-06: 38 km</title></circle><circle cx="111.91666666666667" cy="70.45161290322581" fill="#555555" r="3.3125"><title>2025-04-07</title></circle><circle cx="111.91666666666667" cy="79.29032258064517" fill="#FFFF00" r="3.3125"><title>2025-04-08: 10 km</title></circle><circle cx="111.91666666666667" cy="88.12903225806451" fill="#FFFF00" r="3.3125"><title>2025-04-09: 20 km</title></circle><circle cx="111.91666666666667" cy="96.96774193548387" fill="#4fa8c6" r="3.3125"><title>2025-04-10: 6 km</title></circle><circle cx="111.91666666666667" cy="105.80645161290322" fill="#555555" r="3.3125"><title>2025-04-11</title></circle><circle cx="111.91666666666667" cy="114.64516129032258" fill="#FFFF00" r="3.3125"><title>2025-04-12: 17 km</title></circle><circle cx="111.91666666666667" cy="123.48387096774194" fill="#FFFF00" r="3.3125"><title>2025-04-13: 14 km</title></circle><circle cx="111.91666666666667" cy="132.32258064516128" fill="#555555" r="3.3125"><title>2025-04-14</title></circle><circle cx="111.91666666666667" cy="141.16129032258064" fill="#4ebfe6" r="3.3125"><title>2025-04-15: 8 km</title></circle><circle cx="111.91666666666667" cy="149.99999999999997" fill="#FFFF00" r="3.3125"><title>2025-04-16: 19 km</title></circle><circle cx="111.91666666666667" cy="158.83870967741933" fill="#555555" r="3.3125"><title>2025-04-17</title></circle><circle cx="111.91666666666667" cy="167.6774193548387" fill="#555555" r="3.3125"><title>2025-04-18</title></circle><circle cx="111.91666666666667" cy="176.51612903225805" fill="#FFFF00" r="3.3125"><title>2025-04-19: 21 km</title></circle><circle cx="111.91666666666667" cy="185.35483870967738" fill="#FFFF00" r="3.3125"><title>2025-04-20: 22 km</title></circle><circle cx="111.91666666666667" cy="194.19354838709674" fill="#555555" r="3.3125"><title>2025-04-21</title></circle><circle cx="111.91666666666667" cy="203.0322580645161" fill="#4fafcf" r="3.3125"><title>2025-04-22: 7 km</title></circle><circle cx="111.91666666666667" cy="211.87096774193546" fill="#4dcaf4" r="3.3125"><title>2025-04-23: 9 km</title></circle><circle cx="111.91666666666667" cy="220.70967741935482" fill="#FFFF00" r="3.3125"><title>2025-04-24: 10 km</title></circle><circle cx="111.91666666666667" cy="229.54838709677418" fill="#555555" r="3.3125"><title>2025-04-25</title></circle><circle cx="111.91666666666667" cy="238.3870967741935" fill="#FFFF00" r="3.3125"><title>2025-04-26: 31 km</title></circle><circle cx="111.91666666666667" cy="247.22580645161287" fill="#4fa6c3" r="3.3125"><title>2025-04-27: 6 km</title></circle><circle cx="111.91666666666667" cy="256.06451612903226" fill="#555555" r="3.3125"><title>2025-04-28</title></circle><circle cx="111.91666666666667" cy="264.90322580645164" fill="#FFFF00" r="3.3125"><title>2025-04-29: 10 km</title></circle><circle cx="111.91666666666667" cy="273.741935483871" fill="#FFFF00" r="3.3125"><title>2025-04-30: 17 km</title></circle><circle cx="120.75000000000001" cy="17.419354838709676" fill="#FFFF00" r="3.3125"><title>2025-05-01: 25 km</title></circle><circle cx="120.75000000000001" cy="26.25806451612903" fill="#555555" r="3.3125"><title>2025-05-02</title></circle><circle cx="120.75000000000001" cy="35.096774193548384" fill="#FFFF00" r="3.3125"><title>2025-05-03: 21 km</title></circle><circle cx="120.75000000000001" cy="43.935483870967744" fill="#FFFF00" r="3.3125"><title>2025-05-04: 21 km</title></circle><circle cx="120.75000000000001" cy="52.774193548387096" fill="#FFFF00" r="3.3125"><title>2025-05-05: 17 km</title></circle><circle cx="120.75000000000001" cy="61.61290322580645" fill="#4fa6c3" r="3.3125"><title>2025-05-06: 6 km</title></circle><circle cx="120.75000000000001" cy="70.45161290322581" fill="#555555" r="3.3125"><title>2025-05-07</title></circle><circle cx="120.75000000000001" cy="79.29032258064517" fill="#FFFF00" r="3.3125"><title>2025-05-08: 17 km</title></circle><circle cx="120.75000000000001" cy="88.12903225806451" fill="#FFFF00" r="3.3125"><title>2025-05-09: 10 km</title></circle><circle cx="120.75000000000001" cy="96.96774193548387" fill="#555555" r="3.3125"><title>2025-05-10</title></circle><circle cx="120.75000000000001" cy="105.80645161290322" fill="#FFFF00" r="3.3125"><title>2025-05-11: 21 km</title></circle><circle cx="120.75000000000001" cy="114.64516129032258" fill="#FFFF00" r="3.3125"><title>2025-05-12: 10 km</title></circle><circle cx="120.75000000000001" cy="123.48387096774194" fill="#4fb1d2" r="3.3125"><title>2025-05-13: 7 km</title></circle><circle cx="120.75000000000001" cy="132.32258064516128" fill="#FFFF00" r="3.3125"><title>2025-05-14: 13 km</title></circle><circle cx="120.75000000000001" cy="141.16129032258064" fill="#FFFF00" r="3.3125"><title>2025-05-15: 10 km</title></circle><circle cx="120.75000000000001" cy="149.99999999999997" fill="#4ebce1" r="3.3125"><title>2025-05-16: 8 km</title></circle><circle cx="120.75000000000001" cy="158.83870967741933" fill="#FFFF00" r="3.3125"><title>2025-05-17: 30 km</title></circle><circle cx="120.75000000000001" cy="167.6774193548387" fill="#FFFF00" r="3.3125"><title>2025-05-18: 15 km</title></circle><circle cx="120.75000000000001" cy="176.51612903225805" fill="#555555" r="3.3125"><title>2025-05-19</title></circle><circle cx="120.75000000000001" cy="185.35483870967738" fill="#4ebfe6" r="3.3125"><title>2025-05-20: 8 km</title></circle><circle cx="120.75000000000001" cy="194.19354838709674" fill="#FFFF00" r="3.3125"><title>2025-05-21: 20 km</title></circle><circle cx="120.75000000000001" cy="203.0322580645161" fill="#FFFF00" r="3.3125"><title>2025-05-22: 10 km</title></circle><circle cx="120.75000000000001" cy="211.87096774193546" fill="#555555" r="3.3125"><title>2025-05-23</title></circle><circle cx="120.75000000000001" cy="220.70967741935482" fill="#FFFF00" r="3.3125"><title>2025-05-24: 23 km</title></circle><circle cx="120.75000000000001" cy="229.54838709677418" fill="#FFFF00" r="3.3125"><title>2025-05-25: 21 km</title></circle><circle cx="120.75000000000001" cy="238.3870967741935" fill="#555555" r="3.3125"><title>2025-05-26</title></circle><circle cx="120.75000000000001" cy="247.22580645161287" fill="#4ec1e8" r="3.3125"><title>2025-05-27: 8 km</title></circle><circle cx="120.75000000000001" cy="256.06451612903226" fill="#FFFF00" r="3.3125"><title>2025-05-28: 12 km</title></circle><circle cx="120.75000000000001" cy="264.90322580645164" fill="#555555" r="3.3125"><title>2025-05-29</title></circle><circle cx="120.75000000000001" cy="273.741935483871" fill="#4dc2e9" r="3.3125"><title>2025-05-30: 8 km</title></circle><circle cx="120.75000000000001" cy="282.5806451612903" fill="#FFFF00" r="3.3125"><title>2025-05-31: 21 km</title></circle><circle cx="129.58333333333334" cy="17.419354838709676" fill="#555555" r="3.3125"><title>2025-06-01</title></circle><circle cx="129.58333333333334" cy="26.25806451612903" fill="#FFFF00" r="3.3125"><title>2025-06-02: 27 km</title></circle><circle cx="129.58333333333334" cy="35.096774193548384" fill="#555555" r="3.3125"><title>2025-06-03</title></circle><circle cx="129.58333333333334" cy="43.935483870967744" fill="#4eb2d4" r="3.3125"><title>2025-06-04: 7 km</title></circle><circle cx="129.58333333333334" cy="52.774193548387096" fill="#FFFF00" r="3.3125"><title>2025-06-05: 21 km</title></circle><circle cx="129.58333333333334" cy="61.61290322580645" fill="#555555" r="3.3125"><title>2025-06-06</title></circle><circle cx="129.58333333333334" cy="70.45161290322581" fill="#FFFF00" r="3.3125"><title>2025-06-07: 22 km</title></circle><circle cx="129.58333333333334" cy="79.29032258064517" fill="#4eb3d4" r="3.3125"><title>2025-06-08: 7 km</title></circle><circle cx="129.58333333333334" cy="88.12903225806451" fill="#4eb9dd" r="3.3125"><title>2025-06-09: 8 km</title></circle><circle cx="129.58333333333334" cy="96.96774193548387" fill="#FFFF00" r="3.3125"><title>2025-06-10: 10 km</title></circle><circle cx="129.58333333333334" cy="105.80645161290322" fill="#FFFF00" r="3.3125"><title>2025-06-11: 17 km</title></circle><circle cx="129.58333333333334" cy="114.64516129032258" fill="#555555" r="3.3125"><title>2025-06-12</title></circle><circle cx="129.58333333333334" cy="123.48387096774194" fill="#555555" r="3.3125"><title>2025-06-13</title></circle><circle cx="129.58333333333334" cy="132.32258064516128" fill="#FFFF00" r="3.3125"><title>2025-06-14: 25 km</title></circle><circle cx="129.58333333333334" cy="141.16129032258064" fill="#FFFF00" r="3.3125"><title>2025-06-15: 10 km</title></circle><circle cx="129.58333333333334" cy="149.99999999999997" fill="#4ec1e9" r="3.3125"><title>2025-06-16: 8 km</title></circle><circle cx="129.58333333333334" cy="158.83870967741933" fill="#555555" r="3.3125"><title>2025-06-17</title></circle><circle cx="129.58333333333334" cy="167.6774193548387" fill="#FFFF00" r="3.3125"><title>2025-06-18: 22 km</title></circle><circle cx="129.58333333333334" cy="176.51612903225805" fill="#555555" r="3.3125"><title>2025-06-19</title></circle><circle cx="129.58333333333334" cy="185.35483870967738" fill="#555555" r="3.3125"><title>2025-06-20</title></circle><circle cx="129.58333333333334" cy="194.19354838709674" fill="#FFFF00" r="3.3125"><title>2025-06-21: 25 km</title></circle><circle cx="129.58333333333334" cy="203.0322580645161" fill="#FFFF00" r="3.3125"><title>2025-06-22: 10 km</title></circle><circle cx="129.58333333333334" cy="211.87096774193546" fill="#FFFF00" r="3.3125"><title>2025-06-23: 10 km</title></circle><circle cx="129.58333333333334" cy="220.70967741935482" fill="#4fb0d1" r="3.3125"><title>2025-06-24: 7 km</title></circle><circle cx="129.58333333333334" cy="229.54838709677418" fill="#FFFF00" r="3.3125"><title>2025-06-25: 19 km</title></circle><circle cx="129.58333333333334" cy="238.3870967741935" fill="#555555" r="3.3125"><title>2025-06-26</title></circle><circle cx="129.58333333333334" cy="247.22580645161287" fill="#4dc8f2" r="3.3125"><title>2025-06-27: 9 km</title></circle><circle cx="129.58333333333334" cy="256.06451612903226" fill="#FFFF00" r="3.3125"><title>2025-06-28: 19 km</title></circle><circle cx="129.58333333333334" cy="264.90322580645164" fill="#FFFF00" r="3.3125"><title>2025-06-29: 16 km</title></circle><circle cx="129.58333333333334" cy="273.741935483871" fill="#555555" r="3.3125"><title>2025-06-30</title></circle><circle cx="138.41666666666666" cy="17.419354838709676" fill="#FFFF00" r="3.3125"><title>2025-07-01: 10 km</title></circle><circle cx="138.41666666666666" cy="26.25806451612903" fill="#FFFF00" r="3.3125"><title>2025-07-02: 25 km</title></circle><circle cx="138.41666666666666" cy="35.096774193548384" fill="#555555" r="3.3125"><title>2025-07-03</title></circle><circle cx="138.41666666666666" cy="43.935483870967744" fill="#4dc5ee" r="3.3125"><title>2025-07-04: 9 km</title></circle><circle cx="138.41666666666666" cy="52.774193548387096" fill="#FFFF00" r="3.3125"><title>2025-07-05: 10 km</title></circle><circle cx="138.41666666666666" cy="61.61290322580645" fill="#FFFF00" r="3.3125"><title>2025-07-06: 21 km</title></circle><circle cx="138.41666666666666" cy="70.45161290322581" fill="#555555" r="3.3125"><title>2025-07-07</title></circle><circle cx="138.41666666666666" cy="79.29032258064517" fill="#555555" r="3.3125"><title>2025-07-08</title></circle><circle cx="138.41666666666666" cy="88.12903225806451" fill="#FFFF00" r="3.3125"><title>2025-07-09: 10 km</title></circle><circle cx="138.41666666666666" cy="96.96774193548387" fill="#FFFF00" r="3.3125"><title>2025-07-10: 13 km</title></circle><circle cx="138.41666666666666" cy="105.80645161290322" fill="#555555" r="3.3125"><title>2025-07-11</title></circle><circle cx="138.41666666666666" cy="114.64516129032258" fill="#FFFF00" r="3.3125"><title>2025-07-12: 21 km</title></circle><circle cx="138.41666666666666" cy="123.48387096774194" fill="#FFFF00" r="3.3125"><title>2025-07-13: 11 km</title></circle><circle cx="138.41666666666666" cy="132.32258064516128" fill="#4fb2d3" r="3.3125"><title>2025-07-14: 7 km</title></circle><circle cx="138.41666666666666" cy="141.16129032258064" fill="#555555" r="3.3125"><title>2025-07-15</title></circle><circle cx="138.41666666666666" cy="149.99999999999997" fill="#FFFF00" r="3.3125"><title>2025-07-16: 22 km</title></circle><circle cx="138.41666666666666" cy="158.83870967741933" fill="#4faccc" r="3.3125"><title>2025-07-17: 7 km</title></circle><circle cx="138.41666666666666" cy="167.6774193548387" fill="#4faccc" r="3.3125"><title>2025-07-18: 7 km</title></circle><circle cx="138.41666666666666" cy="176.51612903225805" fill="#FFFF00" r="3.3125"><title>2025-07-19: 21 km</title></circle><circle cx="138.41666666666666" cy="185.35483870967738" fill="#555555" r="3.3125"><title>2025-07-20</title></circle><circle cx="138.41666666666666" cy="194.19354838709674" fill="#555555" r="3.3125"><title>2025-07-21</title></circle><circle cx="138.41666666666666" cy="203.0322580645161" fill="#FFFF00" r="3.3125"><title>2025-07-22: 10 km</title></circle><circle cx="138.41666666666666" cy="211.87096774193546" fill="#FFFF00" r="3.3125"><title>2025-07-23: 19 km</title></circle><circle cx="138.41666666666666" cy="220.70967741935482" fill="#4dc2e9" r="3.3125"><title>2025-07-24: 8 km</title></circle><circle cx="138.41666666666666" cy="229.54838709677418" fill="#4ec0e7" r="3.3125"><title>2025-07-25: 8 km</title></circle><circle cx="138.41666666666666" cy="238.3870967741935" fill="#FFFF00" r="3.3125"><title>2025-07-26: 25 km</title></circle><circle cx="138.41666666666666" cy="247.22580645161287" fill="#FFFF00" r="3.3125"><title>2025-07-27: 15 km</title></circle><circle cx="138.41666666666666" cy="256.06451612903226" fill="#555555" r="3.3125"><title>2025-07-28</title></circle><circle cx="138.41666666666666" cy="264.90322580645164" fill="#FFFF00" r="3.3125"><title>2025-07-29: 10 km</title></circle><circle cx="138.41666666666666" cy="273.741935483871" fill="#FFFF00" r="3.3125"><title>2025-07-30: 19 km</title></circle><circle cx="138.41666666666666" cy="282.5806451612903" fill="#555555" r="3.3125"><title>2025-07-31</title></circle><circle cx="147.25" cy="17.419354838709676" fill="#FFFF00" r="3.3125"><title>2025-08-01: 15 km</title></circle><circle cx="147.25" cy="26.25806451612903" fill="#555555" r="3.3125"><title>2025-08-02</title></circle><circle cx="147.25" cy="35.096774193548384" fill="#FFFF00" r="3.3125"><title>2025-08-03: 21 km</title></circle><circle cx="147.25" cy="43.935483870967744" fill="#555555" r="3.3125"><title>2025-08-04</title></circle><circle cx="147.25" cy="52.774193548387096" fill="#555555" r="3.3125"><title>2025-08-05</title></circle><circle cx="147.25" cy="61.61290322580645" fill="#FFFF00" r="3.3125"><title>2025-08-06: 20 km</title></circle><circle cx="147.25" cy="70.45161290322581" fill="#555555" r="3.3125"><title>2025-08-07</title></circle><circle cx="147.25" cy="79.29032258064517" fill="#4dc3ea" r="3.3125"><title>2025-08-08: 8 km</title></circle><circle cx="147.25" cy="88.12903225806451" fill="#FFFF00" r="3.3125"><title>2025-08-09: 21 km</title></circle><circle cx="147.25" cy="96.96774193548387" fill="#FFFF00" r="3.3125"><title>2025-08-10: 14 km</title></circle><circle cx="147.25" cy="105.80645161290322" fill="#555555" r="3.3125"><title>2025-08-11</title></circle><circle cx="147.25" cy="114.64516129032258" fill="#4dc2e9" r="3.3125"><title>2025-08-12: 8 km</title></circle><circle cx="147.25" cy="123.48387096774194" fill="#FFFF00" r="3.3125"><title>2025-08-13: 20 km</title></circle><circle cx="147.25" cy="132.32258064516128" fill="#555555" r="3.3125"><title>2025-08-14</title></circle><circle cx="147.25" cy="141.16129032258064" fill="#4fafd0" r="3.3125"><title>2025-08-15: 7 km</title></circle><circle cx="147.25" cy="149.99999999999997" fill="#FFFF00" r="3.3125"><title>2025-08-16: 21 km</title></circle><circle cx="147.25" cy="158.83870967741933" fill="#555555" r="3.3125"><title>2025-08-17</title></circle><circle cx="147.25" cy="167.6774193548387" fill="#555555" r="3.3125"><title>2025-08-18</title></circle><circle cx="147.25" cy="176.51612903225805" fill="#FFFF00" r="3.3125"><title>2025-08-19: 10 km</title></circle><circle cx="147.25" cy="185.35483870967738" fill="#4fb1d2" r="3.3125"><title>2025-08-20: 7 km</title></circle><circle cx="147.25" cy="194.19354838709674" fill="#FFFF00" r="3.3125"><title>2025-08-21: 18 km</title></circle><circle cx="147.25" cy="203.0322580645161" fill="#555555" r="3.3125"><title>2025-08-22</title></circle><circle cx="147.25" cy="211.87096774193546" fill="#509fb9" r="3.3125"><title>2025-08-23: 5 km</title></circle><circle cx="147.25" cy="220.70967741935482" fill="#FFFF00" r="3.3125"><title>2025-08-24: 30 km</title></circle><circle cx="147.25" cy="229.54838709677418" fill="#4ebce1" r="3.3125"><title>2025-08-25: 8 km</title></circle><circle cx="147.25" cy="238.3870967741935" fill="#4ebce1" r="3.3125"><title>2025-08-26: 8 km</title></circle><circle cx="147.25" cy="247.22580645161287" fill="#FFFF00" r="3.3125"><title>2025-08-27: 22 km</title></circle><circle cx="147.25" cy="256.06451612903226" fill="#555555" r="3.3125"><title>2025-08-28</title></circle><circle cx="147.25" cy="264.90322580645164" fill="#4fa6c3" r="3.3125"><title>2025-08-29: 6 km</title></circle><circle cx="147.25" cy="273.741935483871" fill="#FFFF00" r="3.3125"><title>2025-08-30: 10 km</title></circle><circle cx="147.25" cy="282.5806451612903" fill="#FFFF00" r="3.3125"><title>2025-08-31: 31 km</title></circle><circle cx="156.08333333333334" cy="17.419354838709676" fill="#555555" r="3.3125"><title>2025-09-01</title></circle><circle cx="156.08333333333334" cy="26.25806451612903" fill="#4fafcf" r="3.3125"><title>2025-09-02: 7 km</title></circle><circle cx="156.08333333333334" cy="35.096774193548384" fill="#4faac9" r="3.3125"><title>2025-09-03: 6 km</title></circle><circle cx="156.08333333333334" cy="43.935483870967744" fill="#50a2be" r="3.3125"><title>2025-09-04: 6 km</title></circle><circle cx="156.08333333333334" cy="52.774193548387096" fill="#4ec2e9" r="3.3125"><title>2025-09-05: 8 km</title></circle><circle cx="156.08333333333334" cy="61.61290322580645" fill="#FFFF00" r="3.3125"><title>2025-09-06: 21 km</title></circle><circle cx="156.08333333333334" cy="70.45161290322581" fill="#FFFF00" r="3.3125"><title>2025-09-07: 15 km</title></circle><circle cx="156.08333333333334" cy="79.29032258064517" fill="#555555" r="3.3125"><title>2025-09-08</title></circle><circle cx="156.08333333333334" cy="88.12903225806451" fill="#4dc5ee" r="3.3125"><title>2025-09-09: 9 km</title></circle><circle cx="156.08333333333334" cy="96.96774193548387" fill="#FFFF00" r="3.3125"><title>2025-09-10: 23 km</title></circle><circle cx="156.08333333333334" cy="105.80645161290322" fill="#4ebadf" r="3.3125"><title>2025-09-11: 8 km</title></circle><circle cx="156.08333333333334" cy="114.64516129032258" fill="#4fafcf" r="3.3125"><title>2025-09-12: 7 km</title></circle><circle cx="156.08333333333334" cy="123.48387096774194" fill="#FFFF00" r="3.3125"><title>2025-09-13: 32 km</title></circle><circle cx="156.08333333333334" cy="132.32258064516128" fill="#FFFF00" r="3.3125"><title>2025-09-14: 11 km</title></circle><circle cx="156.08333333333334" cy="141.16129032258064" fill="#4fafd0" r="3.3125"><title>2025-09-15: 7 km</title></circle><circle cx="156.08333333333334" cy="149.99999999999997" fill="#4ebbe0" r="3.3125"><title>2025-09-16: 8 km</title></circle><circle cx="156.08333333333334" cy="158.83870967741933" fill="#FFFF00" r="3.3125"><title>2025-09-17: 19 km</title></circle><circle cx="156.08333333333334" cy="167.6774193548387" fill="#555555" r="3.3125"><title>2025-09-18</title></circle><circle cx="156.08333333333334" cy="176.51612903225805" fill="#4ec1e8" r="3.3125"><title>2025-09-19: 8 km</title></circle><circle cx="156.08333333333334" cy="185.35483870967738" fill="#555555" r="3.3125"><title>2025-09-20</title></circle><circle cx="156.08333333333334" cy="194.19354838709674" fill="#FFFF00" r="3.3125"><title>2025-09-21: 17 km</title></circle><circle cx="156.08333333333334" cy="203.0322580645161" fill="#555555" r="3.3125"><title>2025-09-22</title></circle><circle cx="156.08333333333334" cy="211.87096774193546" fill="#FFFF00" r="3.3125"><title>2025-09-23: 15 km</title></circle><circle cx="156.08333333333334" cy="220.70967741935482" fill="#555555" r="3.3125"><title>2025-09-24</title></circle><circle cx="156.08333333333334" cy="229.54838709677418" fill="#FFFF00" r="3.3125"><title>2025-09-25: 10 km</title></circle><circle cx="156.08333333333334" cy="238.3870967741935" fill="#FFFF00" r="3.3125"><title>2025-09-26: 10 km</title></circle><circle cx="156.08333333333334" cy="247.22580645161287" fill="#FFFF00" r="3.3125"><title>2025-09-27: 21 km</title></circle><circle cx="156.08333333333334" cy="256.06451612903226" fill="#4eb9dd" r="3.3125"><title>2025-09-28: 8 km</title></circle><circle cx="156.08333333333334" cy="264.90322580645164" fill="#4faccc" r="3.3125"><title>2025-09-29: 7 km</title></circle><circle cx="156.08333333333334" cy="273.741935483871" fill="#555555" r="3.3125"><title>2025-09-30</title></circle><circle cx="164.91666666666666" cy="17.419354838709676" fill="#FFFF00" r="3.3125"><title>2025-10-01: 42 km</title></circle><circle cx="164.91666666666666" cy="26.25806451612903" fill="#FFFF00" r="3.3125"><title>2025-10-02: 31 km</title></circle><circle cx="164.91666666666666" cy="35.096774193548384" fill="#FFFF00" r="3.3125"><title>2025-10-03: 31 km</title></circle><circle cx="164.91666666666666" cy="43.935483870967744" fill="#FFFF00" r="3.3125"><title>2025-10-04: 42 km</title></circle><circle cx="164.91666666666666" cy="52.774193548387096" fill="#555555" r="3.3125"><title>2025-10-05</title></circle><circle cx="164.91666666666666" cy="61.61290322580645" fill="#FFFF00" r="3.3125"><title>2025-10-06: 42 km</title></circle><circle cx="164.91666666666666" cy="70.45161290322581" fill="#FFFF00" r="3.3125"><title>2025-10-07: 31 km</title></circle><circle cx="164.91666666666666" cy="79.29032258064517" fill="#FFFF00" r="3.3125"><title>2025-10-08: 21 km</title></circle><circle cx="164.91666666666666" cy="88.12903225806451" fill="#555555" r="3.3125"><title>2025-10-09</title></circle><circle cx="164.91666666666666" cy="96.96774193548387" fill="#555555" r="3.3125"><title>2025-10-10</title></circle><circle cx="164.91666666666666" cy="105.80645161290322" fill="#4faece" r="3.3125"><title>2025-10-11: 7 km</title></circle><circle cx="164.91666666666666" cy="114.64516129032258" fill="#50a0bb" r="3.3125"><title>2025-10-12: 6 km</title></circle><circle cx="164.91666666666666" cy="123.48387096774194" fill="#555555" r="3.3125"><title>2025-10-13</title></circle><circle cx="164.91666666666666" cy="132.32258064516128" fill="#FFFF00" r="3.3125"><title>2025-10-14: 10 km</title></circle><circle cx="164.91666666666666" cy="141.16129032258064" fill="#FFFF00" r="3.3125"><title>2025-10-15: 13 km</title></circle><circle cx="164.91666666666666" cy="149.99999999999997" fill="#4faece" r="3.3125"><title>2025-10-16: 7 km</title></circle><circle cx="164.91666666666666" cy="158.83870967741933" fill="#555555" r="3.3125"><title>2025-10-17</title></circle><circle cx="164.91666666666666" cy="167.6774193548387" fill="#FFFF00" r="3.3125"><title>2025-10-18: 17 km</title></circle><circle cx="164.91666666666666" cy="176.51612903225805" fill="#FFFF00" r="3.3125"><title>2025-10-19: 29 km</title></circle><circle cx="164.91666666666666" cy="185.35483870967738" fill="#555555" r="3.3125"><title>2025-10-20</title></circle><circle cx="164.91666666666666" cy="194.19354838709674" fill="#4faecf" r="3.3125"><title>2025-10-21: 7 km</title></circle><circle cx="164.91666666666666" cy="203.0322580645161" fill="#555555" r="3.3125"><title>2025-10-22</title></circle><circle cx="164.91666666666666" cy="211.87096774193546" fill="#FFFF00" r="3.3125"><title>2025-10-23: 14 km</title></circle><circle cx="164.91666666666666" cy="220.70967741935482" fill="#555555" r="3.3125"><title>2025-10-24</title></circle><circle cx="164.91666666666666" cy="229.54838709677418" fill="#FFFF00" r="3.3125"><title>2025-10-25: 16 km</title></circle><circle cx="164.91666666666666" cy="238.3870967741935" fill="#555555" r="3.3125"><title>2025-10-26</title></circle><circle cx="164.91666666666666" cy="247.22580645161287" fill="#555555" r="3.3125"><title>2025-10-27</title></circle><circle cx="164.91666666666666" cy="256.06451612903226" fill="#50a0bb" r="3.3125"><title>2025-10-28: 6 km</title></circle><circle cx="164.91666666666666" cy="264.90322580645164" fill="#4fb1d2" r="3.3125"><title>2025-10-29: 7 km</title></circle><circle cx="164.91666666666666" cy="273.741935483871" fill="#4fa4c1" r="3.3125"><title>2025-10-30: 6 km</title></circle><circle cx="164.91666666666666" cy="282.5806451612903" fill="#555555" r="3.3125"><title>2025-10-31</title></circle><circle cx="173.75" cy="17.419354838709676" fill="#4dc8f2" r="3.3125"><title>2025-11-01: 9 km</title></circle><circle cx="173.75" cy="26.25806451612903" fill="#FFFF00" r="3.3125"><title>2025-11-02: 44 km</title></circle><circle cx="173.75" cy="35.096774193548384" fill="#50a0bb" r="3.3125"><title>2025-11-03: 6 km</title></circle><circle cx="173.75" cy="43.935483870967744" fill="#50a0bb" r="3.3125"><title>2025-11-04: 6 km</title></circle><circle cx="173.75" cy="52.774193548387096" fill="#FFFF00" r="3.3125"><title>2025-11-05: 10 km</title></circle><circle cx="173.75" cy="61.61290322580645" fill="#555555" r="3.3125"><title>2025-11-06</title></circle><circle cx="173.75" cy="70.45161290322581" fill="#FFFF00" r="3.3125"><title>2025-11-07: 14 km</title></circle><circle cx="173.75" cy="79.29032258064517" fill="#536970" r="3.3125"><title>2025-11-08: 1 km</title></circle><circle cx="173.75" cy="88.12903225806451" fill="#FFFF00" r="3.3125"><title>2025-11-09: 15 km</title></circle><circle cx="173.75" cy="96.96774193548387" fill="#555555" r="3.3125"><title>2025-11-10</title></circle><circle cx="173.75" cy="105.80645161290322" fill="#555555" r="3.3125"><title>2025-11-11</title></circle><circle cx="173.75" cy="114.64516129032258" fill="#FFFF00" r="3.3125"><title>2025-11-12: 10 km</title></circle><circle cx="173.75" cy="123.48387096774194" fill="#555555" r="3.3125"><title>2025-11-13</title></circle><circle cx="173.75" cy="132.32258064516128" fill="#4eb9dd" r="3.3125"><title>2025-11-14: 8 km</title></circle><circle cx="173.75" cy="141.16129032258064" fill="#FFFF00" r="3.3125"><title>2025-11-15: 10 km</title></circle><circle cx="173.75" cy="149.99999999999997" fill="#4fa5c2" r="3.3125"><title>2025-11-16: 6 km</title></circle><circle cx="173.75" cy="158.83870967741933" fill="#50a2be" r="3.3125"><title>2025-11-17: 6 km</title></circle><circle cx="173.75" cy="167.6774193548387" fill="#555555" r="3.3125"><title>2025-11-18</title></circle><circle cx="173.75" cy="176.51612903225805" fill="#555555" r="3.3125"><title>2025-11-19</title></circle><circle cx="173.75" cy="185.35483870967738" fill="#555555" r="3.3125"><title>2025-11-20</title></circle><circle cx="173.75" cy="194.19354838709674" fill="#4dcdf8" r="3.3125"><title>2025-11-21: 9 km</title></circle><circle cx="173.75" cy="203.0322580645161" fill="#555555" r="3.3125"><title>2025-11-22</title></circle><circle cx="173.75" cy="211.87096774193546" fill="#53727c" r="3.3125"><title>2025-11-23: 2 km</title></circle><circle cx="173.75" cy="220.70967741935482" fill="#555555" r="3.3125"><title>2025-11-24</title></circle><circle cx="173.75" cy="229.54838709677418" fill="#555555" r="3.3125"><title>2025-11-25</title></circle><circle cx="173.75" cy="238.3870967741935" fill="#555555" r="3.3125"><title>2025-11-26</title></circle><circle cx="173.75" cy="247.22580645161287" fill="#555555" r="3.3125"><title>2025-11-27</title></circle><circle cx="173.75" cy="256.06451612903226" fill="#555555" r="3.3125"><title>2025-11-28</title></circle><circle cx="173.75" cy="264.90322580645164" fill="#4fa9c8" r="3.3125"><title>2025-11-29: 6 km</title></circle><circle cx="173.75" cy="273.741935483871" fill="#5093aa" r="3.3125"><title>2025-11-30: 5 km</title></circle><circle cx="182.58333333333334" cy="17.419354838709676" fill="#527580" r="3.3125"><title>2025-12-01: 2 km</title></circle><circle cx="182.58333333333334" cy="26.25806451612903" fill="#4ebde3" r="3.3125"><title>2025-12-02: 8 km</title></circle><circle cx="182.58333333333334" cy="35.096774193548384" fill="#FFFF00" r="3.3125"><title>2025-12-03: 10 km</title></circle><circle cx="182.58333333333334" cy="43.935483870967744" fill="#555555" r="3.3125"><title>2025-12-04</title></circle><circle cx="182.58333333333334" cy="52.774193548387096" fill="#50a0bb" r="3.3125"><title>2025-12-05: 6 km</title></circle><circle cx="182.58333333333334" cy="61.61290322580645" fill="#5094aa" r="3.3125"><title>2025-12-06: 5 km</title></circle><circle cx="182.58333333333334" cy="70.45161290322581" fill="#FFFF00" r="3.3125"><title>2025-12-07: 42 km</title></circle><circle cx="182.58333333333334" cy="79.29032258064517" fill="#555555" r="3.3125"><title>2025-12-08</title></circle><circle cx="182.58333333333334" cy="88.12903225806451" fill="#555555" r="3.3125"><title>2025-12-09</title></circle><circle cx="182.58333333333334" cy="96.96774193548387" fill="#555555" r="3.3125"><title>2025-12-10</title></circle><circle cx="182.58333333333334" cy="105.80645161290322" fill="#4eb3d5" r="3.3125"><title>2025-12-11: 7 km</title></circle><circle cx="182.58333333333334" cy="114.64516129032258" fill="#555555" r="3.3125"><title>2025-12-12</title></circle><circle cx="182.58333333333334" cy="123.48387096774194" fill="#FFFF00" r="3.3125"><title>2025-12-13: 15 km</title></circle><circle cx="182.58333333333334" cy="132.32258064516128" fill="#4fa6c3" r="3.3125"><title>2025-12-14: 6 km</title></circle><circle cx="182.58333333333334" cy="141.16129032258064" fill="#50a0bb" r="3.3125"><title>2025-12-15: 6 km</title></circle><circle cx="182.58333333333334" cy="149.99999999999997" fill="#4eb9dd" r="3.3125"><title>2025-12-16: 8 km</title></circle><circle cx="182.58333333333334" cy="158.83870967741933" fill="#4dc5ee" r="3.3125"><title>2025-12-17: 9 km</title></circle><circle cx="182.58333333333334" cy="167.6774193548387" fill="#FFFF00" r="3.3125"><title>2025-12-18: 10 km</title></circle><circle cx="182.58333333333334" cy="176.51612903225805" fill="#555555" r="3.3125"><title>2025-12-19</title></circle><circle cx="182.58333333333334" cy="185.35483870967738" fill="#FFFF00" r="3.3125"><title>2025-12-20: 18 km</title></circle><circle cx="182.58333333333334" cy="194.19354838709674" fill="#FFFF00" r="3.3125"><title>2025-12-21: 15 km</title></circle><circle cx="182.58333333333334" cy="203.0322580645161" fill="#555555" r="3.3125"><title>2025-12-22</title></circle><circle cx="182.58333333333334" cy="211.87096774193546" fill="#FFFF00" r="3.3125"><title>2025-12-23: 11 km</title></circle><circle cx="182.58333333333334" cy="220.70967741935482" fill="#FFFF00" r="3.3125"><title>2025-12-24: 21 km</title></circle><circle cx="182.58333333333334" cy="229.54838709677418" fill="#555555" r="3.3125"><title>2025-12-25</title></circle><circle cx="182.58333333333334" cy="238.3870967741935" fill="#FFFF00" r="3.3125"><title>2025-12-26: 10 km</title></circle><circle cx="182.58333333333334" cy="247.22580645161287" fill="#FFFF00" r="3.3125"><title>2025-12-27: 21 km</title></circle><circle cx="182.58333333333334" cy="256.06451612903226" fill="#FFFF00" r="3.3125"><title>2025-12-28: 10 km</title></circle><circle cx="182.58333333333334" cy="264.90322580645164" fill="#4dc5ee" r="3.3125"><title>2025-12-29: 9 km</title></circle><circle cx="182.58333333333334" cy="273.741935483871" fill="#FFFF00" r="3.3125"><title>2025-12-30: 11 km</title></circle><circle cx="182.58333333333334" cy="282.5806451612903" fill="#FFFF00" r="3.3125"><title>2025-12-31: 20 km</title></circle></svg>