<?xml version="1.0" encoding="utf-8" ?>
<svg baseProfile="full" height="200mm" version="1.1" viewBox="0,0,200,200" width="200mm" xmlns="http://www.w3.org/2000/svg" xmlns:ev="http://www.w3.org/2001/xml-events" xmlns:xlink="http://www.w3.org/1999/xlink"><defs /><rect fill="#1a1a1a" height="200" width="200" x="0" y="0" /><text alignment-baseline="middle" fill="#e1ed5e" style="dominant-baseline: central; font-size:9.0px; font-family:Arial;" text-anchor="middle" x="100.0" y="100.0">2024</text><line stroke="#e1ed5e" stroke-width="0.3" x1="100.0" x2="100.0" y1="15.0" y2="10.0" /><path d="M 100.0 14.0 a86.0,86.0 0 0,1 42.35913384403234,11.155469271406648" fill="none" id="id49" stroke="none" /><text fill="#e1ed5e" style="font-size:6.75px; font-family:Arial;" text-anchor="middle"><textPath startOffset="22.145653131862478" xlink:href="#id49">January</textPath></text><path d="M 100.0 79.0 l 0.0 -26.332857732887767 a47.33285773288777,47.33285773288777 0 0,0 0.8125314440754021,0.006974605214575829 l -0.45203851922654736 26.328977525867625" fill="#daff1b" stroke="none" /><path d="M 100.36049292484886 79.00309439819443 l 0.4564466042786423 -26.585726380959233 a47.589644426087936,47.589644426087936 0 0,0 0.8166987732985547,0.0210352633701809 l -0.9127586916479383 26.57397340023901" fill="#d7ff1c" stroke="none" /><path d="M 101.80034050326958 79.07731436759882 l 2.2613370909163897 -26.280164766724464 a47.37727631134307,47.37727631134307 0 0,0 0.8097011977985672,0.07667954527468555 l -2.71213785209997 26.237473465944596" fill="#daff1c" stroke="none" /><path d="M 102.15924093988457 79.11130261209362 l 2.167132131945124 -20.965037512779887 a42.07674689295236,42.07674689295236 0 0,0 0.7178375137702409,0.08043519068372616 l -2.5267055473161615 20.92474656158919" fill="#ffde14" stroke="none" /><path d="M 102.87502721639298 79.19773525538626 l 3.6166064089065646 -26.167962364380497 a47.41670108511996,47.41670108511996 0 0,0 0.8053498500936797,0.11835869421855742 l -4.065281364607926 26.10202259686306" fill="#d9ff1c" stroke="none" /><path d="M 103.58742460773223 79.30868818359171 l 4.505304947359382 -25.98540169816945 a47.37307100214021,47.37307100214021 0 0,0 0.8000753737847099,0.14580038501654177 l -4.950715054695145 25.904233139221542" fill="#daff1c" stroke="none" /><path d="M 104.29559338865022 79.4440306129975 l 5.3986983730470826 -25.834726065841018 a47.39278338902865,47.39278338902865 0 0,0 0.7949294995544902,0.17325118456001162 l -5.8413902892207075 25.73824342314729" fill="#daff1c" stroke="none" /><path d="M 104.64783097203109 79.52079915486377 l 5.833711673864968 -25.70441002709029 a47.35808958810498,47.35808958810498 0 0,0 0.7912586141319987,0.1867348784496445 l -6.2741024417368525 25.600479004994416" fill="#daff1c" stroke="none" /><path d="M 105.3480935250658 79.69241777938227 l 6.703273208271879 -25.45342021156413 a47.32129313257988,47.32129313257988 0 0,0 0.7837726611110799,0.213620724068037 l -7.139227270317652 25.33459899335195" fill="#dbff1b" stroke="none" /><path d="M 106.72888874123014 80.10723608172694 l 8.478674362784076 -25.06569419186796 a47.460856831750085,47.460856831750085 0 0,0 0.7695308478575554,0.26768277499000964 l -8.90771098268665 24.91645298430936" fill="#d9ff1c" stroke="none" /><path d="M 107.06938296918511 80.22567764915836 l 8.891342369195879 -24.870667059142516 a47.41223294409192,47.41223294409192 0 0,0 0.7640387605991621,0.28056561593157187 l -9.316970281449166 24.714370594202222" fill="#d9ff1c" stroke="none" /><path d="M 108.07796709384702 80.6158196554323 l 10.228512633255779 -24.544706760534098 a47.59069575338865,47.59069575338865 0 0,0 0.7514002600028212,0.3207280899738647 l -10.64834796842903 24.365504020900833" fill="#d7ff1c" stroke="none" /><path d="M 108.73861861582097 80.90454125486305 l 8.773726646906189 -19.172176129049003 a42.08436901588255,42.08436901588255 0 0,0 0.6543343549181903,0.30626151738016416 l -9.101549715695885 19.018738380098306" fill="#ffde14" stroke="none" /><path d="M 109.3889696526874 81.21577127319529 l 14.44756069398812 -28.904799425205052 a53.31438441031803,53.31438441031803 0 0,0 0.8151332154881461,0.4162128278823556 l -14.941621131189844 28.652528645649863" fill="#91ff24" stroke="none" /><line stroke="#e1ed5e" stroke-width="0.3" x1="143.13028292997686" x2="145.6673583964461" y1="26.7553504044142" y2="22.446841604673864" /><path d="M 143.63769802327073 25.89364864446614 a86.0,86.0 0 0,1 29.32050498858742,28.57503671076993" fill="none" id="id50" stroke="none" /><text fill="#e1ed5e" style="font-size:6.75px; font-family:Arial;" text-anchor="middle"><textPath startOffset="20.669276256404974" xlink:href="#id50">February</textPath></text><path d="M 110.96478420261332 82.08984904055464 l 8.32057761659906 -13.591038221030692 a36.93575639244546,36.93575639244546 0 0,0 0.5379180588140239,0.3357006529475667 l -8.552659804202795 13.44620177124158" fill="#ff960d" stroke="none" /><path d="M 111.27062007382361 82.28071324371311 l 14.146145301985339 -22.24009002700253 a47.3578267562798,47.3578267562798 0 0,0 0.6822106199456269,0.44220068161387677 l -14.525841554187974 21.99397550368476" fill="#daff1c" stroke="none" /><path d="M 117.62189284568427 88.57770195909679 l 13.83016101170632 -8.964543276523084 a37.48139526151766,37.48139526151766 0 0,0 0.34533270839432706,0.5429203758341569 l -13.982011411726537 8.725809226010256" fill="#ff9e0e" stroke="none" /><path d="M 117.81537515405839 88.88188828441811 l 14.033518334974488 -8.75795335555255 a37.542109413134085,37.542109413134085 0 0,0 0.3365060796891538,0.5496573917585574 l -14.181792379119043 8.515758847669439" fill="#ff9f0e" stroke="none" /><line stroke="#e1ed5e" stroke-width="0.3" x1="172.87174338648825" x2="177.1583165268699" y1="56.24261187166439" y2="53.66864786411523" /><path d="M 173.72905801456457 55.72781907015455 a86.0,86.0 0 0,1 12.242430191666344,42.057860355516425" fill="none" id="id51" stroke="none" /><text fill="#e1ed5e" style="font-size:6.75px; font-family:Arial;" text-anchor="middle"><textPath startOffset="22.145653131862474" xlink:href="#id51">March</textPath></text><path d="M 118.36410011445183 89.81374322990088 l 23.049417588176166 -12.785123392440706 a47.3578267562798,47.3578267562798 0 0,0 0.388231909914504,0.7143029867713682 l -23.265494847706012 12.387565572194735" fill="#daff1c" stroke="none" /><path d="M 118.70294669586156 90.45014215332178 l 23.454350493563616 -11.97595848087733 a47.334960387489204,47.334960387489204 0 0,0 0.36330728682735725,0.7268579435579068 l -23.656477693602714 11.571568681155671" fill="#daff1b" stroke="none" /><path d="M 119.0197475246899 91.09779779509293 l 12.451544246786 -5.8279514228222435 a34.74794427965306,34.74794427965306 0 0,0 0.24822530744280996,0.5424170942981196 l -12.549754019083862 5.61334534630944" fill="#ff770a" stroke="none" /><path d="M 119.71291397450082 92.76114493625339 l 24.757410640574797 -9.091264113088444 a47.37385949761574,47.37385949761574 0 0,0 0.2737754063329891,0.7657985371791641 l -24.909826216951732 8.664930619528363" fill="#daff1c" stroke="none" /><path d="M 119.94978838288452 93.4421083053983 l 25.015699802305843 -8.223157399951864 a47.33259490106259,47.33259490106259 0 0,0 0.24711059499894977,0.774070419274574 l -25.15317511308205 7.792517946985903" fill="#daff1b" stroke="none" /><path d="M 120.16314734710363 94.1308016681162 l 20.33954554977983 -5.9205452778278875 a42.18371944580032,42.18371944580032 0 0,0 0.1964184617768158,0.6970198279995756 l -20.43818250363123 5.5705175259252995" fill="#ffe015" stroke="none" /><path d="M 120.26092885502905 94.47779374421319 l 20.30276984504244 -5.533610203673579 a42.04336725115458,42.04336725115458 0 0,0 0.18381063695456676,0.6979589278841289 l -20.394769962801735 5.184270771416651" fill="#ffde14" stroke="none" /><path d="M 120.43855184770803 95.1765574152323 l 25.639320288060876 -6.050809775732701 a47.34363383772012,47.34363383772012 0 0,0 0.17988132164957144,0.7925902935192822 l -25.739412471268114 5.609785148274393" fill="#daff1b" stroke="none" /><path d="M 120.65975698304385 96.23510406497455 l 20.72155602832536 -3.776157779710255 a42.06281680621785,42.06281680621785 0 0,0 0.12335458332388761,0.7114764564073032 l -20.78332542914148 3.419888290382359" fill="#ffde14" stroke="none" /><path d="M 120.7213421655516 96.59031103205396 l 26.90773869137881 -4.427658162070937 a48.26959035782675,48.26959035782675 0 0,0 0.12752023086425762,0.8187713589898115 l -26.979780414381334 3.9650986211496844" fill="#cfff1d" stroke="none" /><path d="M 120.77682067341334 96.94652285012252 l 26.034020182223184 -3.82610443606471 a47.31367100964968,47.31367100964968 0 0,0 0.11119948124899454,0.8045840523581219 l -26.09586418002739 3.3786320755065025" fill="#dbff1b" stroke="none" /><path d="M 120.86939407059847 97.66154086499901 l 26.155763945000423 -2.930807905740102 a47.31945330980362,47.31945330980362 0 0,0 0.08352471063190134,0.8080258078542644 l -26.20222104811399 2.4813775756029064" fill="#dbff1b" stroke="none" /><path d="M 120.93736805541906 98.37931529534042 l 26.36464286231006 -2.0407900991977375 a47.44350993128825,47.44350993128825 0 0,0 0.055884024005996145,0.8125414441898559 l -26.39579084748112 1.5879052308535475" fill="#d9ff1c" stroke="none" /><path d="M 120.98066250479742 99.09900007780936 l 15.812370042821392 -0.679051206079599 a36.82694401682124,36.82694401682124 0 0,0 0.02170214091227208,0.6318341535480265 l -15.821696870730511 0.40751078796745255" fill="#ff950d" stroke="none" /><path d="M 120.99303781780057 99.45929381324524 l 15.863998765480963 -0.4086003347210731 a36.86925994067511,36.86925994067511 0 0,0 0.010865139859496685,0.6328399262645 l -15.868675336939125 0.13621349248750672" fill="#ff960d" stroke="none" /><line stroke="#e1ed5e" stroke-width="0.3" x1="184.99686870605535" x2="189.99668451229388" y1="99.2704041080226" y2="99.22748670261217" /><path d="M 185.99683186730306 99.26182062694052 a86.0,86.0 0 0,1 -10.086455211305974,41.156179273409016" fill="none" id="id52" stroke="none" /><text fill="#e1ed5e" style="font-size:6.75px; font-family:Arial;" text-anchor="middle"><textPath startOffset="21.40746469413373" xlink:href="#id52">April</textPath></text><path d="M 120.98066250479742 100.90099992219065 l 26.363228244335307 1.1321504548013626 a47.38752675252506,47.38752675252506 0 0,0 -0.04187796076719075,0.8124212510963713 l -26.339908694111543 -1.5845434992744645" fill="#daff1c" stroke="none" /><path d="M 120.96210409425399 101.26102812881392 l 15.837474508488672 0.95274313851213 a36.86610595877295,36.86610595877295 0 0,0 -0.043424829937571255,0.6313874968521634 l -15.818785717386035 -1.224474059518637" fill="#ff950d" stroke="none" /><path d="M 120.9064616781168 101.97986365728391 l 26.24461014925237 2.48539186755249 a47.36203206548267,47.36203206548267 0 0,0 -0.0835998674225742,0.80875288162728 l -26.19807788934813 -2.9355492714627016" fill="#daff1c" stroke="none" /><path d="M 120.82617615685814 102.69636545807757 l 26.11932324527373 3.3816693211694915 a47.337325873915816,47.337325873915816 0 0,0 -0.11125507635669865,0.8049863108627602 l -26.05742365236182 -3.8295439402323366" fill="#daff1b" stroke="none" /><path d="M 120.7213421655516 103.40968896794604 l 20.849717544116398 3.430813087636312 a42.13010175346375,42.13010175346375 0 0,0 -0.12355190502656209,0.7126145555521369 l -20.7877508215976 -3.7882206761090367" fill="#ffdf14" stroke="none" /><path d="M 120.592083275326 104.11899336999214 l 25.871093547400783 5.174943271712418 a47.38358427514738,47.38358427514738 0 0,0 -0.16638923684742923,0.7962327318967092 l -25.778446599728987 -5.6182924548945365" fill="#daff1c" stroke="none" /><path d="M 120.51834098615036 104.47187691870673 l 20.54376453034527 4.477417861834323 a42.02602035069275,42.02602035069275 0 0,0 -0.15967714075913575,0.703566944594463 l -20.46387652802847 -4.829419140367802" fill="#ffde14" stroke="none" /><path d="M 120.26092885502905 105.52220625578681 l 25.383533941456196 6.918395051305514 a47.309465700446815,47.309465700446815 0 0,0 -0.22028528073026854,0.7817147486874977 l -25.26103016865135 -7.35311772389602" fill="#dbff1b" stroke="none" /><path d="M 119.58574465831526 107.57618678355244 l 24.53322941330316 9.489980170859415 a47.30473472759359,47.30473472759359 0 0,0 -0.2994644816696324,0.7548461184856571 l -24.366706256667403 -9.909727306558635" fill="#dbff1b" stroke="none" /><path d="M 119.31412917781788 108.2440532568976 l 24.208472955127718 10.333157579760295 a47.321555964405064,47.321555964405064 0 0,0 -0.32531568245228876,0.7443859453461 l -24.027523390658466 -10.74720559488224" fill="#dbff1b" stroke="none" /><path d="M 119.0197475246899 108.90220220490707 l 23.824971914649606 11.151289849411437 a47.30552322306912,47.30552322306912 0 0,0 -0.3505581250746968,0.7325316540671899 l -23.630034531614996 -11.55863400554373" fill="#dbff1b" stroke="none" /><path d="M 118.70294669586154 109.54985784667822 l 23.434687575098398 11.96591845460515 a47.31288251417414,47.31288251417414 0 0,0 -0.37555598803090695,0.7201781259624304 l -23.22582351809254 -12.366442823672084" fill="#dbff1b" stroke="none" /><line stroke="#e1ed5e" stroke-width="0.3" x1="174.33088141563837" x2="178.70328620479359" y1="141.23008692659167" y2="143.65538615756765" /><path d="M 175.20536237346943 141.71514677278685 a86.0,86.0 0 0,1 -30.301960400862466,31.631185727798858" fill="none" id="id53" stroke="none" /><text fill="#e1ed5e" style="font-size:6.75px; font-family:Arial;" text-anchor="middle"><textPath startOffset="22.145653131862474" xlink:href="#id53">May</textPath></text><path d="M 118.36410011445183 110.18625677009912 l 23.035627102602287 12.777474042558904 a47.34205684676904,47.34205684676904 0 0,0 -0.40030332034511407,0.7072976107264886 l -22.812890417235796 -13.171028423384515" fill="#daff1b" stroke="none" /><path d="M 117.21940702142032 112.02048342749411 l 21.591337719383155 15.07243059592107 a47.33180640558705,47.33180640558705 0 0,0 -0.470804748449049,0.6622458391875453 l -21.329417872404143 -15.44085366181812" fill="#daff1b" stroke="none" /><path d="M 116.79662413953412 112.60449989151573 l 21.08685937951974 15.823972397880679 a47.36387188825893,47.36387188825893 0 0,0 -0.49359474798045305,0.6461313697106906 l -20.812112654184986 -16.183624680832246" fill="#daff1c" stroke="none" /><path d="M 116.35404254752997 113.17365903436017 l 20.51219689680933 16.52317383783739 a47.339428528517246,47.339428528517246 0 0,0 -0.5152179507437273,0.6284821266403753 l -20.225532126826973 -16.87285824617626" fill="#daff1b" stroke="none" /><path d="M 115.89218393027572 113.72728997021213 l 12.05076228237756 10.409161443012698 a36.923928960312395,36.923928960312395 0 0,0 -0.4184517413206437,0.47612126749621997 l -11.87029947709833 -10.614494988320212" fill="#ff960d" stroke="none" /><path d="M 115.41159269507618 114.26474011684316 l 19.304659884461817 17.868104987220075 a47.30473472759359,47.30473472759359 0 0,0 -0.5567185345037384,0.5912157911579552 l -18.995085516221817 -18.196862238322527" fill="#dbff1b" stroke="none" /><path d="M 115.16444852881244 114.52719865689866 l 19.03627107963002 18.23631707641245 a47.36176923365749,47.36176923365749 0 0,0 -0.5674688695256117,0.5822730514121311 l -18.720415408953603 -18.56041281989232" fill="#daff1c" stroke="none" /><path d="M 113.86319453409587 115.77377054828091 l 17.370158174731493 19.764051406888075 a47.312356850523784,47.312356850523784 0 0,0 -0.6146562766478725,0.5309254523213829 l -17.028322418320766 -20.059320991674177" fill="#dbff1b" stroke="none" /><path d="M 112.7482090630111 116.68781488649013 l 10.00403895231225 13.09560812254135 a37.479555438741414,37.479555438741414 0 0,0 -0.5146246565578246,0.386183936359388 l -9.777761306843658 -13.265411086164752" fill="#ff9e0e" stroke="none" /><path d="M 112.45986205192187 116.90419585922612 l 7.857608595979767 10.660355157872141 a34.24330717530883,34.24330717530883 0 0,0 -0.4761759982279781,0.34471470107119345 l -7.673451587377821 -10.793670630316413" fill="#ff6f0a" stroke="none" /><path d="M 111.8722381534696 117.32195027204791 l 14.875105033448909 21.703222791701677 a47.311568355048244,47.311568355048244 0 0,0 -0.6738602719498706,0.4534032643962977 l -14.500348473402035 -21.955375730155097" fill="#dbff1b" stroke="none" /><line stroke="#e1ed5e" stroke-width="0.3" x1="143.1302829299769" x2="145.66735839644613" y1="173.24464959558577" y2="177.55315839532614" /><path d="M 143.63769802327073 174.10635135553383 a86.0,86.0 0 0,1 -40.68552437913181,11.842963189579606" fill="none" id="id54" stroke="none" /><text fill="#e1ed5e" style="font-size:6.75px; font-family:Arial;" text-anchor="middle"><textPath startOffset="21.407464694133747" xlink:href="#id54">June</textPath></text><path d="M 110.34350942703117 118.27599006163325 l 11.672129775841798 20.623534912038675 a44.69744302181505,44.69744302181505 0 0,0 -0.6710061279613816,0.3721957880389511 l -11.31637945972432 -20.820863615510767" fill="#fdff18" stroke="none" /><path d="M 109.71004243097381 118.62028667847754 l 12.173312935403251 23.343932665111435 a47.327338264559,47.327338264559 0 0,0 -0.7235961897858593,0.3694733703316361 l -11.77078952390381 -23.549463987115907" fill="#dbff1b" stroke="none" /><path d="M 109.06512990194946 118.94263497670748 l 11.361733857884593 23.741653953146653 a47.32024180527917,47.32024180527917 0 0,0 -0.7357425243691914,0.34436465122268284 l -10.952502619643894 -23.93319483593987" fill="#dbff1b" stroke="none" /><path d="M 108.4095320186766 119.2426549942271 l 6.3360670095034 14.498161278582671 a36.822213043968006,36.822213043968006 0 0,0 -0.581378776189601,0.2481560286363638 l -6.086253158143368 -14.60479195687844" fill="#ff950d" stroke="none" /><path d="M 108.07796709384702 119.3841803445677 l 16.0731314611285 38.56966428865227 a62.78474073517816,62.78474073517816 0 0,0 -0.9984135273251212,0.40604608972392714 l -15.40866347261294 -38.839897634955484" fill="#30ff39" stroke="none" /><path d="M 107.06938296918513 119.77432235084164 l 8.861790385920656 24.78800490235481 a47.32444711448204,47.32444711448204 0 0,0 -0.7673190992210361,0.26691341400305235 l -8.434965514654598 -24.936476748926452" fill="#dbff1b" stroke="none" /><path d="M 106.38641147887787 120.00534299687104 l 7.2082626012426445 22.57977993217471 a44.702436826493454,44.702436826493454 0 0,0 -0.73303346926988,0.22709564257182105 l -6.81958849910114 -22.700192162553172" fill="#fdff18" stroke="none" /><path d="M 105.3480935250658 120.30758222061773 l 6.706887734740967 25.467145157307044 a47.33548605113956,47.33548605113956 0 0,0 -0.7875603937557715,0.20019477236175098 l -6.268722047759798 -25.578525161504064" fill="#daff1b" stroke="none" /><path d="M 104.64783097203109 120.47920084513623 l 4.663653573370178 20.548918146102167 a42.07149025644877,42.07149025644877 0 0,0 -0.7056742884363374,0.15379842672043 l -4.310216868314704 -20.625948030956316" fill="#ffde14" stroke="none" /><path d="M 103.58742460773223 120.69131181640829 l 1.0235737466360244 5.9037013664584 a26.991777118612248,26.991777118612248 0 0,0 -0.4572182073175095,0.0752350820221605 l -0.9220780362654426 -5.920402446976232" fill="#ff0000" stroke="none" /><path d="M 103.2317021107853 120.74984581791261 l 4.049061980805574 25.997882517851018 a47.31130552322307,47.31130552322307 0 0,0 -0.8035597571932436,0.11809561220742903 l -3.6021771180046445 -26.06355920335733" fill="#dbff1b" stroke="none" /><path d="M 102.15924093988457 120.88869738790638 l 2.70727341863798 26.190414484858188 a47.3299665828108,47.3299665828108 0 0,0 -0.8088926510258777,0.07660297505466945 l -2.257281204227087 -26.23302921541804" fill="#daff1b" stroke="none" /><path d="M 101.80034050326958 120.92268563240118 l 1.1414842432963321 13.265777186846035 a34.31479743175759,34.31479743175759 0 0,0 -0.5873239111895613,0.04546258522209021 l -0.9135913373315351 -13.28341753906318" fill="#ff700a" stroke="none" /><path d="M 100.72087961077811 120.9876233191556 l 0.9030145148792602 26.290282325448484 a47.305786054894305,47.305786054894305 0 0,0 -0.811827402933418,0.02090979414951542 l -0.4515737978750983 -26.301909836948045" fill="#dbff1b" stroke="none" /><line stroke="#e1ed5e" stroke-width="0.3" x1="101.45913802915013" x2="101.54496967792366" y1="184.9874750549273" y2="189.98673829345242" /><path d="M 101.47630435890484 185.9873277026323 a86.0,86.0 0 0,1 -42.54439059252881,-10.42667462771756" fill="none" id="id55" stroke="none" /><text fill="#e1ed5e" style="font-size:6.75px; font-family:Arial;" text-anchor="middle"><textPath startOffset="22.145653131862474" xlink:href="#id55">July</textPath></text><path d="M 100.0 121.0 l 3.223493113654001e-15 26.321818796230247 a47.32181879623025,47.32181879623025 0 0,0 -0.8123419460485919,-0.006972978601925281 l 0.4518490211997365 -26.317940215822755" fill="#dbff1b" stroke="none" /><path d="M 98.91894614982273 120.97215588758144 l -1.083245751499295 21.01467818765764 a42.042578755679045,42.042578755679045 0 0,0 -0.7204409245784539,-0.04333993701000399 l 1.4438310282101952 -20.992986272822943" fill="#ffde14" stroke="none" /><path d="M 98.55909050195518 120.95050786540614 l -1.4501069078247035 21.08423618505165 a42.13404423084144,42.13404423084144 0 0,0 -0.7211562796226668,-0.055822056953866 l 1.8118321822226064 -21.056236361102734" fill="#ffdf14" stroke="none" /><path d="M 98.19965949673042 120.92268563240118 l -1.7456986964831567 20.287665010634036 a41.36263282394022,41.36263282394022 0 0,0 -0.7069079514313068,-0.06694491796997115 l 2.093706211299479 -20.25470833715888" fill="#ffd513" stroke="none" /><path d="M 97.48249496171623 120.84855314841334 l -3.1550499004802144 26.128339183344877 a47.31813915067772,47.31813915067772 0 0,0 -0.805584960629752,-0.10429910152630348 l 3.6031126830007607 -26.070328485618177" fill="#dbff1b" stroke="none" /><path d="M 96.76829788921471 120.74984581791261 l -4.051003453180901 26.010348163219046 a47.323921450831676,47.323921450831676 0 0,0 -0.8016277858957397,-0.13190754711399302 l 4.496908742129705 -25.936974617609387" fill="#dbff1b" stroke="none" /><path d="M 96.05791012581884 120.62667999033965 l -2.489270959862609 13.024917527786412 a34.26065407577066,34.26065407577066 0 0,0 -0.5767267439901445,-0.1153615009725113 l 2.7124941893837113 -12.98026663015104" fill="#ff700a" stroke="none" /><path d="M 95.00130118170881 120.39639698878247 l -6.2757916351947545 25.607371490741393 a47.365186047384825,47.365186047384825 0 0,0 -0.7880545376357813,-0.20032038180371992 l 6.714451466055914 -25.49586587710241" fill="#daff1c" stroke="none" /><path d="M 94.30408787586889 120.21278271476187 l -7.137801492241802 25.32953940994921 a47.31603649607629,47.31603649607629 0 0,0 -0.77990344223349,-0.22701852559961788 l 7.571564946856899 -25.20327719004708" fill="#dbff1b" stroke="none" /><path d="M 93.61358852112213 120.00534299687104 l -11.981425567896428 37.531644941763695 a60.39770209889986,60.39770209889986 0 0,0 -0.9849923651046837,-0.32378655484425406 l 12.623940670648855 -37.32043746551742" fill="#41ff2d" stroke="none" /><path d="M 93.27111125876986 119.89276391827306 l -12.646426725466917 37.386913491076925 a60.46787819622273,60.46787819622273 0 0,0 -0.9804268334523103,-0.3410433463243892 l 13.286359330964249 -37.164311712183945" fill="#40ff2d" stroke="none" /><path d="M 92.59220618246901 119.65005319985036 l -7.422720847964692 19.689648921513662 a42.04231592385386,42.04231592385386 0 0,0 -0.6731329886956998,-0.26038230057106054 l 7.7596260991539205 -19.55932673280456" fill="#ffde14" stroke="none" /><path d="M 91.92203290615298 119.3841803445677 l -8.10496138932077 19.448956826776485 a42.07017609732287,42.07017609732287 0 0,0 -0.6642378464416944,-0.28352363862210433 l 8.437634310932896 -19.306958538494975" fill="#ffde14" stroke="none" /><path d="M 91.26138138417905 119.09545874513695 l -10.938393784721777 23.90236448539578 a47.28633649983104,47.28633649983104 0 0,0 -0.7352153593745401,-0.3441179113870636 l 11.347097857967807 -23.71107034243819" fill="#dbff1b" stroke="none" /><path d="M 90.93487009805054 118.94263497670748 l -11.365251036159174 23.749003503006826 a47.328389591859725,47.328389591859725 0 0,0 -0.7298482803931201,-0.35700536710401 l 11.771259565814363 -23.550404385805592" fill="#dbff1b" stroke="none" /><line stroke="#e1ed5e" stroke-width="0.3" x1="58.13341422392154" x2="55.67067388415222" y1="173.97424548756322" y2="178.32567169271397" /><path d="M 57.64086615596768 174.84453072859336 a86.0,86.0 0 0,1 -31.369924170532247,-30.572349798747897" fill="none" id="id56" stroke="none" /><text fill="#e1ed5e" style="font-size:6.75px; font-family:Arial;" text-anchor="middle"><textPath startOffset="22.145653131862474" xlink:href="#id56">August</textPath></text><path d="M 88.72937992617639 117.7192867562869 l -11.421837294554019 17.95702534378787 a42.2817557165922,42.2817557165922 0 0,0 -0.6090875522699265,-0.39480319259433116 l 11.728410479080955 -17.758308309489642" fill="#ffe115" stroke="none" /><path d="M 88.1277618465304 117.32195027204791 l -14.87183604085355 21.698453233810035 a47.305786054894305,47.305786054894305 0 0,0 -0.6658963130338281,-0.46484734261147015 l 15.242127445061143 -21.439961075393434" fill="#dbff1b" stroke="none" /><path d="M 87.83215693770417 117.11559508785305 l -13.815167289192958 19.432762913048684 a44.843051852964365,44.843051852964365 0 0,0 -0.6235725092310023,-0.4514184081425856 l 14.146720808797914 -19.19274373353303" fill="#fbff18" stroke="none" /><path d="M 86.96720088162412 116.46651593811092 l -34.13690033033835 43.13085840283174 a76.00544437352157,76.00544437352157 0 0,0 -1.0161176169843895,-0.8185124250505679 l 34.872268717678004 -42.53849768398776" fill="#42ffd9" stroke="none" /><path d="M 86.40962598614128 116.0094264158162 l -17.025430813191342 20.05591468810256 a47.307888709495735,47.307888709495735 0 0,0 -0.6145982290021537,-0.5308753121475517 l 17.367208521956357 -19.760695243490286" fill="#dbff1b" stroke="none" /><path d="M 85.08716467003676 114.78537596483092 l -14.939712365814946 14.81202328380783 a42.03784778282582,42.03784778282582 0 0,0 -0.5036798739701027,-0.5168199224683908 l 15.191779040935858 -14.553380669271702" fill="#ffde14" stroke="none" /><path d="M 84.58840730492382 114.26474011684316 l -23.16455026383038 21.440761897546203 a52.56426238125633,52.56426238125633 0 0,0 -0.6072481384401651,-0.6674720783623028 l 23.529196103112426 -21.039952243626225" fill="#9aff23" stroke="none" /><path d="M 83.8745106332314 113.45245675266167 l -20.221495658443946 16.869490880689174 a47.334171892013664,47.334171892013664 0 0,0 -0.5151607402202458,-0.62841233910403 l 20.50810321790282 -16.519876259886647" fill="#daff1b" stroke="none" /><path d="M 83.4222238831116 112.89097897827486 l -36.71971496592501 28.553472454713706 a67.51492509292981,67.51492509292981 0 0,0 -0.7035956121743131,-0.921029242058742 l 37.20446255545362 -27.918922299414092" fill="#37ff75" stroke="none" /><path d="M 83.20337586046588 112.60449989151573 l -35.39654296196692 26.562225731659364 a65.25457139638793,65.25457139638793 0 0,0 -0.6646581445052441,-0.9017364243140576 l 35.847303126056 -25.950682998076424" fill="#34ff59" stroke="none" /><path d="M 82.78059297857968 112.02048342749411 l -21.584872279131808 15.067917216494232 a47.323921450831676,47.323921450831676 0 0,0 -0.4592905183726138,-0.6701185923690789 l 21.84035253431975 -14.6951638890551" fill="#dbff1b" stroke="none" /><path d="M 82.37810715431573 111.42229804090323 l -22.06293008445695 14.300924723985954 a47.29238163181016,47.29238163181016 0 0,0 -0.4357256746015234,-0.685033132584486 l 22.305173450684364 -13.920077916722796" fill="#dbff1b" stroke="none" /><path d="M 81.99639281039703 110.81064883170644 l -47.56504393372234 28.561442227484022 a76.48143280892126,76.48143280892126 0 0,0 -0.6662126070331069,-1.131374654729813 l 48.048330250885215 -27.740716404460652" fill="#43ffde" stroke="none" /><line stroke="#e1ed5e" stroke-width="0.3" x1="26.387840678322732" x2="22.057713659400548" y1="142.50000000000003" y2="145.00000000000006" /><path d="M 25.521815274538298 143.00000000000003 a86.0,86.0 0 0,1 -11.493303480769221,-40.785679425670985" fill="none" id="id57" stroke="none" /><text fill="#e1ed5e" style="font-size:6.75px; font-family:Arial;" text-anchor="middle"><textPath startOffset="21.40746469413373" xlink:href="#id57">September</textPath></text><path d="M 81.81346652052679 110.50000000000001 l -22.689748517932983 13.099932414673537 a47.19986482934705,47.19986482934705 0 0,0 -0.3991010080568072,-0.7051732401163914 l 22.91128289101117 -12.708502404458024" fill="#dcff1b" stroke="none" /><path d="M 81.4637452351635 109.86951160357371 l -28.585628945344673 15.220237321442562 a53.385086171291256,53.385086171291256 0 0,0 -0.4237553858014892,-0.8126068265163381 l 28.842692400121113 -14.727284251821722" fill="#90ff24" stroke="none" /><path d="M 81.1358732173502 109.22738970284198 l -26.845948008710746 13.131698438670693 a50.88555551383622,50.88555551383622 0 0,0 -0.37708799562787076,-0.7879688799319818 l 27.06741526229853 -12.668917056673605" fill="#aeff20" stroke="none" /><path d="M 80.83023694016515 108.57439118712176 l -15.621273145631193 6.987196783468017 a38.112717305598316,38.112717305598316 0 0,0 -0.2620088115806644,-0.5995274357118817 l 15.738915839228826 -6.718007277980286" fill="#ffa70f" stroke="none" /><path d="M 80.68587082218212 108.24405325689762 l -36.03544305680505 15.381387841052348 a60.18086584312695,60.18086584312695 0 0,0 -0.3974062259932712,-0.9536302717270602 l 36.2941751273348 -14.760525059884007" fill="#43ff2d" stroke="none" /><path d="M 80.41425534168474 107.57618678355246 l -26.59576405773005 10.287812879614364 a49.516201704652126,49.516201704652126 0 0,0 -0.2998543576612891,-0.7953993085373292 l 26.768449099205775 -9.82974529088289" fill="#bfff1e" stroke="none" /><path d="M 80.16572619554312 106.89939002012753 l -34.15286243561714 11.880138419493678 a57.16013967634138,57.16013967634138 0 0,0 -0.3144204494084369,-0.9295281898235056 l 34.35176830659795 -11.29210855519601" fill="#64ff29" stroke="none" /><path d="M 79.73907114497094 105.5222062557868 l -30.443757915499738 8.29758159724758 a52.55427477189952,52.55427477189952 0 0,0 -0.2297635834637542,-0.8724497506682264 l 30.581710979768225 -7.773751342206552" fill="#9aff23" stroke="none" /><path d="M 79.64726062577567 105.17358676015961 l -61.05821812267298 15.520760280478815 a84.0,84.0 0 0,0 -0.34324989393482586,-1.4005767015676016 l 61.3156555431241 -14.470327754303112" fill="#4dd2ff" stroke="none" /><path d="M 79.48165901384964 104.47187691870673 l -27.93431178676177 6.088153238290367 a49.590057447527506,49.590057447527506 0 0,0 -0.1741373503110398,-0.8333102596687588 l 28.034706847897176 -5.607726527336199" fill="#beff1f" stroke="none" /><path d="M 79.34024301695615 103.76489593502545 l -54.522530916377455 9.935821374028865 a76.42045582547968,76.42045582547968 0 0,0 -0.22411274853994337,-1.2926227779330697 l 54.68505848240964 -8.998405563175204" fill="#43ffdd" stroke="none" /><path d="M 79.2786578344484 103.40968896794605 l -26.074206435404612 4.290500746546609 a47.42484887170052,47.42484887170052 0 0,0 -0.12528856433191007,-0.804442458962603 l 26.144016491874787 -3.8422701056525566" fill="#d9ff1c" stroke="none" /><path d="M 79.17382384314188 102.69636545807758 l -40.30840853138156 5.218730486840054 a61.64483910937559,61.64483910937559 0 0,0 -0.12686482567457383,-1.0506227477278691 l 40.39205544331579 -4.526014062188786" fill="#34ff2f" stroke="none" /><path d="M 79.03789590574601 101.26102812881392 l -29.610457632633555 1.7812916019264977 a50.663988285210074,50.663988285210074 0 0,0 -0.0447734806840153,-0.8685935639384049 l 29.636672702774142 -1.272726244611362" fill="#b1ff20" stroke="none" /><line stroke="#e1ed5e" stroke-width="0.3" x1="15.003131293944662" x2="10.003315487706104" y1="100.72959589197737" y2="100.7725132973878" /><path d="M 14.003168132696942 100.73817937305945 a86.0,86.0 0 0,1 10.791469493833604,-42.45332614584628" fill="none" id="id58" stroke="none" /><text fill="#e1ed5e" style="font-size:6.75px; font-family:Arial;" text-anchor="middle"><textPath startOffset="22.145653131862435" xlink:href="#id58">October</textPath></text><path d="M 79.13060592940154 97.66154086499901 l -26.61129183970654 -2.9818507564821974 a47.777832012916306,47.777832012916306 0 0,0 0.09832658203020354,-0.8142851514434577 l 26.556183171416667 3.4382295848490916" fill="#d5ff1c" stroke="none" /><path d="M 79.22317932658666 96.9465228501225 l -26.581141306353167 -3.9065124001611653 a47.866669169826906,47.866669169826906 0 0,0 0.12645578008824712,-0.811936821422374 l 26.510164034126653 4.362237403514989" fill="#d4ff1c" stroke="none" /><path d="M 79.407916724674 95.88100663000787 l -55.89751017328916 -11.181067535732407 a78.00480606766043,78.00480606766043 0 0,0 0.27391680791098105,-1.3107910848547364 l 55.69733565455382 12.138975071872553" fill="#45ffee" stroke="none" /><path d="M 79.56144815229197 95.17655741523228 l -52.08084459112082 -12.290937514716921 a74.51150827920247,74.51150827920247 0 0,0 0.3044769918304614,-1.2423700296965126 l 51.862180072774066 13.183163369021552" fill="#40ffc8" stroke="none" /><path d="M 79.64726062577567 94.8264132398404 l -25.487094182505604 -6.478719674686398 a47.29763826831375,47.29763826831375 0 0,0 0.20678193933924588,-0.7851847046408581 l 25.372122762361634 6.915284883700041" fill="#dbff1b" stroke="none" /><path d="M 79.73907114497095 94.47779374421319 l -25.546333429871932 -6.9627667758104 a47.478203732211924,47.478203732211924 0 0,0 0.22107096926313755,-0.7845028801140916 l 25.423043968534213 7.400277579827505" fill="#d9ff1c" stroke="none" /><line stroke="#e1ed5e" stroke-width="0.3" x1="26.387840678322718" x2="22.05771365940052" y1="57.49999999999999" y2="54.99999999999999" /><path d="M 25.521815274538284 56.99999999999999 a86.0,86.0 0 0,1 29.574782752854787,-30.34633250058573" fill="none" id="id59" stroke="none" /><text fill="#e1ed5e" style="font-size:6.75px; font-family:Arial;" text-anchor="middle"><textPath startOffset="21.40746469413373" xlink:href="#id59">November</textPath></text><line stroke="#e1ed5e" stroke-width="0.3" x1="56.869717070023135" x2="54.33264160355391" y1="26.7553504044142" y2="22.446841604673864" /><path d="M 56.362301976729285 25.89364864446614 a86.0,86.0 0 0,1 42.16139366436587,-11.88097634709845" fill="none" id="id60" stroke="none" /><text fill="#e1ed5e" style="font-size:6.75px; font-family:Arial;" text-anchor="middle"><textPath startOffset="22.145653131862474" xlink:href="#id60">December</textPath></text></svg>