<?xml version="1.0" encoding="utf-8" ?>
<svg baseProfile="full" height="200mm" version="1.1" viewBox="0,0,200,200" width="200mm" xmlns="http://www.w3.org/2000/svg" xmlns:ev="http://www.w3.org/2001/xml-events" xmlns:xlink="http://www.w3.org/1999/xlink"><defs /><rect fill="#1a1a1a" height="200" width="200" x="0" y="0" /><text alignment-baseline="middle" fill="#e1ed5e" style="dominant-baseline: central; font-size:9.0px; font-family:Arial;" text-anchor="middle" x="100.0" y="100.0">2025</text><line stroke="#e1ed5e" stroke-width="0.3" x1="100.0" x2="100.0" y1="15.0" y2="10.0" /><path d="M 100.0 14.0 a86.0,86.0 0 0,1 42.46469731375804,11.215312516191453" fill="none" id="id61" stroke="none" /><text fill="#e1ed5e" style="font-size:6.75px; font-family:Arial;" text-anchor="middle"><textPath startOffset="22.20632615414155" xlink:href="#id61">January</textPath></text><path d="M 100.36148047927253 79.00311137660856 l 0.17780899581274554 -10.328180622175646 a31.32971108033891,31.32971108033891 0 0,0 0.539129671974986,0.013924128839648633 l -0.3555653029825993 10.323589701193638" fill="#ff4406" stroke="none" /><path d="M 100.72285384407766 79.0124445844662 l 0.3376547060573808 -9.803568055638236 a30.80938108761471,30.80938108761471 0 0,0 0.5298614489620381,0.022816948585470745 l -0.5063569874087505 9.79630338052857" fill="#ff3c05" stroke="none" /><path d="M 101.08401301168833 79.027996857942 l 1.633094975052397 -31.594891001110238 a52.63706902621635,52.63706902621635 0 0,0 0.9044501020241825,0.05455890010019005 l -2.1767071259161916 31.562098831629744" fill="#99ff23" stroke="none" /><path d="M 101.44485096284872 79.0497635885617 l 2.1368073056310783 -30.98355426942873 a52.0571502335297,52.0571502335297 0 0,0 0.8934241741905997,0.06934691090470028 l -2.669821669184019 30.942182096335564" fill="#a0ff22" stroke="none" /><path d="M 101.80526077348638 79.07773832637324 l 1.2783341051617196 -14.815389027072802 a35.87043678268829,35.87043678268829 0 0,0 0.6147080418279703,0.058373935478623566 l -1.5331672740799343 14.791189547079" fill="#ff870c" stroke="none" /><path d="M 102.16513564639614 79.11191278185805 l 1.546171198597333 -14.916644554920973 a35.99656394489169,35.99656394489169 0 0,0 0.6157697299164957,0.06918890390333815 l -1.802707632023554 14.887819697547034" fill="#ff890c" stroke="none" /><path d="M 102.52436894288641 79.15227682838746 l 3.5425119264109792 -29.25614664293359 a50.46984063651513,50.46984063651513 0 0,0 0.8615568820355651,0.11185481013629564 l -4.04558353695439 29.19083350963316" fill="#b3ff20" stroke="none" /><path d="M 103.2404852339499 79.25152402106235 l 2.330210594311985 -14.920086052364242 a36.10095524209637,36.10095524209637 0 0,0 0.6131503031115927,0.10117505368793896 l -2.586690103562453 14.877764735736678" fill="#ff8b0c" stroke="none" /><path d="M 103.59715602781102 79.31037775812273 l 5.149242696660635 -29.616698692517954 a51.06099701926913,51.06099701926913 0 0,0 0.8646447457810638,0.1580083006213609 l -5.6582825635446 29.523674910545854" fill="#acff21" stroke="none" /><path d="M 103.95276090670814 79.375362276772 l 3.8099468118460997 -19.87946516211981 a41.24126551975028,41.24126551975028 0 0,0 0.6960614198230825,0.13962337261065141 l -4.151574641136308 19.810937833431954" fill="#ffd313" stroke="none" /><path d="M 104.307194497241 79.44645832069477 l 3.0927854213765635 -14.758491659508152 a36.079071514070456,36.079071514070456 0 0,0 0.6067422195704367,0.132610348672382 l -3.3463703651005283 14.7030678127399" fill="#ff8a0c" stroke="none" /><path d="M 104.66035177308747 79.52364482259891 l 3.402777608262009 -14.950906345492399 a36.33324805783087,36.33324805783087 0 0,0 0.6086274305933237,0.14404244885782214 l -3.659628725817856 14.89011798449371" fill="#ff8e0d" stroke="none" /><path d="M 105.01212808612495 79.60689891045804 l 8.052566599204823 -32.763888285786955 a54.73894195789424,54.73894195789424 0 0,0 0.913074514792223,0.2327630242726763 l -8.61535000268207 32.620422265345404" fill="#80ff25" stroke="none" /><path d="M 105.71112130821622 79.79150937346287 l 3.4969643335961127 -12.373817179324439 a33.85846457154928,33.85846457154928 0 0,0 0.5594865913901129,0.16332947815927693 l -3.709441142709653 12.311789372246459" fill="#ff6a09" stroke="none" /><path d="M 106.0581310904928 79.89281104454417 l 6.492652380716132 -21.549383182880263 a43.50623137043209,43.50623137043209 0 0,0 0.7151898784430939,0.22221297659820943 l -6.862627631869944 21.434430071399532" fill="#fff216" stroke="none" /><path d="M 106.40334571778207 80.00007090966166 l 11.44806760325204 -35.75639210774108 a58.54434482596756,58.54434482596756 0 0,0 0.9571085352056149,0.31554363602544394 l -12.061858960700071 35.5540347474564" fill="#55ff2b" stroke="none" /><path d="M 107.08798089147638 80.2323363322302 l 4.996205555746944 -13.933913275615039 a35.80256765320252,35.80256765320252 0 0,0 0.5783268443185403,0.21300265746352884 l -5.2353147258380615 13.845847350345185" fill="#ff860c" stroke="none" /><path d="M 107.4271985657038 80.35727306442388 l 5.275059398614377 -13.950960166110468 a35.91494355387612,35.91494355387612 0 0,0 0.5763781240829972,0.22362575757278463 l -5.514420687697041 13.858091704647135" fill="#ff880c" stroke="none" /><path d="M 108.09893153111575 80.62456947434976 l 5.786591251590861 -13.843517054661199 a36.00425282230619,36.00425282230619 0 0,0 0.5697522857845824,0.2439381946145117 l -6.024027295165759 13.741859332083896" fill="#ff890c" stroke="none" /><path d="M 108.43124777332544 80.76684994638697 l 2.633916501093033 -6.008423979008399 a27.560386790902903,27.560386790902903 0 0,0 0.4328527802672252,0.19420842515020806 l -2.736951399827038 5.96219522334166" fill="#ff0901" stroke="none" /><path d="M 108.76106565485865 80.91482961587045 l 5.573466439198813 -12.141280617312457 a34.35942450771,34.35942450771 0 0,0 0.535388206958538,0.2513719419391207 l -5.781632857456949 12.043543692733333" fill="#ff710a" stroke="none" /><path d="M 109.08828744355905 81.06846463323043 l 6.8554103820626775 -14.28029702050384 a36.84056610416129,36.84056610416129 0 0,0 0.5693248685905664,0.2793652404666334 l -7.1002065176636755 14.160176619902375" fill="#ff950d" stroke="none" /><path d="M 109.41281617654863 81.2277094730956 l 7.259932996778484 -14.47872441840853 a37.19691599971836,37.19691599971836 0 0,0 0.5698913150929239,0.2919204662893632 l -7.508084799460163 14.351611426806668" fill="#ff9b0e" stroke="none" /><path d="M 110.05341064243156 81.56283822128135 l 7.133421860279449 -13.082132775789054 a35.900600840237516,35.900600840237516 0 0,0 0.5400064282510137,0.3005129926691344 l -7.357552377602498 12.957404385559741" fill="#ff880c" stroke="none" /><line stroke="#e1ed5e" stroke-width="0.3" x1="143.23703022742887" x2="145.7803849466894" y1="26.81831364943548" y2="22.513508569990506" /><path d="M 143.74570117128098 25.957352633546492 a86.0,86.0 0 0,1 28.547481713284135,27.462654790039103" fill="none" id="id62" stroke="none" /><text fill="#e1ed5e" style="font-size:6.75px; font-family:Arial;" text-anchor="middle"><textPath startOffset="19.985693538727396" xlink:href="#id62">February</textPath></text><path d="M 112.19680574252982 82.90503203632743 l 4.299097064832371 -6.025588022588653 a28.402023141737274,28.402023141737274 0 0,0 0.39553831870614986,0.2873754099957545 l -4.40218069989231 5.950693377776224" fill="#ff1702" stroke="none" /><path d="M 112.48926042617603 83.11751280151076 l 8.812275827730888 -11.912085165540455 a35.817353955922734,35.817353955922734 0 0,0 0.4924951769985756,0.37093715681953837 l -9.016017158487847 11.75863141921507" fill="#ff870c" stroke="none" /><path d="M 112.77801427241765 83.33499621200491 l 3.6312389234264995 -4.735838380196789 a26.967751777876874,26.967751777876874 0 0,0 0.3659491103445859,0.28562908521255415 l -3.7122205889305153 4.672630905761011" fill="#ff0000" stroke="none" /><path d="M 113.06298171725822 83.55741782278167 l 39.188945151774654 -49.32774653165496 a84.0,84.0 0 0,0 1.1243864057420354,0.9091756109434814 l -40.032234956081176 48.64586482344735" fill="#4dd2ff" stroke="none" /><path d="M 114.16331599549186 84.49514656593476 l 6.183365960883025 -6.769049210170494 a30.16809913863919,30.16809913863919 0 0,0 0.3803940387051014,0.3535348021364139 l -6.298967883382973 6.6616098219594395" fill="#ff3204" stroke="none" /><path d="M 114.42810811169701 84.74124197986012 l 6.665909887040471 -7.04967728013823 a30.70218039289319,30.70218039289319 0 0,0 0.38087773571347355,0.36640407998732705 l -6.786270866366364 6.9338901133886015" fill="#ff3a05" stroke="none" /><path d="M 114.68862486808459 84.99185889309783 l 15.534598923141099 -15.872517323538581 a43.209470274837464,43.209470274837464 0 0,0 0.5270818751498858,0.5248184180719238 l -15.805516598458306 15.602763054816538" fill="#ffee16" stroke="none" /><path d="M 115.19652480421416 85.50635884689758 l 12.61382535547861 -12.030399096213987 a38.43098082474711,38.43098082474711 0 0,0 0.45244734802876263,0.4826392848980405 l -12.819040025477836 11.811490394437893" fill="#ffac0f" stroke="none" /><path d="M 115.4437574822437 85.77008943001954 l 13.069579260151167 -12.042337771300152 a38.77165723942075,38.77165723942075 0 0,0 0.44800900919051256,0.4947027376306286 l -13.274931909957715 11.815582246399975" fill="#ffb110" stroke="none" /><path d="M 115.68641384162765 86.03803664274999 l 7.347104340214554 -6.539417014980668 a30.835848569483886,30.835848569483886 0 0,0 0.3494848977627874,0.39952165271610246 l -7.45858110155519 6.411979806061617" fill="#ff3c05" stroke="none" /><line stroke="#e1ed5e" stroke-width="0.3" x1="172.23445277983987" x2="176.4835382374775" y1="55.19839476539836" y2="52.563006222186495" /><path d="M 173.08426987136738 54.67131705675599 a86.0,86.0 0 0,1 12.851231095245387,41.99856678651699" fill="none" id="id63" stroke="none" /><text fill="#e1ed5e" style="font-size:6.75px; font-family:Arial;" text-anchor="middle"><textPath startOffset="22.20632615414155" xlink:href="#id63">March</textPath></text><line stroke="#e1ed5e" stroke-width="0.3" x1="184.98032266829074" x2="189.97916517819016" y1="98.17113171792111" y2="98.06355123074" /><path d="M 185.9800911702706 98.14961562048488 a86.0,86.0 0 0,1 -9.607161424134198,41.387399972396054" fill="none" id="id64" stroke="none" /><text fill="#e1ed5e" style="font-size:6.75px; font-family:Arial;" text-anchor="middle"><textPath startOffset="21.466115282336823" xlink:href="#id64">April</textPath></text><line stroke="#e1ed5e" stroke-width="0.3" x1="174.80103733775053" x2="179.2010983576182" y1="140.37084112569926" y2="142.7455964860345" /><path d="M 175.68104954172406 140.8457921977663 a86.0,86.0 0 0,1 -30.038265399797805,32.042727171017184" fill="none" id="id65" stroke="none" /><text fill="#e1ed5e" style="font-size:6.75px; font-family:Arial;" text-anchor="middle"><textPath startOffset="22.206326154141568" xlink:href="#id65">May</textPath></text><line stroke="#e1ed5e" stroke-width="0.3" x1="143.8653032363475" x2="146.44561519142675" y1="172.8068346515853" y2="177.08958963109032" /><path d="M 144.38136562736335 173.6633856474863 a86.0,86.0 0 0,1 -40.68145358897372,12.25698825130547" fill="none" id="id66" stroke="none" /><text fill="#e1ed5e" style="font-size:6.75px; font-family:Arial;" text-anchor="middle"><textPath startOffset="21.466115282336833" xlink:href="#id66">June</textPath></text><line stroke="#e1ed5e" stroke-width="0.3" x1="102.19456741930631" x2="102.32365962044197" y1="184.97166512339345" y2="189.96999836594603" /><path d="M 102.22038585953345 185.97133177190398 a86.0,86.0 0 0,1 -42.740103519485714,-10.115201625700543" fill="none" id="id67" stroke="none" /><text fill="#e1ed5e" style="font-size:6.75px; font-family:Arial;" text-anchor="middle"><textPath startOffset="22.20632615414155" xlink:href="#id67">July</textPath></text><line stroke="#e1ed5e" stroke-width="0.3" x1="58.666819895761336" x2="56.23545636021788" y1="174.27360380694188" y2="178.64263932499728" /><path d="M 58.180547188652646 175.14741091055294 a86.0,86.0 0 0,1 -31.652253787137756,-30.449443065178592" fill="none" id="id68" stroke="none" /><text fill="#e1ed5e" style="font-size:6.75px; font-family:Arial;" text-anchor="middle"><textPath startOffset="22.20632615414155" xlink:href="#id68">August</textPath></text><line stroke="#e1ed5e" stroke-width="0.3" x1="26.63291911575756" x2="22.317208475507996" y1="142.92168965132927" y2="145.44649492493687" /><path d="M 25.769776987707644 143.4266507060508 a86.0,86.0 0 0,1 -11.730757126820373,-40.83630448921669" fill="none" id="id69" stroke="none" /><text fill="#e1ed5e" style="font-size:6.75px; font-family:Arial;" text-anchor="middle"><textPath startOffset="21.46611528233685" xlink:href="#id69">September</textPath></text><line stroke="#e1ed5e" stroke-width="0.3" x1="15.007084014347285" x2="10.007500721073583" y1="101.09737516637583" y2="101.16192664675087" /><path d="M 14.007167355692545 101.11028546245083 a86.0,86.0 0 0,1 10.666146001902534,-42.60595125391555" fill="none" id="id70" stroke="none" /><text fill="#e1ed5e" style="font-size:6.75px; font-family:Arial;" text-anchor="middle"><textPath startOffset="22.20632615414155" xlink:href="#id70">October</textPath></text><line stroke="#e1ed5e" stroke-width="0.3" x1="26.266209847984243" x2="21.928928074336255" y1="57.711370442889674" y2="55.22380399835377" /><path d="M 25.398753493254645 57.213857153982495 a86.0,86.0 0 0,1 29.58750427330803,-30.492523968695096" fill="none" id="id71" stroke="none" /><text fill="#e1ed5e" style="font-size:6.75px; font-family:Arial;" text-anchor="middle"><textPath startOffset="21.46611528233685" xlink:href="#id71">November</textPath></text><line stroke="#e1ed5e" stroke-width="0.3" x1="56.762969772571076" x2="54.21961505331055" y1="26.818313649435495" y2="22.513508569990535" /><path d="M 56.25429882871897 25.957352633546506 a86.0,86.0 0 0,1 42.265352541879196,-11.944610805530505" fill="none" id="id72" stroke="none" /><text fill="#e1ed5e" style="font-size:6.75px; font-family:Arial;" text-anchor="middle"><textPath startOffset="22.20632615414155" xlink:href="#id72">December</textPath></text></svg>