<?xml version="1.0" encoding="utf-8" ?>
<svg baseProfile="full" height="200mm" version="1.1" viewBox="0,0,200,200" width="200mm" xmlns="http://www.w3.org/2000/svg" xmlns:ev="http://www.w3.org/2001/xml-events" xmlns:xlink="http://www.w3.org/1999/xlink"><defs /><rect fill="#1a1a1a" height="200" width="200" x="0" y="0" /><text alignment-baseline="middle" fill="#e1ed5e" style="dominant-baseline: central; font-size:9.0px; font-family:Arial;" text-anchor="middle" x="100.0" y="100.0">2024</text><line stroke="#e1ed5e" stroke-width="0.3" x1="100.0" x2="100.0" y1="15.0" y2="10.0" /><path d="M 100.0 14.0 a86.0,86.0 0 0,1 42.35913384403234,11.155469271406648" fill="none" id="id49" stroke="none" /><text fill="#e1ed5e" style="font-size:6.75px; font-family:Arial;" text-anchor="middle"><textPath startOffset="22.145653131862478" xlink:href="#id49">January</textPath></text><path d="M 100.0 79.0 l 0.0 -51.33843851415651 a72.33843851415651,72.33843851415651 0 0,0 1.2417854894746345,0.010659234929830796 l -0.8812925646257797 51.33087367742111" fill="#31ff3e" stroke="none" /><path d="M 100.36049292484886 79.00309439819443 l 0.8898865503491562 -51.83143026130597 a72.8390688670728,72.8390688670728 0 0,0 1.2500109826274954,0.03219584881827142 l -1.779510847047393 51.80851669513765" fill="#32ff4a" stroke="none" /><path d="M 101.80034050326958 79.07731436759882 l 4.4086941257727785 -51.235708509272726 a72.42503680447672,72.42503680447672 0 0,0 1.237779872903962,0.11721904087888685 l -5.287573562061754 51.152477712888654" fill="#31ff40" stroke="none" /><path d="M 102.15924093988457 79.11130261209362 l 4.225032498807212 -40.87335678545064 a62.09114496490358,62.09114496490358 0 0,0 1.0592870509250196,0.11869532351749904 l -4.926055451333029 40.794805701426164" fill="#faff18" stroke="none" /><path d="M 102.87502721639298 79.19773525538626 l 7.050921993994783 -51.016959135683756 a72.50189919233489,72.50189919233489 0 0,0 1.2314098684604062,0.18097484473594375 l -7.925656968062872 50.88840321764893" fill="#31ff42" stroke="none" /><path d="M 103.58742460773223 79.30868818359171 l 8.783525258584605 -50.6610395605108 a72.41683814977185,72.41683814977185 0 0,0 1.2230351046561454,0.2228777375112608 l -9.651895096791804 50.502793649068174" fill="#31ff40" stroke="none" /><path d="M 104.29559338865022 79.4440306129975 l 10.525281657334189 -50.36728292519455 a72.45526934370095,72.45526934370095 0 0,0 1.2153080465159505,0.2648707322878376 l -11.388352120469275 50.179180734773" fill="#31ff41" stroke="none" /><path d="M 104.64783097203109 79.52079915486377 l 11.373381921400371 -50.11321927548831 a72.38763044238574,72.38763044238574 0 0,0 1.209451999485382,0.2854273787114895 l -12.231966074625637 49.91059575313059" fill="#31ff3f" stroke="none" /><path d="M 105.3480935250658 79.69241777938227 l 13.068675756245735 -49.62389049306845 a72.3158922137181,72.3158922137181 0 0,0 1.197752967615866,0.32645289749456957 l -13.918610124796295 49.392237101429735" fill="#31ff3e" stroke="none" /><path d="M 106.72888874123014 80.10723608172694 l 16.529991042776604 -48.86798133104651 a72.58798506673608,72.58798506673608 0 0,0 1.1769423778145733,0.40940165371390336 l -17.366439192636197 48.57702124476401" fill="#31ff44" stroke="none" /><path d="M 107.06938296918511 80.22567764915836 l 17.33452700650804 -48.48775718053537 a72.49318812171097,72.49318812171097 0 0,0 1.1682133948364448,0.4289841400255252 l -18.16432955299861 48.18304219150112" fill="#31ff42" stroke="none" /><path d="M 108.07796709384702 80.6158196554323 l 19.941469028553037 -47.85226623162616 a72.84111853074901,72.84111853074901 0 0,0 1.1500742852452188,0.4908983247269196 l -20.759978388968687 47.50289325723984" fill="#32ff4a" stroke="none" /><path d="M 108.73861861582097 80.90454125486305 l 17.1052238450997 -37.378001102952155 a62.106005026556154,62.106005026556154 0 0,0 0.965633884643982,0.45196541572655696 l -17.744346443615186 37.07885945565506" fill="#faff18" stroke="none" /><path d="M 109.3889696526874 81.21577127319529 l 28.166908958062173 -56.352686180414125 a84.0,84.0 0 0,0 1.2842911131456847,0.6557681933086643 l -29.130127292921436 55.86086003543262" fill="#4dd2ff" stroke="none" /><line stroke="#e1ed5e" stroke-width="0.3" x1="143.13028292997686" x2="145.6673583964461" y1="26.7553504044142" y2="22.446841604673864" /><path d="M 143.63769802327073 25.89364864446614 a86.0,86.0 0 0,1 29.32050498858742,28.57503671076993" fill="none" id="id50" stroke="none" /><text fill="#e1ed5e" style="font-size:6.75px; font-family:Arial;" text-anchor="middle"><textPath startOffset="20.669276256404974" xlink:href="#id50">February</textPath></text><path d="M 110.96478420261332 82.08984904055464 l 16.221766232327305 -26.497036027445922 a52.06828958819654,52.06828958819654 0 0,0 0.7583024146969347,0.4732367905749902 l -16.67423277581395 26.214663440029387" fill="#ff0000" stroke="none" /><path d="M 111.27062007382361 82.28071324371311 l 27.57927066500183 -43.359194280482036 a72.38711802646668,72.38711802646668 0 0,0 1.042768725833998,0.6759100897112669 l -28.319525023092833 42.879370349066875" fill="#31ff3f" stroke="none" /><path d="M 117.62189284568427 88.57770195909679 l 26.9632289036981 -17.47723921488734 a53.13206503615378,53.13206503615378 0 0,0 0.48952926627992277,0.7696213152419731 l -27.25927586160391 17.011804224966696" fill="#ff1e03" stroke="none" /><path d="M 117.81537515405839 88.88188828441811 l 27.35969356176547 -17.074472296728505 a53.250433113455394,53.250433113455394 0 0,0 0.47730654374176934,0.7796443682228335 l -27.648768069962642 16.602290812381117" fill="#ff2103" stroke="none" /><line stroke="#e1ed5e" stroke-width="0.3" x1="172.87174338648825" x2="177.1583165268699" y1="56.24261187166439" y2="53.66864786411523" /><path d="M 173.72905801456457 55.72781907015455 a86.0,86.0 0 0,1 12.242430191666344,42.057860355516425" fill="none" id="id51" stroke="none" /><text fill="#e1ed5e" style="font-size:6.75px; font-family:Arial;" text-anchor="middle"><textPath startOffset="22.145653131862474" xlink:href="#id51">March</textPath></text><path d="M 118.36410011445183 89.81374322990088 l 44.93705619196127 -24.925827566332323 a72.38711802646668,72.38711802646668 0 0,0 0.5934180474380666,1.091822369218416 l -45.35831958901468 24.150750363639304" fill="#31ff3f" stroke="none" /><path d="M 118.70294669586156 90.45014215332178 l 45.72651183238077 -23.348282755909892 a72.34253784150894,72.34253784150894 0 0,0 0.5552465013227434,1.110864947531192 l -46.12057824691525 22.559885952214948" fill="#31ff3e" stroke="none" /><line stroke="#e1ed5e" stroke-width="0.3" x1="184.99686870605535" x2="189.99668451229388" y1="99.2704041080226" y2="99.22748670261217" /><path d="M 185.99683186730306 99.26182062694052 a86.0,86.0 0 0,1 -10.086455211305974,41.156179273409016" fill="none" id="id52" stroke="none" /><text fill="#e1ed5e" style="font-size:6.75px; font-family:Arial;" text-anchor="middle"><textPath startOffset="21.40746469413373" xlink:href="#id52">April</textPath></text><line stroke="#e1ed5e" stroke-width="0.3" x1="174.33088141563837" x2="178.70328620479359" y1="141.23008692659167" y2="143.65538615756765" /><path d="M 175.20536237346943 141.71514677278685 a86.0,86.0 0 0,1 -30.301960400862466,31.631185727798858" fill="none" id="id53" stroke="none" /><text fill="#e1ed5e" style="font-size:6.75px; font-family:Arial;" text-anchor="middle"><textPath startOffset="22.145653131862474" xlink:href="#id53">May</textPath></text><line stroke="#e1ed5e" stroke-width="0.3" x1="143.1302829299769" x2="145.66735839644613" y1="173.24464959558577" y2="177.55315839532614" /><path d="M 143.63769802327073 174.10635135553383 a86.0,86.0 0 0,1 -40.68552437913181,11.842963189579606" fill="none" id="id54" stroke="none" /><text fill="#e1ed5e" style="font-size:6.75px; font-family:Arial;" text-anchor="middle"><textPath startOffset="21.407464694133747" xlink:href="#id54">June</textPath></text><line stroke="#e1ed5e" stroke-width="0.3" x1="101.45913802915013" x2="101.54496967792366" y1="184.9874750549273" y2="189.98673829345242" /><path d="M 101.47630435890484 185.9873277026323 a86.0,86.0 0 0,1 -42.54439059252881,-10.42667462771756" fill="none" id="id55" stroke="none" /><text fill="#e1ed5e" style="font-size:6.75px; font-family:Arial;" text-anchor="middle"><textPath startOffset="22.145653131862474" xlink:href="#id55">July</textPath></text><line stroke="#e1ed5e" stroke-width="0.3" x1="58.13341422392154" x2="55.67067388415222" y1="173.97424548756322" y2="178.32567169271397" /><path d="M 57.64086615596768 174.84453072859336 a86.0,86.0 0 0,1 -31.369924170532247,-30.572349798747897" fill="none" id="id56" stroke="none" /><text fill="#e1ed5e" style="font-size:6.75px; font-family:Arial;" text-anchor="middle"><textPath startOffset="22.145653131862474" xlink:href="#id56">August</textPath></text><line stroke="#e1ed5e" stroke-width="0.3" x1="26.387840678322732" x2="22.057713659400548" y1="142.50000000000003" y2="145.00000000000006" /><path d="M 25.521815274538298 143.00000000000003 a86.0,86.0 0 0,1 -11.493303480769221,-40.785679425670985" fill="none" id="id57" stroke="none" /><text fill="#e1ed5e" style="font-size:6.75px; font-family:Arial;" text-anchor="middle"><textPath startOffset="21.40746469413373" xlink:href="#id57">September</textPath></text><line stroke="#e1ed5e" stroke-width="0.3" x1="15.003131293944662" x2="10.003315487706104" y1="100.72959589197737" y2="100.7725132973878" /><path d="M 14.003168132696942 100.73817937305945 a86.0,86.0 0 0,1 10.791469493833604,-42.45332614584628" fill="none" id="id58" stroke="none" /><text fill="#e1ed5e" style="font-size:6.75px; font-family:Arial;" text-anchor="middle"><textPath startOffset="22.145653131862435" xlink:href="#id58">October</textPath></text><line stroke="#e1ed5e" stroke-width="0.3" x1="26.387840678322718" x2="22.05771365940052" y1="57.49999999999999" y2="54.99999999999999" /><path d="M 25.521815274538284 56.99999999999999 a86.0,86.0 0 0,1 29.574782752854787,-30.34633250058573" fill="none" id="id59" stroke="none" /><text fill="#e1ed5e" style="font-size:6.75px; font-family:Arial;" text-anchor="middle"><textPath startOffset="21.40746469413373" xlink:href="#id59">November</textPath></text><line stroke="#e1ed5e" stroke-width="0.3" x1="56.869717070023135" x2="54.33264160355391" y1="26.7553504044142" y2="22.446841604673864" /><path d="M 56.362301976729285 25.89364864446614 a86.0,86.0 0 0,1 42.16139366436587,-11.88097634709845" fill="none" id="id60" stroke="none" /><text fill="#e1ed5e" style="font-size:6.75px; font-family:Arial;" text-anchor="middle"><textPath startOffset="22.145653131862474" xlink:href="#id60">December</textPath></text></svg>