<?xml version="1.0" encoding="utf-8" ?>
<svg baseProfile="full" height="200mm" version="1.1" viewBox="0,0,200,200" width="200mm" xmlns="http://www.w3.org/2000/svg" xmlns:ev="http://www.w3.org/2001/xml-events" xmlns:xlink="http://www.w3.org/1999/xlink"><defs /><rect fill="#1a1a1a" height="200" width="200" x="0" y="0" /><text alignment-baseline="middle" fill="#e1ed5e" style="dominant-baseline: central; font-size:9.0px; font-family:Arial;" text-anchor="middle" x="100.0" y="100.0">2025</text><line stroke="#e1ed5e" stroke-width="0.3" x1="100.0" x2="100.0" y1="15.0" y2="10.0" /><path d="M 100.0 14.0 a86.0,86.0 0 0,1 42.46469731375804,11.215312516191453" fill="none" id="id61" stroke="none" /><text fill="#e1ed5e" style="font-size:6.75px; font-family:Arial;" text-anchor="middle"><textPath startOffset="22.20632615414155" xlink:href="#id61">January</textPath></text><path d="M 100.36148047927253 79.00311137660856 l 0.17780899581274554 -10.328180622175646 a31.32971108033891,31.32971108033891 0 0,0 0.539129671974986,0.013924128839648633 l -0.3555653029825993 10.323589701193638" fill="#ff4406" stroke="none" /><path d="M 100.72285384407766 79.0124445844662 l 0.3376547060573808 -9.803568055638236 a30.80938108761471,30.80938108761471 0 0,0 0.5298614489620381,0.022816948585470745 l -0.5063569874087505 9.79630338052857" fill="#ff3c05" stroke="none" /><path d="M 101.08401301168833 79.027996857942 l 1.633094975052397 -31.594891001110238 a52.63706902621635,52.63706902621635 0 0,0 0.9044501020241825,0.05455890010019005 l -2.1767071259161916 31.562098831629744" fill="#99ff23" stroke="none" /><path d="M 101.44485096284872 79.0497635885617 l 2.1368073056310783 -30.98355426942873 a52.0571502335297,52.0571502335297 0 0,0 0.8934241741905997,0.06934691090470028 l -2.669821669184019 30.942182096335564" fill="#a0ff22" stroke="none" /><path d="M 101.80526077348638 79.07773832637324 l 1.2783341051617196 -14.815389027072802 a35.87043678268829,35.87043678268829 0 0,0 0.6147080418279703,0.058373935478623566 l -1.5331672740799343 14.791189547079" fill="#ff870c" stroke="none" /><path d="M 102.16513564639614 79.11191278185805 l 1.546171198597333 -14.916644554920973 a35.99656394489169,35.99656394489169 0 0,0 0.6157697299164957,0.06918890390333815 l -1.802707632023554 14.887819697547034" fill="#ff890c" stroke="none" /><path d="M 102.52436894288641 79.15227682838746 l 3.5425119264109792 -29.25614664293359 a50.46984063651513,50.46984063651513 0 0,0 0.8615568820355651,0.11185481013629564 l -4.04558353695439 29.19083350963316" fill="#b3ff20" stroke="none" /><path d="M 103.2404852339499 79.25152402106235 l 2.330210594311985 -14.920086052364242 a36.10095524209637,36.10095524209637 0 0,0 0.6131503031115927,0.10117505368793896 l -2.586690103562453 14.877764735736678" fill="#ff8b0c" stroke="none" /><path d="M 103.59715602781102 79.31037775812273 l 5.149242696660635 -29.616698692517954 a51.06099701926913,51.06099701926913 0 0,0 0.8646447457810638,0.1580083006213609 l -5.6582825635446 29.523674910545854" fill="#acff21" stroke="none" /><path d="M 103.95276090670814 79.375362276772 l 3.8099468118460997 -19.87946516211981 a41.24126551975028,41.24126551975028 0 0,0 0.6960614198230825,0.13962337261065141 l -4.151574641136308 19.810937833431954" fill="#ffd313" stroke="none" /><path d="M 104.307194497241 79.44645832069477 l 3.0927854213765635 -14.758491659508152 a36.079071514070456,36.079071514070456 0 0,0 0.6067422195704367,0.132610348672382 l -3.3463703651005283 14.7030678127399" fill="#ff8a0c" stroke="none" /><path d="M 104.66035177308747 79.52364482259891 l 3.402777608262009 -14.950906345492399 a36.33324805783087,36.33324805783087 0 0,0 0.6086274305933237,0.14404244885782214 l -3.659628725817856 14.89011798449371" fill="#ff8e0d" stroke="none" /><path d="M 105.01212808612495 79.60689891045804 l 8.052566599204823 -32.763888285786955 a54.73894195789424,54.73894195789424 0 0,0 0.913074514792223,0.2327630242726763 l -8.61535000268207 32.620422265345404" fill="#80ff25" stroke="none" /><path d="M 105.71112130821622 79.79150937346287 l 3.4969643335961127 -12.373817179324439 a33.85846457154928,33.85846457154928 0 0,0 0.5594865913901129,0.16332947815927693 l -3.709441142709653 12.311789372246459" fill="#ff6a09" stroke="none" /><path d="M 106.0581310904928 79.89281104454417 l 6.492652380716132 -21.549383182880263 a43.50623137043209,43.50623137043209 0 0,0 0.7151898784430939,0.22221297659820943 l -6.862627631869944 21.434430071399532" fill="#fff216" stroke="none" /><path d="M 106.40334571778207 80.00007090966166 l 11.44806760325204 -35.75639210774108 a58.54434482596756,58.54434482596756 0 0,0 0.9571085352056149,0.31554363602544394 l -12.061858960700071 35.5540347474564" fill="#55ff2b" stroke="none" /><path d="M 107.08798089147638 80.2323363322302 l 4.996205555746944 -13.933913275615039 a35.80256765320252,35.80256765320252 0 0,0 0.5783268443185403,0.21300265746352884 l -5.2353147258380615 13.845847350345185" fill="#ff860c" stroke="none" /><path d="M 107.4271985657038 80.35727306442388 l 5.275059398614377 -13.950960166110468 a35.91494355387612,35.91494355387612 0 0,0 0.5763781240829972,0.22362575757278463 l -5.514420687697041 13.858091704647135" fill="#ff880c" stroke="none" /><path d="M 108.09893153111575 80.62456947434976 l 5.786591251590861 -13.843517054661199 a36.00425282230619,36.00425282230619 0 0,0 0.5697522857845824,0.2439381946145117 l -6.024027295165759 13.741859332083896" fill="#ff890c" stroke="none" /><path d="M 108.43124777332544 80.76684994638697 l 2.633916501093033 -6.008423979008399 a27.560386790902903,27.560386790902903 0 0,0 0.4328527802672252,0.19420842515020806 l -2.736951399827038 5.96219522334166" fill="#ff0901" stroke="none" /><path d="M 108.76106565485865 80.91482961587045 l 5.573466439198813 -12.141280617312457 a34.35942450771,34.35942450771 0 0,0 0.535388206958538,0.2513719419391207 l -5.781632857456949 12.043543692733333" fill="#ff710a" stroke="none" /><path d="M 109.08828744355905 81.06846463323043 l 6.8554103820626775 -14.28029702050384 a36.84056610416129,36.84056610416129 0 0,0 0.5693248685905664,0.2793652404666334 l -7.1002065176636755 14.160176619902375" fill="#ff950d" stroke="none" /><path d="M 109.41281617654863 81.2277094730956 l 7.259932996778484 -14.47872441840853 a37.19691599971836,37.19691599971836 0 0,0 0.5698913150929239,0.2919204662893632 l -7.508084799460163 14.351611426806668" fill="#ff9b0e" stroke="none" /><path d="M 110.05341064243156 81.56283822128135 l 7.133421860279449 -13.082132775789054 a35.900600840237516,35.900600840237516 0 0,0 0.5400064282510137,0.3005129926691344 l -7.357552377602498 12.957404385559741" fill="#ff880c" stroke="none" /><line stroke="#e1ed5e" stroke-width="0.3" x1="143.23703022742887" x2="145.7803849466894" y1="26.81831364943548" y2="22.513508569990506" /><path d="M 143.74570117128098 25.957352633546492 a86.0,86.0 0 0,1 28.547481713284135,27.462654790039103" fill="none" id="id62" stroke="none" /><text fill="#e1ed5e" style="font-size:6.75px; font-family:Arial;" text-anchor="middle"><textPath startOffset="19.985693538727396" xlink:href="#id62">February</textPath></text><path d="M 112.19680574252982 82.90503203632743 l 4.299097064832371 -6.025588022588653 a28.402023141737274,28.402023141737274 0 0,0 0.39553831870614986,0.2873754099957545 l -4.40218069989231 5.950693377776224" fill="#ff1702" stroke="none" /><path d="M 112.48926042617603 83.11751280151076 l 8.812275827730888 -11.912085165540455 a35.817353955922734,35.817353955922734 0 0,0 0.4924951769985756,0.37093715681953837 l -9.016017158487847 11.75863141921507" fill="#ff870c" stroke="none" /><path d="M 112.77801427241765 83.33499621200491 l 3.6312389234264995 -4.735838380196789 a26.967751777876874,26.967751777876874 0 0,0 0.3659491103445859,0.28562908521255415 l -3.7122205889305153 4.672630905761011" fill="#ff0000" stroke="none" /><path d="M 113.06298171725822 83.55741782278167 l 39.188945151774654 -49.32774653165496 a84.0,84.0 0 0,0 1.1243864057420354,0.9091756109434814 l -40.032234956081176 48.64586482344735" fill="#4dd2ff" stroke="none" /><path d="M 114.16331599549186 84.49514656593476 l 6.183365960883025 -6.769049210170494 a30.16809913863919,30.16809913863919 0 0,0 0.3803940387051014,0.3535348021364139 l -6.298967883382973 6.6616098219594395" fill="#ff3204" stroke="none" /><path d="M 114.42810811169701 84.74124197986012 l 6.665909887040471 -7.04967728013823 a30.70218039289319,30.70218039289319 0 0,0 0.38087773571347355,0.36640407998732705 l -6.786270866366364 6.9338901133886015" fill="#ff3a05" stroke="none" /><path d="M 114.68862486808459 84.99185889309783 l 15.534598923141099 -15.872517323538581 a43.209470274837464,43.209470274837464 0 0,0 0.5270818751498858,0.5248184180719238 l -15.805516598458306 15.602763054816538" fill="#ffee16" stroke="none" /><path d="M 115.19652480421416 85.50635884689758 l 12.61382535547861 -12.030399096213987 a38.43098082474711,38.43098082474711 0 0,0 0.45244734802876263,0.4826392848980405 l -12.819040025477836 11.811490394437893" fill="#ffac0f" stroke="none" /><path d="M 115.4437574822437 85.77008943001954 l 13.069579260151167 -12.042337771300152 a38.77165723942075,38.77165723942075 0 0,0 0.44800900919051256,0.4947027376306286 l -13.274931909957715 11.815582246399975" fill="#ffb110" stroke="none" /><path d="M 115.68641384162765 86.03803664274999 l 20.469063617712905 -18.218843329845043 a48.402715516229726,48.402715516229726 0 0,0 0.5485828627518766,0.6271250442619197 l -20.77963834404263 17.863802729380176" fill="#cdff1d" stroke="none" /><path d="M 116.15771136456269 86.58626213691792 l 12.1151549032714 -10.057706093174431 a36.745933766751946,36.745933766751946 0 0,0 0.3998333940839631,0.4901484643142594 l -12.286486789431772 9.847673459252071" fill="#ff940d" stroke="none" /><path d="M 116.38621287248628 86.86637796730983 l 34.61884084110247 -27.747153924768362 a65.36630131199098,65.36630131199098 0 0,0 0.6961384073853427,0.8840250834172821 l -35.09133332908177 27.147136447398044" fill="#34ff5a" stroke="none" /><path d="M 116.60985879189232 87.15038557335679 l 17.573384198281907 -13.595010887715132 a43.21819419344239,43.21819419344239 0 0,0 0.45013613762725546,0.5923263927525064 l -17.804796276133278 13.290499719081593" fill="#ffee16" stroke="none" /><path d="M 117.04232023915458 87.72973835380427 l 14.969578589207412 -10.777913068483477 a39.44591264346234,39.44591264346234 0 0,0 0.39199353185757374,0.5544470515512927 l -15.152884740868869 10.518639516600391" fill="#ffba11" stroke="none" /><path d="M 117.2510076193507 88.02491185347247 l 15.427397923348737 -10.70919763529792 a39.78008308493909,39.78008308493909 0 0,0 0.3856310318932694,0.5658659549333559 l -15.60945342091074 10.442053657094158" fill="#ffbf11" stroke="none" /><path d="M 117.45458315368197 88.32363383020206 l 12.297314457887792 -8.226375001408089 a35.79517450184242,35.79517450184242 0 0,0 0.3381849075769405,0.5150788157725591 l -12.437096000822656 8.013478121657855" fill="#ff860c" stroke="none" /><path d="M 117.65298651832404 88.62581576622439 l 8.095423371313009 -5.216048671432901 a30.630318961672963,30.630318961672963 0 0,0 0.28175868293235473,0.4456745719049203 l -8.18400965049132 5.075926451813775" fill="#ff3905" stroke="none" /><line stroke="#e1ed5e" stroke-width="0.3" x1="172.23445277983987" x2="176.4835382374775" y1="55.19839476539836" y2="52.563006222186495" /><path d="M 173.08426987136738 54.67131705675599 a86.0,86.0 0 0,1 12.851231095245387,41.99856678651699" fill="none" id="id63" stroke="none" /><text fill="#e1ed5e" style="font-size:6.75px; font-family:Arial;" text-anchor="middle"><textPath startOffset="22.20632615414155" xlink:href="#id63">March</textPath></text><path d="M 117.84615892207809 88.93136811851018 l 37.495153932883575 -23.255427570436357 a65.12144013894431,65.12144013894431 0 0,0 0.5826328473789051,0.9576952080986627 l -37.88990257854871 22.606564589130613" fill="#34ff57" stroke="none" /><path d="M 118.03404312379186 89.2402003453031 l 12.77375057707013 -7.621307995377831 a35.87457694744995,35.87457694744995 0 0,0 0.3118360454393717,0.5330288847951778 l -12.903046296979829 7.400299698228758" fill="#ff870c" stroke="none" /><path d="M 118.21658344932153 89.55222093294921 l 9.292779150632608 -5.329698829355482 a31.712676320792358,31.712676320792358 0 0,0 0.26750753735213173,0.47586605965628864 l -9.383144329277172 5.168949259764399" fill="#ff4a06" stroke="none" /><path d="M 118.3937258080291 89.86733742301442 l 12.971015238234598 -7.145421327994256 a35.808925763372216,35.808925763372216 0 0,0 0.29276678710753623,0.5424523929411883 l -13.092090124560599 6.921087951720609" fill="#ff870c" stroke="none" /><path d="M 118.56541770881063 90.18545643968196 l 30.741372204653555 -16.251319595321483 a55.77265238106415,55.77265238106415 0 0,0 0.44137565301775417,0.8525972745815772 l -31.016557290831425 15.71974959847956" fill="#74ff27" stroke="none" /><path d="M 119.04729006885535 91.15688171328212 l 42.44098513441187 -19.70414953474763 a67.79199427324149,67.79199427324149 0 0,0 0.4822841368026823,1.0626491662598103 l -42.7738715881779 18.970678359645753" fill="#37ff79" stroke="none" /><path d="M 119.196687751892 91.48605970444005 l 8.98338485248607 -3.98422911674259 a30.827272513906166,30.827272513906166 0 0,0 0.21096025954569972,0.48692536490117067 l -9.050635821874451 3.829004607254816" fill="#ff3c05" stroke="none" /><path d="M 119.47837535516314 92.15188598940014 l 20.952956989825946 -8.442243889286212 a43.589773980801276,43.589773980801276 0 0,0 0.27442139426003603,0.6983725158194493 l -21.095171933967684 8.080322368570979" fill="#fff316" stroke="none" /><path d="M 119.61058180528143 92.48833698450437 l 17.855124744109713 -6.839250436785555 a40.12016804750393,40.12016804750393 0 0,0 0.2414764357022955,0.6470367931516482 l -17.970205768313633 6.530890506604574" fill="#ffc412" stroke="none" /><path d="M 119.7369772167798 92.82701384747503 l 9.729287029925276 -3.535903212183019 a31.351890534419226,31.351890534419226 0 0,0 0.17997018165296816,0.5087999385782395 l -9.788710292388053 3.367905647178165" fill="#ff4406" stroke="none" /><path d="M 119.85752413597 93.16781622104841 l 11.565806533157259 -3.9793337399596886 a33.23122961015795,33.23122961015795 0 0,0 0.1814467961139237,0.5425028253965034 l -11.632590623042953 3.779657811640871" fill="#ff6108" stroke="none" /><path d="M 119.97218684219823 93.5106431181261 l 23.505651869458774 -7.637449265180992 a45.715304996831506,45.715304996831506 0 0,0 0.2367280345842547,0.7504925614011024 l -23.633635387811232 7.23170653735347" fill="#efff19" stroke="none" /><path d="M 120.08093135843002 93.85539295169968 l 21.22007776848765 -6.493176889775705 a43.19128312249161,43.19128312249161 0 0,0 0.21141948577004757,0.7128014037602939 l -21.3287031513694 6.1269460992688805" fill="#ffee16" stroke="none" /><path d="M 120.18372546131832 94.20196356495316 l 10.55634375055783 -3.032446403609358 a31.983265660572208,31.983265660572208 0 0,0 0.14744777316352084,0.53044809092029 l -10.606978294287712 2.8502870092701165" fill="#ff4e07" stroke="none" /><line stroke="#e1ed5e" stroke-width="0.3" x1="184.98032266829074" x2="189.97916517819016" y1="98.17113171792111" y2="98.06355123074" /><path d="M 185.9800911702706 98.14961562048488 a86.0,86.0 0 0,1 -9.607161424134198,41.387399972396054" fill="none" id="id64" stroke="none" /><text fill="#e1ed5e" style="font-size:6.75px; font-family:Arial;" text-anchor="middle"><textPath startOffset="21.466115282336823" xlink:href="#id64">April</textPath></text><line stroke="#e1ed5e" stroke-width="0.3" x1="174.80103733775053" x2="179.2010983576182" y1="140.37084112569926" y2="142.7455964860345" /><path d="M 175.68104954172406 140.8457921977663 a86.0,86.0 0 0,1 -30.038265399797805,32.042727171017184" fill="none" id="id65" stroke="none" /><text fill="#e1ed5e" style="font-size:6.75px; font-family:Arial;" text-anchor="middle"><textPath startOffset="22.206326154141568" xlink:href="#id65">May</textPath></text><line stroke="#e1ed5e" stroke-width="0.3" x1="143.8653032363475" x2="146.44561519142675" y1="172.8068346515853" y2="177.08958963109032" /><path d="M 144.38136562736335 173.6633856474863 a86.0,86.0 0 0,1 -40.68145358897372,12.25698825130547" fill="none" id="id66" stroke="none" /><text fill="#e1ed5e" style="font-size:6.75px; font-family:Arial;" text-anchor="middle"><textPath startOffset="21.466115282336833" xlink:href="#id66">June</textPath></text><line stroke="#e1ed5e" stroke-width="0.3" x1="102.19456741930631" x2="102.32365962044197" y1="184.97166512339345" y2="189.96999836594603" /><path d="M 102.22038585953345 185.97133177190398 a86.0,86.0 0 0,1 -42.740103519485714,-10.115201625700543" fill="none" id="id67" stroke="none" /><text fill="#e1ed5e" style="font-size:6.75px; font-family:Arial;" text-anchor="middle"><textPath startOffset="22.20632615414155" xlink:href="#id67">July</textPath></text><line stroke="#e1ed5e" stroke-width="0.3" x1="58.666819895761336" x2="56.23545636021788" y1="174.27360380694188" y2="178.64263932499728" /><path d="M 58.180547188652646 175.14741091055294 a86.0,86.0 0 0,1 -31.652253787137756,-30.449443065178592" fill="none" id="id68" stroke="none" /><text fill="#e1ed5e" style="font-size:6.75px; font-family:Arial;" text-anchor="middle"><textPath startOffset="22.20632615414155" xlink:href="#id68">August</textPath></text><line stroke="#e1ed5e" stroke-width="0.3" x1="26.63291911575756" x2="22.317208475507996" y1="142.92168965132927" y2="145.44649492493687" /><path d="M 25.769776987707644 143.4266507060508 a86.0,86.0 0 0,1 -11.730757126820373,-40.83630448921669" fill="none" id="id69" stroke="none" /><text fill="#e1ed5e" style="font-size:6.75px; font-family:Arial;" text-anchor="middle"><textPath startOffset="21.46611528233685" xlink:href="#id69">September</textPath></text><line stroke="#e1ed5e" stroke-width="0.3" x1="15.007084014347285" x2="10.007500721073583" y1="101.09737516637583" y2="101.16192664675087" /><path d="M 14.007167355692545 101.11028546245083 a86.0,86.0 0 0,1 10.666146001902534,-42.60595125391555" fill="none" id="id70" stroke="none" /><text fill="#e1ed5e" style="font-size:6.75px; font-family:Arial;" text-anchor="middle"><textPath startOffset="22.20632615414155" xlink:href="#id70">October</textPath></text><line stroke="#e1ed5e" stroke-width="0.3" x1="26.266209847984243" x2="21.928928074336255" y1="57.711370442889674" y2="55.22380399835377" /><path d="M 25.398753493254645 57.213857153982495 a86.0,86.0 0 0,1 29.58750427330803,-30.492523968695096" fill="none" id="id71" stroke="none" /><text fill="#e1ed5e" style="font-size:6.75px; font-family:Arial;" text-anchor="middle"><textPath startOffset="21.46611528233685" xlink:href="#id71">November</textPath></text><line stroke="#e1ed5e" stroke-width="0.3" x1="56.762969772571076" x2="54.21961505331055" y1="26.818313649435495" y2="22.513508569990535" /><path d="M 56.25429882871897 25.957352633546506 a86.0,86.0 0 0,1 42.265352541879196,-11.944610805530505" fill="none" id="id72" stroke="none" /><text fill="#e1ed5e" style="font-size:6.75px; font-family:Arial;" text-anchor="middle"><textPath startOffset="22.20632615414155" xlink:href="#id72">December</textPath></text></svg>