<?xml version="1.0" encoding="utf-8" ?>
<svg baseProfile="full" height="200mm" version="1.1" viewBox="0,0,200,200" width="200mm" xmlns="http://www.w3.org/2000/svg" xmlns:ev="http://www.w3.org/2001/xml-events" xmlns:xlink="http://www.w3.org/1999/xlink"><defs /><rect fill="#1a1a1a" height="200" width="200" x="0" y="0" /><text alignment-baseline="middle" fill="#e1ed5e" style="dominant-baseline: central; font-size:9.0px; font-family:Arial;" text-anchor="middle" x="100.0" y="100.0">2024</text><line stroke="#e1ed5e" stroke-width="0.3" x1="100.0" x2="100.0" y1="15.0" y2="10.0" /><path d="M 100.0 14.0 a86.0,86.0 0 0,1 42.35913384403234,11.155469271406648" fill="none" id="id49" stroke="none" /><text fill="#e1ed5e" style="font-size:6.75px; font-family:Arial;" text-anchor="middle"><textPath startOffset="22.145653131862478" xlink:href="#id49">January</textPath></text><path d="M 100.0 79.0 l 0.0 -12.622501259868976 a33.622501259868976,33.622501259868976 0 0,0 0.5771749438049748,0.004954352723377337 l -0.21668201895612008 12.620641305340033" fill="#ff8c0c" stroke="none" /><path d="M 100.36049292484886 79.00309439819443 l 0.21879500873064742 -12.743712366587443 a33.745590458592304,33.745590458592304 0 0,0 0.5791172147665757,0.014916005182203566 l -0.4375255375679646 12.738078644055195" fill="#ff8e0d" stroke="none" /><path d="M 101.80034050326958 79.07731436759882 l 1.0839587016577996 -12.597243194886843 a33.64379304552327,33.64379304552327 0 0,0 0.5749891434963127,0.05445206970305929 l -1.3000474085391251 12.5767793696786" fill="#ff8d0d" stroke="none" /><path d="M 102.15924093988457 79.11130261209362 l 1.038802105842693 -10.049468048724533 a31.103015286410216,31.103015286410216 0 0,0 0.5306235109086855,0.05945747117204753 l -1.2111615183521753 10.030154817045515" fill="#ff6909" stroke="none" /><path d="M 102.87502721639298 79.19773525538626 l 1.7335991184830313 -12.543459629908314 a33.662691080127665,33.662691080127665 0 0,0 0.5717446088555124,0.084026768394837 l -1.9486688329462258 12.511851788214594" fill="#ff8d0d" stroke="none" /><path d="M 103.58742460773223 79.30868818359171 l 2.1595915624119124 -12.455950242866987 a33.641777255165465,33.641777255165465 0 0,0 0.568169994953303,0.1035394998188373 l -2.373096290916269 12.417042569116784" fill="#ff8d0d" stroke="none" /><path d="M 104.29559338865022 79.4440306129975 l 2.587834473063335 -12.38372476023273 a33.65122627246767,33.65122627246767 0 0,0 0.5644393628579388,0.12301693204522082 l -2.800036252540408 12.337476370053789" fill="#ff8d0d" stroke="none" /><path d="M 104.64783097203109 79.52079915486377 l 2.7963555532032895 -12.32125852963984 a33.63459600201579,33.63459600201579 0 0,0 0.5619665837645884,0.13262258361276605 l -3.007454290707763 12.271439802380847" fill="#ff8d0d" stroke="none" /><path d="M 105.3480935250658 79.69241777938227 l 3.2131747862285223 -12.200948030307424 a33.61695783638502,33.61695783638502 0 0,0 0.5567906275947113,0.15175576148888148 l -3.4221468147579266 12.143991774674403" fill="#ff8c0c" stroke="none" /><path d="M 106.72888874123014 80.10723608172694 l 4.064202940366712 -12.015093831657857 a33.6838568788846,33.6838568788846 0 0,0 0.5461504210724719,0.18997946694620754 l -4.269859133484202 11.94355593214306" fill="#ff8d0d" stroke="none" /><path d="M 107.06938296918511 80.22567764915836 l 4.262012934393113 -11.921608716844016 a33.660549302872504,33.660549302872504 0 0,0 0.542433097398726,0.1991889468460964 l -4.466035183445963 11.846688920989198" fill="#ff8d0d" stroke="none" /><path d="M 108.07796709384702 80.6158196554323 l 4.902977675628755 -11.765361555157746 a33.746094406181754,33.746094406181754 0 0,0 0.5328105359560584,0.2274251349267515 l -5.104223286755243 11.679461770571592" fill="#ff8e0d" stroke="none" /><path d="M 108.73861861582097 80.90454125486305 l 4.205634526176224 -9.190070435883987 a31.106668906433733,31.106668906433733 0 0,0 0.48365135580061624,0.22637325550328155 l -4.362774595848346 9.116520948810173" fill="#ff6909" stroke="none" /><path d="M 109.3889696526874 81.21577127319529 l 6.9253536745515865 -13.855346459614948 a36.48971107004871,36.48971107004871 0 0,0 0.5578977577204437,0.28486657027096446 l -7.162178653985609 13.73442193767115" fill="#ffb310" stroke="none" /><line stroke="#e1ed5e" stroke-width="0.3" x1="143.13028292997686" x2="145.6673583964461" y1="26.7553504044142" y2="22.446841604673864" /><path d="M 143.63769802327073 25.89364864446614 a86.0,86.0 0 0,1 29.32050498858742,28.57503671076993" fill="none" id="id50" stroke="none" /><text fill="#e1ed5e" style="font-size:6.75px; font-family:Arial;" text-anchor="middle"><textPath startOffset="20.669276256404974" xlink:href="#id50">February</textPath></text><path d="M 110.96478420261332 82.08984904055464 l 3.9884201902321053 -6.514784639330296 a28.638711573996304,28.638711573996304 0 0,0 0.4170831097415858,0.26029070781217223 l -4.099667428763404 6.445358134676579" fill="#ff4606" stroke="none" /><path d="M 111.27062007382361 82.28071324371311 l 6.780871970215056 -10.6606570100758 a33.634470015118424,33.634470015118424 0 0,0 0.48451954433305694,0.31405971483762474 l -6.962877146805121 10.542683453534282" fill="#ff8d0d" stroke="none" /><path d="M 117.62189284568427 88.57770195909679 l 6.629406749743969 -4.297101360963969 a28.900260372921217,28.900260372921217 0 0,0 0.2662709090269341,0.41862209541278567 l -6.702195350396792 4.182665590872512" fill="#ff4a06" stroke="none" /><path d="M 117.81537515405839 88.88188828441811 l 6.726884892647922 -4.198073691267866 a28.929363346211993,28.929363346211993 0 0,0 0.25930633093651223,0.4235574039574734 l -6.797959188039837 4.0819791711858375" fill="#ff4a06" stroke="none" /><line stroke="#e1ed5e" stroke-width="0.3" x1="172.87174338648825" x2="177.1583165268699" y1="56.24261187166439" y2="53.66864786411523" /><path d="M 173.72905801456457 55.72781907015455 a86.0,86.0 0 0,1 12.242430191666344,42.057860355516425" fill="none" id="id51" stroke="none" /><text fill="#e1ed5e" style="font-size:6.75px; font-family:Arial;" text-anchor="middle"><textPath startOffset="22.145653131862474" xlink:href="#id51">March</textPath></text><path d="M 118.36410011445183 89.81374322990088 l 11.04860344050831 -6.128474082291161 a33.634470015118424,33.634470015118424 0 0,0 0.27573002030123805,0.5073121812348641 l -11.152178810424891 5.937907067581694" fill="#ff8d0d" stroke="none" /><path d="M 118.70294669586156 90.45014215332178 l 11.24270565912289 -5.74060561699754 a33.62350915504788,33.62350915504788 0 0,0 0.2580685773207892,0.5163100279280682 l -11.339594149655417 5.546763732905721" fill="#ff8c0c" stroke="none" /><path d="M 119.0197475246899 91.09779779509293 l 5.968574870857159 -2.793594410573747 a27.589996640349405,27.589996640349405 0 0,0 0.19709181479282617,0.43068118473173245 l -6.015651150505037 2.6907242436273306" fill="#ff3705" stroke="none" /><path d="M 119.71291397450082 92.76114493625339 l 11.867319915356516 -4.357844252427669 a33.64215521585755,33.64215521585755 0 0,0 0.1944193445881781,0.543825508942431 l -11.940379429988637 4.153483787104321" fill="#ff8d0d" stroke="none" /><path d="M 119.94978838288452 93.4421083053983 l 11.991129313577993 -3.9417223794650593 a33.62237527297161,33.62237527297161 0 0,0 0.17553326996647442,0.549855468075593 l -12.057027299321724 3.735297877698079" fill="#ff8c0c" stroke="none" /><path d="M 120.16314734710363 94.1308016681162 l 9.749642136508957 -2.837978733130777 a31.15429195363682,31.15429195363682 0 0,0 0.1450625545512059,0.5147758306820996 l -9.796923183134744 2.6701949785456645" fill="#ff6a09" stroke="none" /><path d="M 120.26092885502905 94.47779374421319 l 9.73201391764684 -2.6525036695982536 a31.087014950445152,31.087014950445152 0 0,0 0.13591023727768958,0.5160733082180695 l -9.77611363572926 2.485049857007385" fill="#ff6909" stroke="none" /><path d="M 120.43855184770803 95.1765574152323 l 12.290058144127672 -2.9004202579207803 a33.62766672266085,33.62766672266085 0 0,0 0.1277677407441448,0.5629682404489859 l -12.338036746429484 2.6890176835327684" fill="#ff8c0c" stroke="none" /><path d="M 120.65975698304385 96.23510406497455 l 9.932756623954118 -1.8100791344164389 a31.096337980849995,31.096337980849995 0 0,0 0.09119398332732441,0.5259826619739956 l -9.962365424773676 1.6393034395218506" fill="#ff6909" stroke="none" /><path d="M 120.7213421655516 96.59031103205396 l 12.898067083238198 -2.122372030256688 a34.07151856206954,34.07151856206954 0 0,0 0.09001128620985802,0.5779370272072114 l -12.93259986158632 1.9006468211180356" fill="#ff930d" stroke="none" /><path d="M 120.77682067341334 96.94652285012252 l 12.479255228692919 -1.834020771862532 a33.6133042163615,33.6133042163615 0 0,0 0.07900004189405879,0.5716049493185738 l -12.50889978714219 1.6195275143438728" fill="#ff8c0c" stroke="none" /><path d="M 120.86939407059847 97.66154086499901 l 12.537612388961085 -1.4048656191399804 a33.61607592810348,33.61607592810348 0 0,0 0.05933654803854537,0.5740272764957864 l -12.559881329481296 1.1894338203612624" fill="#ff8c0c" stroke="none" /><path d="M 120.93736805541906 98.37931529534042 l 12.637737275657605 -0.9782407917724562 a33.67554174365866,33.67554174365866 0 0,0 0.03966664325517042,0.5767442872986694 l -12.652667880077841 0.7611530803194526" fill="#ff8d0d" stroke="none" /><path d="M 120.98066250479742 99.09900007780936 l 7.579567049335189 -0.32549922196823866 a28.58655299848816,28.58655299848816 0 0,0 0.016846073382737168,0.4904550458600503 l -7.584037809714775 0.1953379115440684" fill="#ff4606" stroke="none" /><path d="M 120.99303781780057 99.45929381324524 l 7.604314975421536 -0.195860179404616 a28.60683688896355,28.60683688896355 0 0,0 0.008430255563483563,0.49102012290460906 l -7.606556662583686 0.06529314053094057" fill="#ff4606" stroke="none" /><line stroke="#e1ed5e" stroke-width="0.3" x1="184.99686870605535" x2="189.99668451229388" y1="99.2704041080226" y2="99.22748670261217" /><path d="M 185.99683186730306 99.26182062694052 a86.0,86.0 0 0,1 -10.086455211305974,41.156179273409016" fill="none" id="id52" stroke="none" /><text fill="#e1ed5e" style="font-size:6.75px; font-family:Arial;" text-anchor="middle"><textPath startOffset="21.40746469413373" xlink:href="#id52">April</textPath></text><path d="M 120.98066250479742 100.90099992219065 l 12.637059186809458 0.542689695400723 a33.648706534520414,33.648706534520414 0 0,0 -0.029736500482044556,0.5768801651817176 l -12.62588109687084 -0.7595416539591712" fill="#ff8d0d" stroke="none" /><path d="M 120.96210409425399 101.26102812881392 l 7.591600728046705 0.4566918481916723 a28.605325046195198,28.605325046195198 0 0,0 -0.033694401487075816,0.4899092027174553 l -7.582642365394563 -0.586944475063471" fill="#ff4606" stroke="none" /><path d="M 120.9064616781168 101.97986365728391 l 12.5802002970598 1.1913580477164962 a33.636485805476234,33.636485805476234 0 0,0 -0.05937257400635255,0.5743757950541974 l -12.557895330571782 -1.407138365053625" fill="#ff8d0d" stroke="none" /><path d="M 120.82617615685814 102.69636545807757 l 12.52014475279047 1.620983400279099 a33.624643037124144,33.624643037124144 0 0,0 -0.079026691083607,0.5717977695788397 l -12.490473545151653 -1.8356694780580238" fill="#ff8c0c" stroke="none" /><path d="M 120.7213421655516 103.40968896794604 l 9.99419009657409 1.6445401771558974 a31.128590626574834,31.128590626574834 0 0,0 -0.09128856833081596,0.5265282031391553 l -9.96448671075104 -1.8158614132156408" fill="#ff6a09" stroke="none" /><path d="M 120.592083275326 104.11899336999214 l 12.401157299703481 2.4805787746067436 a33.64681673105997,33.64681673105997 0 0,0 -0.11815206139149695,0.5654003852859959 l -12.35674752748762 -2.6930956111781486" fill="#ff8d0d" stroke="none" /><path d="M 120.51834098615036 104.47187691870673 l 9.847533309796123 2.1462240511548836 a31.078699815219217,31.078699815219217 0 0,0 -0.1180829848649679,0.5202954190879474 l -9.80923946337349 -2.314953804181848" fill="#ff6909" stroke="none" /><path d="M 120.26092885502905 105.52220625578681 l 12.16744845569106 3.31629218283854 a33.611288426003696,33.611288426003696 0 0,0 -0.15650297455289847,0.5553738452968479 l -12.108726989063582 -3.5246739520383965" fill="#ff8c0c" stroke="none" /><path d="M 119.58574465831526 107.57618678355244 l 11.759859955925638 4.54896646151698 a33.60902066185117,33.60902066185117 0 0,0 -0.21276322570844744,0.536302316011173 l -11.680038055251066 -4.750169794741717" fill="#ff8c0c" stroke="none" /><path d="M 119.31412917781788 108.2440532568976 l 11.604189848106293 4.953138618375295 a33.61708382328238,33.61708382328238 0 0,0 -0.23110323283226375,0.5288094233502397 l -11.517452733257064 -5.1516101115013795" fill="#ff8c0c" stroke="none" /><path d="M 119.0197475246899 108.90220220490707 l 11.420360868521204 5.345305534293179 a33.60939862254325,33.60939862254325 0 0,0 -0.2490628358648235,0.5204455354838761 l -11.32691877469647 -5.540563571842159" fill="#ff8c0c" stroke="none" /><path d="M 118.70294669586154 109.54985784667822 l 11.23328035421988 5.735792989156109 a33.61292625566941,33.61292625566941 0 0,0 -0.2668096945219125,0.5116427694226677 l -11.13316259072302 -5.927782001683279" fill="#ff8c0c" stroke="none" /><line stroke="#e1ed5e" stroke-width="0.3" x1="174.33088141563837" x2="178.70328620479359" y1="141.23008692659167" y2="143.65538615756765" /><path d="M 175.20536237346943 141.71514677278685 a86.0,86.0 0 0,1 -30.301960400862466,31.631185727798858" fill="none" id="id53" stroke="none" /><text fill="#e1ed5e" style="font-size:6.75px; font-family:Arial;" text-anchor="middle"><textPath startOffset="22.145653131862474" xlink:href="#id53">May</textPath></text><path d="M 118.36410011445183 110.18625677009912 l 11.04199305194752 6.124807411187719 a33.626910801276665,33.626910801276665 0 0,0 -0.28433416170042686,0.5023912193514876 l -10.935225525225714 -6.31345540063833" fill="#ff8c0c" stroke="none" /><path d="M 117.21940702142032 112.02048342749411 l 10.349681387781642 7.224881405434822 a33.621997312279525,33.621997312279525 0 0,0 -0.33443464741911605,0.47042421399331297 l -10.224131641832564 -7.401482846137639" fill="#ff8c0c" stroke="none" /><path d="M 116.79662413953412 112.60449989151573 l 10.107862647670128 7.585128570338295 a33.63736771375777,33.63736771375777 0 0,0 -0.3505462576743833,0.45887630398181545 l -9.976164412641442 -7.757525787560987" fill="#ff8d0d" stroke="none" /><path d="M 116.35404254752997 113.17365903436017 l 9.832401549387875 7.920286689000563 a33.62565093230304,33.62565093230304 0 0,0 -0.3659642607499747,0.4464168931585254 l -9.694990469399274 -8.087905863857582" fill="#ff8c0c" stroke="none" /><path d="M 115.89218393027572 113.72728997021213 l 5.776462381510431 4.989570625466581 a28.633042163614984,28.633042163614984 0 0,0 -0.3244927257213186,0.3692131555627859 l -5.689958591830527 -5.08799605884066" fill="#ff4606" stroke="none" /><path d="M 115.41159269507618 114.26474011684316 l 9.253575748773816 8.5649715652006 a33.60902066185117,33.60902066185117 0 0,0 -0.3955368281149533,0.42004640455260417 l -9.105183086922603 -8.722559429697702" fill="#ff8c0c" stroke="none" /><path d="M 115.16444852881244 114.52719865689866 l 9.124925145732998 8.741471875454623 a33.63635981857887,33.63635981857887 0 0,0 -0.4030167662664326,0.4135307060286487 l -8.973521578315758 -8.89682527355101" fill="#ff8d0d" stroke="none" /><path d="M 113.86319453409587 115.77377054828091 l 8.326283674515084 9.47378238678548 a33.61267428187469,33.61267428187469 0 0,0 -0.4366774897210827,0.3771916151464787 l -8.162426705031146 -9.615318134396677" fill="#ff8c0c" stroke="none" /><path d="M 112.7482090630111 116.68781488649013 l 4.795377530241633 6.277303120773026 a28.89937846463968,28.89937846463968 0 0,0 -0.3968118763150199,0.2977750296973387 l -4.686912665015847 -6.35869717773438" fill="#ff4a06" stroke="none" /><path d="M 112.45986205192187 116.90419585922612 l 3.7664986993963865 5.10997886275123 a27.34810179741307,27.34810179741307 0 0,0 -0.3802935740509732,0.27530322020874703 l -3.6782241149714454 -5.173882854333055" fill="#ff3404" stroke="none" /><path d="M 111.8722381534696 117.32195027204791 l 7.130294551771823 10.40331284246942 a33.6122963211826,33.6122963211826 0 0,0 -0.4787410759642455,0.322118361444125 l -6.950657187710574 -10.524180877970666" fill="#ff8c0c" stroke="none" /><line stroke="#e1ed5e" stroke-width="0.3" x1="143.1302829299769" x2="145.66735839644613" y1="173.24464959558577" y2="177.55315839532614" /><path d="M 143.63769802327073 174.10635135553383 a86.0,86.0 0 0,1 -40.68552437913181,11.842963189579606" fill="none" id="id54" stroke="none" /><text fill="#e1ed5e" style="font-size:6.75px; font-family:Arial;" text-anchor="middle"><textPath startOffset="21.407464694133747" xlink:href="#id54">June</textPath></text><path d="M 110.34350942703117 118.27599006163325 l 5.594967105180965 9.885770775461221 a32.35923064001344,32.35923064001344 0 0,0 -0.48578264409817246,0.2694554438497923 l -5.424440272926698 -9.980359134744157" fill="#ff7b0b" stroke="none" /><path d="M 109.71004243097381 118.62028667847754 l 5.835206319897437 11.189777519196435 a33.61985553502436,33.61985553502436 0 0,0 -0.5140200201056317,0.26246228480358225 l -5.642259078078223 -11.288297755672852" fill="#ff8c0c" stroke="none" /><path d="M 109.06512990194946 118.94263497670748 l 5.446180638280346 11.3804228912341 a33.61645388879557,33.61645388879557 0 0,0 -0.522673885443326,0.24463776973910145 l -5.250018038965513 -11.472236892543734" fill="#ff8c0c" stroke="none" /><path d="M 108.4095320186766 119.2426549942271 l 3.0371566436629323 6.9496087686729195 a28.584285234335628,28.584285234335628 0 0,0 -0.4513117326204499,0.19263814200118465 l -2.9174098358720513 -7.000721560333508" fill="#ff4606" stroke="none" /><path d="M 108.07796709384702 119.3841803445677 l 7.704561509279271 18.48814287513515 a41.02927095582059,41.02927095582059 0 0,0 -0.6524543807764239,0.26534751662198086 l -7.3860526673124065 -18.61767764833642" fill="#ffee16" stroke="none" /><path d="M 107.06938296918513 119.77432235084164 l 4.247847364142176 11.881985095709528 a33.61846967915337,33.61846967915337 0 0,0 -0.5450902323062462,0.18961067825924957 l -4.043251359790908 -11.953154206537366" fill="#ff8c0c" stroke="none" /><path d="M 106.38641147887787 120.00534299687104 l 3.4552384966564635 10.823485378325614 a32.36162439106333,32.36162439106333 0 0,0 -0.5306680235501321,0.16440231019801718 l -3.268929840234707 -10.881204276330276" fill="#ff7b0b" stroke="none" /><path d="M 105.3480935250658 120.30758222061773 l 3.2149073883400243 12.207527002733771 a33.6237611288426,33.6237611288426 0 0,0 -0.5594268647748212,0.1422041214040198 l -3.004875230339806 -12.260916355973063" fill="#ff8c0c" stroke="none" /><path d="M 104.64783097203109 120.47920084513623 l 2.2354950496670574 9.850003665351304 a31.10049554846296,31.10049554846296 0 0,0 -0.5216553997113293,0.11369236640829866 l -2.066077233336592 -9.886927489893322" fill="#ff6909" stroke="none" /><path d="M 103.58742460773223 120.69131181640829 l 0.4906440857099162 2.829904702782868 a23.872123299176884,23.872123299176884 0 0,0 -0.4043738717813396,0.06653956671931212 l -0.44199271087550435 -2.8379102679978505" fill="#ff0000" stroke="none" /><path d="M 103.2317021107853 120.74984581791261 l 1.9408941662330195 12.461932850746198 a33.61217033428524,33.61217033428524 0 0,0 -0.5708865382989369,0.08390066157230366 l -1.7266825223263973 -12.493414585617383" fill="#ff8c0c" stroke="none" /><path d="M 102.15924093988457 120.88869738790638 l 1.29771567082477 12.554221922474168 a33.62111540399798,33.62111540399798 0 0,0 -0.5746015713322697,0.05441536621616752 l -1.0820145361074849 -12.57464904419552" fill="#ff8c0c" stroke="none" /><path d="M 101.80034050326958 120.92268563240118 l 0.5471637922964032 6.358872665953611 a27.382370233495717,27.382370233495717 0 0,0 -0.46867013611723934,0.03627803261257262 l -0.4379246614039281 -6.367328465561238" fill="#ff3404" stroke="none" /><path d="M 100.72087961077811 120.9876233191556 l 0.4328547234547888 12.602092987455356 a33.60952460944062,33.60952460944062 0 0,0 -0.5767821518882896,0.014855862245497278 l -0.21645925749575534 -12.607666567050899" fill="#ff8c0c" stroke="none" /><line stroke="#e1ed5e" stroke-width="0.3" x1="101.45913802915013" x2="101.54496967792366" y1="184.9874750549273" y2="189.98673829345242" /><path d="M 101.47630435890484 185.9873277026323 a86.0,86.0 0 0,1 -42.54439059252881,-10.42667462771756" fill="none" id="id55" stroke="none" /><text fill="#e1ed5e" style="font-size:6.75px; font-family:Arial;" text-anchor="middle"><textPath startOffset="22.145653131862474" xlink:href="#id55">July</textPath></text><path d="M 100.0 121.0 l 1.5451625608207208e-15 12.617209810179745 a33.617209810179745,33.617209810179745 0 0,0 -0.5770841090347248,-0.004953573016121894 l 0.21659118418587117 -12.615350635358057" fill="#ff8c0c" stroke="none" /><path d="M 98.91894614982273 120.97215588758144 l -0.5192475120529996 10.073263015740311 a31.086636989753067,31.086636989753067 0 0,0 -0.5327000901890976,-0.03204591461475868 l 0.6920919543745435 -10.062865123300861" fill="#ff6909" stroke="none" /><path d="M 98.55909050195518 120.95050786540614 l -0.6951002605426195 10.106605234752237 a31.130480430035277,31.130480430035277 0 0,0 -0.5328218987665438,-0.041243784765731616 l 0.8684911540843994 -10.093183682991452" fill="#ff6a09" stroke="none" /><path d="M 98.19965949673042 120.92268563240118 l -0.8367904546945586 9.724773503663517 a30.76070888627583,30.76070888627583 0 0,0 -0.5257158023748018,-0.04978583306955292 l 1.0036058204543756 -9.70897591508878" fill="#ff6509" stroke="none" /><path d="M 97.48249496171623 120.84855314841334 l -1.5123547071012735 12.52446648994548 a33.61544599361666,33.61544599361666 0 0,0 -0.5722984509404861,-0.074095492288394 l 1.7271309799325536 -12.49665940145669" fill="#ff8c0c" stroke="none" /><path d="M 96.76829788921471 120.74984581791261 l -1.9418247996550413 12.467908184907003 a33.618217705358646,33.618217705358646 0 0,0 -0.5694645878598041,-0.09370518122563863 l 2.155566890567909 -12.432737005185697" fill="#ff8c0c" stroke="none" /><path d="M 96.05791012581884 120.62667999033965 l -1.1932174679157126 6.243417997843865 a27.356416932639007,27.356416932639007 0 0,0 -0.4605042632842046,-0.09211374983091507 l 1.3002182167308753 -6.222014851350089" fill="#ff3404" stroke="none" /><path d="M 95.00130118170881 120.39639698878247 l -3.008263995707001 12.274743675090273 a33.637997648244585,33.637997648244585 0 0,0 -0.5596637297520866,-0.142264331554991 l 3.2185330186844663 -12.221294111700018" fill="#ff8d0d" stroke="none" /><path d="M 94.30408787586889 120.21278271476187 l -3.4214633763806224 12.14156649297792 a33.61443809843776,33.61443809843776 0 0,0 -0.5540619612948805,-0.16127936194739761 l 3.6293853500571096 -12.081043436728008" fill="#ff8c0c" stroke="none" /><path d="M 93.61358852112213 120.00534299687104 l -5.743226233167891 17.990574375476818 a39.88505795397279,39.88505795397279 0 0,0 -0.6504631169922711,-0.21382014639453467 l 6.051212087807906 -17.889333307680264" fill="#ffe015" stroke="none" /><path d="M 93.27111125876986 119.89276391827306 l -6.061990646601242 17.921198201528373 a39.91869645556862,39.91869645556862 0 0,0 -0.6472421776479982,-0.22514442752458097 l 6.3687385962942615 -17.8144953414352" fill="#ffe015" stroke="none" /><path d="M 92.59220618246901 119.65005319985036 l -3.5580378022577506 9.438117990809076 a31.0865110028557,31.0865110028557 0 0,0 -0.49772129816477206,-0.19252929040140215 l 3.719531362916051 -9.375648812269633" fill="#ff6909" stroke="none" /><path d="M 91.92203290615298 119.3841803445677 l -3.885065813427446 9.322743643676745 a31.09986561397615,31.09986561397615 0 0,0 -0.491029743071795,-0.20959139888397296 l 4.044530631669672 -9.254677595133368" fill="#ff6909" stroke="none" /><path d="M 91.26138138417905 119.09545874513695 l -5.243255051507556 11.457458544423206 a33.60020157903578,33.60020157903578 0 0,0 -0.5224211919880081,-0.24451949644277104 l 5.439164957367054 -11.365762816409909" fill="#ff8c0c" stroke="none" /><path d="M 90.93487009805054 118.94263497670748 l -5.447866577104471 11.383945854951536 a33.62035948261381,33.62035948261381 0 0,0 -0.5184575635509179,-0.25360357457258015 l 5.642484389917459 -11.288748530281735" fill="#ff8c0c" stroke="none" /><line stroke="#e1ed5e" stroke-width="0.3" x1="58.13341422392154" x2="55.67067388415222" y1="173.97424548756322" y2="178.32567169271397" /><path d="M 57.64086615596768 174.84453072859336 a86.0,86.0 0 0,1 -31.369924170532247,-30.572349798747897" fill="none" id="id56" stroke="none" /><text fill="#e1ed5e" style="font-size:6.75px; font-family:Arial;" text-anchor="middle"><textPath startOffset="22.145653131862474" xlink:href="#id56">August</textPath></text><path d="M 88.72937992617639 117.7192867562869 l -5.47499086893506 8.607595017777992 a31.2012850663531,31.2012850663531 0 0,0 -0.4494684297436483,-0.2913400058363248 l 5.621944930935718 -8.512341170237773" fill="#ff6b09" stroke="none" /><path d="M 88.1277618465304 117.32195027204791 l -7.1287275793006994 10.401026582804516 a33.60952460944062,33.60952460944062 0 0,0 -0.4731019265650848,-0.3302618876896747 l 7.30622459703955 -10.277119879309712" fill="#ff8c0c" stroke="none" /><path d="M 87.83215693770417 117.11559508785305 l -6.622219596597327 9.314981185894734 a32.429027381152366,32.429027381152366 0 0,0 -0.45094722906664275,-0.32645101778558816 l 6.781147836037924 -9.19992939673608" fill="#ff7c0b" stroke="none" /><path d="M 86.96720088162412 116.46651593811092 l -16.363323411327446 20.67452458261053 a47.36653788006048,47.36653788006048 0 0,0 -0.6332437628935851,-0.5100963504130822 l 16.715817944576294 -20.390579938404038" fill="#c2ff1e" stroke="none" /><path d="M 86.40962598614128 116.0094264158162 l -8.161040631033424 9.613685342712598 a33.61053250461952,33.61053250461952 0 0,0 -0.4366496649217864,-0.3771675807475601 l 8.324869775718073 -9.472173629500316" fill="#ff8c0c" stroke="none" /><path d="M 85.08716467003676 114.78537596483092 l -7.161263698472849 7.100056684222612 a31.08436922560054,31.08436922560054 0 0,0 -0.37243988452679466,-0.38215613168752477 l 7.282090384150454 -6.97607786046735" fill="#ff6909" stroke="none" /><path d="M 84.58840730492382 114.26474011684316 l -11.103791614850762 10.2775037487224 a36.13014446497564,36.13014446497564 0 0,0 -0.41739314838657715,-0.4587881865943756 l 11.278582464079218 -10.085377986570352" fill="#ffae10" stroke="none" /><path d="M 83.8745106332314 113.45245675266167 l -9.693055611900439 8.086291736916467 a33.623131194355786,33.623131194355786 0 0,0 -0.36593683722032666,-0.4463834409113592 l 9.830439268359397 -7.918706014306611" fill="#ff8c0c" stroke="none" /><path d="M 83.4222238831116 112.89097897827486 l -17.601380492803408 13.686939932202078 a43.296657147656646,43.296657147656646 0 0,0 -0.4512089430444611,-0.5906469904468487 l 17.833741413202166 -13.382772028514358" fill="#f3ff19" stroke="none" /><path d="M 83.20337586046588 112.60449989151573 l -16.967125735632667 12.73244746786645 a42.21316983033764,42.21316983033764 0 0,0 -0.4299672273178096,-0.5833331214535838 l 17.183194982534307 -12.439308037143988" fill="#fffd17" stroke="none" /><path d="M 82.78059297857968 112.02048342749411 l -10.346582216831566 7.222717943417922 a33.618217705358646,33.618217705358646 0 0,0 -0.3262732284918498,-0.476042391163175 l 10.469045182138741 -7.044040817184696" fill="#ff8c0c" stroke="none" /><path d="M 82.37810715431573 111.42229804090323 l -10.57573642831961 6.855064580414159 a33.60309927767512,33.60309927767512 0 0,0 -0.30960024841757017,-0.4867430137468461 l 10.69185436836307 -6.672507891988641" fill="#ff8c0c" stroke="none" /><path d="M 81.99639281039703 110.81064883170644 l -22.800025468914118 13.690760196142076 a47.59470015118427,47.59470015118427 0 0,0 -0.4145867579115339,-0.7040589522563702 l 23.031685936955423 -13.297350075592147" fill="#bfff1e" stroke="none" /><line stroke="#e1ed5e" stroke-width="0.3" x1="26.387840678322732" x2="22.057713659400548" y1="142.50000000000003" y2="145.00000000000006" /><path d="M 25.521815274538298 143.00000000000003 a86.0,86.0 0 0,1 -11.493303480769221,-40.785679425670985" fill="none" id="id57" stroke="none" /><text fill="#e1ed5e" style="font-size:6.75px; font-family:Arial;" text-anchor="middle"><textPath startOffset="21.40746469413373" xlink:href="#id57">September</textPath></text><path d="M 81.81346652052679 110.50000000000001 l -10.87619817639562 6.2793759449017355 a33.55875188980346,33.55875188980346 0 0,0 -0.2837578403407077,-0.5013729147309117 l 10.982389381757706 -6.0917462600717025" fill="#ff8c0c" stroke="none" /><path d="M 81.4637452351635 109.86951160357371 l -13.702353957812953 7.2957316943794215 a36.52360154543928,36.52360154543928 0 0,0 -0.2899137937904191,-0.5559479261597071 l 13.825575820578322 -7.059437525115211" fill="#ffb410" stroke="none" /><path d="M 81.1358732173502 109.22738970284198 l -12.868448081087447 6.294602802616626 a35.325466151520246,35.325466151520246 0 0,0 -0.2617797740672187,-0.5470190452950812 l 12.974607113114578 -6.07277125525644" fill="#ffa40f" stroke="none" /><path d="M 80.83023694016515 108.57439118712176 l -7.48796586992625 3.3492718905372514 a29.20288090038636,29.20288090038636 0 0,0 -0.20075745473855283,-0.45937234443885766 l 7.544357206681771 -3.2202374763225445" fill="#ff4e07" stroke="none" /><path d="M 80.68587082218212 108.24405325689762 l -17.273378757383227 7.372978252935143 a39.78111876364858,39.78111876364858 0 0,0 -0.26269585942584456,-0.6303744315522711 l 17.39740046134556 -7.07537131194159" fill="#ffde14" stroke="none" /><path d="M 80.41425534168474 107.57618678355246 l -12.74852386820915 4.931402901708072 a34.66907441626071,34.66907441626071 0 0,0 -0.20994488030010988,-0.5569037379483046 l 12.831299432323695 -4.711830883565622" fill="#ff9b0e" stroke="none" /><path d="M 80.16572619554312 106.89939002012753 l -16.37097475308592 5.694674831292297 a38.333151352259364,38.333151352259364 0 0,0 -0.21085894372661326,-0.6233669999488143 l 16.466319118384902 -5.412806156869322" fill="#ffcc13" stroke="none" /><path d="M 79.73907114497094 105.5222062557868 l -14.593037206273632 3.9773971829238834 a36.12535696287586,36.12535696287586 0 0,0 -0.15793751327980957,-0.599714463035726 l 14.659164200358173 -3.726302215515355" fill="#ffae10" stroke="none" /><path d="M 79.64726062577567 105.17358676015961 l -29.26789955714675 7.439785616195777 a51.19868133714094,51.19868133714094 0 0,0 -0.209213594506864,-0.8536628599021855 l 29.39130067816991 -6.936266931685491" fill="#96ff23" stroke="none" /><path d="M 79.48165901384964 104.47187691870673 l -13.390148889218393 2.9183206281716427 a34.70447673441962,34.70447673441962 0 0,0 -0.12186607423993362,-0.5831732812535692 l 13.438272674282693 -2.6880308956326644" fill="#ff9b0e" stroke="none" /><path d="M 79.34024301695615 103.76489593502545 l -26.135056140287265 4.762677833286532 a47.56547119099614,47.56547119099614 0 0,0 -0.13949182020787465,-0.8045517504503173 l 26.212962777987375 -4.313333049915623" fill="#c0ff1e" stroke="none" /><path d="M 79.2786578344484 103.40968896794605 l -12.498518273993865 2.0566264257416886 a33.66659667394591,33.66659667394591 0 0,0 -0.08894154991682307,-0.5710685528288987 l 12.531981316048956 -1.84176969098134" fill="#ff8d0d" stroke="none" /><path d="M 79.17382384314188 102.69636545807758 l -19.321599753118807 2.5015679199445273 a40.48286578195868,40.48286578195868 0 0,0 -0.08331357149173325,-0.6899558876011603 l 19.3616954108702 -2.1695183554199673" fill="#ffe715" stroke="none" /><path d="M 79.03789590574601 101.26102812881392 l -14.193599591981163 0.8538517056365653 a35.219259197043506,35.219259197043506 0 0,0 -0.031124451010195814,-0.6038060346338883 l 14.206165632447933 -0.6100738776259462" fill="#ffa20f" stroke="none" /><line stroke="#e1ed5e" stroke-width="0.3" x1="15.003131293944662" x2="10.003315487706104" y1="100.72959589197737" y2="100.7725132973878" /><path d="M 14.003168132696942 100.73817937305945 a86.0,86.0 0 0,1 10.791469493833604,-42.45332614584628" fill="none" id="id58" stroke="none" /><text fill="#e1ed5e" style="font-size:6.75px; font-family:Arial;" text-anchor="middle"><textPath startOffset="22.145653131862435" xlink:href="#id58">October</textPath></text><path d="M 79.13060592940154 97.66154086499901 l -12.755967019634237 -1.429332710951088 a33.83579707710398,33.83579707710398 0 0,0 0.06963393140064984,-0.5766688438205252 l 12.729551001973919 1.6480952316950495" fill="#ff8f0d" stroke="none" /><path d="M 79.22317932658666 96.9465228501225 l -12.74151453790593 -1.8725638589215339 a33.878380648412566,33.878380648412566 0 0,0 0.08950104795932008,-0.5746609316185439 l 12.707491997808342 2.091012972471528" fill="#ff900d" stroke="none" /><path d="M 79.407916724674 95.88100663000787 l -26.794144400996082 -5.359579293978327 a48.32492020829834,48.32492020829834 0 0,0 0.1696947733518922,-0.8120509206882746 l 26.698191916819823 5.818746665952011" fill="#b7ff1f" stroke="none" /><path d="M 79.56144815229197 95.17655741523228 l -24.964648088514576 -5.891588973676942 a46.65042835545103,46.65042835545103 0 0,0 0.1906280307740701,-0.7778274175332136 l 24.859832531224207 6.319272215818273" fill="#cbff1d" stroke="none" /><path d="M 79.64726062577567 94.8264132398404 l -12.217089451225162 -3.10553636394476 a33.60561901562237,33.60561901562237 0 0,0 0.1469213966525179,-0.5578844738793634 l 12.16197857376792 3.3148013421969083" fill="#ff8c0c" stroke="none" /><path d="M 79.73907114497095 94.47779374421319 l -12.24548543779449 -3.3375615093258806 a33.69217201411053,33.69217201411053 0 0,0 0.15687958975344257,-0.5567103197806197 l 12.186387355966467 3.547279753009513" fill="#ff8d0d" stroke="none" /><path d="M 79.83685265289637 94.1308016681162 l -12.116226899885985 -3.526857066773928 a33.61909961364019,33.61909961364019 0 0,0 0.16605222524244345,-0.5527338522727425 l 12.053898354639912 3.734328522637394" fill="#ff8c0c" stroke="none" /><path d="M 79.94057633289273 93.78553927170692 l -18.160274589267644 -5.626099489342769 a40.01180077271964,40.01180077271964 0 0,0 0.20889072142766088,-0.654347209672506 l 18.061019152062727 5.937015732706667" fill="#ffe115" stroke="none" /><path d="M 80.05021161711548 93.44210830539832 l -12.128050421242918 -3.986731067153283 a33.76650428355451,33.76650428355451 0 0,0 0.18573921463284435,-0.5491049843664245 l 12.057825785037709 4.1943377259938694" fill="#ff8e0d" stroke="none" /><path d="M 80.28708602549916 92.7611449362534 l -12.02118292008898 -4.414344878990107 a33.80606416932639,33.80606416932639 0 0,0 0.20471876492088262,-0.543040846005046 l 11.943633471353662 4.620054005189298" fill="#ff8f0d" stroke="none" /><path d="M 80.41425534168474 92.42381321644754 l -11.977239114200476 -4.6330533897738775 a33.842096421972116,33.842096421972116 0 0,0 0.2142387209648055,-0.5400215279220336 l 11.895941718269539 4.837975934909494" fill="#ff8f0d" stroke="none" /><path d="M 80.5471966667186 92.08871423366112 l -11.923017204658883 -4.848987299514319 a33.87132538216026,33.87132538216026 0 0,0 0.2236703543714863,-0.5367274261580902 l 11.838021005750917 5.052947235113673" fill="#ff900d" stroke="none" /><path d="M 80.68587082218212 91.75594674310238 l -12.15759797938019 -5.1893556419345055 a34.21879724508651,34.21879724508651 0 0,0 0.23523975811053766,-0.5382746027000547 l 12.066724339252676 5.397292314410427" fill="#ff950d" stroke="none" /><path d="M 80.83023694016515 91.42560881287825 l -40.10499270753374 -17.93845312316664 a64.93402486141443,64.93402486141443 0 0,0 0.46386249946194213,-1.0136232751770522 l 39.791145743216745 18.624265380558363" fill="#35ff61" stroke="none" /><path d="M 81.1358732173502 90.77261029715801 l -11.737170866001607 -5.741238427693974 a34.06610112548295,34.06610112548295 0 0,0 0.2614655779020404,-0.5231063046510374 l 11.636885374887822 5.941876588508781" fill="#ff920d" stroke="none" /><path d="M 81.29705330413844 90.45014215332179 l -11.447593834752485 -5.845222979360056 a33.85356122963212,33.85356122963212 0 0,0 0.2687197854020231,-0.5153056205402002 l 11.345565980375524 6.040874843004743" fill="#ff900d" stroke="none" /><path d="M 81.46374523516351 90.13048839642627 l -22.313365303866462 -11.880610219010013 a46.279144968923234,46.279144968923234 0 0,0 0.37938904867740403,-0.6980331180873243 l 22.106130905573707 12.261898170571957" fill="#cfff1d" stroke="none" /><path d="M 81.63589988554816 89.8137432299009 l -6.621956740773728 -3.673087777871943 a28.57244246598354,28.57244246598354 0 0,0 0.24159583151453498,-0.426876685020722 l 6.557927544237824 3.78622123299177" fill="#ff4506" stroke="none" /><line stroke="#e1ed5e" stroke-width="0.3" x1="26.387840678322718" x2="22.05771365940052" y1="57.49999999999999" y2="54.99999999999999" /><path d="M 25.521815274538284 56.99999999999999 a86.0,86.0 0 0,1 29.574782752854787,-30.34633250058573" fill="none" id="id59" stroke="none" /><text fill="#e1ed5e" style="font-size:6.75px; font-family:Arial;" text-anchor="middle"><textPath startOffset="21.40746469413373" xlink:href="#id59">November</textPath></text><path d="M 81.81346652052679 89.5 l -7.27858491766251 -4.2022929615320015 a29.404585923064,29.404585923064 0 0,0 0.25613675276553405,-0.4349762030386232 l 7.205374454767197 4.326620332864198" fill="#ff5107" stroke="none" /><path d="M 81.99639281039701 89.18935116829357 l -42.751384383038456 -25.67097797497096 a70.86662187132539,70.86662187132539 0 0,0 0.6352080231909307,-1.037564568146154 l 42.30440839539213 26.401079659241656" fill="#3cffa6" stroke="none" /><path d="M 82.37810715431573 88.57770195909679 l -7.94277080881344 -5.148408076438401 a30.465395598857718,30.465395598857718 0 0,0 0.2882252173383338,-0.43640971478557206 l 7.853221152554377 5.283997669563034" fill="#ff6008" stroke="none" /><path d="M 82.576782715395 88.27688183743585 l -10.4869195441391 -7.056067485645962 a33.63976146480766,33.63976146480766 0 0,0 0.3264823160767871,-0.47634745619825564 l 10.364247491247 7.235049676914252" fill="#ff8d0d" stroke="none" /><path d="M 82.78059297857968 87.97951657250589 l -21.162482221203092 -14.773056151594952 a46.80879388543592,46.80879388543592 0 0,0 0.46560239517571983,-0.6549280778000586 l 20.9057647274974 15.13416145610453" fill="#c9ff1d" stroke="none" /><path d="M 82.98947788004972 87.6856937992154 l -5.649933623663986 -4.090116233075987 a27.975012598689737,27.975012598689737 0 0,0 0.284942795094141,-0.3865796263935153 l 5.578888808986027 4.1865021687383654" fill="#ff3d05" stroke="none" /><path d="M 83.42222388311158 87.10902102172516 l -21.01482061967658 -16.34125162086668 a47.62065345204099,47.62065345204099 0 0,0 0.5073494653336367,-0.6410194756496379 l 20.731204723701385 16.699591040431" fill="#bfff1e" stroke="none" /><path d="M 83.64595745247003 86.82634096563983 l -9.922274020492106 -7.992681589983703 a33.74105493028725,33.74105493028725 0 0,0 0.367220258407679,-0.4479490060785668 l 9.783606942845797 8.161832877760762" fill="#ff8e0d" stroke="none" /><path d="M 83.8745106332314 86.54754324733833 l -10.052745620933381 -8.386357935270215 a34.091550478750214,34.091550478750214 0 0,0 0.3787497173887647,-0.44616621473134654 l 9.907301340037503 8.557690932451118" fill="#ff930d" stroke="none" /><path d="M 84.10781606972428 86.27271002978789 l -9.754275523473869 -8.425510876763765 a33.88934150848312,33.88934150848312 0 0,0 0.3840613489879907,-0.43699131397890956 l 9.608203110527285 8.591714468553976" fill="#ff900d" stroke="none" /><path d="M 84.34580500576568 86.00192230759919 l -9.247474048512611 -8.269148316934675 a33.40542583571309,33.40542583571309 0 0,0 0.3859158624809776,-0.4241891353752433 l 9.104160485189768 8.426675027867576" fill="#ff890c" stroke="none" /><path d="M 85.08716467003674 85.21462403516908 l -22.968686634110927 -22.77237425276081 a53.34411221232992,53.34411221232992 0 0,0 0.650310654278555,-0.6447524769568608 l 22.574384059702396 23.163306739946343" fill="#7eff26" stroke="none" /><path d="M 85.60350026404147 84.71141617570332 l -8.70739315639569 -9.246949786701002 a33.70136905761801,33.70136905761801 0 0,0 0.4245894723146122,-0.3929936768216406 l 8.547373912767124 9.395061209655008" fill="#ff8d0d" stroke="none" /><path d="M 85.86807049272753 84.46653392183569 l -8.725926404561873 -9.5913216759302 a33.9666974634638,33.9666974634638 0 0,0 0.434668549130567,-0.38868329693183323 l 8.559992828607914 9.739700502745434" fill="#ff910d" stroke="none" /><path d="M 86.40962598614128 83.9905735841838 l -8.158350016802556 -9.610515805914092 a33.60637493700655,33.60637493700655 0 0,0 0.4430051008733986,-0.36957061117098866 l 7.992170581767249 9.749148600996962" fill="#ff8c0c" stroke="none" /><path d="M 86.68645165197937 83.75963576809568 l -5.068739520082247 -6.1830380489827945 a28.99512850663531,28.99512850663531 0 0,0 0.3876361900804059,-0.3122522754026301 l 4.961852559646596 6.269138618178824" fill="#ff4b07" stroke="none" /><path d="M 86.96720088162412 83.53348406188908 l -8.259537614100658 -10.435655957610118 a34.30875188980346,34.30875188980346 0 0,0 0.46494902856261056,-0.36154717682934434 l 8.079178640902803 10.575904186060267" fill="#ff960d" stroke="none" /><path d="M 87.25179093698888 83.31218511350988 l -16.319809306787104 -21.363154255500945 a47.88346211993952,47.88346211993952 0 0,0 0.6574787229947511,-0.4933842910228514 l 15.9506775948816 21.640157573787796" fill="#bcff1f" stroke="none" /><path d="M 87.83215693770416 82.88440491214696 l -5.110254647914364 -7.188213137014132 a29.81958676297665,29.81958676297665 0 0,0 0.41975315363360494,-0.2930203009090025 l 4.9861064031069935 7.274878253728261" fill="#ff5708" stroke="none" /><path d="M 88.12776184653039 82.6780497279521 l -14.267640479663703 -20.816913853430904 a46.2370653452041,46.2370653452041 0 0,0 0.658556089154886,-0.44310592720785963 l 13.908188102411827 21.058769454695874" fill="#cfff1d" stroke="none" /><path d="M 88.4268655584334 82.4767994020092 l -4.34607011092763 -6.580504076163483 a28.886149840416596,28.886149840416596 0 0,0 0.4161178740715446,-0.26972257857964804 l 4.232466604599059 6.654140496447037" fill="#ff4a06" stroke="none" /><path d="M 88.72937992617638 82.28071324371311 l -4.461349094519465 -7.013981786973009 a29.312615487989248,29.312615487989248 0 0,0 0.4268975854867508,-0.2664156665526437 l 4.340287380243016 7.089533250367189" fill="#ff5007" stroke="none" /><path d="M 89.03521579738668 82.08984904055464 l -14.734150786052318 -24.067127994596767 a49.2191752057786,49.2191752057786 0 0,0 0.7243826097793652,-0.4349709439696152 l 14.31883541971552 24.316512939102306" fill="#acff20" stroke="none" /><line stroke="#e1ed5e" stroke-width="0.3" x1="56.869717070023135" x2="54.33264160355391" y1="26.7553504044142" y2="22.446841604673864" /><path d="M 56.362301976729285 25.89364864446614 a86.0,86.0 0 0,1 42.16139366436587,-11.88097634709845" fill="none" id="id60" stroke="none" /><text fill="#e1ed5e" style="font-size:6.75px; font-family:Arial;" text-anchor="middle"><textPath startOffset="22.145653131862474" xlink:href="#id60">December</textPath></text><path d="M 89.34428304082924 81.90426304109057 l -10.96327289909643 -18.618034183054004 a42.60612296321183,42.60612296321183 0 0,0 0.6334263097324152,-0.36570885043579926 l 10.642054121503614 18.803489930765977" fill="#fcff18" stroke="none" /><path d="M 89.65649057296885 81.72400993836675 l -6.2322678767943716 -11.01182017392162 a33.653116075928104,33.653116075928104 0 0,0 0.5052066871235061,-0.2802296330851177 l 6.042317001514762 11.117182722439884" fill="#ff8d0d" stroke="none" /><path d="M 89.97174638481275 81.54914285379989 l -6.030946144484272 -11.096261626230099 a33.62930455232656,33.62930455232656 0 0,0 0.5095819440890572,-0.2713236829102739 l 5.839575384608652 11.198155776862949" fill="#ff8d0c" stroke="none" /><path d="M 90.28995756902619 81.37971332152246 l -4.7043176100482995 -9.021149304795022 a31.17407189652276,31.17407189652276 0 0,0 0.47662599401509986,-0.24336862863877545 l 4.548764394319617 9.10057588510663" fill="#ff6a09" stroke="none" /><path d="M 90.93487009805054 81.0573650232925 l -5.443135071372243 -11.374058827744527 a33.60939862254325,33.60939862254325 0 0,0 0.5225641890595846,-0.2445864262926126 l 5.247082168441136 11.465821485607682" fill="#ff8c0c" stroke="none" /><path d="M 91.26138138417902 80.90454125486306 l -11.069437680882919 -24.18871904816569 a47.601251469847135,47.601251469847135 0 0,0 0.7459492317155223,-0.333653603255176 l 10.652575046311778 24.375176402330712" fill="#bfff1e" stroke="none" /><path d="M 91.5904679813234 80.7573450057729 l -15.642877841009167 -35.79396579296803 a60.06286746178397,60.06286746178397 0 0,0 0.9483209588102266,-0.4047818266661794 l 15.02612180702851 36.05722226929362" fill="#37ff2e" stroke="none" /><path d="M 92.25597844496254 80.48000691201159 l -4.710879854321285 -11.874494607375922 a33.774819418780446,33.774819418780446 0 0,0 0.5407633865650552,-0.20917889484400307 l 4.5063442052627005 11.953613390357965" fill="#ff8e0d" stroke="none" /><path d="M 92.592206182469 80.34994680014964 l -7.274111857636027 -19.295445918856686 a41.621031412733075,41.621031412733075 0 0,0 0.6707146928292014,-0.24629572557341217 l 6.9418080131526985 19.417472493438822" fill="#fff617" stroke="none" /><path d="M 93.27111125876988 80.10723608172694 l -4.037317097084455 -11.93561061329515 a33.59994960524106,33.59994960524106 0 0,0 0.5479627979036262,-0.1801262555950625 l 3.8318315615330683 12.003157790292242" fill="#ff8c0c" stroke="none" /><path d="M 93.61358852112211 79.99465700312896 l -19.15923443663367 -60.01602899061309 a84.0,84.0 0 0,0 1.3774374685135353,-0.4267336487734319 l 18.126156335248517 60.33607922719316" fill="#4dd2ff" stroke="none" /><path d="M 94.6519064749342 79.69241777938228 l -2.7213082979077567 -10.333250858160907 a31.68557869981522,31.68557869981522 0 0,0 0.5271796894669593,-0.13400701554236272 l 2.5435233152154195 10.378443105538533" fill="#ff720a" stroke="none" /><path d="M 95.00130118170881 79.60360301121753 l -3.103119436914643 -12.661786244716138 a34.03649420460272,34.03649420460272 0 0,0 0.5686814959911013,-0.13420728461446552 l 2.885305787183636 12.713189672976837" fill="#ff920d" stroke="none" /><path d="M 95.35216902796891 79.52079915486377 l -2.5338547686606847 -11.16463163829987 a32.44855535024358,32.44855535024358 0 0,0 0.544266700989075,-0.11862039428122237 l 2.3418256510524915 11.206483490714806" fill="#ff7c0b" stroke="none" /><path d="M 95.70440661134978 79.44403061299748 l -1.6955950601511878 -8.114036175144768 a29.289307911977154,29.289307911977154 0 0,0 0.493041584916633,-0.09862212541823775 l 1.556056989703578 8.141947697225872" fill="#ff5007" stroke="none" /><path d="M 96.05791012581881 79.37332000966035 l -2.504023131785629 -13.102107124962094 a34.33924071896523,34.33924071896523 0 0,0 0.5799493313927062,-0.10568608730844174 l 2.2787390668418843 13.143161386201896" fill="#ff960d" stroke="none" /><path d="M 97.48249496171623 79.15144685158666 l -3.3478932399398587 -27.72535867323736 a48.92675961699984,48.92675961699984 0 0,0 0.8347000677037557,-0.09352988360393849 l 2.8714572706353034 27.778744317348266" fill="#b0ff20" stroke="none" /><path d="M 98.1996594967304 79.07731436759882 l -0.716144181377859 -8.322680930207627 a29.353435242734754,29.353435242734754 0 0,0 0.5024064160046057,-0.03888943403899858 l 0.5731687705980361 8.333748131241679" fill="#ff5107" stroke="none" /><path d="M 98.5590905019552 79.04949213459386 l -1.8862857684052923 -27.426181089792337 a48.49097093902235,48.49097093902235 0 0,0 0.8309404649041328,-0.04998731496143195 l 1.4152009513686756 27.454520382578465" fill="#b5ff20" stroke="none" /><path d="M 98.9189461498227 79.02784411241856 l -1.9226575542785045 -37.29904291090772 a58.348563749370065,58.348563749370065 0 0,0 1.000745217545901,-0.042976305583074276 l 1.2820865761317832 37.326551784916624" fill="#49ff2c" stroke="none" /></svg>