<?xml version="1.0" encoding="utf-8" ?>
<svg baseProfile="full" height="200mm" version="1.1" viewBox="0,0,200,200" width="200mm" xmlns="http://www.w3.org/2000/svg" xmlns:ev="http://www.w3.org/2001/xml-events" xmlns:xlink="http://www.w3.org/1999/xlink"><defs /><rect fill="#1a1a1a" height="200" width="200" x="0" y="0" /><text alignment-baseline="middle" fill="#e1ed5e" style="dominant-baseline: central; font-size:9.0px; font-family:Arial;" text-anchor="middle" x="100.0" y="100.0">2024</text><line stroke="#e1ed5e" stroke-width="0.3" x1="100.0" x2="100.0" y1="15.0" y2="10.0" /><path d="M 100.0 14.0 a86.0,86.0 0 0,1 42.35913384403234,11.155469271406648" fill="none" id="id49" stroke="none" /><text fill="#e1ed5e" style="font-size:6.75px; font-family:Arial;" text-anchor="middle"><textPath startOffset="22.145653131862478" xlink:href="#id49">January</textPath></text><path d="M 100.0 79.0 l 0.0 -29.901355339640247 a50.90135533964025,50.90135533964025 0 0,0 0.8737894507217993,0.00750043152653679 l -0.5132965258729445 29.896949306308144" fill="#b4ff20" stroke="none" /><path d="M 100.36049292484886 79.00309439819443 l 0.5183019726363406 -30.188491486310582 a51.19294048538309,51.19294048538309 0 0,0 0.878535912595285,0.022627968727030722 l -1.0364511993023668 30.17514580023351" fill="#b0ff20" stroke="none" /><path d="M 101.80034050326958 79.07731436759882 l 2.56778222037598 -29.841521685384762 a50.9517933024146,50.9517933024146 0 0,0 0.8707914696453892,0.08246485753389576 l -3.0796732534063818 29.793045072345684" fill="#b3ff20" stroke="none" /><path d="M 102.15924093988457 79.11130261209362 l 2.4608110749906458 -23.80611488268472 a44.93296256117031,44.93296256117031 0 0,0 0.7665651104944209,0.08589521953271109 l -2.8691120870858633 23.76036390264504" fill="#fffd17" stroke="none" /><path d="M 102.87502721639298 79.19773525538626 l 4.106710880121259 -29.714114172820782 a50.996560724995376,50.996560724995376 0 0,0 0.8661520433790075,0.12729452279298212 l -4.616188029107949 29.639238576728918" fill="#b3ff20" stroke="none" /><path d="M 103.58742460773223 79.30868818359171 l 5.115841414210942 -29.506813795216868 a50.94701811067266,50.94701811067266 0 0,0 0.8604351310952864,0.15679994348783544 l -5.621611278857282 29.414645677797665" fill="#b3ff20" stroke="none" /><path d="M 104.29559338865022 79.4440306129975 l 6.130303063248868 -29.3357193523357 a50.96940182196305,50.96940182196305 0 0,0 0.8549209011493603,0.18632603131755626 l -6.632986381017362 29.226161862884428" fill="#b3ff20" stroke="none" /><path d="M 104.64783097203109 79.52079915486377 l 6.624267197987653 -29.187743533658292 a50.930006490091955,50.930006490091955 0 0,0 0.850938175580583,0.20081909245248936 l -7.12433752730812 29.069728297559575" fill="#b3ff20" stroke="none" /><path d="M 105.3480935250658 79.69241777938227 l 7.611667376643935 -28.90274082955355 a50.88822356234989,50.88822356234989 0 0,0 0.8428509823037474,0.22972278321872366 l -8.106699759882376 28.767817552190685" fill="#b4ff20" stroke="none" /><path d="M 106.72888874123014 80.10723608172694 l 9.627662044977074 -28.462472112539974 a51.046700238285865,51.046700238285865 0 0,0 0.8276717517754536,0.2879071994487564 l -10.114839568797544 28.293006480522628" fill="#b2ff20" stroke="none" /><path d="M 107.06938296918511 80.22567764915836 l 10.096252762406472 -28.241015875026807 a50.99148708376956,50.99148708376956 0 0,0 0.821717733449343,0.3017461336991794 l -10.579559647509939 28.063538892318906" fill="#b3ff20" stroke="none" /><path d="M 108.07796709384702 80.6158196554323 l 11.614629674659323 -27.870883061711506 a51.194134283318576,51.194134283318576 0 0,0 0.8082942516839732,0.34501275189668107 l -12.091359001513727 27.667395660155425" fill="#b0ff20" stroke="none" /><path d="M 108.73861861582097 80.90454125486305 l 9.962698343763938 -21.770293861911025 a44.94161759620259,44.94161759620259 0 0,0 0.6987593029538622,0.32705463620798564 l -10.334946360589305 21.596062994132506" fill="#fffd17" stroke="none" /><path d="M 109.3889696526874 81.21577127319529 l 16.40542209600064 -32.82183374858889 a57.69346869359661,57.69346869359661 0 0,0 0.8820858229730345,0.45039930632035513 l -16.966435140687253 32.535376490595695" fill="#63ff29" stroke="none" /><line stroke="#e1ed5e" stroke-width="0.3" x1="143.13028292997686" x2="145.6673583964461" y1="26.7553504044142" y2="22.446841604673864" /><path d="M 143.63769802327073 25.89364864446614 a86.0,86.0 0 0,1 29.32050498858742,28.57503671076993" fill="none" id="id50" stroke="none" /><text fill="#e1ed5e" style="font-size:6.75px; font-family:Arial;" text-anchor="middle"><textPath startOffset="20.669276256404974" xlink:href="#id50">February</textPath></text><path d="M 110.96478420261332 82.08984904055464 l 9.44814081588483 -15.432827967399811 a39.09529065663624,39.09529065663624 0 0,0 0.5693686799138931,0.3553281665917644 l -9.711673624588435 15.268364003966502" fill="#ffac0f" stroke="none" /><path d="M 111.27062007382361 82.28071324371311 l 16.063160392674156 -25.25395615730858 a50.92970804060808,50.92970804060808 0 0,0 0.7336651632018935,0.4755528948964335 l -16.494311188133054 24.974489420708252" fill="#b3ff20" stroke="none" /><path d="M 117.62189284568427 88.57770195909679 l 15.704355486605166 -10.179373491777266 a39.71487178515427,39.71487178515427 0 0,0 0.3659107176082601,0.5752724242349414 l -15.876783895839317 9.908287392863652" fill="#ffb510" stroke="none" /><path d="M 117.81537515405839 88.88188828441811 l 15.935270780556158 -9.944787534598252 a39.78381361592868,39.78381361592868 0 0,0 0.3565994389834827,0.5824783840912685 l -16.10363818399504 9.66977203438243" fill="#ffb610" stroke="none" /><line stroke="#e1ed5e" stroke-width="0.3" x1="172.87174338648825" x2="177.1583165268699" y1="56.24261187166439" y2="53.66864786411523" /><path d="M 173.72905801456457 55.72781907015455 a86.0,86.0 0 0,1 12.242430191666344,42.057860355516425" fill="none" id="id51" stroke="none" /><text fill="#e1ed5e" style="font-size:6.75px; font-family:Arial;" text-anchor="middle"><textPath startOffset="22.145653131862474" xlink:href="#id51">March</textPath></text><path d="M 118.36410011445183 89.81374322990088 l 26.172959754954324 -14.51769957884448 a50.92970804060808,50.92970804060808 0 0,0 0.41751362294874406,0.7681780406862971 l -26.418318727518407 14.06626670468358" fill="#b3ff20" stroke="none" /><path d="M 118.70294669586156 90.45014215332178 l 26.63276714902919 -13.598880672273351 a50.90374293551123,50.90374293551123 0 0,0 0.39069855734253,0.781658833272948 l -26.862285619583453 13.139689982836654" fill="#b4ff20" stroke="none" /><path d="M 119.0197475246899 91.09779779509293 l 14.13891545031225 -6.617726346439323 a36.61099715288667,36.61099715288667 0 0,0 0.26153420619430867,0.571499439943956 l -14.25043412136161 6.374037924280683" fill="#ff880c" stroke="none" /><path d="M 119.71291397450082 92.76114493625339 l 28.112411511214866 -10.32326690439176 a50.947913459124266,50.947913459124266 0 0,0 0.29443000542929604,0.823573126890614 l -28.285481686688108 9.839158821120229" fill="#b3ff20" stroke="none" /><path d="M 119.94978838288452 93.4421083053983 l 28.40570273253385 -9.337518697131861 a50.901056890156376,50.901056890156376 0 0,0 0.26574056378049027,0.8324285311388613 l -28.561808012091596 8.848521132301613" fill="#b4ff20" stroke="none" /><path d="M 120.16314734710363 94.1308016681162 l 23.095859367029284 -6.72286805908121 a45.054431501106166,45.054431501106166 0 0,0 0.20978525004288634,0.7444538439970625 l -23.20786310914675 6.325406291181135" fill="#ffff18" stroke="none" /><path d="M 120.26092885502905 94.47779374421319 l 23.05410000211823 -6.283497472606346 a44.89505947671857,44.89505947671857 0 0,0 0.19627803427904983,0.7452996662346113 l -23.15856751720201 5.886817301998936" fill="#fffd17" stroke="none" /><path d="M 120.43855184770803 95.1765574152323 l 29.11383315767763 -6.870785352354204 a50.913591768478994,50.913591768478994 0 0,0 0.1934453153434108,0.8523557524591346 l -29.227489334578703 6.369995265956043" fill="#b4ff20" stroke="none" /><path d="M 120.65975698304385 96.23510406497455 l 23.529638001248294 -4.287883857308976 a44.917144738525096,44.917144738525096 0 0,0 0.1317252645928474,0.759756321544679 l -23.599778083333376 3.883334502843704" fill="#fffd17" stroke="none" /><path d="M 120.7213421655516 96.59031103205396 l 30.554141299759003 -5.027672323660968 a51.96502930015964,51.96502930015964 0 0,0 0.13728296602686602,0.8814551220474186 l -30.635945757924134 4.502429019682109" fill="#a7ff21" stroke="none" /><path d="M 120.77682067341334 96.94652285012252 l 29.562020813859192 -4.3445990355410835 a50.8795685273176,50.8795685273176 0 0,0 0.11958027152990253,0.8652232759447651 l -29.63224560194431 3.836487451396233" fill="#b4ff20" stroke="none" /><path d="M 120.86939407059847 97.66154086499901 l 29.700262684457265 -3.3279763826131172 a50.886134415962786,50.886134415962786 0 0,0 0.08982034565029015,0.8689303657174828 l -29.753015422589222 2.817641494612703" fill="#b4ff20" stroke="none" /><path d="M 120.93736805541906 98.37931529534042 l 29.93744783134826 -2.317347799799139 a51.02700257235031,51.02700257235031 0 0,0 0.06010504367904429,0.8739141438494998 l -29.97281683619237 1.8030902317953055" fill="#b2ff20" stroke="none" /><path d="M 120.98066250479742 99.09900007780936 l 17.9551836040104 -0.771072840356347 a38.97173257031328,38.97173257031328 0 0,0 0.022966066134893097,0.6686319573412535 l -17.96577435714214 0.4627346184509737" fill="#ffaa0f" stroke="none" /><path d="M 120.99303781780057 99.45929381324524 l 18.013808793787938 -0.4639718151490923 a39.019782937216654,39.019782937216654 0 0,0 0.011498885510103307,0.6697524332351117 l -18.019119110896707 0.15467246594491424" fill="#ffab0f" stroke="none" /><line stroke="#e1ed5e" stroke-width="0.3" x1="184.99686870605535" x2="189.99668451229388" y1="99.2704041080226" y2="99.22748670261217" /><path d="M 185.99683186730306 99.26182062694052 a86.0,86.0 0 0,1 -10.086455211305974,41.156179273409016" fill="none" id="id52" stroke="none" /><text fill="#e1ed5e" style="font-size:6.75px; font-family:Arial;" text-anchor="middle"><textPath startOffset="21.40746469413373" xlink:href="#id52">April</textPath></text><path d="M 120.98066250479742 100.90099992219065 l 29.935841511397648 1.2855738404978054 a50.963432832285605,50.963432832285605 0 0,0 -0.045038109962092364,0.8737273012368205 l -29.909361811978982 -1.7992729351113566" fill="#b3ff20" stroke="none" /><path d="M 120.96210409425399 101.26102812881392 l 17.983690101715425 1.0818541390771852 a39.01620154341019,39.01620154341019 0 0,0 -0.045957441741400144,0.668211116647949 l -17.96246869880896 -1.3904086798794777" fill="#ffab0f" stroke="none" /><path d="M 120.9064616781168 101.97986365728391 l 29.8011488833979 2.822199783395452 a50.93448323235003,50.93448323235003 0 0,0 -0.08990568731456723,0.8697559689036467 l -29.74831080360167 -3.33336027458203" fill="#b3ff20" stroke="none" /><path d="M 120.82617615685814 102.69636545807757 l 29.658883722765907 3.8399362894503497 a50.906428980866075,50.906428980866075 0 0,0 -0.11964340060945253,0.8656800465166336 l -29.588595805601244 -4.348504644167068" fill="#b4ff20" stroke="none" /><path d="M 120.7213421655516 103.40968896794604 l 23.675167326755133 3.895739774159775 a44.99354780639629,44.99354780639629 0 0,0 -0.1319493263489903,0.7610486502120265 l -23.60480318291391 -4.301581457292389" fill="#fffe18" stroke="none" /><path d="M 120.592083275326 104.11899336999214 l 29.37701517369914 5.876225786033755 a50.95895609002753,50.95895609002753 0 0,0 -0.17894428933711062,0.8563132030399966 l -29.271813173537666 -6.379655440359161" fill="#b3ff20" stroke="none" /><path d="M 120.51834098615036 104.47187691870673 l 23.327753085778987 5.0841752098767925 a44.87536181078303,44.87536181078303 0 0,0 -0.17050316457954676,0.7512684030826448 l -23.237039059641777 -5.483877946898454" fill="#fffc17" stroke="none" /><path d="M 120.26092885502905 105.52220625578681 l 28.823383920514026 7.8559414594311345 a50.87479333557565,50.87479333557565 0 0,0 -0.2368863813212719,0.8406261981198468 l -28.684279047118174 -8.34957558145399" fill="#b4ff20" stroke="none" /><path d="M 119.58574465831526 107.57618678355244 l 27.857850361600104 10.776014974653059 a50.86942124486596,50.86942124486596 0 0,0 -0.32203086971423145,0.8117281578137758 l -27.668760816919747 -11.2526441496804" fill="#b4ff20" stroke="none" /><path d="M 119.31412917781788 108.2440532568976 l 27.48908452717193 11.733455582643522 a50.888522011833764,50.888522011833764 0 0,0 -0.3498370653686968,0.8004956682645492 l -27.283613579786266 -12.203613320683916" fill="#b4ff20" stroke="none" /><path d="M 119.0197475246899 108.90220220490707 l 27.05361333749789 12.66245705896686 a50.870316593317575,50.870316593317575 0 0,0 -0.3769750674317278,0.7877329034350947 l -26.83225901210625 -13.125002464467059" fill="#b4ff20" stroke="none" /><path d="M 118.70294669586154 109.54985784667822 l 26.61043960987612 13.587480071691784 a50.87867317886598,50.87867317886598 0 0,0 -0.40386020381798227,0.7744551917848893 l -26.37327133708319 -14.042281506581178" fill="#b4ff20" stroke="none" /><line stroke="#e1ed5e" stroke-width="0.3" x1="174.33088141563837" x2="178.70328620479359" y1="141.23008692659167" y2="143.65538615756765" /><path d="M 175.20536237346943 141.71514677278685 a86.0,86.0 0 0,1 -30.301960400862466,31.631185727798858" fill="none" id="id53" stroke="none" /><text fill="#e1ed5e" style="font-size:6.75px; font-family:Arial;" text-anchor="middle"><textPath startOffset="22.145653131862474" xlink:href="#id53">May</textPath></text><path d="M 118.36410011445183 110.18625677009912 l 26.157300451523096 14.509013627199844 a50.911801071575766,50.911801071575766 0 0,0 -0.43048748557050925,0.7606301384889107 l -25.90437960093121 -14.955900535787876" fill="#b4ff20" stroke="none" /><path d="M 117.21940702142032 112.02048342749411 l 24.517288171087277 17.114971251974232 a50.90016154170476,50.90016154170476 0 0,0 -0.5062988204022898,0.7121726964341877 l -24.219874252155027 -17.533321175117923" fill="#b4ff20" stroke="none" /><path d="M 116.79662413953412 112.60449989151573 l 23.94444544150506 17.968358252387862 a50.93657237873714,50.93657237873714 0 0,0 -0.5308270545445704,0.6948696541762176 l -23.632466409606184 -18.376748819804956" fill="#b3ff20" stroke="none" /><path d="M 116.35404254752997 113.17365903436017 l 23.291907563915593 18.76231198586444 a50.908816576737046,50.908816576737046 0 0,0 -0.5540653313052636,0.6758696144297253 l -22.9663954133717 -19.159383881992657" fill="#b4ff20" stroke="none" /><path d="M 115.89218393027572 113.72728997021213 l 13.683821512044824 11.819759110553338 a39.081860429862004,39.081860429862004 0 0,0 -0.44290716105818645,0.5039470459380613 l -13.478903287028052 -12.052918434302693" fill="#ffac0f" stroke="none" /><path d="M 115.41159269507618 114.26474011684316 l 21.92073115540617 20.289501499929845 a50.86942124486596,50.86942124486596 0 0,0 -0.5986705096133992,0.6357673349236143 l -21.569204812056512 -20.662810294797954" fill="#b4ff20" stroke="none" /><path d="M 115.16444852881244 114.52719865689866 l 21.61597163770164 20.707611855857593 a50.934184782866154,50.934184782866154 0 0,0 -0.6102720554282303,0.6261928909030858 l -21.257312781122604 -21.075627438828416" fill="#b3ff20" stroke="none" /><path d="M 113.86319453409587 115.77377054828091 l 19.724075417751664 22.44237712681665 a50.87807627989825,50.87807627989825 0 0,0 -0.6609801542546171,0.5709389144888425 l -19.33591578373419 -22.777660173770208" fill="#b4ff20" stroke="none" /><path d="M 112.7482090630111 116.68781488649013 l 11.359736439508973 14.870259651755845 a39.712782638767166,39.712782638767166 0 0,0 -0.5452886750440439,0.4091947874966277 l -11.102794775554164 -15.063073466516487" fill="#ffb510" stroke="none" /><path d="M 112.45986205192187 116.90419585922612 l 8.922432541560568 12.10499334541254 a36.03797414385265,36.03797414385265 0 0,0 -0.5011320379836629,0.36278094929940213 l -8.713319493202938 -12.256375066085019" fill="#ff7f0b" stroke="none" /><path d="M 111.8722381534696 117.32195027204791 l 16.890905112973094 24.644335350642695 a50.877180931446624,50.877180931446624 0 0,0 -0.7246454127502879,0.48757377359564064 l -16.4653634121258 -24.930658798295458" fill="#b4ff20" stroke="none" /><line stroke="#e1ed5e" stroke-width="0.3" x1="143.1302829299769" x2="145.66735839644613" y1="173.24464959558577" y2="177.55315839532614" /><path d="M 143.63769802327073 174.10635135553383 a86.0,86.0 0 0,1 -40.68552437913181,11.842963189579606" fill="none" id="id54" stroke="none" /><text fill="#e1ed5e" style="font-size:6.75px; font-family:Arial;" text-anchor="middle"><textPath startOffset="21.407464694133747" xlink:href="#id54">June</textPath></text><path d="M 110.34350942703117 118.27599006163325 l 13.253878615762638 23.418333551932264 a47.90880236485687,47.90880236485687 0 0,0 -0.7192156373334369,0.3989367902205824 l -12.849918790273106 -23.64240325758599" fill="#daff1c" stroke="none" /><path d="M 109.71004243097381 118.62028667847754 l 13.822979618635344 26.50738604691444 a50.89508790047894,50.89508790047894 0 0,0 -0.7781441558732483,0.3973259504855031 l -13.365908241048514 -26.740769949072778" fill="#b4ff20" stroke="none" /><path d="M 109.06512990194946 118.94263497670748 l 12.901419390373647 26.959004541204475 a50.88702976441441,50.88702976441441 0 0,0 -0.7911995016970425,0.3703213167990587 l -12.436731174805098 -27.17650208957407" fill="#b4ff20" stroke="none" /><path d="M 108.4095320186766 119.2426549942271 l 7.194699224395813 16.46287981956801 a38.96636047960358,38.96636047960358 0 0,0 -0.6152323039667449,0.2626060865892312 l -6.911031845258637 -16.583960555816645" fill="#ffaa0f" stroke="none" /><path d="M 108.07796709384702 119.3841803445677 l 18.251282109792076 43.79643291754307 a68.44720049646835,68.44720049646835 0 0,0 -1.0884589166570975,0.44266676566155533 l -17.496768731944538 -44.10328693978392" fill="#38ff7e" stroke="none" /><path d="M 107.06938296918513 119.77432235084164 l 10.062696041678818 28.14715175483436 a50.891804956156356,50.891804956156356 0 0,0 -0.8251602779896091,0.2870335784962255 l -9.578029991644186 -28.315743765899178" fill="#b4ff20" stroke="none" /><path d="M 106.38641147887787 120.00534299687104 l 8.18509041470294 25.63967914502504 a47.91447290505043,47.91447290505043 0 0,0 -0.7857046459939462,0.24341330775985076 l -7.743745135837368 -25.776409040591535" fill="#daff1c" stroke="none" /><path d="M 105.3480935250658 120.30758222061773 l 7.615771725721161 28.918325711522648 a50.90433983447897,50.90433983447897 0 0,0 -0.8469384233344049,0.21528843528466093 l -7.118228009161359 -29.044799378642576" fill="#b4ff20" stroke="none" /><path d="M 104.64783097203109 120.47920084513623 l 5.295648656627293 23.333605093851716 a44.92699357149287,44.92699357149287 0 0,0 -0.7535702687709651,0.1642371327104428 l -4.894315971237192 -23.421073684695877" fill="#fffd17" stroke="none" /><path d="M 103.58742460773223 120.69131181640829 l 1.1622833581129235 6.7037415448123285 a27.803752883827354,27.803752883827354 0 0,0 -0.47097240001573376,0.07749832919656907 l -1.0470334550441174 -6.7227058725045685" fill="#ff0000" stroke="none" /><path d="M 103.2317021107853 120.74984581791261 l 4.597770675268742 29.520985953362946 a50.87688248196277,50.87688248196277 0 0,0 -0.8641193660125841,0.12699578921920857 l -4.090326203648472 -29.59556281588104" fill="#b4ff20" stroke="none" /><path d="M 102.15924093988457 120.88869738790638 l 3.074149616171546 29.73960889273845 a50.898072395317655,50.898072395317655 0 0,0 -0.8698733526447908,0.08237791089937699 l -2.56317670014174 -29.78799855914301" fill="#b4ff20" stroke="none" /><path d="M 101.80034050326958 120.92268563240118 l 1.2961724974792912 15.06348917933704 a36.119152403465804,36.119152403465804 0 0,0 -0.6182068217259129,0.047853117814780646 l -1.0373966809781423 -15.083520064146875" fill="#ff810b" stroke="none" /><path d="M 100.72087961077811 120.9876233191556 l 1.0253865402741664 29.853010325229523 a50.87061504280145,50.87061504280145 0 0,0 -0.8730043984027704,0.02248549654306336 l -0.512768827800652 -29.866213539122633" fill="#b4ff20" stroke="none" /><line stroke="#e1ed5e" stroke-width="0.3" x1="101.45913802915013" x2="101.54496967792366" y1="184.9874750549273" y2="189.98673829345242" /><path d="M 101.47630435890484 185.9873277026323 a86.0,86.0 0 0,1 -42.54439059252881,-10.42667462771756" fill="none" id="id55" stroke="none" /><text fill="#e1ed5e" style="font-size:6.75px; font-family:Arial;" text-anchor="middle"><textPath startOffset="22.145653131862474" xlink:href="#id55">July</textPath></text><path d="M 100.0 121.0 l 3.660324830824256e-15 29.888820461317636 a50.888820461317636,50.888820461317636 0 0,0 -0.8735742728670718,-0.0074985844834487446 l 0.513081348018216 -29.88441627502862" fill="#b4ff20" stroke="none" /><path d="M 98.91894614982273 120.97215588758144 l -1.2300418156014543 23.862482614355777 a44.894164128266965,44.894164128266965 0 0,0 -0.7693056437071332,-0.046279517170983414 l 1.639491811441034 -23.837851119360103" fill="#fffd17" stroke="none" /><path d="M 98.55909050195518 120.95050786540614 l -1.6466181669747073 23.94146676479966 a44.99802454865437,44.99802454865437 0 0,0 -0.7701754855548306,-0.05961645351214084 l 2.057362647304774 -23.909672544292466" fill="#fffe18" stroke="none" /><path d="M 98.19965949673042 120.92268563240118 l -1.9822670812631673 23.03694823585064 a44.122075313490384,44.122075313490384 0 0,0 -0.7540681949700447,-0.07141104206540999 l 2.3774348396182274 -22.999525438280045" fill="#fff216" stroke="none" /><path d="M 97.48249496171623 120.84855314841334 l -3.5826065346007465 29.66912145581867 a50.88464216854342,50.88464216854342 0 0,0 -0.8663041952573902,-0.11216042209027824 l 4.09138855174893 -29.603249437527996" fill="#b4ff20" stroke="none" /><path d="M 96.76829788921471 120.74984581791261 l -4.5999752463018435 29.535140880848143 a50.89120805718861,50.89120805718861 0 0,0 -0.8620546477499611,-0.14185076423698725 l 5.106307397104868 -29.45182411811549" fill="#b4ff20" stroke="none" /><path d="M 96.05791012581884 120.62667999033965 l -2.826604550957586 14.789989420002842 a36.0576718097882,36.0576718097882 0 0,0 -0.6069768432538775,-0.12141236802869786 l 3.0800778797424218 -14.739287655311283" fill="#ff800b" stroke="none" /><path d="M 95.00130118170881 120.39639698878247 l -7.126255631842558 29.077554818614917 a50.9380646261565,50.9380646261565 0 0,0 -0.8474995311296506,-0.21543106669202286 l 7.6243604561975875 -28.950938520087632" fill="#b3ff20" stroke="none" /><path d="M 94.30408787586889 120.21278271476187 l -8.105080767469401 28.76207231926798 a50.88225457267245,50.88225457267245 0 0,0 -0.8386849032276559,-0.24412895220482816 l 8.597625683078665 -28.618699672760634" fill="#b4ff20" stroke="none" /><path d="M 93.61358852112213 120.00534299687104 l -13.605088631671038 42.617746363444844 a65.7366822839439,65.7366822839439 0 0,0 -1.0720628087964374,-0.352408339124498 l 14.334674178115218 -42.377917102918325" fill="#34ff5c" stroke="none" /><path d="M 93.27111125876986 119.89276391827306 l -14.360207430985895 42.453401628068775 a65.81636829613768,65.81636829613768 0 0,0 -1.0671473099901858,-0.3712092296970227 l 15.086860513021103 -42.200633965803156" fill="#34ff5d" stroke="none" /><path d="M 92.59220618246901 119.65005319985036 l -8.428610973914536 22.357891987531737 a44.89386567878309,44.89386567878309 0 0,0 -0.7187887088141277,-0.2780429139094433 l 8.811171945222192 -22.20990918548425" fill="#fffd17" stroke="none" /><path d="M 91.92203290615298 119.3841803445677 l -9.203305352364719 22.084582500001627 a44.92550132407351,44.92550132407351 0 0,0 -0.7093200223546251,-0.30276653876744847 l 9.581060449889776 -21.923341311574774" fill="#fffd17" stroke="none" /><path d="M 91.26138138417905 119.09545874513695 l -12.420710380908977 27.14149376361813 a50.84852978099494,50.84852978099494 0 0,0 -0.7906008979303097,-0.3700411400109502 l 12.884799992710777 -26.92427639203665" fill="#b4ff20" stroke="none" /><path d="M 90.93487009805054 118.94263497670748 l -12.905413199114342 26.967350065423098 a50.896281698414434,50.896281698414434 0 0,0 -0.7848685323191442,-0.3839185294210127 l 13.366441980695557 -26.741837785904863" fill="#b4ff20" stroke="none" /><line stroke="#e1ed5e" stroke-width="0.3" x1="58.13341422392154" x2="55.67067388415222" y1="173.97424548756322" y2="178.32567169271397" /><path d="M 57.64086615596768 174.84453072859336 a86.0,86.0 0 0,1 -31.369924170532247,-30.572349798747897" fill="none" id="id56" stroke="none" /><text fill="#e1ed5e" style="font-size:6.75px; font-family:Arial;" text-anchor="middle"><textPath startOffset="22.145653131862474" xlink:href="#id56">August</textPath></text><path d="M 88.72937992617639 117.7192867562869 l -12.96966774515595 20.390471899938515 a45.16575315859038,45.16575315859038 0 0,0 -0.6506328219241398,-0.42173233444848435 l 13.317786199337101 -20.164825723786137" fill="#feff18" stroke="none" /><path d="M 88.1277618465304 117.32195027204791 l -16.887193122797623 24.63891944604253 a50.87061504280145,50.87061504280145 0 0,0 -0.7160763581743714,-0.49987691129826983 l 17.30766457214576 -24.34539771893913" fill="#b4ff20" stroke="none" /><path d="M 87.83215693770417 117.11559508785305 l -15.687329889562726 22.0661940678145 a48.07414337892189,48.07414337892189 0 0,0 -0.6685029893643069,-0.4839446108192735 l 16.063813889300985 -21.793648685622163" fill="#d8ff1c" stroke="none" /><path d="M 86.96720088162412 116.46651593811092 l -38.76296288558542 48.97573731984575 a83.45950798470801,83.45950798470801 0 0,0 -1.115771074915983,-0.8987861966621042 l 39.59798473085666 -48.303102829390234" fill="#4cd7ff" stroke="none" /><path d="M 86.40962598614128 116.0094264158162 l -19.332632322692703 22.77379226491949 a50.87300263867242,50.87300263867242 0 0,0 -0.6609142402813274,-0.5708819795686104 l 19.720726042736892 -22.438566152886153" fill="#b4ff20" stroke="none" /><path d="M 85.08716467003676 114.78537596483092 l -16.964267708944224 16.81927483909255 a44.888792037557266,44.888792037557266 0 0,0 -0.5378386931926599,-0.5518698802184631 l 17.250493203287693 -16.52558226680635" fill="#fffc17" stroke="none" /><path d="M 84.58840730492382 114.26474011684316 l -26.303694636859703 24.346307064517827 a56.84169386662624,56.84169386662624 0 0,0 -0.6566631247659782,-0.721787804565859 l 26.71775546246756 -23.891181684394294" fill="#6cff28" stroke="none" /><path d="M 83.8745106332314 113.45245675266167 l -22.9618119429158 19.155560187921576 a50.90284758705961,50.90284758705961 0 0,0 -0.5540003678968431,-0.6757903696343561 l 23.287259130051275 -18.758567536588725" fill="#b4ff20" stroke="none" /><path d="M 83.4222238831116 112.89097897827486 l -41.69578768487205 32.42289669847369 a73.81839585771064,73.81839585771064 0 0,0 -0.7692861889684699,-1.0070203157781366 l 42.246225851194815 -31.702355469454687" fill="#3fffbe" stroke="none" /><path d="M 83.20337586046588 112.60449989151573 l -40.19330600714661 30.16180614617181 a71.25173029641243,71.25173029641243 0 0,0 -0.7257429148362011,-0.9846096469378242 l 40.70515094156664 -29.467390189965105" fill="#3cffa0" stroke="none" /><path d="M 82.78059297857968 112.02048342749411 l -24.50994656660425 17.109846241867334 a50.89120805718861,50.89120805718861 0 0,0 -0.4939119289486506,-0.7206322650729068 l 24.800048232368223 -16.686579241724377" fill="#b4ff20" stroke="none" /><path d="M 82.37810715431573 111.42229804090323 l -25.052788382517868 16.23891475034588 a50.855394119123986,50.855394119123986 0 0,0 -0.4685532879734881,-0.7366435933268668 l 25.327859362117245 -15.80645748234034" fill="#b4ff20" stroke="none" /><path d="M 81.99639281039703 110.81064883170644 l -54.01082156880893 32.43194649511935 a84.0,84.0 0 0,0 -0.7317051594809199,-1.2425953268257648 l 54.559600438419615 -31.50000000000003" fill="#4dd2ff" stroke="none" /><line stroke="#e1ed5e" stroke-width="0.3" x1="26.387840678322732" x2="22.057713659400548" y1="142.50000000000003" y2="145.00000000000006" /><path d="M 25.521815274538298 143.00000000000003 a86.0,86.0 0 0,1 -11.493303480769221,-40.785679425670985" fill="none" id="id57" stroke="none" /><text fill="#e1ed5e" style="font-size:6.75px; font-family:Arial;" text-anchor="middle"><textPath startOffset="21.40746469413373" xlink:href="#id57">September</textPath></text><path d="M 81.81346652052679 110.50000000000001 l -25.764550125315537 14.875169950400549 a50.75033990080107,50.75033990080107 0 0,0 -0.42912224191459636,-0.758217883764036 l 26.016105732251514 -14.430695296537392" fill="#b6ff1f" stroke="none" /><line stroke="#e1ed5e" stroke-width="0.3" x1="15.003131293944662" x2="10.003315487706104" y1="100.72959589197737" y2="100.7725132973878" /><path d="M 14.003168132696942 100.73817937305945 a86.0,86.0 0 0,1 10.791469493833604,-42.45332614584628" fill="none" id="id58" stroke="none" /><text fill="#e1ed5e" style="font-size:6.75px; font-family:Arial;" text-anchor="middle"><textPath startOffset="22.145653131862435" xlink:href="#id58">October</textPath></text><line stroke="#e1ed5e" stroke-width="0.3" x1="26.387840678322718" x2="22.05771365940052" y1="57.49999999999999" y2="54.99999999999999" /><path d="M 25.521815274538284 56.99999999999999 a86.0,86.0 0 0,1 29.574782752854787,-30.34633250058573" fill="none" id="id59" stroke="none" /><text fill="#e1ed5e" style="font-size:6.75px; font-family:Arial;" text-anchor="middle"><textPath startOffset="21.40746469413373" xlink:href="#id59">November</textPath></text><line stroke="#e1ed5e" stroke-width="0.3" x1="56.869717070023135" x2="54.33264160355391" y1="26.7553504044142" y2="22.446841604673864" /><path d="M 56.362301976729285 25.89364864446614 a86.0,86.0 0 0,1 42.16139366436587,-11.88097634709845" fill="none" id="id60" stroke="none" /><text fill="#e1ed5e" style="font-size:6.75px; font-family:Arial;" text-anchor="middle"><textPath startOffset="22.145653131862474" xlink:href="#id60">December</textPath></text></svg>