<?xml version="1.0" encoding="utf-8" ?>
<svg baseProfile="full" height="200mm" version="1.1" viewBox="0,0,200,200" width="200mm" xmlns="http://www.w3.org/2000/svg" xmlns:ev="http://www.w3.org/2001/xml-events" xmlns:xlink="http://www.w3.org/1999/xlink"><defs /><rect fill="#1a1a1a" height="200" width="200" x="0" y="0" /><text alignment-baseline="middle" fill="#e1ed5e" style="dominant-baseline: central; font-size:9.0px; font-family:Arial;" text-anchor="middle" x="100.0" y="100.0">2024</text><line stroke="#e1ed5e" stroke-width="0.3" x1="100.0" x2="100.0" y1="15.0" y2="10.0" /><path d="M 100.0 14.0 a86.0,86.0 0 0,1 42.35913384403234,11.155469271406648" fill="none" id="id49" stroke="none" /><text fill="#e1ed5e" style="font-size:6.75px; font-family:Arial;" text-anchor="middle"><textPath startOffset="22.145653131862478" xlink:href="#id49">January</textPath></text><path d="M 100.0 79.0 l 0.0 -51.33843851415651 a72.33843851415651,72.33843851415651 0 0,0 1.2417854894746345,0.010659234929830796 l -0.8812925646257797 51.33087367742111" fill="#35ff64" stroke="none" /><path d="M 100.36049292484886 79.00309439819443 l 0.8898865503491562 -51.83143026130597 a72.8390688670728,72.8390688670728 0 0,0 1.2500109826274954,0.03219584881827142 l -1.779510847047393 51.80851669513765" fill="#36ff6d" stroke="none" /><path d="M 101.80034050326958 79.07731436759882 l 4.4086941257727785 -51.235708509272726 a72.42503680447672,72.42503680447672 0 0,0 1.237779872903962,0.11721904087888685 l -5.287573562061754 51.152477712888654" fill="#35ff66" stroke="none" /><path d="M 102.15924093988457 79.11130261209362 l 4.225032498807212 -40.87335678545064 a62.09114496490358,62.09114496490358 0 0,0 1.0592870509250196,0.11869532351749904 l -4.926055451333029 40.794805701426164" fill="#b4ff20" stroke="none" /><path d="M 102.87502721639298 79.19773525538626 l 7.050921993994783 -51.016959135683756 a72.50189919233489,72.50189919233489 0 0,0 1.2314098684604062,0.18097484473594375 l -7.925656968062872 50.88840321764893" fill="#35ff67" stroke="none" /><path d="M 103.58742460773223 79.30868818359171 l 8.783525258584605 -50.6610395605108 a72.41683814977185,72.41683814977185 0 0,0 1.2230351046561454,0.2228777375112608 l -9.651895096791804 50.502793649068174" fill="#35ff65" stroke="none" /><path d="M 104.29559338865022 79.4440306129975 l 10.525281657334189 -50.36728292519455 a72.45526934370095,72.45526934370095 0 0,0 1.2153080465159505,0.2648707322878376 l -11.388352120469275 50.179180734773" fill="#35ff66" stroke="none" /><path d="M 104.64783097203109 79.52079915486377 l 11.373381921400371 -50.11321927548831 a72.38763044238574,72.38763044238574 0 0,0 1.209451999485382,0.2854273787114895 l -12.231966074625637 49.91059575313059" fill="#35ff65" stroke="none" /><path d="M 105.3480935250658 79.69241777938227 l 13.068675756245735 -49.62389049306845 a72.3158922137181,72.3158922137181 0 0,0 1.197752967615866,0.32645289749456957 l -13.918610124796295 49.392237101429735" fill="#35ff63" stroke="none" /><path d="M 106.72888874123014 80.10723608172694 l 16.529991042776604 -48.86798133104651 a72.58798506673608,72.58798506673608 0 0,0 1.1769423778145733,0.40940165371390336 l -17.366439192636197 48.57702124476401" fill="#35ff69" stroke="none" /><path d="M 107.06938296918511 80.22567764915836 l 17.33452700650804 -48.48775718053537 a72.49318812171097,72.49318812171097 0 0,0 1.1682133948364448,0.4289841400255252 l -18.16432955299861 48.18304219150112" fill="#35ff67" stroke="none" /><path d="M 108.07796709384702 80.6158196554323 l 19.941469028553037 -47.85226623162616 a72.84111853074901,72.84111853074901 0 0,0 1.1500742852452188,0.4908983247269196 l -20.759978388968687 47.50289325723984" fill="#36ff6e" stroke="none" /><path d="M 108.73861861582097 80.90454125486305 l 17.1052238450997 -37.378001102952155 a62.106005026556154,62.106005026556154 0 0,0 0.965633884643982,0.45196541572655696 l -17.744346443615186 37.07885945565506" fill="#b4ff20" stroke="none" /><path d="M 109.3889696526874 81.21577127319529 l 28.166908958062173 -56.352686180414125 a84.0,84.0 0 0,0 1.2842911131456847,0.6557681933086643 l -29.130127292921436 55.86086003543262" fill="#4dd2ff" stroke="none" /><line stroke="#e1ed5e" stroke-width="0.3" x1="143.13028292997686" x2="145.6673583964461" y1="26.7553504044142" y2="22.446841604673864" /><path d="M 143.63769802327073 25.89364864446614 a86.0,86.0 0 0,1 29.32050498858742,28.57503671076993" fill="none" id="id50" stroke="none" /><text fill="#e1ed5e" style="font-size:6.75px; font-family:Arial;" text-anchor="middle"><textPath startOffset="20.669276256404974" xlink:href="#id50">February</textPath></text><path d="M 110.96478420261332 82.08984904055464 l 16.221766232327305 -26.497036027445922 a52.06828958819654,52.06828958819654 0 0,0 0.7583024146969347,0.4732367905749902 l -16.67423277581395 26.214663440029387" fill="#ff7b0b" stroke="none" /><path d="M 111.27062007382361 82.28071324371311 l 27.57927066500183 -43.359194280482036 a72.38711802646668,72.38711802646668 0 0,0 1.042768725833998,0.6759100897112669 l -28.319525023092833 42.879370349066875" fill="#35ff65" stroke="none" /><path d="M 117.62189284568427 88.57770195909679 l 26.9632289036981 -17.47723921488734 a53.13206503615378,53.13206503615378 0 0,0 0.48952926627992277,0.7696213152419731 l -27.25927586160391 17.011804224966696" fill="#ff930d" stroke="none" /><path d="M 117.81537515405839 88.88188828441811 l 27.35969356176547 -17.074472296728505 a53.250433113455394,53.250433113455394 0 0,0 0.47730654374176934,0.7796443682228335 l -27.648768069962642 16.602290812381117" fill="#ff950d" stroke="none" /><line stroke="#e1ed5e" stroke-width="0.3" x1="172.87174338648825" x2="177.1583165268699" y1="56.24261187166439" y2="53.66864786411523" /><path d="M 173.72905801456457 55.72781907015455 a86.0,86.0 0 0,1 12.242430191666344,42.057860355516425" fill="none" id="id51" stroke="none" /><text fill="#e1ed5e" style="font-size:6.75px; font-family:Arial;" text-anchor="middle"><textPath startOffset="22.145653131862474" xlink:href="#id51">March</textPath></text><path d="M 118.36410011445183 89.81374322990088 l 44.93705619196127 -24.925827566332323 a72.38711802646668,72.38711802646668 0 0,0 0.5934180474380666,1.091822369218416 l -45.35831958901468 24.150750363639304" fill="#35ff65" stroke="none" /><path d="M 118.70294669586156 90.45014215332178 l 45.72651183238077 -23.348282755909892 a72.34253784150894,72.34253784150894 0 0,0 0.5552465013227434,1.110864947531192 l -46.12057824691525 22.559885952214948" fill="#35ff64" stroke="none" /><path d="M 119.0197475246899 91.09779779509293 l 24.27548294242123 -11.362151758043895 a47.80293947798644,47.80293947798644 0 0,0 0.34148493082341547,0.7462062020670757 l -24.466952338099695 10.943756573762135" fill="#ff1802" stroke="none" /><path d="M 119.71291397450082 92.76114493625339 l 48.26695290095616 -17.724293672191767 a72.41837539752902,72.41837539752902 0 0,0 0.4185086535208574,1.170643188721206 l -48.56410172452097 16.89311552708964" fill="#35ff65" stroke="none" /><path d="M 119.94978838288452 93.4421083053983 l 48.770512460761964 -16.031836151319357 a72.33792609823743,72.33792609823743 0 0,0 0.3776566232316203,1.183003993365653 l -49.03853379977084 15.192263124262318" fill="#35ff64" stroke="none" /><path d="M 120.16314734710363 94.1308016681162 l 39.6539000516123 -11.542672382892722 a62.29969824395878,62.29969824395878 0 0,0 0.2900837351234668,1.0294048397089077 l -39.846202278810345 10.8602596192808" fill="#b0ff20" stroke="none" /><path d="M 120.26092885502905 94.47779374421319 l 39.582202278600846 -10.788305245267846 a62.02606814318364,62.02606814318364 0 0,0 0.27117359618413667,1.0296903138959574 l -39.76156535558971 10.10723442699909" fill="#b5ff1f" stroke="none" /><path d="M 120.43855184770803 95.1765574152323 l 49.98632056973596 -11.796635548763298 a72.35944756683773,72.35944756683773 0 0,0 0.27492847521529495,1.2113855895066385 l -50.18145990650892 10.936815625317632" fill="#35ff64" stroke="none" /><path d="M 120.65975698304385 96.23510406497455 l 40.39866621651201 -7.361982735025732 a62.06398692119368,62.06398692119368 0 0,0 0.18201056960482356,1.0497885980539625 l -40.51909160360907 6.667401104051177" fill="#b4ff20" stroke="none" /><path d="M 120.7213421655516 96.59031103205396 l 52.459224227573074 -8.63214538357111 a74.16468884966692,74.16468884966692 0 0,0 0.1959307749242553,1.258016126268039 l -52.599676494635595 7.730341075371631" fill="#39ff86" stroke="none" /><path d="M 120.77682067341334 96.94652285012252 l 50.7558259706894 -7.459358544831535 a72.30103215206552,72.30103215206552 0 0,0 0.1699263045439198,1.2295020909859105 l -50.87639679178854 6.586968145645539" fill="#35ff63" stroke="none" /><path d="M 120.86939407059847 97.66154086499901 l 50.993177144011376 -5.713891860575576 a72.31230530228471,72.31230530228471 0 0,0 0.12764019769957274,1.2348031268902524 l -51.083749734192615 4.837684211402392" fill="#35ff63" stroke="none" /><path d="M 120.93736805541906 98.37931529534042 l 51.40040668066025 -3.9787165559745272 a72.55416561607848,72.55416561607848 0 0,0 0.08546203134835925,1.24259917946753 l -51.46113267317367 3.095773952352663" fill="#35ff68" stroke="none" /><path d="M 120.98066250479742 99.09900007780936 l 30.827736033853277 -1.323875628877985 a51.85614939770795,51.85614939770795 0 0,0 0.030558860949278146,0.8896878938962505 l -30.845919581799404 0.7944814704176146" fill="#ff760a" stroke="none" /><path d="M 120.99303781780057 99.45929381324524 l 30.928391193680934 -0.7966056465927354 a51.93864836067574,51.93864836067574 0 0,0 0.015305994192994018,0.891497427714465 l -30.93750861947259 0.2655613029092039" fill="#ff780b" stroke="none" /><line stroke="#e1ed5e" stroke-width="0.3" x1="184.99686870605535" x2="189.99668451229388" y1="99.2704041080226" y2="99.22748670261217" /><path d="M 185.99683186730306 99.26182062694052 a86.0,86.0 0 0,1 -10.086455211305974,41.156179273409016" fill="none" id="id52" stroke="none" /><text fill="#e1ed5e" style="font-size:6.75px; font-family:Arial;" text-anchor="middle"><textPath startOffset="21.40746469413373" xlink:href="#id52">April</textPath></text><path d="M 120.98066250479742 100.90099992219065 l 51.39764874687826 2.2072361876623443 a72.44502102531986,72.44502102531986 0 0,0 -0.06402211628643384,1.2420119523109976 l -51.35218504113525 -3.0892199333500727" fill="#35ff66" stroke="none" /><path d="M 120.96210409425399 101.26102812881392 l 30.876679603904208 1.857464371411601 a51.93249936964709,51.93249936964709 0 0,0 -0.06117163434298912,0.8894221380187614 l -30.84024400839615 -2.387229933584706" fill="#ff780b" stroke="none" /><path d="M 120.9064616781168 101.97986365728391 l 51.16639136331382 4.845510459602342 a72.39531668117155,72.39531668117155 0 0,0 -0.1277867230906267,1.2362206271315799 l -51.07567224774153 -5.723135609016853" fill="#35ff65" stroke="none" /><path d="M 120.82617615685814 102.69636545807757 l 50.92213249548486 6.592889548149719 a72.34714958478042,72.34714958478042 0 0,0 -0.17003469255282672,1.2302863326248787 l -50.80145328637682 -7.466064188974683" fill="#35ff64" stroke="none" /><path d="M 120.7213421655516 103.40968896794604 l 40.648529416513355 6.6887000469077 a62.195165396471644,62.195165396471644 0 0,0 -0.18239526724011326,1.0520074317849089 l -40.52771933178101 -7.385500511613197" fill="#b2ff20" stroke="none" /><path d="M 120.592083275326 104.11899336999214 l 50.438184827863424 10.089049569323784 a72.43733478653404,72.43733478653404 0 0,0 -0.2543664232829007,1.2172354170904294 l -50.25756069375616 -10.953401437699624" fill="#35ff66" stroke="none" /><path d="M 120.51834098615036 104.47187691870673 l 40.052044593444094 8.729156703523484 a61.99224869252605,61.99224869252605 0 0,0 -0.23553848158474663,1.0378260096288583 l -39.896295250301684 -9.41541704709136" fill="#b6ff1f" stroke="none" /><path d="M 120.26092885502905 105.52220625578681 l 49.48764048870835 13.488076476959808 a72.29283349736065,72.29283349736065 0 0,0 -0.3366143938844409,1.1945257324849192 l -49.24880760274933 -14.335610133347735" fill="#35ff63" stroke="none" /><path d="M 119.58574465831526 107.57618678355244 l 47.82989003945219 18.501628970324525 a72.28361001081768,72.28361001081768 0 0,0 -0.45759423300333407,1.1534363898455446 l -47.50523713148273 -19.319966377383633" fill="#35ff63" stroke="none" /><path d="M 119.31412917781788 108.2440532568976 l 47.196746093237316 20.1454844152017 a72.31640462963716,72.31640462963716 0 0,0 -0.4971446953748119,1.1375643536479458 l -46.84396751584554 -20.95271083862549" fill="#35ff63" stroke="none" /><path d="M 119.0197475246899 108.90220220490707 l 46.44907393450646 21.740511952584228 a72.28514725857482,72.28514725857482 0 0,0 -0.5356699168979261,1.119344103565309 l -46.06902475964862 -22.53466855821464" fill="#35ff63" stroke="none" /><path d="M 118.70294669586154 109.54985784667822 l 45.6881770819 23.328708759168507 a72.29949490430835,72.29949490430835 0 0,0 -0.5738924960826178,1.1005145318004292 l -45.280976516842436 -24.10956953407344" fill="#35ff63" stroke="none" /><line stroke="#e1ed5e" stroke-width="0.3" x1="174.33088141563837" x2="178.70328620479359" y1="141.23008692659167" y2="143.65538615756765" /><path d="M 175.20536237346943 141.71514677278685 a86.0,86.0 0 0,1 -30.301960400862466,31.631185727798858" fill="none" id="id53" stroke="none" /><text fill="#e1ed5e" style="font-size:6.75px; font-family:Arial;" text-anchor="middle"><textPath startOffset="22.145653131862474" xlink:href="#id53">May</textPath></text><path d="M 118.36410011445183 110.18625677009912 l 44.910170314139116 24.910914423119248 a72.35637307132342,72.35637307132342 0 0,0 -0.6118132231206027,1.081015342443327 l -44.475923725997134 -25.6781865356617" fill="#35ff64" stroke="none" /><path d="M 117.21940702142032 112.02048342749411 l 42.0943892679202 29.385152924028183 a72.33638885048029,72.33638885048029 0 0,0 -0.7195228313205252,1.0120989705651349 l -41.58375133806971 -30.10342912130282" fill="#35ff64" stroke="none" /><path d="M 116.79662413953412 112.60449989151573 l 41.11086022995879 30.850355940810307 a72.39890359260494,72.39890359260494 0 0,0 -0.7544931853789494,0.9876557992176777 l -40.575215067225535 -31.55153265326886" fill="#35ff65" stroke="none" /><path d="M 116.35404254752997 113.17365903436017 l 39.990500456086814 32.213516388428424 a72.35124891213286,72.35124891213286 0 0,0 -0.7874337176631311,0.9605411006174781 l -39.43161991918505 -32.895259770744396" fill="#35ff64" stroke="none" /><path d="M 115.89218393027572 113.72728997021213 l 23.49411996062575 20.293661255710305 a52.04523087183909,52.04523087183909 0 0,0 -0.5898185295818459,0.671105215170032 l -23.14229036708532 -20.69397874869163" fill="#ff7a0b" stroke="none" /><path d="M 115.41159269507618 114.26474011684316 l 37.63629092475493 34.83558900275477 a72.28361001081768,72.28361001081768 0 0,0 -0.8506891681265175,0.9034024168276447 l -37.032745922892154 -35.476532879526914" fill="#35ff63" stroke="none" /><path d="M 115.16444852881244 114.52719865689866 l 37.11304113946723 35.55345388065455 a72.3948042652525,72.3948042652525 0 0,0 -0.8674042038686368,0.8900331273088562 l -36.49725013444778 -36.18530970003115" fill="#35ff65" stroke="none" /><path d="M 113.86319453409587 115.77377054828091 l 33.864793805530965 38.531918876238144 a72.29847007247025,72.29847007247025 0 0,0 -0.939262200834331,0.8113123184000773 l -33.19835212493378 -39.10757532710294" fill="#35ff63" stroke="none" /><path d="M 112.7482090630111 116.68781488649013 l 19.50383600049118 25.531147406189604 a53.12847812472041,53.12847812472041 0 0,0 -0.7294970414753744,0.547428179838548 l -19.062685970105036 -25.862194613292168" fill="#ff930d" stroke="none" /><path d="M 112.45986205192187 116.90419585922612 l 15.319163604077868 20.78338755948887 a46.819100913401705,46.819100913401705 0 0,0 -0.6510507878062287,0.4713105627666278 l -14.96013180589767 -21.043298893628574" fill="#ff0000" stroke="none" /><path d="M 111.8722381534696 117.32195027204791 l 29.000447763691696 42.31251997610773 a72.29693282471308,72.29693282471308 0 0,0 -1.029727665098728,0.6928467283639964 l -28.269823810495964 -42.804116378528846" fill="#35ff63" stroke="none" /><line stroke="#e1ed5e" stroke-width="0.3" x1="143.1302829299769" x2="145.66735839644613" y1="173.24464959558577" y2="177.55315839532614" /><path d="M 143.63769802327073 174.10635135553383 a86.0,86.0 0 0,1 -40.68552437913181,11.842963189579606" fill="none" id="id54" stroke="none" /><text fill="#e1ed5e" style="font-size:6.75px; font-family:Arial;" text-anchor="middle"><textPath startOffset="21.407464694133747" xlink:href="#id54">June</textPath></text><line stroke="#e1ed5e" stroke-width="0.3" x1="101.45913802915013" x2="101.54496967792366" y1="184.9874750549273" y2="189.98673829345242" /><path d="M 101.47630435890484 185.9873277026323 a86.0,86.0 0 0,1 -42.54439059252881,-10.42667462771756" fill="none" id="id55" stroke="none" /><text fill="#e1ed5e" style="font-size:6.75px; font-family:Arial;" text-anchor="middle"><textPath startOffset="22.145653131862474" xlink:href="#id55">July</textPath></text><line stroke="#e1ed5e" stroke-width="0.3" x1="58.13341422392154" x2="55.67067388415222" y1="173.97424548756322" y2="178.32567169271397" /><path d="M 57.64086615596768 174.84453072859336 a86.0,86.0 0 0,1 -31.369924170532247,-30.572349798747897" fill="none" id="id56" stroke="none" /><text fill="#e1ed5e" style="font-size:6.75px; font-family:Arial;" text-anchor="middle"><textPath startOffset="22.145653131862474" xlink:href="#id56">August</textPath></text><line stroke="#e1ed5e" stroke-width="0.3" x1="26.387840678322732" x2="22.057713659400548" y1="142.50000000000003" y2="145.00000000000006" /><path d="M 25.521815274538298 143.00000000000003 a86.0,86.0 0 0,1 -11.493303480769221,-40.785679425670985" fill="none" id="id57" stroke="none" /><text fill="#e1ed5e" style="font-size:6.75px; font-family:Arial;" text-anchor="middle"><textPath startOffset="21.40746469413373" xlink:href="#id57">September</textPath></text><line stroke="#e1ed5e" stroke-width="0.3" x1="15.003131293944662" x2="10.003315487706104" y1="100.72959589197737" y2="100.7725132973878" /><path d="M 14.003168132696942 100.73817937305945 a86.0,86.0 0 0,1 10.791469493833604,-42.45332614584628" fill="none" id="id58" stroke="none" /><text fill="#e1ed5e" style="font-size:6.75px; font-family:Arial;" text-anchor="middle"><textPath startOffset="22.145653131862435" xlink:href="#id58">October</textPath></text><line stroke="#e1ed5e" stroke-width="0.3" x1="26.387840678322718" x2="22.05771365940052" y1="57.49999999999999" y2="54.99999999999999" /><path d="M 25.521815274538284 56.99999999999999 a86.0,86.0 0 0,1 29.574782752854787,-30.34633250058573" fill="none" id="id59" stroke="none" /><text fill="#e1ed5e" style="font-size:6.75px; font-family:Arial;" text-anchor="middle"><textPath startOffset="21.40746469413373" xlink:href="#id59">November</textPath></text><line stroke="#e1ed5e" stroke-width="0.3" x1="56.869717070023135" x2="54.33264160355391" y1="26.7553504044142" y2="22.446841604673864" /><path d="M 56.362301976729285 25.89364864446614 a86.0,86.0 0 0,1 42.16139366436587,-11.88097634709845" fill="none" id="id60" stroke="none" /><text fill="#e1ed5e" style="font-size:6.75px; font-family:Arial;" text-anchor="middle"><textPath startOffset="22.145653131862474" xlink:href="#id60">December</textPath></text></svg>