<?xml version="1.0" encoding="utf-8" ?>
<svg baseProfile="full" height="200mm" version="1.1" viewBox="0,0,200,200" width="200mm" xmlns="http://www.w3.org/2000/svg" xmlns:ev="http://www.w3.org/2001/xml-events" xmlns:xlink="http://www.w3.org/1999/xlink"><defs /><rect fill="#1a1a1a" height="200" width="200" x="0" y="0" /><rect fill="#1a1a1a" height="200" width="180" x="10" y="0" /><text alignment-baseline="middle" fill="#e1ed5e" style="dominant-baseline: central; font-size:9.0px; font-family:Arial;" text-anchor="middle" x="100.0" y="100.0">2026</text><line stroke="#e1ed5e" stroke-width="0.3" x1="100.0" x2="100.0" y1="15.0" y2="10.0" /><path d="M 100.0 14.0 a86.0,86.0 0 0,1 42.46469731375804,11.215312516191453" fill="none" id="id73" stroke="none" /><text fill="#e1ed5e" style="font-size:6.75px; font-family:Arial;" text-anchor="middle"><textPath startOffset="22.20632615414155" xlink:href="#id73">January</textPath></text><path d="M 100.36148047927253 79.00311137660856 l 0.5696457508898459 -33.088338297805485 a54.093241418626974,54.093241418626974 0 0,0 0.9308503173650272,0.024041117421598385 l -1.139122703449741 33.073630388241526" fill="#6cff28" stroke="none" /><path d="M 101.08401301168833 79.027996857942 l 0.5855046095762033 -11.32754346979374 a32.342665326452234,32.342665326452234 0 0,0 0.5557362424506261,0.03352352779446978 l -0.7804029008664414 11.315786672618966" fill="#ff900d" stroke="none" /><path d="M 101.80526077348638 79.07773832637324 l 1.2202572665333575 -14.142301330931843 a35.19484817570812,35.19484817570812 0 0,0 0.603130548300529,0.0572745129655142 l -1.4635129419241306 14.119201273451152" fill="#ffb510" stroke="none" /><path d="M 102.16513564639614 79.11191278185805 l 1.688926638091476 -16.293873771936173 a37.381171987518,37.381171987518 0 0,0 0.6394553161783813,0.07185025549655476 l -1.9691486577795825 16.262387562969018" fill="#ffd113" stroke="none" /><path d="M 103.95276090670814 79.375362276772 l 2.155291273918431 -11.245836204553562 a32.45050708113298,32.45050708113298 0 0,0 0.5476928447323065,0.10986203222652823 l -2.348550528117863 11.207070216249825" fill="#ff910d" stroke="none" /><path d="M 104.307194497241 79.44645832069477 l 1.5655711155658156 -7.470763439243381 a28.633041286605856,28.633041286605856 0 0,0 0.48152223142748984,0.10524210932331525 l -1.6939360711468334 7.442707831824196" fill="#ff5d08" stroke="none" /><path d="M 105.01212808612495 79.60689891045804 l 2.2589992739107005 -9.191305521818688 a30.464838874219875,30.464838874219875 0 0,0 0.5081696316801014,0.12954375398409695 l -2.416877794275827 9.151058771665722" fill="#ff760a" stroke="none" /><path d="M 106.0581310904928 79.89281104454417 l 11.56989793694907 -38.40097226992325 a61.106074471915505,61.106074471915505 0 0,0 1.0045100344730193,0.31210615741506237 l -12.229193344132808 38.19612597762567" fill="#31ff3b" stroke="none" /><path d="M 108.09893153111575 80.62456947434976 l 5.491529028835707 -13.137626706561313 a35.2391757681229,35.2391757681229 0 0,0 0.5576452604680563,0.2387545982138433 l -5.716858047094078 13.04115258038468" fill="#ffb610" stroke="none" /><path d="M 108.43124777332544 80.76684994638697 l 8.005346813508401 -18.26159551170352 a40.93919377100336,40.93919377100336 0 0,0 0.6429751505347769,0.28848420776917905 l -8.318504082509959 18.121090973417807" fill="#fffd17" stroke="none" /><path d="M 109.08828744355905 81.06846463323043 l 4.0927562336217225 -8.525496125157053 a30.456994119059047,30.456994119059047 0 0,0 0.47067474819661725,0.23095805482209153 l -4.238902248828771 8.45378291020013" fill="#ff760a" stroke="none" /><path d="M 109.41281617654863 81.2277094730956 l 4.348117803781705 -8.671595102553528 a30.700654104656746,30.700654104656746 0 0,0 0.4703625467780253,0.24093796544013776 l -4.496740838148487 8.595464611800889" fill="#ff7a0b" stroke="none" /><path d="M 109.73455568895987 81.39251694778311 l 4.4057860661387025 -8.421605687699223 a30.504440710513684,30.504440710513684 0 0,0 0.46316628683003486,0.24740738996030606 l -4.550097399497048 8.344519571237164" fill="#ff770b" stroke="none" /><path d="M 110.05341064243156 81.56283822128135 l 4.525392216719347 -8.299212215569941 a30.452835453672584,30.452835453672584 0 0,0 0.45806272091753586,0.2549114082566235 l -4.667579026708918 8.220085409753137" fill="#ff760a" stroke="none" /><path d="M 110.36928655335952 81.73862282372117 l 8.19325468363447 -14.429161862701834 a37.59307489198272,37.59307489198272 0 0,0 0.5599636506137057,0.32436708958818006 l -8.440415066713504 14.285990615723604" fill="#ffd413" stroke="none" /><line stroke="#e1ed5e" stroke-width="0.3" x1="143.23703022742887" x2="145.7803849466894" y1="26.81831364943548" y2="22.513508569990506" /><path d="M 143.74570117128098 25.957352633546492 a86.0,86.0 0 0,1 28.547481713284135,27.462654790039103" fill="none" id="id74" stroke="none" /><text fill="#e1ed5e" style="font-size:6.75px; font-family:Arial;" text-anchor="middle"><textPath startOffset="19.985693538727396" xlink:href="#id74">February</textPath></text><path d="M 110.68208982089419 81.91981866633111 l 32.04626946268258 -54.24054400100664 a84.0,84.0 0 0,0 1.23855173512945,0.7462135621655417 l -32.97518326402967 53.68088382938249" fill="#4dd2ff" stroke="none" /><path d="M 111.2981086023043 82.29822771554956 l 2.819103190613372 -4.416944860702406 a26.23991838694191,26.23991838694191 0 0,0 0.37864573866536955,0.24628172114440156 l -2.8947159550630217 4.367764215398477" fill="#ff3c05" stroke="none" /><path d="M 111.90073688211348 82.69761687909136 l 6.157474399758902 -8.952301204301145 a31.865458473355737,31.865458473355737 0 0,0 0.4492557131833775,0.3147323371262077 l -6.3106612525259305 8.844984024411001" fill="#ff890c" stroke="none" /><path d="M 112.19680574252982 82.90503203632743 l 4.587141494822758 -6.429309325259711 a28.897967174747958,28.897967174747958 0 0,0 0.40244504038616724,0.2923934370253838 l -4.697131851562713 6.349396653417652" fill="#ff6109" stroke="none" /><path d="M 112.48926042617603 83.11751280151076 l 11.817730340851154 -15.974739447058235 a40.870859337494,40.870859337494 0 0,0 0.561981801566738,0.4232730418354752 l -12.090958296176275 15.768949815716912" fill="#fffc17" stroke="none" /><path d="M 112.77801427241765 83.33499621200491 l 12.134666098236272 -15.825953249221216 a40.94269083053288,40.94269083053288 0 0,0 0.5555873328987798,0.43364472590774555 l -12.405285986294482 15.614730134090246" fill="#fffd17" stroke="none" /><path d="M 113.06298171725822 83.55741782278167 l 5.950715739823678 -7.490260239440494 a30.56634811569851,30.56634811569851 0 0,0 0.4091474558865486,0.3308354550285872 l -6.078766594274717 7.386718687147777" fill="#ff780b" stroke="none" /><path d="M 113.6212207817346 84.01681056812373 l 7.57500577097047 -8.88853900285719 a32.67847755640903,32.67847755640903 0 0,0 0.42498547006846865,0.36854321176701227 l -7.726885039685703 8.756830797670505" fill="#ff940d" stroke="none" /><line stroke="#e1ed5e" stroke-width="0.3" x1="172.23445277983987" x2="176.4835382374775" y1="55.19839476539836" y2="52.563006222186495" /><path d="M 173.08426987136738 54.67131705675599 a86.0,86.0 0 0,1 12.851231095245387,41.99856678651699" fill="none" id="id75" stroke="none" /><text fill="#e1ed5e" style="font-size:6.75px; font-family:Arial;" text-anchor="middle"><textPath startOffset="22.20632615414155" xlink:href="#id75">March</textPath></text><path d="M 117.84615892207809 88.93136811851018 l 7.414070205808959 -4.598390847573208 a29.72431289006241,29.72431289006241 0 0,0 0.26593946661142287,0.4371345590346394 l -7.492125470706605 4.470088515331487" fill="#ff6c0a" stroke="none" /><path d="M 118.56541770881063 90.18545643968196 l 8.414265317198293 -4.448172121897627 a30.517672827652426,30.517672827652426 0 0,0 0.24151187361246054,0.466524068133843 l -8.489586623970869 4.30267533150344" fill="#ff770b" stroke="none" /><path d="M 118.89224826269711 90.83032412892265 l 16.75575991349808 -8.132694703347791 a39.625150024003844,39.625150024003844 0 0,0 0.29255022995299684,0.6161853938914228 l -16.89326833729283 7.843066893815828" fill="#ffed16" stroke="none" /><path d="M 119.04729006885535 91.15688171328212 l 12.973851771876065 -6.023392589617819 a35.30391862698032,35.30391862698032 0 0,0 0.2511582688088284,0.5533939530301268 l -13.07561235764824 5.799176627745629" fill="#ffb610" stroke="none" /><path d="M 119.34039704204932 91.81776055985345 l 9.39832574095385 -3.9760999415774547 a31.204797767642823,31.204797767642823 0 0,0 0.20502787414460522,0.4964912599062603 l -9.465375301984652 3.813734111217891" fill="#ff800b" stroke="none" /><path d="M 119.47837535516314 92.15188598940014 l 8.799195928827464 -3.5453209824678233 a30.48657735237638,30.48657735237638 0 0,0 0.19192962704831568,0.4884399660727941 l -8.858919105757481 3.393332011499245" fill="#ff770a" stroke="none" /><path d="M 119.61058180528143 92.48833698450437 l 9.158920760024847 -3.508245039237197 a30.807834253480557,30.807834253480557 0 0,0 0.18542708989725712,0.49685241237566896 l -9.21795243842373 3.3500694898321948" fill="#ff7b0b" stroke="none" /><path d="M 119.97218684219823 93.5106431181261 l 19.167977926504815 -6.228053565279 a41.154404704752764,41.154404704752764 0 0,0 0.21311027763932375,0.6756178177515861 l -19.272343687912347 5.897185581100994" fill="#feff18" stroke="none" /><path d="M 120.18372546131832 94.20196356495316 l 9.108657069159808 -2.6165796627857074 a30.477031325012,30.477031325012 0 0,0 0.14050380124402503,0.5054669293261049 l -9.152347640970195 2.459401430040651" fill="#ff770a" stroke="none" /><path d="M 120.28053869075195 94.5502522615342 l 9.149335499031913 -2.4585920129947625 a30.473912325972158,30.473912325972158 0 0,0 0.1317687153076699,0.5077586119223145 l -9.190300546209885 2.3007369755235976" fill="#ff770a" stroke="none" /><path d="M 120.37134235888165 94.90015583598534 l 9.30059845573521 -2.328349399893389 a30.587614018242917,30.587614018242917 0 0,0 0.12346792319187413,0.5118542521101113 l -9.339299179187904 2.1679099161238713" fill="#ff780b" stroke="none" /><path d="M 120.45610955862082 95.25157060432595 l 9.226056493951303 -2.141623153536802 a30.471360417666826,30.471360417666826 0 0,0 0.11420319526449121,0.5119505313744755 l -9.26155407621783 1.9824944526123627" fill="#ff770a" stroke="none" /><path d="M 120.53481517161879 95.60439243477599 l 19.50739665569602 -4.175682108700643 a40.94930688910226,40.94930688910226 0 0,0 0.14160797609902256,0.6905307825079247 l -19.576383927710037 3.839275670029307" fill="#fffd17" stroke="none" /><path d="M 120.6074358757038 95.95851677861258 l 19.58287630879185 -3.8405489409673925 a40.955922947671624,40.955922947671624 0 0,0 0.1297215984032362,0.6929779657648488 l -19.646083631104947 3.502892897739981" fill="#fffd17" stroke="none" /><path d="M 120.73433829027371 96.67025291283417 l 10.272605432339159 -1.6496874670932002 a31.40422467594815,31.40422467594815 0 0,0 0.08111876713229997,0.5344713225629688 l -10.299480092910759 1.4726170321381493" fill="#ff830c" stroke="none" /><path d="M 120.83666639777658 97.38593545837742 l 9.028200945664086 -1.1326331917096981 a30.098970835333652,30.098970835333652 0 0,0 0.06006844012686219,0.5146297118287707 l -9.046359738794537 0.9770597415560746" fill="#ff720a" stroke="none" /><path d="M 120.91429891909075 98.10471618934814 l 22.11664519636446 -2.004242157423617 a43.20727316370619,43.20727316370619 0 0,0 0.06074843061478655,0.7412847236326476 l -22.14786811079874 1.6232435165832007" fill="#e6ff1a" stroke="none" /><path d="M 120.98425023603335 99.18683210126433 l 9.489756947836495 -0.36774083562601995 a30.496879500720116,30.496879500720116 0 0,0 0.015812349626343584,0.5247349035234651 l -9.494680991918484 0.20433578467755575" fill="#ff770a" stroke="none" /><line stroke="#e1ed5e" stroke-width="0.3" x1="184.98032266829074" x2="189.97916517819016" y1="98.17113171792111" y2="98.06355123074" /><path d="M 185.9800911702706 98.14961562048488 a86.0,86.0 0 0,1 -9.607161424134198,41.387399972396054" fill="none" id="id76" stroke="none" /><text fill="#e1ed5e" style="font-size:6.75px; font-family:Arial;" text-anchor="middle"><textPath startOffset="21.466115282336823" xlink:href="#id76">April</textPath></text><path d="M 120.99513854157772 99.54816195383933 l 8.620618500126627 -0.18552501628317491 a29.622614618338936,29.622614618338936 0 0,0 0.00658326340849729,0.5098810059989347 l -8.62253477065284 0.03710775222377744" fill="#ff6b09" stroke="none" /><path d="M 120.99980553446 99.90962569577887 l 7.672666586447413 -0.03301992026226299 a28.672737638022085,28.672737638022085 0 0,0 -0.002124107412420949,0.49356775667130726 l -7.672098181745489 -0.09905731461272897" fill="#ff5e08" stroke="none" /><path d="M 120.9764740272857 100.99374915477107 l 9.547983936669674 0.45233059447889223 a30.558692390782525,30.558692390782525 0 0,0 -0.029414413586819347,0.5252141140780426 l -9.538783172195325 -0.6166164248923582" fill="#ff780b" stroke="none" /><path d="M 120.76222939487914 103.15116336523771 l 14.170838298895946 2.1507626013034047 a35.333123799807964,35.333123799807964 0 0,0 -0.09643965091144757,0.6005297982844197 l -14.13171689362321 -2.394371629281029" fill="#ffb711" stroke="none" /><path d="M 120.64145759157962 103.86396538481128 l 7.632130635746406 1.428692157908071 a28.764700852136343,28.764700852136343 0 0,0 -0.09529343648657604,0.48589917963296925 l -7.606407266284165 -1.559855064608985" fill="#ff5f08" stroke="none" /><path d="M 120.49622156327973 104.57218783832717 l 5.743345330636986 1.2811948578413774 a26.884511521843496,26.884511521843496 0 0,0 -0.10464403604900091,0.4508037685102251 l -5.720440728657433 -1.3798672837001673" fill="#ff4506" stroke="none" /><path d="M 120.41448212921028 104.9243191809786 l 7.3521353463931725 1.773459687992349 a28.56300558089294,28.56300558089294 0 0,0 -0.119405177129973,0.4769643276359984 l -7.320518854968138 -1.8997518550257433" fill="#ff5d08" stroke="none" /><path d="M 119.26925614724726 108.34839909993367 l 0.9656020370714615 0.4183467755880709 a22.052331373019683,22.052331373019683 0 0,0 -0.15390313167506114,0.34701093268708794 l -0.9582578206651274 -0.4349060447678465" fill="#ff0000" stroke="none" /><path d="M 119.12269723197855 108.67885076344098 l 1.8486957057559676 0.8390319599077911 a23.030184829572732,23.030184829572732 0 0,0 -0.16694184333005774,0.35957787868935254 l -1.8339792455860786 -0.8707299058759742" fill="#ff0e01" stroke="none" /><line stroke="#e1ed5e" stroke-width="0.3" x1="174.80103733775053" x2="179.2010983576182" y1="140.37084112569926" y2="142.7455964860345" /><path d="M 175.68104954172406 140.8457921977663 a86.0,86.0 0 0,1 -30.038265399797805,32.042727171017184" fill="none" id="id77" stroke="none" /><text fill="#e1ed5e" style="font-size:6.75px; font-family:Arial;" text-anchor="middle"><textPath startOffset="22.206326154141568" xlink:href="#id77">May</textPath></text><path d="M 116.27256486870786 113.27417163493432 l 3.66813825364213 2.9922447476702114 a25.73378990638502,25.73378990638502 0 0,0 -0.2829540489182599,0.34083637972667963 l -3.6160882048303264 -3.0549423845106616" fill="#ff3505" stroke="none" /><path d="M 115.80600337817218 113.82643327865902 l 5.358144088051765 4.687081228465243 a28.118879020643302,28.118879020643302 0 0,0 -0.32181541573431516,0.3615630311193018 l -5.2766698226691116 -4.7786184293254115" fill="#ff5608" stroke="none" /><path d="M 115.56566222782051 114.09645910891815 l 4.90522925708505 4.442237190447514 a27.617759841574653,27.617759841574653 0 0,0 -0.3221461655383434,0.3496260380514623 l -4.828036683550985 -4.526014483300312" fill="#ff4f07" stroke="none" /><path d="M 115.32070863581623 114.36230785411682 l 6.2072590227264355 5.818958321955696 a29.508251320211233,29.508251320211233 0 0,0 -0.350576923078844,0.36757850226009986 l -6.106175548268626 -5.924943940798303" fill="#ff6909" stroke="none" /><path d="M 114.55890576462653 115.13401014063108 l 5.258360666881517 5.466075881130747 a28.58474405904945,28.58474405904945 0 0,0 -0.35753275940107343,0.3380695400833657 l -5.163492073089635 -5.5557800579600345" fill="#ff5d08" stroke="none" /><path d="M 113.75828350139079 115.86535959552629 l 5.203878362818264 6.000850433787357 a28.942956373019683,28.942956373019683 0 0,0 -0.3792003099115278,0.32316273068163986 l -5.099812576329689 -6.089537554691944" fill="#ff6209" stroke="none" /><path d="M 113.48314897796784 116.09983520530334 l 6.073242692548404 7.251882084193884 a30.459073451752282,30.459073451752282 0 0,0 -0.40485891701121074,0.3331713260454872 l -5.947513646992502 -7.35534852909655" fill="#ff760a" stroke="none" /><line stroke="#e1ed5e" stroke-width="0.3" x1="143.8653032363475" x2="146.44561519142675" y1="172.8068346515853" y2="177.08958963109032" /><path d="M 144.38136562736335 173.6633856474863 a86.0,86.0 0 0,1 -40.68145358897372,12.25698825130547" fill="none" id="id78" stroke="none" /><text fill="#e1ed5e" style="font-size:6.75px; font-family:Arial;" text-anchor="middle"><textPath startOffset="21.466115282336833" xlink:href="#id78">June</textPath></text><line stroke="#e1ed5e" stroke-width="0.3" x1="102.19456741930631" x2="102.32365962044197" y1="184.97166512339345" y2="189.96999836594603" /><path d="M 102.22038585953345 185.97133177190398 a86.0,86.0 0 0,1 -42.740103519485714,-10.115201625700543" fill="none" id="id79" stroke="none" /><text fill="#e1ed5e" style="font-size:6.75px; font-family:Arial;" text-anchor="middle"><textPath startOffset="22.20632615414155" xlink:href="#id79">July</textPath></text><line stroke="#e1ed5e" stroke-width="0.3" x1="58.666819895761336" x2="56.23545636021788" y1="174.27360380694188" y2="178.64263932499728" /><path d="M 58.180547188652646 175.14741091055294 a86.0,86.0 0 0,1 -31.652253787137756,-30.449443065178592" fill="none" id="id80" stroke="none" /><text fill="#e1ed5e" style="font-size:6.75px; font-family:Arial;" text-anchor="middle"><textPath startOffset="22.20632615414155" xlink:href="#id80">August</textPath></text><line stroke="#e1ed5e" stroke-width="0.3" x1="26.63291911575756" x2="22.317208475507996" y1="142.92168965132927" y2="145.44649492493687" /><path d="M 25.769776987707644 143.4266507060508 a86.0,86.0 0 0,1 -11.730757126820373,-40.83630448921669" fill="none" id="id81" stroke="none" /><text fill="#e1ed5e" style="font-size:6.75px; font-family:Arial;" text-anchor="middle"><textPath startOffset="21.46611528233685" xlink:href="#id81">September</textPath></text><line stroke="#e1ed5e" stroke-width="0.3" x1="15.007084014347285" x2="10.007500721073583" y1="101.09737516637583" y2="101.16192664675087" /><path d="M 14.007167355692545 101.11028546245083 a86.0,86.0 0 0,1 10.666146001902534,-42.60595125391555" fill="none" id="id82" stroke="none" /><text fill="#e1ed5e" style="font-size:6.75px; font-family:Arial;" text-anchor="middle"><textPath startOffset="22.20632615414155" xlink:href="#id82">October</textPath></text><line stroke="#e1ed5e" stroke-width="0.3" x1="26.266209847984243" x2="21.928928074336255" y1="57.711370442889674" y2="55.22380399835377" /><path d="M 25.398753493254645 57.213857153982495 a86.0,86.0 0 0,1 29.58750427330803,-30.492523968695096" fill="none" id="id83" stroke="none" /><text fill="#e1ed5e" style="font-size:6.75px; font-family:Arial;" text-anchor="middle"><textPath startOffset="21.46611528233685" xlink:href="#id83">November</textPath></text><line stroke="#e1ed5e" stroke-width="0.3" x1="56.762969772571076" x2="54.21961505331055" y1="26.818313649435495" y2="22.513508569990535" /><path d="M 56.25429882871897 25.957352633546506 a86.0,86.0 0 0,1 42.265352541879196,-11.944610805530505" fill="none" id="id84" stroke="none" /><text fill="#e1ed5e" style="font-size:6.75px; font-family:Arial;" text-anchor="middle"><textPath startOffset="22.20632615414155" xlink:href="#id84">December</textPath></text></svg>