<?xml version="1.0" encoding="utf-8" ?>
<svg baseProfile="full" height="200mm" version="1.1" viewBox="0,0,200,200" width="200mm" xmlns="http://www.w3.org/2000/svg" xmlns:ev="http://www.w3.org/2001/xml-events" xmlns:xlink="http://www.w3.org/1999/xlink"><defs /><rect fill="#1a1a1a" height="200" width="200" x="0" y="0" /><text alignment-baseline="middle" fill="#e1ed5e" style="dominant-baseline: central; font-size:9.0px; font-family:Arial;" text-anchor="middle" x="100.0" y="100.0">2025</text><line stroke="#e1ed5e" stroke-width="0.3" x1="100.0" x2="100.0" y1="15.0" y2="10.0" /><path d="M 100.0 14.0 a86.0,86.0 0 0,1 42.46469731375804,11.215312516191453" fill="none" id="id61" stroke="none" /><text fill="#e1ed5e" style="font-size:6.75px; font-family:Arial;" text-anchor="middle"><textPath startOffset="22.20632615414155" xlink:href="#id61">January</textPath></text><path d="M 100.36148047927253 79.00311137660856 l 0.2983662862710318 -17.330849218789027 a38.33341735161256,38.33341735161256 0 0,0 0.6596512387062701,0.01703684533506084 l -0.5966441601721696 17.323145581311607" fill="#ff1101" stroke="none" /><path d="M 100.72285384407766 79.0124445844662 l 0.5665898973659019 -16.450541096618856 a37.460295455530044,37.460295455530044 0 0,0 0.6442442440556637,0.027742512352803204 l -0.8496749738108971 16.43835085774186" fill="#ff0000" stroke="none" /><path d="M 101.08401301168833 79.027996857942 l 2.7403590049370257 -53.016723085635796 a74.08749847388674,74.08749847388674 0 0,0 1.2730276740912223,0.0767925057889631 l -3.6525487278678597 52.96169731046653" fill="#3dffa9" stroke="none" /><path d="M 101.44485096284872 79.0497635885617 l 3.5855962030704753 -51.990890452932696 a73.11438563602493,73.11438563602493 0 0,0 1.2548162800937386,0.09739789373425205 l -4.480002672526555 51.92146729700998" fill="#3bff9b" stroke="none" /><path d="M 101.80526077348638 79.07773832637324 l 2.145064696121325 -24.860455363706897 a45.952826361785334,45.952826361785334 0 0,0 0.7874889307995987,0.07478156280488467 l -2.572678754011168 24.819848256386834" fill="#ff9d0e" stroke="none" /><path d="M 102.16513564639614 79.11191278185805 l 2.5944995434907456 -25.0303637289748 a46.164469719943455,46.164469719943455 0 0,0 0.7897054589628932,0.08873260970384939 l -3.024971705963364 24.98199516580035" fill="#ffa10e" stroke="none" /><path d="M 102.52436894288641 79.15227682838746 l 5.944390623898445 -49.09227333832736 a70.45085521418754,70.45085521418754 0 0,0 1.2026473313482118,0.1561381398185196 l -6.788552683754503 48.9826768753447" fill="#37ff74" stroke="none" /><path d="M 103.2404852339499 79.25152402106235 l 3.910129957578018 -25.03613861571023 a46.339639955417795,46.339639955417795 0 0,0 0.7870474366732173,0.1298695707337439 l -4.3405066003901105 24.96512278203686" fill="#ffa40f" stroke="none" /><path d="M 103.59715602781102 79.31037775812273 l 8.640510079303528 -49.69728533758068 a71.4428249045933,71.4428249045933 0 0,0 1.2097817665840265,0.22107988511278404 l -9.494686966990455 49.541189971117156" fill="#38ff83" stroke="none" /><path d="M 103.95276090670814 79.375362276772 l 6.393150559929061 -33.358054615653344 a54.965161295404336,54.965161295404336 0 0,0 0.9276904510547024,0.1860859772229236 l -6.966407420450889 33.243064682353214" fill="#ccff1d" stroke="none" /><path d="M 104.307194497241 79.44645832069477 l 5.189742488513438 -24.764980687742018 a46.3029187162532,46.3029187162532 0 0,0 0.7786767922653621,0.17018858684089663 l -5.615262004932327 24.67197860280525" fill="#ffa30f" stroke="none" /><path d="M 104.66035177308747 79.52364482259891 l 5.709914244454573 -25.08785555140519 a46.729430946820365,46.729430946820365 0 0,0 0.7827765204196105,0.18525791188827592 l -6.140914451836708 24.985851727376048" fill="#ffab0f" stroke="none" /><path d="M 105.01212808612495 79.60689891045804 l 13.512333164994308 -54.97831888058212 a77.61447424905381,77.61447424905381 0 0,0 1.2946504970870747,0.33003523830328885 l -14.456692550766407 54.73758064610996" fill="#42ffdb" stroke="none" /><path d="M 105.71112130821622 79.79150937346287 l 5.867961048135762 -20.763459474681344 a42.576705406970106,42.576705406970106 0 0,0 0.7035492034917371,0.20538530508867353 l -6.224500469350927 20.659375840673967" fill="#ff6108" stroke="none" /><path d="M 106.0581310904928 79.89281104454417 l 10.894772618383943 -36.16020326934735 a58.76580954893999,58.76580954893999 0 0,0 0.9660389067042968,0.3001529907494661 l -11.515596897798957 35.96731014371536" fill="#94ff23" stroke="none" /><path d="M 106.40334571778207 80.00007090966166 l 19.21003715334621 -59.99978727101504 a84.0,84.0 0 0,0 1.37326871103033,0.45274510296305515 l -20.239988686618958 59.66022844379275" fill="#4dd2ff" stroke="none" /><path d="M 107.08798089147638 80.2323363322302 l 8.383711354428883 -23.38132521509848 a45.83894089707892,45.83894089707892 0 0,0 0.7404466152454972,0.2727127372809552 l -8.784940295446956 23.2335492100112" fill="#ff9b0e" stroke="none" /><path d="M 107.4271985657038 80.35727306442388 l 8.851632480289027 -23.409930164956844 a46.02750942251873,46.02750942251873 0 0,0 0.7386688356440604,0.2865920323209966 l -9.253284480932754 23.2540954287453" fill="#ff9e0e" stroke="none" /><path d="M 108.09893153111575 80.62456947434976 l 9.709990959759125 -23.229638937271815 a46.177371776947226,46.177371776947226 0 0,0 0.7307376506683169,0.31286372637436916 l -10.108412368217756 23.059055682934655" fill="#ffa10e" stroke="none" /><line stroke="#e1ed5e" stroke-width="0.3" x1="143.23703022742887" x2="145.7803849466894" y1="26.81831364943548" y2="22.513508569990506" /><path d="M 143.74570117128098 25.957352633546492 a86.0,86.0 0 0,1 28.547481713284135,27.462654790039103" fill="none" id="id62" stroke="none" /><text fill="#e1ed5e" style="font-size:6.75px; font-family:Arial;" text-anchor="middle"><textPath startOffset="19.985693538727396" xlink:href="#id62">February</textPath></text><line stroke="#e1ed5e" stroke-width="0.3" x1="172.23445277983987" x2="176.4835382374775" y1="55.19839476539836" y2="52.563006222186495" /><path d="M 173.08426987136738 54.67131705675599 a86.0,86.0 0 0,1 12.851231095245387,41.99856678651699" fill="none" id="id63" stroke="none" /><text fill="#e1ed5e" style="font-size:6.75px; font-family:Arial;" text-anchor="middle"><textPath startOffset="22.20632615414155" xlink:href="#id63">March</textPath></text><line stroke="#e1ed5e" stroke-width="0.3" x1="184.98032266829074" x2="189.97916517819016" y1="98.17113171792111" y2="98.06355123074" /><path d="M 185.9800911702706 98.14961562048488 a86.0,86.0 0 0,1 -9.607161424134198,41.387399972396054" fill="none" id="id64" stroke="none" /><text fill="#e1ed5e" style="font-size:6.75px; font-family:Arial;" text-anchor="middle"><textPath startOffset="21.466115282336823" xlink:href="#id64">April</textPath></text><line stroke="#e1ed5e" stroke-width="0.3" x1="174.80103733775053" x2="179.2010983576182" y1="140.37084112569926" y2="142.7455964860345" /><path d="M 175.68104954172406 140.8457921977663 a86.0,86.0 0 0,1 -30.038265399797805,32.042727171017184" fill="none" id="id65" stroke="none" /><text fill="#e1ed5e" style="font-size:6.75px; font-family:Arial;" text-anchor="middle"><textPath startOffset="22.206326154141568" xlink:href="#id65">May</textPath></text><line stroke="#e1ed5e" stroke-width="0.3" x1="143.8653032363475" x2="146.44561519142675" y1="172.8068346515853" y2="177.08958963109032" /><path d="M 144.38136562736335 173.6633856474863 a86.0,86.0 0 0,1 -40.68145358897372,12.25698825130547" fill="none" id="id66" stroke="none" /><text fill="#e1ed5e" style="font-size:6.75px; font-family:Arial;" text-anchor="middle"><textPath startOffset="21.466115282336833" xlink:href="#id66">June</textPath></text><line stroke="#e1ed5e" stroke-width="0.3" x1="102.19456741930631" x2="102.32365962044197" y1="184.97166512339345" y2="189.96999836594603" /><path d="M 102.22038585953345 185.97133177190398 a86.0,86.0 0 0,1 -42.740103519485714,-10.115201625700543" fill="none" id="id67" stroke="none" /><text fill="#e1ed5e" style="font-size:6.75px; font-family:Arial;" text-anchor="middle"><textPath startOffset="22.20632615414155" xlink:href="#id67">July</textPath></text><line stroke="#e1ed5e" stroke-width="0.3" x1="58.666819895761336" x2="56.23545636021788" y1="174.27360380694188" y2="178.64263932499728" /><path d="M 58.180547188652646 175.14741091055294 a86.0,86.0 0 0,1 -31.652253787137756,-30.449443065178592" fill="none" id="id68" stroke="none" /><text fill="#e1ed5e" style="font-size:6.75px; font-family:Arial;" text-anchor="middle"><textPath startOffset="22.20632615414155" xlink:href="#id68">August</textPath></text><line stroke="#e1ed5e" stroke-width="0.3" x1="26.63291911575756" x2="22.317208475507996" y1="142.92168965132927" y2="145.44649492493687" /><path d="M 25.769776987707644 143.4266507060508 a86.0,86.0 0 0,1 -11.730757126820373,-40.83630448921669" fill="none" id="id69" stroke="none" /><text fill="#e1ed5e" style="font-size:6.75px; font-family:Arial;" text-anchor="middle"><textPath startOffset="21.46611528233685" xlink:href="#id69">September</textPath></text><line stroke="#e1ed5e" stroke-width="0.3" x1="15.007084014347285" x2="10.007500721073583" y1="101.09737516637583" y2="101.16192664675087" /><path d="M 14.007167355692545 101.11028546245083 a86.0,86.0 0 0,1 10.666146001902534,-42.60595125391555" fill="none" id="id70" stroke="none" /><text fill="#e1ed5e" style="font-size:6.75px; font-family:Arial;" text-anchor="middle"><textPath startOffset="22.20632615414155" xlink:href="#id70">October</textPath></text><line stroke="#e1ed5e" stroke-width="0.3" x1="26.266209847984243" x2="21.928928074336255" y1="57.711370442889674" y2="55.22380399835377" /><path d="M 25.398753493254645 57.213857153982495 a86.0,86.0 0 0,1 29.58750427330803,-30.492523968695096" fill="none" id="id71" stroke="none" /><text fill="#e1ed5e" style="font-size:6.75px; font-family:Arial;" text-anchor="middle"><textPath startOffset="21.46611528233685" xlink:href="#id71">November</textPath></text><line stroke="#e1ed5e" stroke-width="0.3" x1="56.762969772571076" x2="54.21961505331055" y1="26.818313649435495" y2="22.513508569990535" /><path d="M 56.25429882871897 25.957352633546506 a86.0,86.0 0 0,1 42.265352541879196,-11.944610805530505" fill="none" id="id72" stroke="none" /><text fill="#e1ed5e" style="font-size:6.75px; font-family:Arial;" text-anchor="middle"><textPath startOffset="22.20632615414155" xlink:href="#id72">December</textPath></text></svg>