<?xml version="1.0" encoding="utf-8" ?>
<svg baseProfile="full" height="200mm" version="1.1" viewBox="0,0,200,200" width="200mm" xmlns="http://www.w3.org/2000/svg" xmlns:ev="http://www.w3.org/2001/xml-events" xmlns:xlink="http://www.w3.org/1999/xlink"><defs /><rect fill="#1a1a1a" height="200" width="200" x="0" y="0" /><text alignment-baseline="middle" fill="#e1ed5e" style="dominant-baseline: central; font-size:9.0px; font-family:Arial;" text-anchor="middle" x="100.0" y="100.0">2025</text><line stroke="#e1ed5e" stroke-width="0.3" x1="100.0" x2="100.0" y1="15.0" y2="10.0" /><path d="M 100.0 14.0 a86.0,86.0 0 0,1 42.46469731375804,11.215312516191453" fill="none" id="id61" stroke="none" /><text fill="#e1ed5e" style="font-size:6.75px; font-family:Arial;" text-anchor="middle"><textPath startOffset="22.20632615414155" xlink:href="#id61">January</textPath></text><path d="M 100.36148047927253 79.00311137660856 l 0.1695972215042232 -9.851193010276202 a30.85265278710544,30.85265278710544 0 0,0 0.5309203309924159,0.013712105781983914 l -0.3391441876915069 9.846814112351858" fill="#ff6d0a" stroke="none" /><path d="M 100.72285384407766 79.0124445844662 l 0.3220607580252255 -9.35080868920032 a30.35635325721961,30.35635325721961 0 0,0 0.5220702511463257,0.022481443218306207 l -0.4829718415608827 9.34387951945782" fill="#ff6609" stroke="none" /><path d="M 101.08401301168833 79.027996857942 l 1.5576735527660057 -30.135740337683096 a51.17597044996642,51.17597044996642 0 0,0 0.8793443964671641,0.05304445538028274 l -2.076179998072782 30.104462612922507" fill="#92ff23" stroke="none" /><path d="M 101.44485096284872 79.0497635885617 l 2.038122876002314 -29.552637044046342 a50.62283411685695,50.62283411685695 0 0,0 0.8688079075237156,0.06743621484266316 l -2.546520972888371 29.513175567015214" fill="#99ff23" stroke="none" /><path d="M 101.80526077348638 79.07773832637324 l 1.219296646935872 -14.131168127971591 a35.18367360644728,35.18367360644728 0 0,0 0.6029390508389783,0.05725632797409675 l -1.4623608248650943 14.108086255482316" fill="#ffa80f" stroke="none" /><path d="M 102.16513564639614 79.11191278185805 l 1.4747641875674176 -14.227747359559382 a35.3039758226998,35.3039758226998 0 0,0 0.6039220768572099,0.0678576820371542 l -1.7194529679343526 14.200253724051626" fill="#ffaa0f" stroke="none" /><path d="M 102.52436894288641 79.15227682838746 l 3.3789076706647094 -27.90500649239918 a49.10883143049026,49.10883143049026 0 0,0 0.8383234651438916,0.10883844582022686 l -3.858745864316447 27.842709723414817" fill="#aaff21" stroke="none" /><path d="M 103.2404852339499 79.25152402106235 l 2.2225941972655194 -14.231029917910975 a35.40354600402955,35.40354600402955 0 0,0 0.6013052789883845,0.09922052321552652 l -2.467228682392779 14.190663131755825" fill="#ffab0f" stroke="none" /><path d="M 103.59715602781102 79.31037775812273 l 4.911434599879554 -28.24890712317243 a49.67268636668905,49.67268636668905 0 0,0 0.8411356961866688,0.15371217207404858 l -5.396965417169124 28.160179469747643" fill="#a3ff21" stroke="none" /><path d="M 103.95276090670814 79.375362276772 l 3.633991578516382 -18.96136942382894 a40.306460711887176,40.306460711887176 0 0,0 0.680283980561258,0.1364585667211718 l -3.9598419685447652 18.896006901030564" fill="#ffea16" stroke="none" /><path d="M 104.307194497241 79.44645832069477 l 2.9499509390774845 -14.076898458398563 a35.382672934855606,35.382672934855606 0 0,0 0.5950308755162048,0.1300507024694963 l -3.1918245387472175 14.024034257833197" fill="#ffab0f" stroke="none" /><path d="M 104.66035177308747 79.52364482259891 l 3.2456267193915243 -14.260426833722734 a35.62511081262592,35.62511081262592 0 0,0 0.5967652444389088,0.14123505264693564 l -3.4906156507929564 14.20244586893493" fill="#ffae10" stroke="none" /><path d="M 105.01212808612495 79.60689891045804 l 7.680673944309825 -31.250749679707287 a53.180772330423096,53.180772330423096 0 0,0 0.8870834209625037,0.22613731573963608 l -8.217466253957353 31.11390936779878" fill="#7cff26" stroke="none" /><path d="M 105.71112130821622 79.79150937346287 l 3.335463607824706 -11.80235568747429 a33.264620550705175,33.264620550705175 0 0,0 0.5496737492768102,0.1604648404605558 l -3.538127574824943 11.743192518095029" fill="#ff8e0d" stroke="none" /><path d="M 106.0581310904928 79.89281104454417 l 6.192801432396959 -20.554165419139895 a42.46682337139019,42.46682337139019 0 0,0 0.6981032667768678,0.21690408318014928 l -6.545690071884545 20.444521201077226" fill="#f9ff18" stroke="none" /><path d="M 106.40334571778207 80.00007090966166 l 10.919360115777023 -34.1050503365687 a56.810429818670244,56.810429818670244 0 0,0 0.9287617348829085,0.3061981416384438 l -11.504804672902349 33.91203847067102" fill="#56ff2b" stroke="none" /><path d="M 107.08798089147638 80.2323363322302 l 4.765465191710546 -13.29040167750459 a35.118938885157824,35.118938885157824 0 0,0 0.5672840366646792,0.2089354982105244 l -4.993531554147802 13.206402911487741" fill="#ffa70f" stroke="none" /><path d="M 107.4271985657038 80.35727306442388 l 5.031440693905592 -13.306661289399345 a35.22612491605104,35.22612491605104 0 0,0 0.5653236727873282,0.21933680221127014 l -5.259747531692587 13.21808178329753" fill="#ffa90f" stroke="none" /><path d="M 108.09893153111575 80.62456947434976 l 5.519348409593279 -13.204180236130505 a35.31130960376091,35.31130960376091 0 0,0 0.5587867483345037,0.23924332374643523 l -5.7458189157180986 13.10721738442128" fill="#ffaa0f" stroke="none" /><path d="M 108.43124777332544 80.76684994638697 l 2.5122740175077416 -5.730936209393572 a27.257407656145062,27.257407656145062 0 0,0 0.42809430710653,0.19207343694916748 l -2.6105504430810518 5.6868424419278725" fill="#ff3a05" stroke="none" /><path d="M 108.76106565485865 80.91482961587045 l 5.316066366128136 -11.580558389564178 a33.74244459368704,33.74244459368704 0 0,0 0.5257744321462134,0.24685814575808798 l -5.514619009573947 11.487335261166088" fill="#ff950d" stroke="none" /><path d="M 109.08828744355905 81.06846463323043 l 6.538806137195982 -13.620788340107614 a36.10899932840833,36.10899932840833 0 0,0 0.5580194191223583,0.2738177055116116 l -6.772296823328772 13.506215474461172" fill="#ffb410" stroke="none" /><path d="M 109.41281617654863 81.2277094730956 l 6.924646635185601 -13.810051741552098 a36.44889187374076,36.44889187374076 0 0,0 0.5584308904470249,0.2860499916604255 l -7.161338013221382 13.68880922457917" fill="#ffb911" stroke="none" /><path d="M 110.05341064243156 81.56283822128135 l 6.803978177768672 -12.477959059280153 a35.21244459368704,35.21244459368704 0 0,0 0.5296553815253041,0.29475264637311754 l -7.017757648366011 12.358991015346856" fill="#ffa80f" stroke="none" /><line stroke="#e1ed5e" stroke-width="0.3" x1="143.23703022742887" x2="145.7803849466894" y1="26.81831364943548" y2="22.513508569990506" /><path d="M 143.74570117128098 25.957352633546492 a86.0,86.0 0 0,1 28.547481713284135,27.462654790039103" fill="none" id="id62" stroke="none" /><text fill="#e1ed5e" style="font-size:6.75px; font-family:Arial;" text-anchor="middle"><textPath startOffset="19.985693538727396" xlink:href="#id62">February</textPath></text><path d="M 112.19680574252982 82.90503203632743 l 4.100551346346829 -5.7473075638781 a28.06017461383479,28.06017461383479 0 0,0 0.3907775947498335,0.2839165415773967 l -4.198874257450451 5.675871787484028" fill="#ff4606" stroke="none" /><path d="M 112.48926042617603 83.11751280151076 l 8.405297429866351 -11.361947898996691 a35.13304231027535,35.13304231027535 0 0,0 0.4830857665362607,0.36385018393685936 l -8.599629350160996 11.215581125553983" fill="#ffa70f" stroke="none" /><path d="M 112.77801427241765 83.33499621200491 l 3.4635369780710303 -4.517122584845414 a26.69214237743452,26.69214237743452 0 0,0 0.3622091243151526,0.28270996679390603 l -3.540778657545613 4.456834228828285" fill="#ff3204" stroke="none" /><path d="M 113.06298171725822 83.55741782278167 l 37.37907736918877 -47.049637261567554 a81.09046339825386,81.09046339825386 0 0,0 1.0854406509561754,0.8776841857356842 l -38.18342141870944 46.399246978567746" fill="#49edff" stroke="none" /><path d="M 114.16331599549186 84.49514656593476 l 5.89779882461032 -6.4564333937258604 a29.744687709872395,29.744687709872395 0 0,0 0.37505518116945347,0.3485729159067429 l -6.00806188957462 6.353955891744477" fill="#ff5e08" stroke="none" /><path d="M 114.42810811169701 84.74124197986012 l 6.358057366401012 -6.724101183676952 a30.254103425117528,30.254103425117528 0 0,0 0.37531909008219266,0.361056667294144 l -6.472859700095624 6.613661429620506" fill="#ff6509" stroke="none" /><path d="M 114.68862486808459 84.99185889309783 l 14.817162666627999 -15.1394749407658 a42.18376762928139,42.18376762928139 0 0,0 0.5145700514610699,0.5123603241302722 l -15.075568518256391 14.882178765985408" fill="#fcff18" stroke="none" /><path d="M 115.19652480421416 85.50635884689758 l 12.031279537069109 -11.474797723133856 a37.6259637340497,37.6259637340497 0 0,0 0.44296989416244514,0.4725293979098138 l -12.227016753202017 11.265998908345987" fill="#ffc812" stroke="none" /><path d="M 115.4437574822437 85.77008943001954 l 12.465985304169706 -11.486185032947965 a37.95090664875755,37.95090664875755 0 0,0 0.4385251829861045,0.4842304598632441 l -12.661854127771846 11.269901785815172" fill="#ffcc13" stroke="none" /><path d="M 115.68641384162765 86.03803664274999 l 19.523738382804872 -17.377440290009126 a47.13717259905977,47.13717259905977 0 0,0 0.5342395526910254,0.6107281613705156 l -19.819969799073746 17.03879657243566" fill="#c1ff1e" stroke="none" /><path d="M 116.15771136456269 86.58626213691792 l 11.555639242527075 -9.593209839084015 a36.01873740765615,36.01873740765615 0 0,0 0.3919207529120614,0.4804485018387315 l -11.719058487515545 9.392877167637183" fill="#ffb310" stroke="none" /><path d="M 116.38621287248628 86.86637796730983 l 33.020034737337205 -26.465703767016024 a63.31732706514439,63.31732706514439 0 0,0 0.6743172298008048,0.8563144038601975 l -33.47070604773197 25.893396969202787" fill="#33ff50" stroke="none" /><path d="M 116.60985879189232 87.15038557335679 l 16.761790475401774 -12.96715085947792 a42.19208865010074,42.19208865010074 0 0,0 0.4394488057130541,0.5782631167083832 l -16.982515221338943 12.676702966888504" fill="#fcff18" stroke="none" /><path d="M 117.04232023915458 87.72973835380427 l 14.278236734953216 -10.28015540875029 a38.594022834116856,38.594022834116856 0 0,0 0.383527881737189,0.5424729898200457 l -14.453077236494288 10.03285591859845" fill="#ffd513" stroke="none" /><path d="M 117.2510076193507 88.02491185347247 l 14.714912543544203 -10.214613468706927 a38.912760241773,38.912760241773 0 0,0 0.377223140882067,0.5535284123536747 l -14.888560150095005 9.959807033082846" fill="#ffd914" stroke="none" /><path d="M 117.45458315368197 88.32363383020206 l 11.729386100452771 -7.846455332101959 a35.11188717259906,35.11188717259906 0 0,0 0.33172935971317,0.5052465734863552 l -11.862712095523866 7.64339069463793" fill="#ffa70f" stroke="none" /><path d="M 117.65298651832404 88.62581576622439 l 7.72155145694053 -4.975155266257929 a30.18556077904634,30.18556077904634 0 0,0 0.2776674921120088,0.4392032905287337 l -7.806046545298494 4.841504328014989" fill="#ff6409" stroke="none" /><line stroke="#e1ed5e" stroke-width="0.3" x1="172.23445277983987" x2="176.4835382374775" y1="55.19839476539836" y2="52.563006222186495" /><path d="M 173.08426987136738 54.67131705675599 a86.0,86.0 0 0,1 12.851231095245387,41.99856678651699" fill="none" id="id63" stroke="none" /><text fill="#e1ed5e" style="font-size:6.75px; font-family:Arial;" text-anchor="middle"><textPath startOffset="22.20632615414155" xlink:href="#id63">March</textPath></text><path d="M 117.84615892207809 88.93136811851018 l 35.76351071453706 -22.181419352889677 a63.08377434519812,63.08377434519812 0 0,0 0.5644021230447398,0.9277286907395011 l -36.14002863586802 21.562522888943093" fill="#32ff4d" stroke="none" /><path d="M 118.03404312379186 89.2402003453031 l 12.18381891285487 -7.269332208620175 a35.18762256548019,35.18762256548019 0 0,0 0.30586476560561954,0.5228220319404983 l -12.307143352930815 7.0585307643257815" fill="#ffa80f" stroke="none" /><path d="M 118.21658344932153 89.55222093294921 l 8.863609609827705 -5.083556705223843 a31.21793149764943,31.21793149764943 0 0,0 0.26333419140308906,0.4684421428873967 l -8.949801442523228 4.930231052401652" fill="#ff720a" stroke="none" /><path d="M 118.3937258080291 89.86733742301442 l 12.371973276370307 -6.815423472618117 a35.12500335795836,35.12500335795836 0 0,0 0.2871751710231275,0.5320919775560857 l -12.487456546611899 6.601450511729573" fill="#ffa70f" stroke="none" /><path d="M 118.56541770881063 90.18545643968196 l 29.321639702791 -15.50078294152367 a54.16674278038953,54.16674278038953 0 0,0 0.42866674697824336,0.828047713276789 l -29.58411588292936 14.993762505986536" fill="#72ff27" stroke="none" /><path d="M 119.04729006885535 91.15688171328212 l 40.480927996908136 -18.794150419229734 a65.63099395567495,65.63099395567495 0 0,0 0.4669104015414484,1.0287751784775143 l -40.79844071541293 18.094553231910158" fill="#36ff6c" stroke="none" /><path d="M 119.196687751892 91.48605970444005 l 8.5685041058848 -3.800224982696475 a30.373418401611822,30.373418401611822 0 0,0 0.20785439991175683,0.47975661264969816 l -8.632649215639239 3.6521692254601743" fill="#ff6609" stroke="none" /><path d="M 119.47837535516314 92.15188598940014 l 19.98528404892577 -8.052354721083896 a42.54650772330423,42.54650772330423 0 0,0 0.267853464334708,0.6816578505578526 l -20.120931063142176 7.707147865630259" fill="#f8ff18" stroke="none" /><path d="M 119.61058180528143 92.48833698450437 l 17.030519363606057 -6.5233925086214954 a39.23713901947616,39.23713901947616 0 0,0 0.23616163487550598,0.6327957692885775 l -17.14028558698319 6.229273602303584" fill="#ffdd14" stroke="none" /><path d="M 119.7369772167798 92.82701384747503 l 9.279958193060807 -3.372604167483365 a30.873807924781733,30.873807924781733 0 0,0 0.17722582995248215,0.5010412867625911 l -9.336637103823099 3.212365254294159" fill="#ff6d0a" stroke="none" /><path d="M 119.85752413597 93.16781622104841 l 11.031661494475744 -3.7955556896902283 a32.66635325721961,32.66635325721961 0 0,0 0.1783624984323883,0.5332811679055315 l -11.095361286679902 3.6051014188623824" fill="#ff860c" stroke="none" /><path d="M 119.97218684219823 93.5106431181261 l 22.420087512917622 -7.28472802421237 a44.57387508394896,44.57387508394896 0 0,0 0.2308173563133542,0.7317540960438566 l -22.54216035299918 6.897723761742094" fill="#dfff1b" stroke="none" /><path d="M 120.08093135843002 93.85539295169968 l 20.240068356435042 -6.193301717991347 a42.16642041638684,42.16642041638684 0 0,0 0.20640282660539458,0.6958877229719443 l -20.34367708015214 5.843984608272873" fill="#fcff18" stroke="none" /><path d="M 120.18372546131832 94.20196356495316 l 10.068818853369542 -2.8923985654484876 a31.476024177300204,31.476024177300204 0 0,0 0.14510931192074605,0.5220354016316878 l -10.117114935856652 2.7186518603978476" fill="#ff760a" stroke="none" /><path d="M 120.28053869075195 94.5502522615342 l 9.97955050283006 -2.6816858079072468 a31.333579583613165,31.333579583613165 0 0,0 0.13548590294408902,0.5220824522217052 l -10.024232737644452 2.5095069301366912" fill="#ff740a" stroke="none" /><path d="M 120.37134235888165 94.90015583598534 l 19.318708993473756 -4.836323673766637 a40.914882471457354,40.914882471457354 0 0,0 0.16515428641729157,0.6846711402566577 l -19.399096080151867 4.503067301850574" fill="#fff216" stroke="none" /><path d="M 120.53481517161879 95.60439243477599 l 8.496365971075157 -1.8187010804454087 a29.688838146406987,29.688838146406987 0 0,0 0.10266782522179874,0.5006447775174783 l -8.526413092211953 1.6721806467645186" fill="#ff5d08" stroke="none" /><path d="M 120.6074358757038 95.95851677861258 l 11.085665638978332 -2.1740954065354803 a32.29684351914036,32.29684351914036 0 0,0 0.10229529365105589,0.5464655491005582 l -11.121446656539247 1.9829517799723595" fill="#ff810b" stroke="none" /><path d="M 120.67395015179393 96.31383870115 l 60.88138150610824 -10.855138504281651 a82.84154466084621,82.84154466084621 0 0,0 0.2382212700408481,1.405995420713991 l -61.059214637669314 9.805557295251823" fill="#4cddff" stroke="none" /><path d="M 120.78858239683441 97.02765380044208 l 8.421400279346239 -1.204089660249387 a29.50704499664204,29.50704499664204 0 0,0 0.06756270378185741,0.5034206191509267 l -8.440878982185932 1.0589506990337958" fill="#ff5a08" stroke="none" /><path d="M 120.83666639777658 97.38593545837742 l 8.481460803914308 -1.0640418925668418 a29.547944929482874,29.547944929482874 0 0,0 0.05896875911733439,0.5052083165030116 l -8.498519916035232 0.9178898377389775" fill="#ff5b08" stroke="none" /><path d="M 120.87857604477298 97.74499172005257 l 9.140862138070862 -0.9872665531885355 a30.194022834116858,30.194022834116858 0 0,0 0.05136272775481305,0.517215659042898 l -9.156501991507904 0.8297753634412025" fill="#ff6409" stroke="none" /><path d="M 120.91429891909075 98.10471618934814 l 9.130517133885121 -0.8274205783171553 a30.167931497649427,30.167931497649427 0 0,0 0.04241541664601058,0.5175755173920229 l -9.143407034350627 0.6701311437173636" fill="#ff6309" stroke="none" /><path d="M 120.94382443527127 98.46500227214037 l 29.86429015511615 -2.188789238275066 a50.9443922095366,50.9443922095366 0 0,0 0.05657110085550725,0.8751298912727912 l -29.897541846976075 1.6744002827492397" fill="#95ff23" stroke="none" /><path d="M 120.96714384426684 98.82574320788733 l 22.61297310720701 -1.2664308242564752 a43.64840832773673,43.64840832773673 0 0,0 0.035555560611360934,0.7505216886061856 l -22.63142227605187 0.87699802902729" fill="#eaff1a" stroke="none" /><line stroke="#e1ed5e" stroke-width="0.3" x1="184.98032266829074" x2="189.97916517819016" y1="98.17113171792111" y2="98.06355123074" /><path d="M 185.9800911702706 98.14961562048488 a86.0,86.0 0 0,1 -9.607161424134198,41.387399972396054" fill="none" id="id64" stroke="none" /><text fill="#e1ed5e" style="font-size:6.75px; font-family:Arial;" text-anchor="middle"><textPath startOffset="21.466115282336823" xlink:href="#id64">April</textPath></text><path d="M 120.99513854157772 99.54816195383933 l 12.002479369205634 -0.2583063129841134 a33.00525856279382,33.00525856279382 0 0,0 0.00733501460907222,0.5681049649423527 l -12.005147390932423 0.051665089981297874" fill="#ff8b0c" stroke="none" /><path d="M 120.99980553446 99.90962569577887 l 30.29260732405773 -0.1303666029413079 a51.29288784419073,51.29288784419073 0 0,0 -0.003799832602305974,0.8829472757731611 l -30.29036319416592 -0.39109015103553796" fill="#91ff24" stroke="none" /><path d="M 120.9904718944345 100.63252640178507 l 42.539045053006454 1.2818706143469514 a63.55835460040296,63.55835460040296 0 0,0 -0.0423657811377409,1.0932725630484552 l -42.51067713901752 -2.013920424409413" fill="#33ff53" stroke="none" /><path d="M 120.95626037817324 101.35467743843564 l 53.505315701612616 3.4587489709206016 a74.61699126930826,74.61699126930826 0 0,0 -0.0938875091165807,1.2810204679224564 l -53.4378516338317 -4.379242575339828" fill="#41ffd0" stroke="none" /><path d="M 120.89721153311464 102.0752229133903 l 14.04772591274084 1.3950264440282212 a35.1168233713902,35.1168233713902 0 0,0 -0.06491210770816377,0.6010054992095122 l -14.021631503531625 -1.6366282651225248" fill="#ffa70f" stroke="none" /><path d="M 120.8583938346157 102.4346265915055 l 28.706977379047185 3.350726381088253 a49.90186702484889,49.90186702484889 0 0,0 -0.10692898580393702,0.8523292252249807 l -28.6450468839964 -3.8443733606006285" fill="#a1ff22" stroke="none" /><path d="M 120.81339534386255 102.79330883721812 l 9.307878996322787 1.249184970863109 a30.39132975151108,30.39132975151108 0 0,0 -0.07404767750492675,0.5178892840054639 l -9.28499726780126 -1.4092197268489823" fill="#ff6709" stroke="none" /><path d="M 120.70491114924044 103.5080841355445 l 23.67826988063203 4.011867635009563 a45.015735392881126,45.015735392881126 0 0,0 -0.1360194553045717,0.7628693403943531 l -23.60570398298827 -4.418855726137134" fill="#daff1c" stroke="none" /><path d="M 120.64145759157962 103.86396538481128 l 20.779668022867774 3.889837604345579 a42.14061114842176,42.14061114842176 0 0,0 -0.13960595914486562,0.7118477779938164 l -20.709632130747245 -4.24694910940734" fill="#fdff18" stroke="none" /><path d="M 120.49622156327973 104.57218783832717 l 11.765712143192316 2.624632340369474 a33.054902619207525,33.054902619207525 0 0,0 -0.12866138253879572,0.554269868595904 l -11.718790194722967 -2.826770866313943" fill="#ff8b0c" stroke="none" /><path d="M 120.41448212921028 104.9243191809786 l 27.14180119647752 6.547062589791619 a48.92026863666891,48.92026863666891 0 0,0 -0.20450695656884374,0.8169036333371663 l -27.025082925613614 -7.013294062526181" fill="#acff21" stroke="none" /><path d="M 120.13307415673323 105.97154293290107 l 28.52446915499394 8.460461173054021 a50.75272666218939,50.75272666218939 0 0,0 -0.2556323668178011,0.8354213655503302 l -28.374610015670008 -8.950209511156409" fill="#97ff23" stroke="none" /><path d="M 120.02730092923936 106.31721596034902 l 29.667036708947784 9.357879948785648 a52.107924781732706,52.107924781732706 0 0,0 -0.27718376102771813,0.8530838980873338 l -29.50156069690382 -9.867162746850777" fill="#88ff25" stroke="none" /><path d="M 119.79798401119884 107.00284435728193 l 9.599828378835166 3.39560350970957 a31.18267293485561,31.18267293485561 0 0,0 -0.18334778973636245,0.5044943726121183 l -9.539956328093577 -3.560345679327819" fill="#ff720a" stroke="none" /><path d="M 119.67450827220406 107.3425965602758 l 12.389126387687504 4.623666093224574 a34.22379449294829,34.22379449294829 0 0,0 -0.21073011437878353,0.5501498321126179 l -12.307701993715213 -4.8362394921703356" fill="#ff9b0e" stroke="none" /><path d="M 119.54520255179757 107.68017299344265 l 13.327229114063174 5.236856709363545 a35.319207521826726,35.319207521826726 0 0,0 -0.22721583822378244,0.5639310766361598 l -13.235110661582 -5.465487153842519" fill="#ffaa0f" stroke="none" /><path d="M 119.26925614724726 108.34839909993367 l 40.12767593108416 17.385302840211097 a64.7319006044325,64.7319006044325 0 0,0 -0.45176367313660415,1.0186078207964149 l -39.822471173216286 -18.0734589975002" fill="#35ff61" stroke="none" /><path d="M 119.12269723197855 108.67885076344098 l 8.376486260970907 3.8016746957332073 a30.198817998656814,30.198817998656814 0 0,0 -0.21890603051570148,0.471504114936116 l -8.309805613615374 -3.945298877948154" fill="#ff6409" stroke="none" /><path d="M 118.81262510543309 109.33194174019688 l 12.924488232272559 6.4111505188393565 a35.427239758227,35.427239758227 0 0,0 -0.2756936498614397,0.5439697262399598 l -12.812215912624849 -6.63267445678201" fill="#ffab0f" stroke="none" /><path d="M 118.64920377521936 109.65438752849418 l 21.523610938693395 11.142421066297686 a45.2367360644728,45.2367360644728 0 0,0 -0.36393490924691435,0.6884276958436697 l -21.328623521221587 -11.511263777227489" fill="#d7ff1c" stroke="none" /><line stroke="#e1ed5e" stroke-width="0.3" x1="174.80103733775053" x2="179.2010983576182" y1="140.37084112569926" y2="142.7455964860345" /><path d="M 175.68104954172406 140.8457921977663 a86.0,86.0 0 0,1 -30.038265399797805,32.042727171017184" fill="none" id="id65" stroke="none" /><text fill="#e1ed5e" style="font-size:6.75px; font-family:Arial;" text-anchor="middle"><textPath startOffset="22.206326154141568" xlink:href="#id65">May</textPath></text><path d="M 118.48025628344425 109.97397251340804 l 31.64356038970414 17.078334667686477 a56.958092679650775,56.958092679650775 0 0,0 -0.473087382665637,0.8587910170575047 l -31.344896597586995 -17.620496203141787" fill="#54ff2b" stroke="none" /><path d="M 118.12598468904814 110.60418214915192 l 26.077436629302916 15.255992584346389 a51.21221625251847,51.21221625251847 0 0,0 -0.4516896118021185,0.7570577705182792 l -25.81096614180257 -15.702612448750772" fill="#92ff23" stroke="none" /><path d="M 117.94076556474637 110.91462005526583 l 25.404196332893335 15.455145979264014 a50.7360846205507,50.7360846205507 0 0,0 -0.4603341983339692,0.7422053013140524 l -25.134397494891402 -15.890147611943341" fill="#97ff23" stroke="none" /><path d="M 117.75023020441432 111.22182372390056 l 20.751318487800027 13.119133409926047 a45.55053727333781,45.55053727333781 0 0,0 -0.4246939842229494,0.6591344947304817 l -20.52241964020003 -13.474389504577982" fill="#d3ff1c" stroke="none" /><path d="M 117.55443506779139 111.5257021239791 l 7.6579307203724465 5.027961767395477 a30.161020819341843,30.161020819341843 0 0,0 -0.28867959630144285,0.4315368279086835 l -7.5702480186602825 -5.159035509509968" fill="#ff6309" stroke="none" /><path d="M 117.14729908036423 112.12312394758627 l 20.58528072405258 14.553773661026439 a46.210436534586975,46.210436534586975 0 0,0 -0.46478942853569,0.6455518646038622 l -20.33171150314129 -14.905959131081433" fill="#cbff1d" stroke="none" /><path d="M 116.93607887273984 112.41649034213515 l 11.43441241824403 8.383007213531535 a35.17817327065144,35.17817327065144 0 0,0 -0.36223255371553514,0.48526970089987614 l -11.288418597833402 -8.578589793940726" fill="#ffa80f" stroke="none" /><path d="M 116.498646956653 112.99209946851258 l 23.583757650738043 18.57137291589403 a51.018153122901275,51.018153122901275 0 0,0 -0.549251932434795,0.6852762370577771 l -23.26058780624839 -18.97457698653006" fill="#94ff23" stroke="none" /><path d="M 116.27256486870786 113.27417163493432 l 11.091681841637111 9.047921435489515 a35.31398925453324,35.31398925453324 0 0,0 -0.3882924465994358,0.4677232655977949 l -10.934293395144133 -9.237505958201082" fill="#ffaa0f" stroke="none" /><path d="M 116.0416608686014 113.55231037782055 l 7.97234992798189 6.735197904356754 a31.43653458697112,31.43653458697112 0 0,0 -0.35277404040747756,0.41035590729949906 l -7.855233378003633 -6.871430910817781" fill="#ff750a" stroke="none" /><path d="M 115.80600337817218 113.82643327865902 l 14.509889870801574 12.692647178374086 a40.27797179314976,40.27797179314976 0 0,0 -0.46097400355225693,0.5179091797428202 l -14.289257017600978 -12.940530527857774" fill="#ffea16" stroke="none" /><path d="M 115.56566222782051 114.09645910891815 l 10.766336822318568 9.75012977587294 a35.525117528542644,35.525117528542644 0 0,0 -0.41438119738050766,0.44972894847610323 l -10.596909216942338 -9.934009979150378" fill="#ffac10" stroke="none" /><path d="M 115.32070863581623 114.36230785411682 l 8.527738963978841 7.994278542304917 a32.688918737407654,32.688918737407654 0 0,0 -0.3883652889280296,0.4071994527770752 l -8.388867123671847 -8.1398851116645" fill="#ff860c" stroke="none" /><path d="M 115.07121518719521 114.62390073753431 l 30.36814434260696 29.466816240983352 a63.31450638012089,63.31450638012089 0 0,0 -0.7656815459625145,0.7756313635813312 l -29.85642217158891 -29.985188098545347" fill="#33ff50" stroke="none" /><path d="M 114.81725581225074 114.88116024355365 l 14.99866519670831 15.063352017388425 a42.25710543989254,42.25710543989254 0 0,0 -0.5198631048979677,0.508795464822231 l -14.73715213943455 -15.319297585133228" fill="#fbff18" stroke="none" /><path d="M 114.29624159901734 115.38237550388516 l 8.204256847790678 8.827562033626508 a33.05137676292814,33.05137676292814 0 0,0 -0.4200679689888545,0.3837221299559052 l -8.05108932933496 -8.967476930168997" fill="#ff8b0c" stroke="none" /><path d="M 114.0293411484842 115.62618273729858 l 19.28869523114631 21.484164741301303 a49.87253190060443,49.87253190060443 0 0,0 -0.6437300548366182,0.5680169281832318 l -18.916022823403104 -21.81300481125682" fill="#a1ff22" stroke="none" /><path d="M 113.75828350139079 115.86535959552629 l 9.448956262049867 10.896060463114232 a35.42244459368704,35.42244459368704 0 0,0 -0.4640922577028587,0.39550949028088805 l -9.25999852776996 -11.057094343618067" fill="#ffab0f" stroke="none" /><path d="M 113.20401910651253 116.32954008644616 l 20.786353919825853 25.706688005127013 a54.05913364674278,54.05913364674278 0 0,0 -0.7286206061381849,0.5788602759722309 l -20.340775820970315 -26.06068219510437" fill="#73ff27" stroke="none" /><path d="M 112.92097659922987 116.55440617244103 l 18.366356878308952 23.531048859701077 a50.850181329751514,50.850181329751514 0 0,0 -0.6946407702096297,0.5326209215947453 l -17.958587379605827 -23.843709123123194" fill="#96ff23" stroke="none" /><path d="M 112.34349029814194 116.9893568818739 l 7.2096262674909655 9.92319924792863 a33.26574882471458,33.26574882471458 0 0,0 -0.4661524189407898,0.33258737379989256 l -7.037746520701291 -10.045830883572743" fill="#ff8e0d" stroke="none" /><path d="M 112.04921762599082 117.19931262002967 l 10.447780306861485 14.913386516937752 a39.2089321692411,39.2089321692411 0 0,0 -0.5561005003760391,0.38249099495372857 l -10.189522921862563 -15.091018301256575" fill="#ffdc14" stroke="none" /><path d="M 111.45004920935366 117.60387380957326 l 6.730921808891445 10.34845317948796 a33.34486903962391,33.34486903962391 0 0,0 -0.48384706689215706,0.3088140905222166 l -6.551792939952358 -10.462781698833986" fill="#ff8f0d" stroke="none" /><path d="M 111.1453310114006 117.79835938074945 l 15.821280160374378 25.265542124304982 a50.81040967092008,50.81040967092008 0 0,0 -0.7452696685049506,0.4578055007101425 l -15.384031291937118 -25.534136091843504" fill="#97ff23" stroke="none" /><line stroke="#e1ed5e" stroke-width="0.3" x1="143.8653032363475" x2="146.44561519142675" y1="172.8068346515853" y2="177.08958963109032" /><path d="M 144.38136562736335 173.6633856474863 a86.0,86.0 0 0,1 -40.68145358897372,12.25698825130547" fill="none" id="id66" stroke="none" /><text fill="#e1ed5e" style="font-size:6.75px; font-family:Arial;" text-anchor="middle"><textPath startOffset="21.466115282336833" xlink:href="#id66">June</textPath></text><path d="M 110.5260780823613 118.17145234162733 l 19.792420023502448 34.168188224370844 a60.486769644056416,60.486769644056416 0 0,0 -0.9054328867886914,0.5141284234654113 l -19.20133836979256 -34.503819813630884" fill="#31ff2f" stroke="none" /><path d="M 109.89434966115114 118.52300852407294 l 4.988107801638493 9.338134035379843 a31.586877098723978,31.586877098723978 0 0,0 -0.48178876645232294,0.2520491118645236 l -4.826628132659674 -9.422612566189082" fill="#ff770b" stroke="none" /><path d="M 109.57404056367764 118.69057910512821 l 13.77588056902196 26.893471341132397 a51.21644728005373,51.21644728005373 0 0,0 -0.7881140381391082,0.39517673970200035 l -13.31091262320009 -27.1266159217437" fill="#92ff23" stroke="none" /><path d="M 108.92500713936063 119.00905698771935 l 13.379718560430351 28.496989259897333 a52.48166554734721,52.48166554734721 0 0,0 -0.8210431794159024,0.3769006540448908 l -12.887207385247029 -28.723076984276297" fill="#84ff25" stroke="none" /><path d="M 108.59647513512805 119.15986991738527 l 4.342172541223073 9.67785746377746 a31.607327065144393,31.607327065144393 0 0,0 -0.49831107240951067,0.21844493013180993 l -4.174940794155809 -9.751166947203725" fill="#ff770b" stroke="none" /><path d="M 108.2653958097858 119.30500536409082 l 4.447104901982402 10.38684486056932 a32.298817998656816,32.298817998656816 0 0,0 -0.5129798870023401,0.21442563437087886 l -4.2676535554826005 -10.461855537960172" fill="#ff810b" stroke="none" /><path d="M 107.93186726928326 119.44442032107085 l 5.327508701148548 13.060016630693719 a35.10483546004029,35.10483546004029 0 0,0 -0.5614749695259843,0.2234224778971483 l -5.101912655580698 -13.149785952996936" fill="#ffa70f" stroke="none" /><path d="M 107.59598834532513 119.57807347666477 l 8.916537400443236 22.981686707134514 a45.650812625923436,45.650812625923436 0 0,0 -0.7350428188246453,0.2779302989656486 l -8.519624360858316 -23.131765256206794" fill="#d2ff1c" stroke="none" /><path d="M 106.57524785965236 119.94407469862006 l 11.208832533348286 33.998686909004235 a56.798723975822696,56.798723975822696 0 0,0 -0.9311708709974854,0.2981315074864766 l -10.62194031725986 -34.18659126315041" fill="#56ff2a" stroke="none" /><path d="M 106.2309692047433 120.05430185196036 l 4.195630855647908 13.503589068376424 a35.14037609133647,35.14037609133647 0 0,0 -0.5791887415615814,0.17450481667480996 l -3.9625671396460804 -13.573809254156961" fill="#ffa70f" stroke="none" /><path d="M 105.88484417918355 120.15858648285463 l 3.441586508551402 11.789185432686244 a33.28126259234386,33.28126259234386 0 0,0 -0.5513101877144065,0.15580576593671108 l -3.2381451527323897 -11.846679991961473" fill="#ff8e0d" stroke="none" /><path d="M 105.18746579009965 120.34920634021253 l 7.945985207561647 31.170228220790285 a53.1670920080591,53.1670920080591 0 0,0 -0.8887682385326009,0.21843760940750162 l -7.408263684285835 -31.302387088511814" fill="#7dff26" stroke="none" /><path d="M 104.13013068566511 120.58985236759428 l 7.093617337488208 35.36365913021195 a57.068099395567494,57.068099395567494 0 0,0 -0.9648106409651145,0.18490825560964308 l -6.483839081951389 -35.480524584170055" fill="#53ff2b" stroke="none" /><path d="M 103.7750983002368 120.6578951692458 l 2.565368176692154 14.038073355944508 a35.27055070517126,35.27055070517126 0 0,0 -0.5981734719235218,0.10400012552433964 l -2.3233457332965823 -14.080152059989855" fill="#ffa90f" stroke="none" /><path d="M 103.41894727170886 120.7198165907248 l 2.306354323081239 13.977179163568517 a35.166185359301544,35.166185359301544 0 0,0 -0.5981000106684641,0.09341092111844132 l -2.0654184488042575 -14.014808392034064" fill="#ffa80f" stroke="none" /><path d="M 103.06178313531738 120.77559828337769 l 1.500664427236146 10.182694175425814 a31.292679650772328,31.292679650772328 0 0,0 -0.5335720899091071,0.0739482297414462 l -1.3251637461402084 -10.207016970659863" fill="#ff730a" stroke="none" /><path d="M 102.70371172650421 120.8252237178851 l 3.562925528965274 27.443281213564106 a48.67359973136334,48.67359973136334 0 0,0 -0.8317914364266669,0.100718359112395 l -3.090006669487227 -27.500545101401855" fill="#afff20" stroke="none" /><path d="M 101.98527174616119 120.90594882070398 l 1.2351616827694605 13.006897909671029 a34.06541302887844,34.06541302887844 0 0,0 -0.5842310509919947,0.05040991339564566 l -1.011086314035924 -13.02623207534534" fill="#ff990e" stroke="none" /><path d="M 101.62511606390274 120.93702456842531 l 2.0928962821624446 26.963625461660435 a48.04472800537273,48.04472800537273 0 0,0 -0.8250818127135634,0.056902472512305555 l -1.6284517086699506 -26.995656278689026" fill="#b6ff1f" stroke="none" /><path d="M 101.26447882468166 120.96189622390904 l 1.3787829548375738 22.856772806674748 a43.89832102081934,43.89832102081934 0 0,0 -0.7546579840538639,0.03900719776492302 l -0.9851369023702303 -22.877119811201872" fill="#e7ff1a" stroke="none" /><line stroke="#e1ed5e" stroke-width="0.3" x1="102.19456741930631" x2="102.32365962044197" y1="184.97166512339345" y2="189.96999836594603" /><path d="M 102.22038585953345 185.97133177190398 a86.0,86.0 0 0,1 -42.740103519485714,-10.115201625700543" fill="none" id="id67" stroke="none" /><text fill="#e1ed5e" style="font-size:6.75px; font-family:Arial;" text-anchor="middle"><textPath startOffset="22.20632615414155" xlink:href="#id67">July</textPath></text><path d="M 100.54218724476979 120.99299961872073 l 0.3741856658632213 14.488130468898458 a35.49296171927468,35.49296171927468 0 0,0 -0.6108850995448717,0.010516940987052529 l -0.12474087642568159 -14.49242488716467" fill="#ffac0f" stroke="none" /><path d="M 100.18074693466247 120.99922214144158 l 0.3102170928708504 36.04109611835142 a57.04243116185359,57.04243116185359 0 0,0 -0.981928055066587,0.0 l 0.3102170928708256 -36.04109611835142" fill="#53ff2b" stroke="none" /><path d="M 99.45781275523022 120.99299961872073 l -0.3277155945552734 12.688851347782848 a33.693082605775686,33.693082605775686 0 0,0 -0.5796488111815162,-0.01996427707190191 l 0.5460847574114327 -12.681330272284852" fill="#ff940d" stroke="none" /><path d="M 99.09653310690486 120.98055641714683 l -0.6084597719246497 14.129819996719165 a35.14291470785762,35.14291470785762 0 0,0 -0.6041434057268423,-0.031227313304194305 l 0.851591246064981 -14.11725287665277" fill="#ffa70f" stroke="none" /><path d="M 98.73552117531835 120.96189622390904 l -1.7936237243855668 29.733795174290304 a50.78784419073203,50.78784419073203 0 0,0 -0.8721899007112122,-0.06015132207011786 l 2.305176385875709 -29.6985155077039" fill="#97ff23" stroke="none" /><path d="M 97.65516085044442 120.86867818915974 l -1.5863490378138463 14.118242427031612 a35.20708529214238,35.20708529214238 0 0,0 -0.6016598774114602,-0.07285263221388587 l 1.8291363382766959 -14.088844266092377" fill="#ffa80f" stroke="none" /><path d="M 97.2962882734958 120.8252237178851 l -2.3613989429712383 18.18857417101088 a39.34122229684352,39.34122229684352 0 0,0 -0.6708079472506102,-0.09296786907299427 l 2.6741354814086797 -18.145231736445282" fill="#ffde14" stroke="none" /><path d="M 96.58105272829116 120.7198165907248 l -4.857936026027136 29.44050769710978 a50.83861652115514,50.83861652115514 0 0,0 -0.8622012172832113,-0.14990473338168506 l 5.363986214782397 -29.352524385207087" fill="#96ff23" stroke="none" /><path d="M 96.22490169976321 120.6578951692458 l -2.8121820245954687 15.388675165700096 a36.643519140362656,36.643519140362656 0 0,0 -0.6195064767090812,-0.1187298906991337 l 3.076656115876245 -15.337988076652495" fill="#ffbb11" stroke="none" /><path d="M 95.86986931433489 120.58985236759428 l -2.070612865580254 10.322582130563552 a31.52820685023506,31.52820685023506 0 0,0 -0.5311880375920792,-0.11131561792197259 l 2.24799236460172 -10.285410531915037" fill="#ff760a" stroke="none" /><path d="M 95.16358092515715 120.4354850818985 l -7.453834510088395 31.494939039955096 a53.364963062458024,53.364963062458024 0 0,0 -0.8920759520417042,-0.219250564911769 l 7.9948637468733095 -31.361967216729298" fill="#7aff26" stroke="none" /><path d="M 94.81253420990036 120.34920634021253 l -2.4407914926419134 9.574650075186637 a30.8808596373405,30.8808596373405 0 0,0 -0.5139597894022587,-0.1357414516889709 l 2.6052417248556616 -9.531217274194086" fill="#ff6d0a" stroke="none" /><path d="M 94.46302465271185 120.25689768951611 l -2.6077703636979424 9.54046824157412 a30.89044996642042,30.89044996642042 0 0,0 -0.5117059403115019,-0.1446132100245154 l 2.771607472114058 -9.494166238211083" fill="#ff6e0a" stroke="none" /><path d="M 94.11515582081647 120.15858648285463 l -8.347586256668183 28.594731543338995 a50.78826729348556,50.78826729348556 0 0,0 -0.8370995388139675,-0.2522112242124234 l 8.838560769922397 -28.446804950020844" fill="#97ff23" stroke="none" /><path d="M 93.08242187328487 119.8279376855182 l -4.826973588755552 13.835612663031164 a35.65345869711216,35.65345869711216 0 0,0 -0.5777225995487247,-0.20715076981261699 l 5.064415748934003 -13.750474352178589" fill="#ffae10" stroke="none" /><path d="M 92.7421414339146 119.70592522655815 l -9.366439517799895 25.430966323775607 a48.10100067159168,48.10100067159168 0 0,0 -0.7744943208711798,-0.29284748130880983 l 9.802804059431358 -25.265970592360166" fill="#b5ff1f" stroke="none" /><path d="M 92.40401165467489 119.57807347666478 l -4.465818775944299 11.510303090803975 a33.34627938213566,33.34627938213566 0 0,0 -0.5333482112799667,-0.21223026032092152 l 4.6632880632661236 -11.431725986076987" fill="#ff8f0d" stroke="none" /><path d="M 92.06813273071674 119.44442032107085 l -4.597712988662445 11.27097325662609 a33.172666218938886,33.172666218938886 0 0,0 -0.5268586165990725,-0.22022694446791208 l 4.79104306475898 -11.190161269138207" fill="#ff8d0d" stroke="none" /><path d="M 91.7346041902142 119.30500536409082 l -13.905737436597983 32.47882400106374 a56.33049026192075,56.33049026192075 0 0,0 -0.8880886053388231,-0.3893119460622085 l 14.462746716594548 -32.23464750170708" fill="#5bff2a" stroke="none" /><path d="M 91.40352486487194 119.15986991738527 l -9.087784761722677 20.25490344993698 a43.20020147750168,43.20020147750168 0 0,0 -0.6758404178407103,-0.3102451879514418 l 9.435093175330808 -20.095471191651463" fill="#f0ff19" stroke="none" /><path d="M 90.7491055286396 118.85261126421891 l -6.583107979753841 13.415867626303799 a35.94398925453324,35.94398925453324 0 0,0 -0.553102841423584,-0.2773372469164222 l 6.813064728860185 -13.300562538478074" fill="#ffb210" stroke="none" /><path d="M 90.42595943632237 118.69057910512821 l -12.84168825639823 25.069727729188763 a49.16736064472801,49.16736064472801 0 0,0 -0.7499406149174822,-0.39233348534246365 l 13.271319773842208 -24.84496482490158" fill="#a9ff21" stroke="none" /><line stroke="#e1ed5e" stroke-width="0.3" x1="58.666819895761336" x2="56.23545636021788" y1="174.27360380694188" y2="178.64263932499728" /><path d="M 58.180547188652646 175.14741091055294 a86.0,86.0 0 0,1 -31.652253787137756,-30.449443065178592" fill="none" id="id68" stroke="none" /><text fill="#e1ed5e" style="font-size:6.75px; font-family:Arial;" text-anchor="middle"><textPath startOffset="22.20632615414155" xlink:href="#id68">August</textPath></text><path d="M 89.7882731507175 118.34994917583269 l -10.655446612310415 19.14729082235813 a42.912491605104094,42.912491605104094 0 0,0 -0.6423616500260864,-0.3647497094940697 l 10.983457029257709 -18.96103794706943" fill="#f3ff19" stroke="none" /><path d="M 89.1626897886671 117.98757091392108 l -15.356373952243986 25.488230941089377 a50.75681665547347,50.75681665547347 0 0,0 -0.7444835845289551,-0.4573226237282404 l 15.79283673670525 -25.220119850532758" fill="#97ff23" stroke="none" /><path d="M 88.24862548938628 117.40417183066458 l -15.945249873233003 23.615439064254343 a49.49456010745467,49.49456010745467 0 0,0 -0.701981617934472,-0.48282935782546277 l 16.349388375790365 -23.337468917063777" fill="#a5ff21" stroke="none" /><path d="M 87.65650970185807 116.9893568818739 l -7.299653335750074 10.047110877033498 a33.41891202149093,33.41891202149093 0 0,0 -0.46247800503357067,-0.3421301718362649 l 7.471516311202209 -9.919970756457467" fill="#ff900d" stroke="none" /><path d="M 87.36589467227662 116.77436683061367 l -17.952308509261616 23.835372634570703 a50.839744795164535,50.839744795164535 0 0,0 -0.6944982015454995,-0.5325116060225283 l 18.359935439300603 -23.522821686720807" fill="#96ff23" stroke="none" /><path d="M 87.07902340077011 116.55440617244103 l -12.293584652873726 15.750589136667033 a40.98032236400269,40.98032236400269 0 0,0 -0.552341580531345,-0.43881355680006173 l 12.562883726122427 -15.536641665861842" fill="#fff316" stroke="none" /><path d="M 86.51685102203217 116.09983520530335 l -7.925175834121712 9.463221470808286 a33.343458697112155,33.343458697112155 0 0,0 -0.4368541246620262,-0.37229656238481923 l 8.086895435360795 -9.325400518200516" fill="#ff8f0d" stroke="none" /><path d="M 86.24171649860922 115.8653595955263 l -18.978207677643763 21.884713253216468 a49.9674479516454,49.9674479516454 0 0,0 -0.644955184430264,-0.569097962606249 l 19.352105214980615 -21.55479214883793" fill="#a0ff22" stroke="none" /><path d="M 85.70375840098266 115.38237550388516 l -6.971458042341496 7.501103326642722 a31.240496977837473,31.240496977837473 0 0,0 -0.39075043199523257,-0.36947892286372647 l 7.099544308727545 -7.379989767033065" fill="#ff720a" stroke="none" /><path d="M 85.44109423537348 115.13401014063109 l -20.6402066574184 21.455533946586034 a50.77176628609805,50.77176628609805 0 0,0 -0.6246137256180226,-0.6113159942799637 l 21.006470335412214 -21.0970678493835" fill="#97ff23" stroke="none" /><path d="M 84.67929136418377 114.36230785411682 l -11.193686316255526 10.493455147410137 a36.3431161853593,36.3431161853593 0 0,0 -0.42392270734439624,-0.4600843730707967 l 11.372655431595652 -10.299219519537996" fill="#ffb711" stroke="none" /><path d="M 84.43433777217949 114.09645910891817 l -7.697110207081423 6.970599625182302 a31.384351914036266,31.384351914036266 0 0,0 -0.3591881543838501,-0.4035516991777401 l 7.815957211113611 -6.837073756263698" fill="#ff740a" stroke="none" /><path d="M 84.19399662182784 113.82643327865904 l -19.514416595206722 17.070398668786325 a46.9270315648086,46.9270315648086 0 0,0 -0.526605071040745,-0.6125606676325602 l 19.805364175818244 -16.731960901992235" fill="#c3ff1e" stroke="none" /><path d="M 83.72743513129214 113.27417163493432 l -6.4795189460422336 5.285598631532949 a29.361920752182673,29.361920752182673 0 0,0 -0.3161049690349127,-0.3943895522319821 l 6.569541827132007 -5.173281245722707" fill="#ff5808" stroke="none" /><path d="M 83.50135304334701 112.99209946851258 l -33.26011990780687 26.191165088397312 a63.33453324378778,63.33453324378778 0 0,0 -0.6671031899143558,-0.8623207993792706 l 33.706029914939286 -25.61476629490479" fill="#33ff51" stroke="none" /><path d="M 83.28015986056508 112.70617746262583 l -9.295400178526279 7.064003200360173 a32.67495634654131,32.67495634654131 0 0,0 -0.3364567224366421,-0.4507387626756483 l 9.415618167658005 -6.902951558175217" fill="#ff860c" stroke="none" /><path d="M 83.06392112726016 112.41649034213515 l -9.417779252269026 6.90453593236259 a32.67763599731363,32.67763599731363 0 0,0 -0.32867509809651946,-0.456500964519619 l 9.535234142741153 -6.741401362391833" fill="#ff860c" stroke="none" /><path d="M 82.85270091963577 112.12312394758628 l -26.186194344419224 18.513614200414004 a53.069778374748154,53.069778374748154 0 0,0 -0.5209407605370091,-0.7504540191514375 l 26.500996012118367 -18.060118919075553" fill="#7eff26" stroke="none" /><path d="M 82.44556493220864 111.52570212397912 l -7.686578992511277 5.04677134171467 a30.195292142377433,30.195292142377433 0 0,0 -0.281528159542229,-0.43693795553000564 l 7.772312015430551 -4.913711786263216" fill="#ff6409" stroke="none" /><path d="M 82.24976979558568 111.22182372390057 l -11.930085884265763 7.542286452765594 a35.11428475486904,35.11428475486904 0 0,0 -0.3185958523129036,-0.5136779570562163 l 12.058146376246622 -7.335812164344113" fill="#ffa70f" stroke="none" /><path d="M 82.05923443525364 110.91462005526583 l -37.96478053590284 23.096626146499066 a65.4384822028207,65.4384822028207 0 0,0 -0.5771646842496804,-0.9673612092530781 l 38.35672609585075 -22.439702843359875" fill="#35ff6a" stroke="none" /><line stroke="#e1ed5e" stroke-width="0.3" x1="26.63291911575756" x2="22.317208475507996" y1="142.92168965132927" y2="145.44649492493687" /><path d="M 25.769776987707644 143.4266507060508 a86.0,86.0 0 0,1 -11.730757126820373,-40.83630448921669" fill="none" id="id69" stroke="none" /><text fill="#e1ed5e" style="font-size:6.75px; font-family:Arial;" text-anchor="middle"><textPath startOffset="21.46611528233685" xlink:href="#id69">September</textPath></text><path d="M 81.69416730710424 110.29060199501025 l -8.884168527329876 4.9942247318161215 a31.191699126930825,31.191699126930825 0 0,0 -0.25907467414415575,-0.4702957868976761 l 8.96881961092555 -4.840558426520622" fill="#ff720a" stroke="none" /><path d="M 81.51974371655577 109.97397251340807 l -8.495456968446998 4.585080043940781 a30.653794492948286,30.653794492948286 0 0,0 -0.2466134139511149,-0.4664996405038984 l 8.573122890622999 -4.438165388350757" fill="#ff6a09" stroke="none" /><path d="M 81.35079622478065 109.6543875284942 l -7.776555153817123 4.025795309900635 a29.75681665547347,29.75681665547347 0 0,0 -0.23156659813160232,-0.4569028668425151 l 7.844700421734991 -3.8913382313554354" fill="#ff5e08" stroke="none" /><path d="M 81.18737489456691 109.33194174019688 l -11.030591319375024 5.471689090460906 a33.31313633310947,33.31313633310947 0 0,0 -0.25039857533958154,-0.5158952308076826 l 11.123143151329323 -5.281004903687938" fill="#ff8f0d" stroke="none" /><path d="M 81.02952815118164 109.00673069616217 l -26.89628147752885 12.769717375868332 a50.773740765614505,50.773740765614505 0 0,0 -0.36805010202480853,-0.792747176487236 l 27.112106196393484 -12.30485013210227" fill="#97ff23" stroke="none" /><path d="M 80.87730276802145 108.67885076344099 l -19.550357284245084 8.872944605229163 a42.4696440564137,42.4696440564137 0 0,0 -0.29639547451222087,-0.6682935489049999 l 19.700193843488584 -8.535102719831466" fill="#f9ff18" stroke="none" /><path d="M 80.58989483394504 108.01547362559985 l -11.759343028372403 4.856063534531474 a33.72255876427132,33.72255876427132 0 0,0 -0.2169442633145081,-0.5384378700770628 l 11.841189905944299 -4.652926296611605" fill="#ff940d" stroke="none" /><path d="M 80.45479744820244 107.68017299344265 l -30.54905970369273 12.004074283169299 a53.822901276024176,53.822901276024176 0 0,0 -0.33140995351732117,-0.8652068112119675 l 30.75116393680356 -11.476443905124173" fill="#75ff27" stroke="none" /><path d="M 80.32549172779594 107.34259656027581 l -10.776979474126978 4.022007123231804 a32.50303559435863,32.50303559435863 0 0,0 -0.19111125426604414,-0.525856092722473 l 10.844614989398247 -3.8359032335032137" fill="#ff840c" stroke="none" /><path d="M 80.20201598880116 107.00284435728193 l -9.606476459429924 3.397955035685825 a31.189724647414373,31.189724647414373 0 0,0 -0.17467607613771005,-0.5076904413149899 l 9.663543366510863 -3.232091891281538" fill="#ff720a" stroke="none" /><path d="M 80.0844068197444 106.66101706037122 l -43.085627013714564 14.410522147021513 a66.43164539959704,66.43164539959704 0 0,0 -0.3533775985178916,-1.0875844173650457 l 43.327296863248705 -13.666738829678664" fill="#37ff75" stroke="none" /><path d="M 79.97269907076064 106.31721596034903 l -15.177842668636767 4.78755026894282 a36.91501007387508,36.91501007387508 0 0,0 -0.18593427421345135,-0.6076439662146692 l 15.258003715356349 -4.525579330176104" fill="#ffbf11" stroke="none" /><path d="M 79.86692584326677 105.97154293290107 l -9.790569285526502 2.9039184165777976 a31.212149093351243,31.212149093351243 0 0,0 -0.14834296657738882,-0.5164013274248044 l 9.839104888989995 -2.7349596136483973" fill="#ff720a" stroke="none" /><path d="M 79.76711848015287 105.62410040840567 l -11.115040130570684 3.0896292095847926 a32.53646071188717,32.53646071188717 0 0,0 -0.14534799849582858,-0.5408939731856034 l 11.166576205408287 -2.8978443032236503" fill="#ff840c" stroke="none" /><path d="M 79.67330655649465 105.27499134158121 l -27.100437759601622 7.032849436740779 a48.998119543317664,48.998119543317664 0 0,0 -0.20483240555816498,-0.818203640272385 l 27.217481479454843 -6.565317957071002" fill="#abff21" stroke="none" /><path d="M 79.50377843672027 104.57218783832718 l -11.909144398860125 2.6566284433079406 a33.20186030893217,33.20186030893217 0 0,0 -0.11963098459105662,-0.5588761328039286 l 11.953109422175622 -2.451238491087848" fill="#ff8d0d" stroke="none" /><path d="M 79.35854240842038 103.8639653848113 l -23.885313250699593 4.471197016809848 a45.30020147750168,45.30020147750168 0 0,0 -0.13687899745233437,-0.7676901092309723 l 23.958738690491117 -4.059388156845661" fill="#d6ff1c" stroke="none" /><path d="M 79.23777060512086 103.15116336523772 l -20.992301110806284 3.1860822339592962 a42.23270651443922,42.23270651443922 0 0,0 -0.10289888128327351,-0.7196745360340433 l 21.044034043106155 -2.8242622259448527" fill="#fcff18" stroke="none" /><path d="M 79.1416061653843 102.43462659150553 l -14.33892003298363 1.6736627126024597 a35.436265950302214,35.436265950302214 0 0,0 -0.06550258512320821,-0.6064725867241749 l 14.365604919607891 -1.4265938039935027" fill="#ffab0f" stroke="none" /><path d="M 79.10278846688536 102.07522291339032 l -14.047164537011271 1.3949706959311616 a35.116259234385495,35.116259234385495 0 0,0 -0.05455629213146229,-0.6020241375681932 l 14.069095425419809 -1.1529651698144023" fill="#ffa70f" stroke="none" /><path d="M 79.07016306316243 101.71520430193888 l -30.68786386761124 2.5148765507293365 a51.79073875083948,51.79073875083948 0 0,0 -0.06516616891016863,-0.8891406000169445 l 30.726606595185746 -1.9862628142156316" fill="#8cff24" stroke="none" /><path d="M 79.04373962182676 101.35467743843564 l -11.264869581390096 0.728195985039548 a32.28838146406984,32.28838146406984 0 0,0 -0.031079333967820737,-0.5549423859111142 l 11.27573526624545 -0.5341818827929962" fill="#ff810b" stroke="none" /><path d="M 79.0235259727143 100.99374915477108 l -9.862323822889122 0.46722227722000614 a30.873384822028207,30.873384822028207 0 0,0 -0.020579120912976312,-0.5310556694956817 l 9.868905076653299 -0.2973893607103276" fill="#ff6d0a" stroke="none" /><line stroke="#e1ed5e" stroke-width="0.3" x1="15.007084014347285" x2="10.007500721073583" y1="101.09737516637583" y2="101.16192664675087" /><path d="M 14.007167355692545 101.11028546245083 a86.0,86.0 0 0,1 10.666146001902534,-42.60595125391555" fill="none" id="id70" stroke="none" /><text fill="#e1ed5e" style="font-size:6.75px; font-family:Arial;" text-anchor="middle"><textPath startOffset="22.20632615414155" xlink:href="#id70">October</textPath></text><path d="M 79.00175016825051 100.2711162175752 l -59.507545184707844 0.7683240601923715 a80.51250503693754,80.51250503693754 0 0,0 -0.005964453443565049,-1.3859289265205603 l 59.511953935440914 0.256114344531864" fill="#49f3ff" stroke="none" /><path d="M 79.00019446554 99.90962569577889 l -44.141901505914255 -0.189968122754657 a65.14231027535259,65.14231027535259 0 0,0 0.014477080875744553,-1.121265868129272 l 44.1320914179208 0.9497702489444009" fill="#35ff66" stroke="none" /><path d="M 79.00486145842228 99.54816195383935 l -44.270272987905656 -0.9527440655007301 a65.28052384150436,65.28052384150436 0 0,0 0.033847347127706984,-1.1232286693176148 l 44.24731394632231 1.7146428822433393" fill="#35ff68" stroke="none" /><path d="M 79.01574976396665 99.18683210126434 l -59.461952331024534 -2.304230567585859 a80.50658159838818,80.50658159838818 0 0,0 0.06557986307637258,-1.3842872599488765 l 59.41347885971466 3.3274289341577448" fill="#49f3ff" stroke="none" /><path d="M 79.05617556472873 98.46500227214037 l -59.349228433120636 -4.349775327644574 a80.50841504365346,80.50841504365346 0 0,0 0.11319297671609689,-1.3812410232327748 l 59.26556097258504 5.370730268085127" fill="#49f3ff" stroke="none" /><path d="M 79.08570108090925 98.10471618934814 l -44.660525942994866 -4.047201014120113 a65.8435325721961,65.8435325721961 0 0,0 0.11200572565307827,-1.1278823719561333 l 44.58424309165956 4.815358916780677" fill="#36ff6e" stroke="none" /><path d="M 79.12142395522702 97.74499172005258 l -29.58321756447389 -3.1951604559773523 a50.75526527871055,50.75526527871055 0 0,0 0.10129215481142666,-0.8678093243477978 l 29.523835056658875 3.703913518650012" fill="#97ff23" stroke="none" /><path d="M 79.26566170972629 96.67025291283419 l -9.933962117460288 -1.5953044153883265 a31.061242444593688,31.061242444593688 0 0,0 0.08932050524276429,-0.5271746780867049 l 9.9050297506973 1.7660648817908595" fill="#ff700a" stroke="none" /><path d="M 79.32604984820605 96.31383870115002 l -8.337613879215755 -1.4865949361715345 a29.46910678307589,29.46910678307589 0 0,0 0.09333887165234664,-0.4986199846487269 l 8.310789283653548 1.629892998282834" fill="#ff5a08" stroke="none" /><path d="M 79.46518482838121 95.60439243477599 l -13.816386320708245 -2.9574852136628746 a35.1293754197448,35.1293754197448 0 0,0 0.13166090603078892,-0.5902100256267157 l 13.763431027675418 3.1948734088395496" fill="#ffa70f" stroke="none" /><path d="M 79.54389044137918 95.25157060432595 l -17.988737310985975 -4.175683983005776 a39.467024848891874,39.467024848891874 0 0,0 0.1593099608798764,-0.6604426378269603 l 17.914194549845284 4.484711852492133" fill="#ffe015" stroke="none" /><path d="M 79.62865764111835 94.90015583598534 l -9.76086917793426 -2.4435754323816345 a31.06208865010074,31.06208865010074 0 0,0 0.13431198043804002,-0.517558849932777 l 9.717360865625913 2.6112307078632755" fill="#ff700a" stroke="none" /><path d="M 79.81627453868168 94.20196356495316 l -23.702254419004277 -6.808779428629861 a45.660826057756886,45.660826057756886 0 0,0 0.22350779294026255,-0.7535571661188765 l 23.58154072895231 7.215765981495277" fill="#d2ff1c" stroke="none" /><path d="M 79.91906864156998 93.8553929516997 l -40.362806892307056 -12.350701433752844 a63.21014103425117,63.21014103425117 0 0,0 0.3273217241768215,-1.0376993143676647 l 40.14422968436203 13.043650914546923" fill="#33ff4f" stroke="none" /><path d="M 80.14247586403 93.16781622104843 l -9.588690298027153 -3.299086727378226 a31.140362659503023,31.140362659503023 0 0,0 0.178755941955635,-0.5053671194426076 l 9.530481275261709 3.463651473247445" fill="#ff710a" stroke="none" /><path d="M 80.38941819471856 92.48833698450439 l -18.713684141789383 -7.168114156291284 a41.039556749496306,41.039556749496306 0 0,0 0.25836638629903763,-0.6575142717621344 l 18.587524205608656 7.489177432949182" fill="#fff417" stroke="none" /><path d="M 80.65960295795068 91.81776055985345 l -20.78761466355714 -8.794506141571073 a43.57140362659503,43.57140362659503 0 0,0 0.29817216601600083,-0.6882224692621011 l 20.63315178769846 9.151027755419774" fill="#ebff1a" stroke="none" /><path d="M 81.10775173730289 90.83032412892265 l -7.635691018786937 -3.7061132545151474 a29.487582269979853,29.487582269979853 0 0,0 0.22556594447070183,-0.45472717983242866 l 7.570765061362823 3.8370000228465377" fill="#ff5a08" stroke="none" /><path d="M 81.26839172434947 90.50648371742162 l -9.294727182313224 -4.710735060700494 a31.420315648085964,31.420315648085964 0 0,0 0.24865524132588313,-0.4803227808679057 l 9.212262507827226 4.870030563828735" fill="#ff750a" stroke="none" /><path d="M 81.43458229118936 90.18545643968196 l -7.973528962246073 -4.215178379330684 a30.019140362659503,30.019140362659503 0 0,0 0.24543063184250016,-0.4547456863511295 l 7.899790231185101 4.351805049014286" fill="#ff6109" stroke="none" /><line stroke="#e1ed5e" stroke-width="0.3" x1="26.266209847984243" x2="21.928928074336255" y1="57.711370442889674" y2="55.22380399835377" /><path d="M 25.398753493254645 57.213857153982495 a86.0,86.0 0 0,1 29.58750427330803,-30.492523968695096" fill="none" id="id71" stroke="none" /><text fill="#e1ed5e" style="font-size:6.75px; font-family:Arial;" text-anchor="middle"><textPath startOffset="21.46611528233685" xlink:href="#id71">November</textPath></text><path d="M 81.78341655067845 89.55222093294921 l -11.32633509562249 -6.496006622078993 a34.05695097380793,34.05695097380793 0 0,0 0.2960365198717658,-0.5060223741086785 l 11.2128389012804 6.690008408541563" fill="#ff990e" stroke="none" /><path d="M 81.96595687620814 89.24020034530311 l -54.1021293713756 -32.27939896409068 a84.0,84.0 0 0,0 0.7515368068551322,-1.2353289071717022 l 53.53847676623425 33.20589564446946" fill="#4dd2ff" stroke="none" /><path d="M 82.15384107792192 88.93136811851018 l -7.191678441641189 -4.460457941013533 a29.462619207521826,29.462619207521826 0 0,0 0.2710173796765172,-0.42868440968374427 l 7.1138334657187094 4.583589998411493" fill="#ff5a08" stroke="none" /><path d="M 82.34701348167596 88.62581576622439 l -7.125807620442355 -4.591305193895787 a29.47686366689053,29.47686366689053 0 0,0 0.278490901457474,-0.4241607490822546 l 7.045720083626961 4.713284006955709" fill="#ff5a08" stroke="none" /><path d="M 82.54541684631803 88.32363383020206 l -11.730675559248542 -7.8473179246329705 a35.11343854936199,35.11343854936199 0 0,0 0.3403922388044865,-0.499483608249438 l 11.593858854775315 8.048079556152825" fill="#ffa70f" stroke="none" /><path d="M 82.95767976084542 87.72973835380427 l -16.16559644444724 -11.639031261979087 a40.91967763599732,40.91967763599732 0 0,0 0.41647928546201757,-0.5680772773213619 l 15.962854546471588 11.915570982971948" fill="#fff216" stroke="none" /><path d="M 83.17141714833178 87.43820079747576 l -1.8365646161155698 -1.3709149566220193 a23.291806581598387,23.291806581598387 0 0,0 0.24259421404962003,-0.3192255491151676 l 1.8126944618418408 1.4023252816182135" fill="#ff0000" stroke="none" /><path d="M 83.39014120810768 87.1503855733568 l -17.33594053048485 -13.411321211754158 a42.91799194089993,42.91799194089993 0 0,0 0.45706827460395744,-0.5804302927370182 l 17.10251817528692 13.707743898444225" fill="#f3ff19" stroke="none" /><path d="M 84.07557802195018 86.31012108654704 l -10.803795219762206 -9.28778756102766 a35.24728005372734,35.24728005372734 0 0,0 0.3994828304541662,-0.45667793279892854 l 10.642320525730197 9.472381050029531" fill="#ffa90f" stroke="none" /><path d="M 84.5562425177563 85.77008943001954 l -8.304986898040415 -7.652232365073712 a32.292894560107456,32.292894560107456 0 0,0 0.3801837525438601,-0.4055535196682277 l 8.1720358235261 7.79405530161999" fill="#ff810b" stroke="none" /><path d="M 84.80347519578584 85.50635884689758 l -10.313021030663805 -9.836013690537264 a35.25151108126259,35.25151108126259 0 0,0 0.42257452845806287,-0.43550019692576625 l 10.142182238502624 10.012078083013154" fill="#ffa90f" stroke="none" /><path d="M 85.05521093208273 85.24692304244772 l -6.450347609320615 -6.367602396447367 a30.06384822028207,30.06384822028207 0 0,0 0.36672769634475716,-0.3651528510709747 l 6.339784112808545 6.477691098168451" fill="#ff6209" stroke="none" /><path d="M 85.31137513191541 84.99185889309783 l -6.145744320226126 -6.279430429550074 a29.786433848220284,29.786433848220284 0 0,0 0.36951738716625454,-0.3554754336856909 l 6.0367436894474436 6.384288949998078" fill="#ff5e08" stroke="none" /><path d="M 86.37877921826538 84.01681056812374 l -8.79323442043436 -10.318012879518074 a34.556635325721956,34.556635325721956 0 0,0 0.4560529061226856,-0.3819311934982935 l 8.614323977352564 10.467845230410179" fill="#ffa00e" stroke="none" /><path d="M 86.93701828274178 83.55741782278169 l -2.041211521930472 -2.5693053023326966 a24.281443922095367,24.281443922095367 0 0,0 0.3294962395961529,-0.2571770413875459 l 1.9966827271748935 2.604060732943464" fill="#ff0f01" stroke="none" /><path d="M 88.70189139769569 82.29822771554957 l -5.1497826114062715 -8.068631866659842 a30.571994627266623,30.571994627266623 0 0,0 0.4460320775034859,-0.27930524601362267 l 5.0101313815305435 8.156081453996395" fill="#ff6909" stroke="none" /><path d="M 89.00827224532344 82.1063720568725 l -3.6946673883247922 -6.014614362347421 a28.058764271323035,28.058764271323035 0 0,0 0.41371703778373875,-0.24925988615317463 l 3.5905882843234043 6.077320857959216" fill="#ff4606" stroke="none" /><line stroke="#e1ed5e" stroke-width="0.3" x1="56.762969772571076" x2="54.21961505331055" y1="26.818313649435495" y2="22.513508569990535" /><path d="M 56.25429882871897 25.957352633546506 a86.0,86.0 0 0,1 42.265352541879196,-11.944610805530505" fill="none" id="id72" stroke="none" /><text fill="#e1ed5e" style="font-size:6.75px; font-family:Arial;" text-anchor="middle"><textPath startOffset="22.20632615414155" xlink:href="#id72">December</textPath></text><path d="M 89.3179101791058 81.91981866633112 l -1.8566318641016926 -3.1424787972824078 a24.649966420416387,24.649966420416387 0 0,0 0.3671709543298277,-0.21268911599306617 l 1.8022641773065449 3.1739720706655214" fill="#ff1402" stroke="none" /><path d="M 89.63071344664047 81.73862282372117 l -5.829154673935253 -10.265739264878574 a32.80527199462727,32.80527199462727 0 0,0 0.4934473892639143,-0.27460293788121737 l 5.651583195599293 10.364557600319976" fill="#ff880c" stroke="none" /><path d="M 89.94658935756843 81.56283822128135 l -6.867174902827888 -12.593856866028842 a35.344452652787105,35.344452652787105 0 0,0 0.5366549431469975,-0.2866624850914914 l 6.649374913152585 12.710198077622083" fill="#ffaa0f" stroke="none" /><path d="M 90.58718382345135 81.22770947309562 l -3.806343100217238 -7.591115897958141 a29.491954331766287,29.491954331766287 0 0,0 0.45576126536545203,-0.22364007356538282 l 3.6751105678413603 7.655511131658354" fill="#ff5a08" stroke="none" /><path d="M 90.91171255644093 81.06846463323043 l -3.0870269579105893 -6.430492036568864 a28.13308932169241,28.13308932169241 0 0,0 0.43836951473867025,-0.2058203650632586 l 2.9758792318723106 6.48267738427213" fill="#ff4706" stroke="none" /><path d="M 91.23893434514133 80.91482961587045 l -25.0887736415832 -54.65357052916616 a81.1370047011417,81.1370047011417 0 0,0 1.2743064287848536,-0.5717441494549423 l 24.144285094331572 55.07733500913763" fill="#49edff" stroke="none" /><path d="M 92.57280143429618 80.3572730644239 l -3.771610242770735 -9.97478516977647 a31.664022834116857,31.664022834116857 0 0,0 0.5114760086892083,-0.18838093052383575 l 3.5993519083089573 10.038229368106627" fill="#ff780b" stroke="none" /><path d="M 93.25333710446033 80.11325718540243 l -7.07751670657547 -20.861981202993764 a43.02983210208194,43.02983210208194 0 0,0 0.7034705007937975,-0.23192316387548173 l 6.717363383539263 20.98071809112848" fill="#f2ff19" stroke="none" /><path d="M 93.59665428221793 80.00007090966166 l -2.79622797355021 -8.73361577778361 a30.17032907991941,30.17032907991941 0 0,0 0.4959637575485258,-0.15409835369818964 l 2.645478843290955 8.780454266364325" fill="#ff6309" stroke="none" /><path d="M 93.94186890950719 79.89281104454417 l -2.4483556389025227 -8.126194155624344 a29.48701813297515,29.48701813297515 0 0,0 0.48725160677663026,-0.14224210533690534 l 2.3081138144024713 8.167134589879948" fill="#ff5a08" stroke="none" /><path d="M 94.28887869178378 79.79150937346287 l -3.07552895969992 -10.882591140959558 a32.30883143049026,32.30883143049026 0 0,0 0.5364837007869948,-0.14664126121429139 l 2.8877473696892024 10.933918943000146" fill="#ff810b" stroke="none" /><path d="M 94.63758080256005 79.69619591428918 l -3.2462623670734523 -12.291369377340319 a33.71282740094023,33.71282740094023 0 0,0 0.5623477988498169,-0.14335497512286732 l 3.034205679538636 12.345427348632048" fill="#ff940d" stroke="none" /><path d="M 94.98787191387505 79.60689891045804 l -3.3721624692276526 -13.720489369713322 a35.128811282740095,35.128811282740095 0 0,0 0.588451605449107,-0.1392674829009527 l 3.1354871768160115 13.776502764755145" fill="#ffa70f" stroke="none" /><path d="M 95.692805502759 79.44645832069477 l -5.21144500082565 -24.868543109090854 a46.40873069173942,46.40873069173942 0 0,0 0.783276811959329,-0.1571179597933718 l 4.782601779399185 24.954565024961436" fill="#c9ff1d" stroke="none" /><path d="M 96.04723909329186 79.375362276772 l -4.000013521979736 -20.87119148513094 a42.25104096709201,42.25104096709201 0 0,0 0.7154607764942594,-0.13074588379413332 l 3.6401576243825833 20.93695285027581" fill="#fbff18" stroke="none" /><path d="M 96.75951476605007 79.25152402106235 l -2.3959351300285325 -15.340913135991821 a36.5268838146407,36.5268838146407 0 0,0 0.6220546047806781,-0.09167467873538057 l 2.131511544819206 15.379882298888171" fill="#ffba11" stroke="none" /></svg>