<?xml version="1.0" encoding="utf-8" ?>
<svg baseProfile="full" height="200mm" version="1.1" viewBox="0,0,200,200" width="200mm" xmlns="http://www.w3.org/2000/svg" xmlns:ev="http://www.w3.org/2001/xml-events" xmlns:xlink="http://www.w3.org/1999/xlink"><defs /><rect fill="#1a1a1a" height="200" width="200" x="0" y="0" /><text alignment-baseline="middle" fill="#e1ed5e" style="dominant-baseline: central; font-size:9.0px; font-family:Arial;" text-anchor="middle" x="100.0" y="100.0">2024</text><line stroke="#e1ed5e" stroke-width="0.3" x1="100.0" x2="100.0" y1="15.0" y2="10.0" /><path d="M 100.0 14.0 a86.0,86.0 0 0,1 42.35913384403234,11.155469271406648" fill="none" id="id49" stroke="none" /><text fill="#e1ed5e" style="font-size:6.75px; font-family:Arial;" text-anchor="middle"><textPath startOffset="22.145653131862478" xlink:href="#id49">January</textPath></text><path d="M 100.0 79.0 l 0.0 -18.100266977136314 a39.100266977136314,39.100266977136314 0 0,0 0.6712080764266172,0.005761514073141599 l -0.31071515157776236 18.097599861257606" fill="#ffc912" stroke="none" /><path d="M 100.36049292484886 79.00309439819443 l 0.31374511198351035 -18.274079864695604 a39.276772989140255,39.276772989140255 0 0,0 0.6740393357881942,0.017360862307776847 l -0.6273977618424459 18.26600128503778" fill="#ffcb13" stroke="none" /><path d="M 101.80034050326958 79.07731436759882 l 1.5543624427730802 -18.064047712024735 a39.13079872332737,39.13079872332737 0 0,0 0.6687647974712082,0.06333272163266172 l -1.8642268036293015 18.034703234886887" fill="#ffca12" stroke="none" /><path d="M 102.15924093988457 79.11130261209362 l 1.4896093147515628 -14.410618855585152 a35.48740389826766,35.48740389826766 0 0,0 0.6054220362924398,0.06783880195609109 l -1.7367672526447993 14.38292429312209" fill="#ff980e" stroke="none" /><path d="M 102.87502721639298 79.19773525538626 l 2.485926222533549 -17.986923783490177 a39.15789790633719,39.15789790633719 0 0,0 0.6650780523984756,0.09774357048200642 l -2.7943293805397067 17.94159913970929" fill="#ffca12" stroke="none" /><path d="M 103.58742460773223 79.30868818359171 l 3.096785893419062 -17.86143809441448 a39.12790814380634,39.12790814380634 0 0,0 0.6608242841625225,0.1204241977895229 l -3.402944911132638 17.805645722693594" fill="#ffc912" stroke="none" /><path d="M 104.29559338865022 79.4440306129975 l 3.7108726622990624 -17.757869040126565 a39.14145773531124,39.14145773531124 0 0,0 0.6565282134614444,0.14308726842192945 l -4.015163292379641 17.691550313570914" fill="#ffca12" stroke="none" /><path d="M 104.64783097203109 79.52079915486377 l 4.009885286119803 -17.66829444413256 a39.1176104542626,39.1176104542626 0 0,0 0.6535767490918705,0.1542423331884567 l -4.312594188951558 17.596855967297877" fill="#ffc912" stroke="none" /><path d="M 105.3480935250658 79.69241777938227 l 4.607590863139504 -17.495772999037296 a39.09231788345344,39.09231788345344 0 0,0 0.6474778685923063,0.17647297229102404 l -4.907250132666503 17.41409953260213" fill="#ffc912" stroke="none" /><path d="M 106.72888874123014 80.10723608172694 l 5.827938279062095 -17.22926396527913 a39.188248991308186,39.188248991308186 0 0,0 0.6353986945334795,0.22102464930585217 l -6.122842745640592 17.12668088340469" fill="#ffca12" stroke="none" /><path d="M 107.06938296918511 80.22567764915836 l 6.111591544679654 -17.095209271864405 a39.15482666559608,39.15482666559608 0 0,0 0.6309722908923844,0.23170176509258486 l -6.404152987226164 16.9877766577631" fill="#ffca12" stroke="none" /><path d="M 108.07796709384702 80.6158196554323 l 7.030714680454778 -16.871155791281062 a39.27749563402051,39.27749563402051 0 0,0 0.620144756542275,0.26470292048124183 l -7.319294512167484 16.747978221140418" fill="#ffcb13" stroke="none" /><path d="M 108.73861861582097 80.90454125486305 l 6.030746693135371 -13.178269900993808 a35.49264307364956,35.49264307364956 0 0,0 0.5518451684798541,0.25829140314462506 l -6.25608057548673 13.07280226627865" fill="#ff980e" stroke="none" /><path d="M 109.3889696526874 81.21577127319529 l 9.930737802261621 -19.86812794204897 a43.21175502338559,43.21175502338559 0 0,0 0.6606722971424108,0.33734398239740676 l -10.27033732111761 19.69472600797873" fill="#ffff18" stroke="none" /><line stroke="#e1ed5e" stroke-width="0.3" x1="143.13028292997686" x2="145.6673583964461" y1="26.7553504044142" y2="22.446841604673864" /><path d="M 143.63769802327073 25.89364864446614 a86.0,86.0 0 0,1 29.32050498858742,28.57503671076993" fill="none" id="id50" stroke="none" /><text fill="#e1ed5e" style="font-size:6.75px; font-family:Arial;" text-anchor="middle"><textPath startOffset="20.669276256404974" xlink:href="#id50">February</textPath></text><path d="M 110.96478420261332 82.08984904055464 l 5.719268215858456 -9.34199481091192 a31.953670433787664,31.953670433787664 0 0,0 0.465360887403993,0.2904196116825121 l -5.878793232052162 9.242439402387863" fill="#ff6609" stroke="none" /><path d="M 111.27062007382361 82.28071324371311 l 9.723555614835956 -15.287044466181726 a39.11742979304253,39.11742979304253 0 0,0 0.5635040257891984,0.3652565014540631 l -9.984545272882162 15.117874123023768" fill="#ffc912" stroke="none" /><path d="M 117.62189284568427 88.57770195909679 l 9.506359286482724 -6.161907236923579 a32.32872312664351,32.32872312664351 0 0,0 0.2978588560633554,0.4682835947725869 l -9.610735834171969 5.99780996747232" fill="#ff6b09" stroke="none" /><path d="M 117.81537515405839 88.88188828441811 l 9.646139855695784 -6.019904695373291 a32.37045586847863,32.37045586847863 0 0,0 0.290150323791919,0.4739387482707272 l -9.748058143943107 5.853428830978009" fill="#ff6c09" stroke="none" /><line stroke="#e1ed5e" stroke-width="0.3" x1="172.87174338648825" x2="177.1583165268699" y1="56.24261187166439" y2="53.66864786411523" /><path d="M 173.72905801456457 55.72781907015455 a86.0,86.0 0 0,1 12.242430191666344,42.057860355516425" fill="none" id="id51" stroke="none" /><text fill="#e1ed5e" style="font-size:6.75px; font-family:Arial;" text-anchor="middle"><textPath startOffset="22.145653131862474" xlink:href="#id51">March</textPath></text><path d="M 118.36410011445183 89.81374322990088 l 15.84334735885645 -8.788037708865476 a39.11742979304253,39.11742979304253 0 0,0 0.32067844999846046,0.5900122292306081 l -15.991871158470252 8.514770646160265" fill="#ffc912" stroke="none" /><path d="M 118.70294669586156 90.45014215332178 l 16.1216837919807 -8.231846615730296 a39.10171226689684,39.10171226689684 0 0,0 0.30011511317848194,0.6004312655012064 l -16.26061881837092 7.953883494065339" fill="#ffc912" stroke="none" /><path d="M 119.0197475246899 91.09779779509293 l 8.55874730462597 -4.005925895050809 a30.449846437962943,30.449846437962943 0 0,0 0.21752142897488178,0.4753235786778669 l -8.626253198455903 3.858413334158258" fill="#ff5007" stroke="none" /><path d="M 119.71291397450082 92.76114493625339 l 17.017360850179816 -6.24901061919471 a39.12845012746652,39.12845012746652 0 0,0 0.22612485971016116,0.6325114775841688 l -17.12212587993392 5.955964185229624" fill="#ffc912" stroke="none" /><path d="M 119.94978838288452 93.4421083053983 l 17.194899605451102 -5.652305034415279 a39.10008631591625,39.10008631591625 0 0,0 0.20413090839901216,0.6394371631535853 l -17.28939522962737 5.356298837570306" fill="#ffc912" stroke="none" /><path d="M 120.16314734710363 94.1308016681162 l 13.9806779947338 -4.069571607682722 a35.56093301483429,35.56093301483429 0 0,0 0.16558103111548933,0.5875886654649158 l -14.048477517923871 3.828975018314793" fill="#ff990e" stroke="none" /><path d="M 120.26092885502905 94.47779374421319 l 13.955399687275824 -3.8036062416729397 a35.464459923319346,35.464459923319346 0 0,0 0.15504811802570403,0.5887429586266042 l -14.018637286106257 3.563482778673537" fill="#ff980e" stroke="none" /><path d="M 120.43855184770803 95.1765574152323 l 17.62355407960945 -4.159110776337972 a39.107674087159,39.107674087159 0 0,0 0.14858893437609483,0.6547102613594065 l -17.69235387554321 3.855966181039539" fill="#ffc912" stroke="none" /><path d="M 120.65975698304385 96.23510406497455 l 14.243258369407757 -2.5955961428061247 a35.477828853604194,35.477828853604194 0 0,0 0.10404326499659473,0.6000939040786206 l -14.285716451896585 2.3507092058069112" fill="#ff980e" stroke="none" /><path d="M 120.7213421655516 96.59031103205396 l 18.495419639042975 -3.043414263271911 a39.74414356544954,39.74414356544954 0 0,0 0.10499741815493853,0.6741587446203139 l -18.544938549336177 2.7254673367201554" fill="#ffd213" stroke="none" /><path d="M 120.77682067341334 96.94652285012252 l 17.894856705881676 -2.629927692530097 a39.087078708071544,39.087078708071544 0 0,0 0.09186484124196807,0.664688228807421 l -17.937366063678855 2.3223511555225906" fill="#ffc912" stroke="none" /><path d="M 120.86939407059847 97.66154086499901 l 17.978539025188667 -2.0145327974162157 a39.09105325491298,39.09105325491298 0 0,0 0.06900056283482879,0.667517853162328 l -18.010471980505162 1.7056104219709565" fill="#ffc912" stroke="none" /><path d="M 120.93736805541906 98.37931529534042 l 18.122114941162184 -1.4027663087110256 a39.17632535078387,39.17632535078387 0 0,0 0.04614605263271409,0.6709534776132705 l -18.143524954959965 1.091469406943421" fill="#ffca12" stroke="none" /><path d="M 120.98066250479742 99.09900007780936 l 10.868859058881675 -0.4667555738106086 a31.87887668868057,31.87887668868057 0 0,0 0.018786241771966836,0.5469409316030724 l -10.87526998765049 0.28010837764341623" fill="#ff6509" stroke="none" /><path d="M 120.99303781780057 99.45929381324524 l 10.904346800975826 -0.28085729321211933 a31.907963145111108,31.907963145111108 0 0,0 0.009403076784322072,0.5476820819428889 l -10.907561309358815 0.093628295300164" fill="#ff6509" stroke="none" /><line stroke="#e1ed5e" stroke-width="0.3" x1="184.99686870605535" x2="189.99668451229388" y1="99.2704041080226" y2="99.22748670261217" /><path d="M 185.99683186730306 99.26182062694052 a86.0,86.0 0 0,1 -10.086455211305974,41.156179273409016" fill="none" id="id52" stroke="none" /><text fill="#e1ed5e" style="font-size:6.75px; font-family:Arial;" text-anchor="middle"><textPath startOffset="21.40746469413373" xlink:href="#id52">April</textPath></text><path d="M 120.98066250479742 100.90099992219065 l 18.12114258323303 0.7781998330017068 a39.13784451090993,39.13784451090993 0 0,0 -0.0345874374389662,0.6709870462077747 l -18.105113556337493 -1.0891586725862121" fill="#ffca12" stroke="none" /><path d="M 120.96210409425399 101.26102812881392 l 10.88611497297598 0.6548816441660538 a31.905795210470323,31.905795210470323 0 0,0 -0.037582047113602024,0.5464347169062145 l -10.873268964697312 -0.8416597852266118" fill="#ff6509" stroke="none" /><path d="M 120.9064616781168 101.97986365728391 l 18.039608736390463 1.708369703046663 a39.12032037256358,39.12032037256358 0 0,0 -0.0690522229315081,0.6680176177354386 l -18.007624120977287 -2.017791843065033" fill="#ffc912" stroke="none" /><path d="M 120.82617615685814 102.69636545807757 l 17.953490988223695 2.3244388498371578 a39.103338217877436,39.103338217877436 0 0,0 -0.09190305533564123,0.6649647269528801 l -17.910943416332845 -2.632291884990123" fill="#ffc912" stroke="none" /><path d="M 120.7213421655516 103.40968896794604 l 14.331352023182186 2.3582185216955804 a35.524078125940946,35.524078125940946 0 0,0 -0.10417889689553332,0.6008761928289317 l -14.288758308794419 -2.6038877474451003" fill="#ff980e" stroke="none" /><path d="M 120.592083275326 104.11899336999214 l 17.782866749535657 3.557071388136727 a39.13513459260895,39.13513459260895 0 0,0 -0.13742449581217078,0.6576259606887139 l -17.71918454289912 -3.86181380011085" fill="#ffca12" stroke="none" /><path d="M 120.51834098615036 104.47187691870673 l 14.121050836433264 3.077617305704885 a35.45253628279503,35.45253628279503 0 0,0 -0.13470130121904145,0.593518787229143 l -14.066138673656559 -3.319570426873045" fill="#ff970e" stroke="none" /><path d="M 120.26092885502905 105.52220625578681 l 17.447735670167745 4.755457943538429 a39.084188128550494,39.084188128550494 0 0,0 -0.1819862310119275,0.6458049324424345 l -17.363530947081237 -5.054270799883873" fill="#ffc912" stroke="none" /><path d="M 119.58574465831526 107.57618678355244 l 16.86326667225051 6.523073813054317 a39.080936226589316,39.080936226589316 0 0,0 -0.2474034021679606,0.6236181893272215 l -16.748804595116425 -6.811593019595103" fill="#ffc912" stroke="none" /><path d="M 119.31412917781788 108.2440532568976 l 16.64004066863362 7.10264388345861 a39.092498544673504,39.092498544673504 0 0,0 -0.2687443931977111,0.6149397645970595 l -16.515662393418946 -7.387245717831514" fill="#ffc912" stroke="none" /><path d="M 119.0197475246899 108.90220220490707 l 16.376435734863218 7.6649988186315445 a39.081478210249514,39.081478210249514 0 0,0 -0.28961374471916956,0.6051813387994388 l -16.242442732184138 -7.944992659496087" fill="#ffc912" stroke="none" /><path d="M 118.70294669586154 109.54985784667822 l 16.108168203305127 8.224945459850169 a39.086536724411346,39.086536724411346 0 0,0 -0.31025763255588995,0.5949599194281859 l -15.964602501774289 -8.500251622382859" fill="#ffc912" stroke="none" /><line stroke="#e1ed5e" stroke-width="0.3" x1="174.33088141563837" x2="178.70328620479359" y1="141.23008692659167" y2="143.65538615756765" /><path d="M 175.20536237346943 141.71514677278685 a86.0,86.0 0 0,1 -30.301960400862466,31.631185727798858" fill="none" id="id53" stroke="none" /><text fill="#e1ed5e" style="font-size:6.75px; font-family:Arial;" text-anchor="middle"><textPath startOffset="22.145653131862474" xlink:href="#id53">May</textPath></text><path d="M 118.36410011445183 110.18625677009912 l 15.833868271050505 8.782779818648372 a39.10659011983861,39.10659011983861 0 0,0 -0.3306678863365693,0.5842584711718047 l -15.680767019692558 -9.0532950599193" fill="#ffc912" stroke="none" /><path d="M 117.21940702142032 112.02048342749411 l 14.84111527425516 10.360251080527568 a39.09954433225606,39.09954433225606 0 0,0 -0.3889192602555592,0.54706364524277 l -14.66108091546964 -10.613491952479842" fill="#ffc912" stroke="none" /><path d="M 116.79662413953412 112.60449989151573 l 14.494354860769688 10.876834103833763 a39.121585001104044,39.121585001104044 0 0,0 -0.40769912001224395,0.5336912354136037 l -14.305503763403138 -11.124046252488244" fill="#ffc912" stroke="none" /><path d="M 116.35404254752997 113.17365903436017 l 14.09935237132048 11.357440229549036 a39.104783507637954,39.104783507637954 0 0,0 -0.42559631684073873,0.5191583055525651 l -13.902309235241114 -11.597800816800094" fill="#ffc912" stroke="none" /><path d="M 115.89218393027572 113.72728997021213 l 8.28326408024528 7.154886227609665 a31.94554067888472,31.94554067888472 0 0,0 -0.3620326303540714,0.4119266759296128 l -8.159220385932624 -7.296025181350571" fill="#ff6609" stroke="none" /><path d="M 115.41159269507618 114.26474011684316 l 13.269334508087724 12.281897921024349 a39.080936226589316,39.080936226589316 0 0,0 -0.45993454288222907,0.488434546001564 l -13.056544131469234 -12.50787392697041" fill="#ffc912" stroke="none" /><path d="M 115.16444852881244 114.52719865689866 l 13.084853618455192 12.534993775116453 a39.12013971134351,39.12013971134351 0 0,0 -0.46872111867611815,0.48094915983850817 l -12.867745698628267 -12.757765627022698" fill="#ffc912" stroke="none" /><path d="M 113.86319453409587 115.77377054828091 l 11.93962704644317 13.585103851745538 a39.08617540197122,39.08617540197122 0 0,0 -0.5077862241545745,0.4386136463327495 l -11.70466134252574 -13.788061630543005" fill="#ffc912" stroke="none" /><path d="M 112.7482090630111 116.68781488649013 l 6.876419480304739 9.00145383574968 a32.327458498103056,32.327458498103056 0 0,0 -0.4438821920971078,0.33309747218579655 l -6.720884299296865 -9.118170335199492" fill="#ff6b09" stroke="none" /><path d="M 112.45986205192187 116.90419585922612 l 5.401039827570514 7.327547825832486 a30.1029768954373,30.1029768954373 0 0,0 -0.41860194751149477,0.30303552833664427 l -5.274456869685052 -7.419184125542207" fill="#ff4b07" stroke="none" /><path d="M 111.8722381534696 117.32195027204791 l 10.224616528501755 14.91802108145102 a39.08563341831102,39.08563341831102 0 0,0 -0.5566980017855542,0.3745712602437605 l -9.967022238619197 -15.0913420157519" fill="#ffc912" stroke="none" /><line stroke="#e1ed5e" stroke-width="0.3" x1="143.1302829299769" x2="145.66735839644613" y1="173.24464959558577" y2="177.55315839532614" /><path d="M 143.63769802327073 174.10635135553383 a86.0,86.0 0 0,1 -40.68552437913181,11.842963189579606" fill="none" id="id54" stroke="none" /><text fill="#e1ed5e" style="font-size:6.75px; font-family:Arial;" text-anchor="middle"><textPath startOffset="21.407464694133747" xlink:href="#id54">June</textPath></text><path d="M 110.34350942703117 118.27599006163325 l 8.0230056030212 14.17588215098957 a37.288776923540155,37.288776923540155 0 0,0 -0.5597858876998544,0.31050379560396835 l -7.778475527165252 -14.311518862026682" fill="#ffb110" stroke="none" /><path d="M 109.71004243097381 118.62028667847754 l 8.367501027123135 16.045786515874426 a39.09647309151494,39.09647309151494 0 0,0 -0.597753011271089,0.3052169467138476 l -8.090820794138462 -16.18706141426111" fill="#ffc912" stroke="none" /><path d="M 109.06512990194946 118.94263497670748 l 7.8096505224360095 16.31916594050623 a39.09159523857318,39.09159523857318 0 0,0 -0.6078022399124301,0.28448213801324473 l -7.528359568652073 -16.45082431009001" fill="#ffc912" stroke="none" /><path d="M 108.4095320186766 119.2426549942271 l 4.355186422239502 9.965518838928855 a31.875624786719392,31.875624786719392 0 0,0 -0.5032780541097217,0.21481947453646907 l -4.1834732929593486 -10.038812963124728" fill="#ff6509" stroke="none" /><path d="M 108.07796709384702 119.3841803445677 l 11.04809715512524 26.511411253751827 a49.72134010478351,49.72134010478351 0 0,0 -0.7906771291250129,0.32156150505641695 l -10.591365564809786 -26.697160015387535" fill="#afff20" stroke="none" /><path d="M 107.06938296918513 119.77432235084164 l 6.091278565647479 17.038390254272752 a39.09448581809423,39.09448581809423 0 0,0 -0.6338784174251828,0.22049581801048054 l -5.7978943761772745 -17.140444504851825" fill="#ffc912" stroke="none" /><path d="M 106.38641147887787 120.00534299687104 l 4.954702556299078 15.520535188511326 a37.292209486721404,37.292209486721404 0 0,0 -0.6115200789364852,0.18945048363204128 l -4.687541844490968 -15.603302259950011" fill="#ffb110" stroke="none" /><path d="M 105.3480935250658 120.30758222061773 l 4.610075359685607 17.505207037101577 a39.10207358933697,39.10207358933697 0 0,0 -0.6505741683821583,0.16537340955224641 l -4.308895898078052 -17.581765678489095" fill="#ffc912" stroke="none" /><path d="M 104.64783097203109 120.47920084513623 l 3.205629089829093 14.124593248048575 a35.48379067386635,35.48379067386635 0 0,0 -0.5951773655311966,0.12971613666290804 l -2.9626893076787604 -14.177540842845202" fill="#ff980e" stroke="none" /><path d="M 103.58742460773223 120.69131181640829 l 0.7035680772983836 4.057993703916273 a25.118533833831822,25.118533833831822 0 0,0 -0.42548702738174005,0.07001372843885992 l -0.6338035468635712 -4.069473430850803" fill="#ff0000" stroke="none" /><path d="M 103.2317021107853 120.74984581791261 l 2.783180754742798 17.87001696460857 a39.085452757090955,39.085452757090955 0 0,0 -0.663847606400534,0.097562737293045 l -2.4760080427345783 -17.915160775200498" fill="#ffc912" stroke="none" /><path d="M 102.15924093988457 120.88869738790638 l 1.8608831656068858 18.00235657012394 a39.09827970371559,39.09827970371559 0 0,0 -0.668209031264682,0.06328008999507616 l -1.5515745709571884 -18.0316484156242" fill="#ffc912" stroke="none" /><path d="M 101.80034050326958 120.92268563240118 l 0.7846155462289147 9.118421979747113 a30.152116747295096,30.152116747295096 0 0,0 -0.516076458673082,0.03994758179693282 l -0.6279700927805968 -9.1305473285391" fill="#ff4c07" stroke="none" /><path d="M 100.72087961077811 120.9876233191556 l 0.6206999623565508 18.07100216094628 a39.08165887146958,39.08165887146958 0 0,0 -0.6706909295860303,0.017274619241623716 l -0.3103957186997767 -18.07899449753795" fill="#ffc912" stroke="none" /><line stroke="#e1ed5e" stroke-width="0.3" x1="101.45913802915013" x2="101.54496967792366" y1="184.9874750549273" y2="189.98673829345242" /><path d="M 101.47630435890484 185.9873277026323 a86.0,86.0 0 0,1 -42.54439059252881,-10.42667462771756" fill="none" id="id55" stroke="none" /><text fill="#e1ed5e" style="font-size:6.75px; font-family:Arial;" text-anchor="middle"><textPath startOffset="22.145653131862474" xlink:href="#id55">July</textPath></text><path d="M 100.0 121.0 l 2.2157141677497442e-15 18.092679205893575 a39.092679205893575,39.092679205893575 0 0,0 -0.6710778222433561,-0.00576039599763525 l 0.31058489739450174 -18.090013208090376" fill="#ffc912" stroke="none" /><path d="M 98.91894614982273 120.97215588758144 l -0.7445844846341224 14.44474008455798 a35.463917939659154,35.463917939659154 0 0,0 -0.6077091031475145,-0.036558270570526366 l 0.9924379399140832 -14.42982983616276" fill="#ff980e" stroke="none" /><path d="M 98.55909050195518 120.95050786540614 l -0.9967517556681968 14.492551770475155 a35.526788044241925,35.526788044241925 0 0,0 -0.6080680542451904,-0.04706831308972577 l 1.2453888046886235 -14.473305690390374" fill="#ff980e" stroke="none" /><path d="M 98.19965949673042 120.92268563240118 l -1.1999310059128507 13.945017162970613 a34.99654736334986,34.99654736334986 0 0,0 -0.5981083870820599,-0.05664148610761685 l 1.439138956379926 -13.922363921357812" fill="#ff910d" stroke="none" /><path d="M 97.48249496171623 120.84855314841334 l -2.1686687447354633 17.959688222408925 a39.09014994881265,39.09014994881265 0 0,0 -0.6655045501102365,-0.08616288787703189 l 2.476651116736494 -17.9198137383315" fill="#ffc912" stroke="none" /><path d="M 96.76829788921471 120.74984581791261 l -2.784515253591294 17.878585404520877 a39.09412449565409,39.09412449565409 0 0,0 -0.6622218848356413,-0.10896835914472118 l 3.091014641479999 -17.828151046880485" fill="#ffc912" stroke="none" /><path d="M 96.05791012581884 120.62667999033965 l -1.7110360527134678 8.95286364281218 a30.11490053596162,30.11490053596162 0 0,0 -0.5069391989213365,-0.10140203744456011 l 1.8644717371657624 -8.922172208704756" fill="#ff4b07" stroke="none" /><path d="M 95.00130118170881 120.39639698878247 l -4.313755280272303 17.601593616109934 a39.12248830720437,39.12248830720437 0 0,0 -0.6509138252566297,-0.16545974900152333 l 4.615274398754311 -17.524948635273148" fill="#ffc912" stroke="none" /><path d="M 94.30408787586889 120.21278271476187 l -4.906270103681999 17.410621755472445 a39.08870465905213,39.08870465905213 0 0,0 -0.6442935117477777,-0.1875444512355298 l 5.204423627811384 -17.323833609934397" fill="#ffc912" stroke="none" /><path d="M 93.61358852112213 120.00534299687104 l -8.235604496308117 25.797913786188687 a48.08057490414919,48.08057490414919 0 0,0 -0.784119222166458,-0.2577555629128667 l 8.677246456122319 -25.6527373018738" fill="#c3ff1e" stroke="none" /><path d="M 93.27111125876986 119.89276391827306 l -8.692702568011045 25.69843055030172 a48.12881144990666,48.12881144990666 0 0,0 -0.7803610712869848,-0.2714500888922721 l 9.132569411343052 -25.545422028840857" fill="#c2ff1e" stroke="none" /><path d="M 92.59220618246901 119.65005319985036 l -5.102113504267312 13.533962237618425 a35.46373727843908,35.46373727843908 0 0,0 -0.5678043880311188,-0.21963893511794894 l 5.333690154791959 -13.444383414362436" fill="#ff980e" stroke="none" /><path d="M 91.92203290615298 119.3841803445677 l -5.571061313366983 13.368519078420857 a35.482887367766025,35.482887367766025 0 0,0 -0.5602324229918761,-0.2391299078961428 l 5.79972881152929 -13.270914520865311" fill="#ff980e" stroke="none" /><path d="M 91.26138138417905 119.09545874513695 l -7.518661658861307 16.42963262700315 a39.06828994118474,39.06828994118474 0 0,0 -0.6074398855017983,-0.28431253785272104 l 7.799590258234595 -16.298143857579905" fill="#ffc912" stroke="none" /><path d="M 90.93487009805054 118.94263497670748 l -7.812068105306121 16.324217758883876 a39.09719573639521,39.09719573639521 0 0,0 -0.6029155296107765,-0.29491619801510854 l 8.091143884178967 -16.187707810771546" fill="#ffc912" stroke="none" /><line stroke="#e1ed5e" stroke-width="0.3" x1="58.13341422392154" x2="55.67067388415222" y1="173.97424548756322" y2="178.32567169271397" /><path d="M 57.64086615596768 174.84453072859336 a86.0,86.0 0 0,1 -31.369924170532247,-30.572349798747897" fill="none" id="id56" stroke="none" /><text fill="#e1ed5e" style="font-size:6.75px; font-family:Arial;" text-anchor="middle"><textPath startOffset="22.145653131862474" xlink:href="#id56">August</textPath></text><path d="M 88.72937992617639 117.7192867562869 l -7.850963480603907 12.34301860188266 a35.6283196499187,35.6283196499187 0 0,0 -0.5132418377447769,-0.3326771584141999 l 8.061690950605694 -12.206427601764567" fill="#ff9a0e" stroke="none" /><path d="M 88.1277618465304 117.32195027204791 l -10.22236953961348 14.914742657510956 a39.08165887146958,39.08165887146958 0 0,0 -0.5501300098799413,-0.3840334721458675 l 10.476894640667187 -14.73706436955996" fill="#ffc912" stroke="none" /><path d="M 87.83215693770417 117.11559508785305 l -9.49605313653023 13.35738795984455 a37.38886323945641,37.38886323945641 0 0,0 -0.5199170507834514,-0.37637984990757317 l 9.723951197687635 -13.19240733856391" fill="#ffb210" stroke="none" /><path d="M 86.96720088162412 116.46651593811092 l -23.4644874482925 29.64661336658903 a58.80878013529518,58.80878013529518 0 0,0 -0.7862152247300429,-0.6333193317869137 l 23.969953443377804 -29.239445741008705" fill="#49ff2c" stroke="none" /><path d="M 86.40962598614128 116.0094264158162 l -11.702673756318195 13.785720258988237 a39.0831041612301,39.0831041612301 0 0,0 -0.5077463242737631,-0.43857918176601424 l 11.937599560354819 -13.582796944757499" fill="#ffc912" stroke="none" /><path d="M 85.08716467003676 114.78537596483092 l -10.26902530389438 10.181256384248881 a35.460666037697976,35.460666037697976 0 0,0 -0.4248748388127637,-0.43595901405228 l 10.442286943857955 -10.003474678128862" fill="#ff970e" stroke="none" /><path d="M 84.58840730492382 114.26474011684316 l -15.922485452726557 14.737614826138332 a42.696147901318824,42.696147901318824 0 0,0 -0.49324684028833776,-0.5421646816054192 l 16.173129993856772 -14.462112568975238" fill="#fff817" stroke="none" /><path d="M 83.8745106332314 113.45245675266167 l -13.899534710876202 11.595486209895508 a39.10117028323664,39.10117028323664 0 0,0 -0.42555699236789035,-0.5191103360897609 l 14.09653852248272 -11.355173592107253" fill="#ffc912" stroke="none" /><path d="M 83.4222238831116 112.89097897827486 l -25.23982208651472 19.62663831617294 a52.972700082301216,52.972700082301216 0 0,0 -0.5520462222483614,-0.7226462258449012 l 25.573020286117377 -19.19047117708717" fill="#89ff24" stroke="none" /><path d="M 83.20337586046588 112.60449989151573 l -24.330320855343665 18.257926356755885 a51.41901358973844,51.41901358973844 0 0,0 -0.5237344362779348,-0.7105463489218967 l 24.640157311205428 -17.83757369856511" fill="#9bff22" stroke="none" /><path d="M 82.78059297857968 112.02048342749411 l -14.836671161281883 10.357148744525011 a39.09412449565409,39.09412449565409 0 0,0 -0.37941827630636715,-0.5535826041835518 l 15.012279174403574 -10.100931405271409" fill="#ffc912" stroke="none" /><path d="M 82.37810715431573 111.42229804090323 l -15.165271041882084 9.829945467741252 a39.07244514924624,39.07244514924624 0 0,0 -0.3599917562522363,-0.5659668338699221 l 15.33178048976021 -9.568164959192657" fill="#ffc912" stroke="none" /><path d="M 81.99639281039703 110.81064883170644 l -32.69451431032276 19.632116453652475 a59.135957604833685,59.135957604833685 0 0,0 -0.5151200629797827,-0.8747864829420582 l 33.02670808343232 -19.06797880241686" fill="#46ff2c" stroke="none" /><line stroke="#e1ed5e" stroke-width="0.3" x1="26.387840678322732" x2="22.057713659400548" y1="142.50000000000003" y2="145.00000000000006" /><path d="M 25.521815274538298 143.00000000000003 a86.0,86.0 0 0,1 -11.493303480769221,-40.785679425670985" fill="none" id="id57" stroke="none" /><text fill="#e1ed5e" style="font-size:6.75px; font-family:Arial;" text-anchor="middle"><textPath startOffset="21.40746469413373" xlink:href="#id57">September</textPath></text><path d="M 81.81346652052679 110.50000000000001 l -15.596123671216604 9.004426199891613 a39.00885239978321,39.00885239978321 0 0,0 -0.3298414597622493,-0.5827982546016485 l 15.748398496000233 -8.735371175190842" fill="#ffc812" stroke="none" /><path d="M 81.4637452351635 109.86951160357371 l -19.648741540645283 10.461848150625054 a43.260352891583196,43.260352891583196 0 0,0 -0.3433881790630067,-0.6584921107818834 l 19.82543778868324 -10.123009796738668" fill="#feff18" stroke="none" /><path d="M 81.1358732173502 109.22738970284198 l -18.452946928168352 9.026261031529824 a41.542264688760866,41.542264688760866 0 0,0 -0.3078494312805101,-0.6432869101279666 l 18.605175617408772 -8.708161619336753" fill="#ffe915" stroke="none" /><path d="M 80.83023694016515 108.57439118712176 l -10.737505869162163 4.802749799715339 a32.7626713772407,32.7626713772407 0 0,0 -0.2252295086421922,-0.5153691929224626 l 10.818369259821322 -4.617718537017027" fill="#ff710a" stroke="none" /><path d="M 80.68587082218212 108.24405325689762 l -24.76947798768349 10.572617268737076 a47.9315293975952,47.9315293975952 0 0,0 -0.3165173504421967,-0.7595264169656766 l 24.947321182662172 -10.145858342330119" fill="#c4ff1e" stroke="none" /><path d="M 80.41425534168474 107.57618678355246 l -18.28097940561231 7.071475554256935 a40.601019732219925,40.601019732219925 0 0,0 -0.24586685313252382,-0.6521910386733907 l 18.39967694255927 -6.756616235389399" fill="#ffdd14" stroke="none" /><path d="M 80.16572619554312 106.89939002012753 l -23.475459230010756 8.165983323929513 a45.8551899953831,45.8551899953831 0 0,0 -0.25223537814455615,-0.7456890761948811 l 23.612180029727682 -7.76179257326047" fill="#deff1b" stroke="none" /><path d="M 79.73907114497094 105.5222062557868 l -20.925953105714175 5.7034615725425155 a42.68928277495634,42.68928277495634 0 0,0 -0.18663453407820604,-0.7086817252234325 l 21.020777120597113 -5.34339934294628" fill="#fff817" stroke="none" /><path d="M 79.64726062577567 105.17358676015961 l -41.96924087689615 10.668416911467201 a64.30395246602566,64.30395246602566 0 0,0 -0.26276577218515945,-1.0721740195550722 l 42.1461941755976 -9.94638706730403" fill="#33ff55" stroke="none" /><path d="M 79.48165901384964 104.47187691870673 l -19.20104936166781 4.184779340266766 a40.651785535058316,40.651785535058316 0 0,0 -0.14275027259200443,-0.6831117305331359 l 19.27005734508418 -3.8545511584482206" fill="#ffde14" stroke="none" /><path d="M 79.34024301695615 103.76489593502545 l -37.47684265286069 6.829529150664567 a59.094044201778516,59.094044201778516 0 0,0 -0.17330083320421438,-0.9995531530176277 l 37.58855830355714 -6.185182964726346" fill="#46ff2c" stroke="none" /><path d="M 79.2786578344484 103.40968896794605 l -17.922479302668275 2.949137148950825 a39.16349840415922,39.16349840415922 0 0,0 -0.10346345019562354,-0.6643095699271577 l 17.97046424500217 -2.641039397092217" fill="#ffca12" stroke="none" /><path d="M 79.17382384314188 102.69636545807758 l -27.706562016255397 3.5871691577003277 a48.9378123933597,48.9378123933597 0 0,0 -0.10071381688843317,-0.8340548806247559 l 27.76405791940349 -3.1110206001521727" fill="#b8ff1f" stroke="none" /><path d="M 79.03789590574601 101.26102812881392 l -20.353172219378255 1.2243962993326312 a41.3899672802457,41.3899672802457 0 0,0 -0.0365777145317059,-0.7095978901001262 l 20.371191523366534 -0.8748266158557741" fill="#ffe715" stroke="none" /><line stroke="#e1ed5e" stroke-width="0.3" x1="15.003131293944662" x2="10.003315487706104" y1="100.72959589197737" y2="100.7725132973878" /><path d="M 14.003168132696942 100.73817937305945 a86.0,86.0 0 0,1 10.791469493833604,-42.45332614584628" fill="none" id="id58" stroke="none" /><text fill="#e1ed5e" style="font-size:6.75px; font-family:Arial;" text-anchor="middle"><textPath startOffset="22.145653131862435" xlink:href="#id58">October</textPath></text><path d="M 79.13060592940154 97.66154086499901 l -18.29165264898712 -2.049617832055361 a39.40612642270711,39.40612642270711 0 0,0 0.08109764631319814,-0.6716048483162536 l 18.253772916414253 2.3633163572950506" fill="#ffcd13" stroke="none" /><path d="M 79.22317932658666 96.9465228501225 l -18.27092824798458 -2.685197258484426 a39.46718991508922,39.46718991508922 0 0,0 0.10426575266594124,-0.6694609273195559 l 18.22214100318037 2.998446367735432" fill="#ffce13" stroke="none" /><path d="M 79.407916724674 95.88100663000787 l -38.42195434148094 -7.685466937885376 a60.18307003633298,60.18307003633298 0 0,0 0.21133511209984054,-1.0113150155695212 l 38.284361518556736 8.343898404740306" fill="#3bff2e" stroke="none" /><path d="M 79.56144815229197 95.17655741523228 l -35.79851458038676 -8.448351966669732 a57.78190176044321,57.78190176044321 0 0,0 0.2361146625074236,-0.9634283973564354 l 35.64821239136303 9.061636188634285" fill="#54ff2b" stroke="none" /><path d="M 79.64726062577567 94.8264132398404 l -17.518919285338754 -4.453240775132142 a39.07605837364755,39.07605837364755 0 0,0 0.17083777178044907,-0.6486988457771732 l 17.43989203275358 4.753320125282099" fill="#ffc912" stroke="none" /><path d="M 79.73907114497095 94.47779374421319 l -17.559638230609778 -4.785957483995496 a39.20017263183251,39.20017263183251 0 0,0 0.18252628527987058,-0.647721394518088 l 17.474893453255326 5.0866868024165965" fill="#ffca12" stroke="none" /><path d="M 79.83685265289637 94.1308016681162 l -17.374285581633877 -5.057401317262425 a39.095389124194554,39.095389124194554 0 0,0 0.19310083956435872,-0.6427698922653609 l 17.28490842206589 5.354908813118509" fill="#ffc912" stroke="none" /><path d="M 79.94057633289273 93.78553927170692 l -26.041258517351974 -8.067648455761889 a48.26232009153502,48.26232009153502 0 0,0 0.25196443716592537,-0.7892750107300587 l 25.89892936440879 8.51349250018334" fill="#c0ff1e" stroke="none" /><path d="M 80.05021161711548 93.44210830539832 l -17.391240136738645 -5.7168460668679755 a39.306762751671116,39.306762751671116 0 0,0 0.21621448231496931,-0.6391996981684324 l 17.29054023285131 6.01454743951057" fill="#ffcc13" stroke="none" /><path d="M 80.28708602549916 92.7611449362534 l -17.237995525211804 -6.330030727975135 a39.363490374771665,39.363490374771665 0 0,0 0.23837276922079736,-0.632312090746807 l 17.12679207217657 6.625011098916087" fill="#ffcd13" stroke="none" /><path d="M 80.41425534168474 92.42381321644754 l -17.17498149952878 -6.643651804642727 a39.41515948371038,39.41515948371038 0 0,0 0.24951921562789092,-0.6289514213978931 l 17.058403608934757 6.937504243254203" fill="#ffcd13" stroke="none" /><path d="M 80.5471966667186 92.08871423366112 l -17.09722899877575 -6.953294191302262 a39.45707288676556,39.45707288676556 0 0,0 0.26055601236356307,-0.6252395775867677 l 16.975347141875712 7.245766278330294" fill="#ffce13" stroke="none" /><path d="M 80.68587082218212 91.75594674310238 l -17.433610399160994 -7.441371612847688 a39.955336531706045,39.955336531706045 0 0,0 0.2746760394184596,-0.6285125319663081 l 17.303300477725557 7.739546214589864" fill="#ffd513" stroke="none" /><path d="M 80.83023694016515 91.42560881287825 l -57.50928917950456 -25.72317356136523 a84.0,84.0 0 0,0 0.600062140579813,-1.3112440711413145 l 57.05924257406971 26.706606614721213" fill="#4dd2ff" stroke="none" /><path d="M 81.1358732173502 90.77261029715801 l -16.83073123599756 -8.232754046224112 a39.73637513298673,39.73637513298673 0 0,0 0.3049863044088333,-0.6101769110435403 l 16.686925018376986 8.520462813431424" fill="#ffd213" stroke="none" /><line stroke="#e1ed5e" stroke-width="0.3" x1="26.387840678322718" x2="22.05771365940052" y1="57.49999999999999" y2="54.99999999999999" /><path d="M 25.521815274538284 56.99999999999999 a86.0,86.0 0 0,1 29.574782752854787,-30.34633250058573" fill="none" id="id59" stroke="none" /><text fill="#e1ed5e" style="font-size:6.75px; font-family:Arial;" text-anchor="middle"><textPath startOffset="21.40746469413373" xlink:href="#id59">November</textPath></text><line stroke="#e1ed5e" stroke-width="0.3" x1="56.869717070023135" x2="54.33264160355391" y1="26.7553504044142" y2="22.446841604673864" /><path d="M 56.362301976729285 25.89364864446614 a86.0,86.0 0 0,1 42.16139366436587,-11.88097634709845" fill="none" id="id60" stroke="none" /><text fill="#e1ed5e" style="font-size:6.75px; font-family:Arial;" text-anchor="middle"><textPath startOffset="22.145653131862474" xlink:href="#id60">December</textPath></text></svg>