<?xml version="1.0" encoding="utf-8" ?>
<svg baseProfile="full" height="200mm" version="1.1" viewBox="0,0,200,200" width="200mm" xmlns="http://www.w3.org/2000/svg" xmlns:ev="http://www.w3.org/2001/xml-events" xmlns:xlink="http://www.w3.org/1999/xlink"><defs /><rect fill="#1a1a1a" height="200" width="200" x="0" y="0" /><text alignment-baseline="middle" fill="#e1ed5e" style="dominant-baseline: central; font-size:9.0px; font-family:Arial;" text-anchor="middle" x="100.0" y="100.0">2024</text><line stroke="#e1ed5e" stroke-width="0.3" x1="100.0" x2="100.0" y1="15.0" y2="10.0" /><path d="M 100.0 14.0 a86.0,86.0 0 0,1 42.35913384403234,11.155469271406648" fill="none" id="id49" stroke="none" /><text fill="#e1ed5e" style="font-size:6.75px; font-family:Arial;" text-anchor="middle"><textPath startOffset="22.145653131862478" xlink:href="#id49">January</textPath></text><path d="M 100.0 79.0 l 0.0 -39.7027720642349 a60.7027720642349,60.7027720642349 0 0,0 1.042043802279495,0.008944692774893449 l -0.6815508774306401 39.69692176965444" fill="#4cff2c" stroke="none" /><path d="M 100.36049292484886 79.00309439819443 l 0.6881970682025786 -40.084029062560376 a61.08993640669523,61.08993640669523 0 0,0 1.0483809392970502,0.027002574133081676 l -1.3761913215703703 40.06630877107725" fill="#47ff2c" stroke="none" /><path d="M 101.80034050326958 79.07731436759882 l 3.409479973338528 -39.62332543348212 a60.7697431736267,60.7697431736267 0 0,0 1.038585112285488,0.09835508994630562 l -4.089164649009029 39.558958588030634" fill="#4bff2c" stroke="none" /><path d="M 102.15924093988457 79.11130261209362 l 3.2674445721186465 -31.6095622484781 a52.77798954578907,52.77798954578907 0 0,0 0.9004028019021286,0.10089201201365451 l -3.8095832756215717 31.548814475957474" fill="#acff20" stroke="none" /><path d="M 102.87502721639298 79.19773525538626 l 5.452856706833462 -39.45415479311678 a60.829184986696355,60.829184986696355 0 0,0 1.033154434814319,0.15183812329077898 l -6.129336247255463 39.35473559652712" fill="#4aff2c" stroke="none" /><path d="M 103.58742460773223 79.30868818359171 l 6.7927718753244255 -39.17890306799089 a60.76340271356595,60.76340271356595 0 0,0 1.0262223054167379,0.18701188931055052 l -7.464328914292217 39.05652300474897" fill="#4bff2c" stroke="none" /><path d="M 104.29559338865022 79.4440306129975 l 8.139765654106936 -38.951725283238005 a60.79312362010077,60.79312362010077 0 0,0 1.0196963309580254,0.22223806932436746 l -8.807224401684095 38.80625575577992" fill="#4bff2c" stroke="none" /><path d="M 104.64783097203109 79.52079915486377 l 8.795647142644068 -38.75524421630191 a60.740814824599475,60.740814824599475 0 0,0 1.0148570894091278,0.2395035097879634 l -9.45963638579308 38.598544562867716" fill="#4bff2c" stroke="none" /><path d="M 105.3480935250658 79.69241777938227 l 10.106708925097935 -38.37681998535207 a60.6853357990678,60.6853357990678 0 0,0 1.0051184991161666,0.27394951649754445 l -10.764008825148794 38.19766997471039" fill="#4cff2c" stroke="none" /><path d="M 106.72888874123014 80.10723608172694 l 12.78352995512775 -37.79223482792177 a60.895759817334365,60.895759817334365 0 0,0 0.9873645107016791,0.343456630604368 l -13.43040023787445 37.567219764748806" fill="#4aff2c" stroke="none" /><path d="M 107.06938296918511 80.22567764915836 l 13.40572083023006 -37.4981870692059 a60.8224482478818,60.8224482478818 0 0,0 0.9801417290494656,0.3599216192845344 l -14.04745171093365 37.26253460091264" fill="#4aff2c" stroke="none" /><path d="M 108.07796709384702 80.6158196554323 l 15.421809123554123 -37.00672778404533 a61.09152152171042,61.09152152171042 0 0,0 0.9645621781461892,0.41171423743810837 l -16.05480637687074 36.73653889694782" fill="#47ff2c" stroke="none" /><path d="M 108.73861861582097 80.90454125486305 l 13.228388378864336 -28.906415951821685 a52.7894816296492,52.7894816296492 0 0,0 0.8207791209977771,0.38416607219433724 l -13.722656213733618 28.675073648056813" fill="#acff20" stroke="none" /><path d="M 109.3889696526874 81.21577127319529 l 21.782983637253167 -43.58055911675993 a69.72128394316232,69.72128394316232 0 0,0 1.065981254348932,0.5442976238877136 l -22.527892113315676 43.200203541199386" fill="#39ff86" stroke="none" /><line stroke="#e1ed5e" stroke-width="0.3" x1="143.13028292997686" x2="145.6673583964461" y1="26.7553504044142" y2="22.446841604673864" /><path d="M 143.63769802327073 25.89364864446614 a86.0,86.0 0 0,1 29.32050498858742,28.57503671076993" fill="none" id="id50" stroke="none" /><text fill="#e1ed5e" style="font-size:6.75px; font-family:Arial;" text-anchor="middle"><textPath startOffset="20.669276256404974" xlink:href="#id50">February</textPath></text><path d="M 110.96478420261332 82.08984904055464 l 12.545163153409854 -20.49158120548245 a45.02677712150662,45.02677712150662 0 0,0 0.655752552797496,0.4092380921947475 l -12.895079834997063 20.273207316446157" fill="#ffe915" stroke="none" /><path d="M 111.27062007382361 82.28071324371311 l 21.328531381188586 -33.53199390612865 a60.74041854584568,60.74041854584568 0 0,0 0.874992824421012,0.5671597774263041 l -21.901009837866606 33.16092028699845" fill="#4bff2c" stroke="none" /><path d="M 117.62189284568427 88.57770195909679 l 20.852113197485014 -13.516087846525354 a45.84945181439058,45.84945181439058 0 0,0 0.42243132260646754,0.6641322031150841 l -21.081062211717374 13.156141968731598" fill="#fff417" stroke="none" /><path d="M 117.81537515405839 88.88188828441811 l 21.158720613026752 -13.204606554739177 a45.94099220651785,45.94099220651785 0 0,0 0.4117888799033977,0.6726261881864445 l -21.382277457385552 12.839443250428179" fill="#fff517" stroke="none" /><line stroke="#e1ed5e" stroke-width="0.3" x1="172.87174338648825" x2="177.1583165268699" y1="56.24261187166439" y2="53.66864786411523" /><path d="M 173.72905801456457 55.72781907015455 a86.0,86.0 0 0,1 12.242430191666344,42.057860355516425" fill="none" id="id51" stroke="none" /><text fill="#e1ed5e" style="font-size:6.75px; font-family:Arial;" text-anchor="middle"><textPath startOffset="22.145653131862474" xlink:href="#id51">March</textPath></text><path d="M 118.36410011445183 89.81374322990088 l 34.75223927457754 -19.276481307580628 a60.74041854584568,60.74041854584568 0 0,0 0.4979402628084716,0.9161539993869611 l -35.078024887001355 18.677072474719065" fill="#4bff2c" stroke="none" /><path d="M 118.70294669586156 90.45014215332178 l 35.36276772564754 -18.056481170411523 a60.705942294265284,60.705942294265284 0 0,0 0.4659328117882364,0.9321777395934382 l -35.66752045064751 17.446771574654335" fill="#4cff2c" stroke="none" /><path d="M 119.0197475246899 91.09779779509293 l 18.77353487769997 -8.786962254110437 a41.728152774894795,41.728152774894795 0 0,0 0.2980891032921911,0.6513784872114006 l -18.921608445847212 8.463394784684352" fill="#ffb911" stroke="none" /><path d="M 119.71291397450082 92.76114493625339 l 37.32742725966233 -13.70714832848968 a60.76459154982734,60.76459154982734 0 0,0 0.35116097608744234,0.9822597486170433 l -37.557228405793715 13.064353623491721" fill="#4bff2c" stroke="none" /><path d="M 119.94978838288452 93.4421083053983 l 37.71685691514793 -12.398280019979127 a60.702375785481095,60.702375785481095 0 0,0 0.31691058201128386,0.9927178844398249 l -37.92413221293647 11.748993101847915" fill="#4cff2c" stroke="none" /><path d="M 120.16314734710363 94.1308016681162 l 30.66649085505367 -8.92656854967959 a52.93927499858472,52.93927499858472 0 0,0 0.24649914942095202,0.874738520896582 l -30.815208496549204 8.398822104879995" fill="#aaff21" stroke="none" /><path d="M 120.26092885502905 94.47779374421319 l 30.61104311605394 -8.34317592254289 a52.727662144056765,52.727662144056765 0 0,0 0.23052162082850575,0.8753281420125024 l -30.749754217687176 7.8164672761575895" fill="#adff20" stroke="none" /><path d="M 120.43855184770803 95.1765574152323 l 38.65710663098478 -9.122971907068239 a60.71901949314061,60.71901949314061 0 0,0 0.2307008691629023,1.0165105966988202 l -38.80801836170535 8.458026976430393" fill="#4cff2c" stroke="none" /><path d="M 120.65975698304385 96.23510406497455 l 31.242458534281273 -5.693416685997577 a52.75698677183779,52.75698677183779 0 0,0 0.15471660280492427,0.8923642506415673 l -31.33558995457843 5.156259402435417" fill="#adff20" stroke="none" /><path d="M 120.7213421655516 96.59031103205396 l 40.56953585761281 -6.675701686851204 a62.115109542769794,62.115109542769794 0 0,0 0.16409779014767012,1.053625528559891 l -40.67815513989875 5.978287976359871" fill="#3cff2e" stroke="none" /><path d="M 120.77682067341334 96.94652285012252 l 39.252206490280805 -5.768722630104624 a60.673843715207674,60.673843715207674 0 0,0 0.14259937566750258,1.0317780465305435 l -39.34545038250352 5.094056275373995" fill="#4cff2c" stroke="none" /><path d="M 120.86939407059847 97.66154086499901 l 39.43576290154528 -4.418859488248041 a60.68256184779121,60.68256184779121 0 0,0 0.1071122564657595,1.0362139169002025 l -39.505807550492705 3.7412410490649077" fill="#4cff2c" stroke="none" /><path d="M 120.93736805541906 98.37931529534042 l 39.75069537591214 -3.0769552230634245 a60.86960541958372,60.86960541958372 0 0,0 0.07169871064409175,1.0424835170611555 l -39.79765804772129 2.394128281847935" fill="#4aff2c" stroke="none" /><path d="M 120.98066250479742 99.09900007780936 l 23.84074413698765 -1.023824133650744 a44.86271771743438,44.86271771743438 0 0,0 0.026437627329776062,0.7697026737247558 l -23.85480645131427 0.6144151953618684" fill="#ffe615" stroke="none" /><path d="M 120.99303781780057 99.45929381324524 l 23.91858617861157 -0.6160579348947787 a44.9265185967958,44.9265185967958 0 0,0 0.013239563493813026,0.7711381991899114 l -23.92563717370405 0.20537281973580088" fill="#ffe715" stroke="none" /><line stroke="#e1ed5e" stroke-width="0.3" x1="184.99686870605535" x2="189.99668451229388" y1="99.2704041080226" y2="99.22748670261217" /><path d="M 185.99683186730306 99.26182062694052 a86.0,86.0 0 0,1 -10.086455211305974,41.156179273409016" fill="none" id="id52" stroke="none" /><text fill="#e1ed5e" style="font-size:6.75px; font-family:Arial;" text-anchor="middle"><textPath startOffset="21.40746469413373" xlink:href="#id52">April</textPath></text><path d="M 120.98066250479742 100.90099992219065 l 39.74856251758057 1.7069743020431771 a60.78519804502482,60.78519804502482 0 0,0 -0.05371793620395747,1.0421136114947878 l -39.71340299192004 -2.3890597069146957" fill="#4bff2c" stroke="none" /><path d="M 120.96210409425399 101.26102812881392 l 23.878594828632778 1.4364769691087633 a44.921763251750235,44.921763251750235 0 0,0 -0.05291364192042862,0.7693527405749397 l -23.850417225547286 -1.8461731338380467" fill="#ffe715" stroke="none" /><path d="M 120.9064616781168 101.97986365728391 l 39.56971876125366 3.7472935071722 a60.74675900590644,60.74675900590644 0 0,0 -0.10722557242103606,1.0373101459755552 l -39.499560796350956 -4.426008175430687" fill="#4bff2c" stroke="none" /><path d="M 120.82617615685814 102.69636545807757 l 39.38082025879128 5.098635613989042 a60.70950880304947,60.70950880304947 0 0,0 -0.14268319793667752,1.0323845427142297 l -39.28749254429939 -5.773908464903356" fill="#4cff2c" stroke="none" /><path d="M 120.7213421655516 103.40968896794604 l 31.4356911678402 5.172731018984652 a52.85843413280999,52.85843413280999 0 0,0 -0.15501411014970543,0.8940801939467764 l -31.342262240198263 -5.711604245852016" fill="#abff21" stroke="none" /><path d="M 120.592083275326 104.11899336999214 l 39.00655753295294 7.80240394894704 a60.779253863717855,60.779253863717855 0 0,0 -0.21342863401417356,1.0213332757930365 l -38.8668711881144 -8.470853676025486" fill="#4bff2c" stroke="none" /><path d="M 120.51834098615036 104.47187691870673 l 30.974397414942676 6.750725751376609 a52.70150774630612,52.70150774630612 0 0,0 -0.20023847131856468,0.8822876511070556 l -30.85394808206645 -7.281447736422682" fill="#adff20" stroke="none" /><path d="M 120.26092885502905 105.52220625578681 l 38.27145053853167 10.43105402985789 a60.667503255146904,60.667503255146904 0 0,0 -0.2824838071599337,1.002435376482115 l -38.08674823929715 -11.086497330243015" fill="#4cff2c" stroke="none" /><path d="M 119.58574465831526 107.57618678355244 l 36.989423072736194 14.308303467844741 a60.660370237578555,60.660370237578555 0 0,0 -0.38401285697281723,0.9679632553362458 l -36.738351540797254 -14.941167740394551" fill="#4cff2c" stroke="none" /><path d="M 119.31412917781788 108.2440532568976 l 36.49977885082463 15.57958518040624 a60.685732077821605,60.685732077821605 0 0,0 -0.41718874081112406,0.9546094823202484 l -36.226956227996546 -16.203856732502334" fill="#4cff2c" stroke="none" /><path d="M 119.0197475246899 108.90220220490707 l 35.92156381047664 16.813105649390003 a60.66155907383994,60.66155907383994 0 0,0 -0.4495331826847431,0.9393514579072346 l -35.62765136983199 -17.42726960936234" fill="#4cff2c" stroke="none" /><path d="M 118.70294669586154 109.54985784667822 l 35.3331214040116 18.041343547345818 a60.67265487894627,60.67265487894627 0 0,0 -0.48160200010419146,0.9235353368037661 l -35.01821133493246 -18.645225127254086" fill="#4cff2c" stroke="none" /><line stroke="#e1ed5e" stroke-width="0.3" x1="174.33088141563837" x2="178.70328620479359" y1="141.23008692659167" y2="143.65538615756765" /><path d="M 175.20536237346943 141.71514677278685 a86.0,86.0 0 0,1 -30.301960400862466,31.631185727798858" fill="none" id="id53" stroke="none" /><text fill="#e1ed5e" style="font-size:6.75px; font-family:Arial;" text-anchor="middle"><textPath startOffset="22.145653131862474" xlink:href="#id53">May</textPath></text><path d="M 118.36410011445183 110.18625677009912 l 34.7314469811262 19.26494817289857 a60.71664182061782,60.71664182061782 0 0,0 -0.5133928464423505,0.9071159673112055 l -34.39562076966247 -19.8583209103089" fill="#4cff2c" stroke="none" /><path d="M 117.21940702142032 112.02048342749411 l 32.55385225295784 22.72511713214005 a60.70118694921971,60.70118694921971 0 0,0 -0.6037886407143904,0.849304337687838 l -32.15894851371349 -23.280598696537393" fill="#4cff2c" stroke="none" /><path d="M 116.79662413953412 112.60449989151573 l 31.79323641922986 23.858237326029258 a60.74953295718303,60.74953295718303 0 0,0 -0.6330911983013819,0.828736701077001 l -31.378993243574175 -24.400494940347137" fill="#4bff2c" stroke="none" /><path d="M 116.35404254752997 113.17365903436017 l 30.926802027780436 24.91244252013228 a60.71267903307984,60.71267903307984 0 0,0 -0.6607655193121277,0.80602649459021 l -30.49458968922968 -25.439671296420983" fill="#4cff2c" stroke="none" /><path d="M 115.89218393027572 113.72728997021213 l 18.169264914228005 15.694178290251008 a45.00894457758572,45.00894457758572 0 0,0 -0.5100776586841246,0.5803747419181993 l -17.897176191585295 -16.0037653099805" fill="#ffe815" stroke="none" /><path d="M 115.41159269507618 114.26474011684316 l 29.106165344642022 26.940232113182816 a60.660370237578555,60.660370237578555 0 0,0 -0.7138979346483877,0.7581348672276735 l -28.639411576257373 -27.435908440354986" fill="#4cff2c" stroke="none" /><path d="M 115.16444852881244 114.52719865689866 l 28.701508180162648 27.49539558221423 a60.74636272715264,60.74636272715264 0 0,0 -0.727837459249155,0.7468253521701435 l -28.225283919762685 -27.98404362645211" fill="#4bff2c" stroke="none" /><path d="M 113.86319453409587 115.77377054828091 l 26.18946404247489 29.798802546731654 a60.67186232143868,60.67186232143868 0 0,0 -0.7882156686805382,0.6808419214447543 l -25.674068894031496 -30.243988600641124" fill="#4cff2c" stroke="none" /><path d="M 112.7482090630111 116.68781488649013 l 15.083363996203202 19.744607653518976 a45.846677863113996,45.846677863113996 0 0,0 -0.6295120252476122,0.47239755965399816 l -14.742198982044824 -20.000624240436988" fill="#fff417" stroke="none" /><path d="M 112.45986205192187 116.90419585922612 l 11.847132059143421 16.072909945819752 a40.96729756760327,40.96729756760327 0 0,0 -0.5696775639714529,0.41240262403433087 l -11.569473484798001 -16.27391334122716" fill="#ffad10" stroke="none" /><path d="M 111.8722381534696 117.32195027204791 l 22.42760396783602 32.72254444613765 a60.67067348517728,60.67067348517728 0 0,0 -0.8641344591938688,0.5814282292412336 l -21.86257322054515 -33.102722349436" fill="#4cff2c" stroke="none" /><line stroke="#e1ed5e" stroke-width="0.3" x1="143.1302829299769" x2="145.66735839644613" y1="173.24464959558577" y2="177.55315839532614" /><path d="M 143.63769802327073 174.10635135553383 a86.0,86.0 0 0,1 -40.68552437913181,11.842963189579606" fill="none" id="id54" stroke="none" /><text fill="#e1ed5e" style="font-size:6.75px; font-family:Arial;" text-anchor="middle"><textPath startOffset="21.407464694133747" xlink:href="#id54">June</textPath></text><path d="M 110.34350942703117 118.27599006163325 l 17.59839029607653 31.094669407977992 a56.72928499990565,56.72928499990565 0 0,0 -0.8516303237128356,0.4723849846426568 l -17.062015784207603 -31.392187308053792" fill="#7bff26" stroke="none" /><path d="M 109.71004243097381 118.62028667847754 l 18.354037896057676 35.19628773629986 a60.694450210405144,60.694450210405144 0 0,0 -0.927968369315306,0.47382726140880355 l -17.747142305028788 -35.5061729493815" fill="#4cff2c" stroke="none" /><path d="M 109.06512990194946 118.94263497670748 l 17.130397854643462 35.79594303403212 a60.68375068405261,60.68375068405261 0 0,0 -0.9435204515690897,0.4416152124748158 l -16.513388689202866 -36.08473447807747" fill="#4cff2c" stroke="none" /><path d="M 108.4095320186766 119.2426549942271 l 9.553062064655938 21.859275526908778 a44.855584699866014,44.855584699866014 0 0,0 -0.7082161223427349,0.30229534949432474 l -9.176410867142772 -22.020045526062507" fill="#ffe615" stroke="none" /><path d="M 108.07796709384702 119.3841803445677 l 24.233901281541076 58.15254103370309 a84.0,84.0 0 0,0 -1.3357821552382365,0.5432509736828348 l -23.232064665112397 -58.55997926396521" fill="#4dd2ff" stroke="none" /><path d="M 107.06938296918513 119.77432235084164 l 13.361164494266685 37.37355506752301 a60.69009114411338,60.69009114411338 0 0,0 -0.9840297966015307,0.342296643936376 l -12.717628925620133 -37.597410144027975" fill="#4cff2c" stroke="none" /><path d="M 106.38641147887787 120.00534299687104 l 10.868095287616967 34.04415369578674 a56.736814296227806,56.736814296227806 0 0,0 -0.9303739744728183,0.28823223552868305 l -10.282080680272525 -34.225702519122066" fill="#7bff26" stroke="none" /><path d="M 105.3480935250658 120.30758222061773 l 10.112158645822438 38.39751346260215 a60.70673485177287,60.70673485177287 0 0,0 -1.010029134418035,0.2567454562808544 l -9.451524218179006 -38.56544415071827" fill="#4cff2c" stroke="none" /><path d="M 104.64783097203109 120.47920084513623 l 7.031518443166151 30.982167662812394 a52.77006397071312,52.77006397071312 0 0,0 -0.885123800376076,0.19290861262962042 l -6.4986322261709395 -31.098307733575734" fill="#adff20" stroke="none" /><path d="M 103.58742460773223 120.69131181640829 l 1.5432702202644062 8.901172522383327 a30.03396675032551,30.03396675032551 0 0,0 -0.5087503640784189,0.08371467880688237 l -1.390242353132915 -8.92635319968588" fill="#ff0000" stroke="none" /><path d="M 103.2317021107853 120.74984581791261 l 6.1048818373065235 39.197720742244805 a60.6702772064235,60.6702772064235 0 0,0 -1.0304554626358833,0.15144146732476182 l -5.431101269062955 -39.29674328286845" fill="#4cff2c" stroke="none" /><path d="M 102.15924093988457 120.88869738790638 l 4.081830409219255 39.48800647115061 a60.69841299794312,60.69841299794312 0 0,0 -1.0373660441332595,0.09823964292482984 l -3.4033648017009797 -39.55225786958062" fill="#4cff2c" stroke="none" /><path d="M 101.80034050326958 120.92268563240118 l 1.721047111036055 20.001176220478396 a41.07508538863623,41.07508538863623 0 0,0 -0.7030313919490735,0.05441907601812879 l -1.3774467243117456 -20.027773063491576" fill="#ffaf10" stroke="none" /><path d="M 100.72087961077811 120.9876233191556 l 1.361499758917933 39.63857995435262 a60.66195535259374,60.66195535259374 0 0,0 -1.041036240548084,0.026813400746748553 l -0.6808502042991053 -39.65611107244942" fill="#4cff2c" stroke="none" /><line stroke="#e1ed5e" stroke-width="0.3" x1="101.45913802915013" x2="101.54496967792366" y1="184.9874750549273" y2="189.98673829345242" /><path d="M 101.47630435890484 185.9873277026323 a86.0,86.0 0 0,1 -42.54439059252881,-10.42667462771756" fill="none" id="id55" stroke="none" /><text fill="#e1ed5e" style="font-size:6.75px; font-family:Arial;" text-anchor="middle"><textPath startOffset="22.145653131862474" xlink:href="#id55">July</textPath></text><path d="M 100.0 121.0 l 4.8601490062431076e-15 39.6861283565754 a60.6861283565754,60.6861283565754 0 0,0 -1.0417580909054633,-0.00894224028637296 l 0.6812651660566065 -39.680280514483464" fill="#4cff2c" stroke="none" /><path d="M 98.91894614982273 120.97215588758144 l -1.6332393391399276 31.684406855917914 a52.726473307795374,52.726473307795374 0 0,0 -0.9035199624737132,-0.05435351730442634 l 2.1769036537460873 -31.651701360788795" fill="#adff20" stroke="none" /><path d="M 98.55909050195518 120.95050786540614 l -2.1863659696240254 31.789281356961137 a52.864378314116955,52.864378314116955 0 0,0 -0.9048141256202508,-0.07003833576747595 l 2.731749090019512 -31.747065254198606" fill="#abff21" stroke="none" /><path d="M 98.19965949673042 120.92268563240118 l -2.6320378191517326 30.588269142804695 a51.70130017172079,51.70130017172079 0 0,0 -0.8836009145329988,-0.08367792528268257 l 3.156738297069747 -30.53857946201683" fill="#baff1f" stroke="none" /><path d="M 97.48249496171623 120.84855314841334 l -4.756955295953593 39.39441383597971 a60.68058045402223,60.68058045402223 0 0,0 -1.0330787282310923,-0.13375272432619412 l 5.432511846075479 -39.30694951545312" fill="#4cff2c" stroke="none" /><path d="M 96.76829788921471 120.74984581791261 l -6.107809048472456 39.216515537769865 a60.68929858660578,60.68929858660578 0 0,0 -1.0280261348183615,-0.16916130927453402 l 6.78011268634388 -39.105888229999664" fill="#4cff2c" stroke="none" /><path d="M 96.05791012581884 120.62667999033965 l -3.753142121073775 19.638025504361075 a40.99345196535391,40.99345196535391 0 0,0 -0.6900633019033553,-0.1380319867305801 l 4.089701908508088 -19.570704120967633" fill="#ffae10" stroke="none" /><path d="M 95.00130118170881 120.39639698878247 l -9.462183229113766 38.6089365527286 a60.75151435095202,60.75151435095202 0 0,0 -1.010774168703099,-0.25693484108269027 l 10.123562691042244 -38.44081647981065" fill="#4bff2c" stroke="none" /><line stroke="#e1ed5e" stroke-width="0.3" x1="58.13341422392154" x2="55.67067388415222" y1="173.97424548756322" y2="178.32567169271397" /><path d="M 57.64086615596768 174.84453072859336 a86.0,86.0 0 0,1 -31.369924170532247,-30.572349798747897" fill="none" id="id56" stroke="none" /><text fill="#e1ed5e" style="font-size:6.75px; font-family:Arial;" text-anchor="middle"><textPath startOffset="22.145653131862474" xlink:href="#id56">August</textPath></text><line stroke="#e1ed5e" stroke-width="0.3" x1="26.387840678322732" x2="22.057713659400548" y1="142.50000000000003" y2="145.00000000000006" /><path d="M 25.521815274538298 143.00000000000003 a86.0,86.0 0 0,1 -11.493303480769221,-40.785679425670985" fill="none" id="id57" stroke="none" /><text fill="#e1ed5e" style="font-size:6.75px; font-family:Arial;" text-anchor="middle"><textPath startOffset="21.40746469413373" xlink:href="#id57">September</textPath></text><line stroke="#e1ed5e" stroke-width="0.3" x1="15.003131293944662" x2="10.003315487706104" y1="100.72959589197737" y2="100.7725132973878" /><path d="M 14.003168132696942 100.73817937305945 a86.0,86.0 0 0,1 10.791469493833604,-42.45332614584628" fill="none" id="id58" stroke="none" /><text fill="#e1ed5e" style="font-size:6.75px; font-family:Arial;" text-anchor="middle"><textPath startOffset="22.145653131862435" xlink:href="#id58">October</textPath></text><line stroke="#e1ed5e" stroke-width="0.3" x1="26.387840678322718" x2="22.05771365940052" y1="57.49999999999999" y2="54.99999999999999" /><path d="M 25.521815274538284 56.99999999999999 a86.0,86.0 0 0,1 29.574782752854787,-30.34633250058573" fill="none" id="id59" stroke="none" /><text fill="#e1ed5e" style="font-size:6.75px; font-family:Arial;" text-anchor="middle"><textPath startOffset="21.40746469413373" xlink:href="#id59">November</textPath></text><line stroke="#e1ed5e" stroke-width="0.3" x1="56.869717070023135" x2="54.33264160355391" y1="26.7553504044142" y2="22.446841604673864" /><path d="M 56.362301976729285 25.89364864446614 a86.0,86.0 0 0,1 42.16139366436587,-11.88097634709845" fill="none" id="id60" stroke="none" /><text fill="#e1ed5e" style="font-size:6.75px; font-family:Arial;" text-anchor="middle"><textPath startOffset="22.145653131862474" xlink:href="#id60">December</textPath></text></svg>