<?xml version="1.0" encoding="utf-8" ?>
<svg baseProfile="full" height="200mm" version="1.1" viewBox="0,0,200,200" width="200mm" xmlns="http://www.w3.org/2000/svg" xmlns:ev="http://www.w3.org/2001/xml-events" xmlns:xlink="http://www.w3.org/1999/xlink"><defs /><rect fill="#1a1a1a" height="200" width="200" x="0" y="0" /><text alignment-baseline="middle" fill="#e1ed5e" style="dominant-baseline: central; font-size:9.0px; font-family:Arial;" text-anchor="middle" x="100.0" y="100.0">2024</text><line stroke="#e1ed5e" stroke-width="0.3" x1="100.0" x2="100.0" y1="15.0" y2="10.0" /><path d="M 100.0 14.0 a86.0,86.0 0 0,1 42.35913384403234,11.155469271406648" fill="none" id="id49" stroke="none" /><text fill="#e1ed5e" style="font-size:6.75px; font-family:Arial;" text-anchor="middle"><textPath startOffset="22.145653131862478" xlink:href="#id49">January</textPath></text><path d="M 100.0 79.0 l 0.0 -20.977666034092536 a41.977666034092536,41.977666034092536 0 0,0 0.7206024574742116,0.006185505427737506 l -0.3601095326253569 20.974574926859233" fill="#ffe915" stroke="none" /><path d="M 100.36049292484886 79.00309439819443 l 0.36362116577245857 -21.179109952695818 a42.18223120307624,42.18223120307624 0 0,0 0.7239006908751624,0.018645113944414322 l -0.7271351707183624 21.169747121401358" fill="#ffec16" stroke="none" /><path d="M 101.80034050326958 79.07731436759882 l 1.801459407290397 -20.935688993175354 a42.01305141132717,42.01305141132717 0 0,0 0.7180239283358676,0.06799761254007022 l -2.1605828990112776 20.9016796251301" fill="#ffe915" stroke="none" /><path d="M 102.15924093988457 79.11130261209362 l 1.7264124758824757 -16.70147462901621 a37.790466188303256,37.790466188303256 0 0,0 0.6447127284303831,0.07224140596268887 l -2.012861105913655 16.669377462546553" fill="#ffb010" stroke="none" /><path d="M 102.87502721639298 79.19773525538626 l 2.881113861335574 -20.846304675359562 a42.04445855088455,42.04445855088455 0 0,0 0.7141048958770922,0.10494882814128541 l -3.238543862820348 20.79377477391939" fill="#ffea16" stroke="none" /><path d="M 103.58742460773223 79.30868818359171 l 3.5890818811288017 -20.70087052895646 a42.00970131644106,42.00970131644106 0 0,0 0.7094943767064866,0.12929350993711836 l -3.9439109913863417 20.636208845087978" fill="#ffe915" stroke="none" /><path d="M 104.29559338865022 79.4440306129975 l 4.300790010616167 -20.580837104307914 a42.02540488621975,42.02540488621975 0 0,0 0.7049012884630703,0.1536299549740562 l -4.6534537156983715 20.50397569120014" fill="#ffe915" stroke="none" /><path d="M 104.64783097203109 79.52079915486377 l 4.647336664895497 -20.477022836691056 a41.997766603409254,41.997766603409254 0 0,0 0.7016983769463424,0.1655989063337126 l -4.998167195581725 20.394227786711113" fill="#ffe915" stroke="none" /><path d="M 105.3480935250658 79.69241777938227 l 5.340059484800422 -20.277075661132873 a41.9684532731557,41.9684532731557 0 0,0 0.6951146963050868,0.18945660151570592 l -5.687355582040202 20.182418565473025" fill="#ffe915" stroke="none" /><path d="M 106.72888874123014 80.10723608172694 l 6.754405503515457 -19.96819969193809 a42.07963454718882,42.07963454718882 0 0,0 0.6822796513225158,0.23733227965285406 l -7.096190926882991 19.849308979716643" fill="#ffea16" stroke="none" /><path d="M 107.06938296918511 80.22567764915836 l 7.083151122744236 -19.812834326758168 a42.040899075068054,42.040899075068054 0 0,0 0.6774807772008146,0.24878032547470078 l -7.422221051599175 19.688323152274744" fill="#ffea16" stroke="none" /><path d="M 108.07796709384702 80.6158196554323 l 8.148387243893923 -19.553163069124764 a42.18306872679777,42.18306872679777 0 0,0 0.6660202862610137,0.2842844561905522 l -8.482842605325366 19.41040396327481" fill="#ffec16" stroke="none" /><path d="M 108.73861861582097 80.90454125486305 l 6.989454366866875 -15.273219187285125 a37.796538235284345,37.796538235284345 0 0,0 0.5876664909717869,0.27505759079545566 l -7.250609571710167 15.150985364919137" fill="#ffb010" stroke="none" /><path d="M 109.3889696526874 81.21577127319529 l 11.509426979786003 -23.026563819052924 a46.74275724773753,46.74275724773753 0 0,0 0.7146584254428018,0.36490968417397995 l -11.903012626942383 22.82559618320611" fill="#d8ff1c" stroke="none" /><line stroke="#e1ed5e" stroke-width="0.3" x1="143.13028292997686" x2="145.6673583964461" y1="26.7553504044142" y2="22.446841604673864" /><path d="M 143.63769802327073 25.89364864446614 a86.0,86.0 0 0,1 29.32050498858742,28.57503671076993" fill="none" id="id50" stroke="none" /><text fill="#e1ed5e" style="font-size:6.75px; font-family:Arial;" text-anchor="middle"><textPath startOffset="20.669276256404974" xlink:href="#id50">February</textPath></text><path d="M 110.96478420261332 82.08984904055464 l 6.628460162672181 -10.827091527604694 a33.6949751900215,33.6949751900215 0 0,0 0.4907205758404403,0.30624593286130253 l -6.813344867302334 10.711709797901845" fill="#ff770a" stroke="none" /><path d="M 111.27062007382361 82.28071324371311 l 11.269309044425249 -17.717225600316482 a41.99755722247887,41.99755722247887 0 0,0 0.6049935461861119,0.3921495073131777 l -11.571788222868367 17.52116225129941" fill="#ffe915" stroke="none" /><path d="M 117.62189284568427 88.57770195909679 l 11.01758502036635 -7.141465499515613 a34.12965000149558,34.12965000149558 0 0,0 0.31445159363284825,0.4943701342122856 l -11.138554305625089 6.951281690624656" fill="#ff7d0b" stroke="none" /><path d="M 117.81537515405839 88.88188828441811 l 11.179586503698662 -6.976888816950813 a34.17801699641394,34.17801699641394 0 0,0 0.30635227191013575,0.5004034128981626 l -11.2977067400642 6.783948287928096" fill="#ff7e0b" stroke="none" /><line stroke="#e1ed5e" stroke-width="0.3" x1="172.87174338648825" x2="177.1583165268699" y1="56.24261187166439" y2="53.66864786411523" /><path d="M 173.72905801456457 55.72781907015455 a86.0,86.0 0 0,1 12.242430191666344,42.057860355516425" fill="none" id="id51" stroke="none" /><text fill="#e1ed5e" style="font-size:6.75px; font-family:Arial;" text-anchor="middle"><textPath startOffset="22.145653131862474" xlink:href="#id51">March</textPath></text><path d="M 118.36410011445183 89.81374322990088 l 18.361963952025388 -10.185071876810431 a41.99755722247887,41.99755722247887 0 0,0 0.3442892752688356,0.633453488385426 l -18.534098576909564 9.868363554950403" fill="#ffe915" stroke="none" /><path d="M 118.70294669586156 90.45014215332178 l 18.684547522012313 -9.540463097411498 a41.979341081535594,41.979341081535594 0 0,0 0.32220161137314296,0.6446190570491238 l -18.845569046597195 9.218312184198624" fill="#ffe915" stroke="none" /><path d="M 119.0197475246899 91.09779779509293 l 9.919331181878457 -4.642747849512352 a31.95208832551755,31.95208832551755 0 0,0 0.2282528394833895,0.4987736473502007 l -9.997568486216897 4.471785219947467" fill="#ff5d08" stroke="none" /><path d="M 119.71291397450082 92.76114493625339 l 19.722610343131663 -7.242415704616553 a42.0103294592322,42.0103294592322 0 0,0 0.2427793542652544,0.6790970629681102 l -19.844029867440863 6.902783685267526" fill="#ffe915" stroke="none" /><path d="M 119.94978838288452 93.4421083053983 l 19.928372430557996 -6.550851845697095 a41.97745665316215,41.97745665316215 0 0,0 0.21915287576749043,0.6864932619796853 l -20.037890022102744 6.207789550026023" fill="#ffe915" stroke="none" /><path d="M 120.16314734710363 94.1308016681162 l 16.20318607864606 -4.716511319729704 a37.87568422696893,37.87568422696893 0 0,0 0.1763591198771424,0.6258363001671355 l -16.281763690597785 4.437667095659555" fill="#ffb210" stroke="none" /><path d="M 120.26092885502905 94.47779374421319 l 16.173889279188327 -4.408265445133708 a37.76387481014467,37.76387481014467 0 0,0 0.1651009977687881,0.6269153804400672 l -16.247179757761845 4.129969560320842" fill="#ffb010" stroke="none" /><path d="M 120.43855184770803 95.1765574152323 l 20.425170097369868 -4.820284528124516 a41.98625065223821,41.98625065223821 0 0,0 0.15952603647456923,0.7029011512360533 l -20.504906995402102 4.468949042949436" fill="#ffe915" stroke="none" /><path d="M 120.65975698304385 96.23510406497455 l 16.507508849905456 -3.008218006504797 a37.77936899899298,37.77936899899298 0 0,0 0.11079282546815274,0.6390235752526705 l -16.556716492865842 2.724401398331534" fill="#ffb010" stroke="none" /><path d="M 120.7213421655516 96.59031103205396 l 21.435636106270547 -3.5272257640706224 a42.723899669975765,42.723899669975765 0 0,0 0.11286943827260569,0.7247027607819412 l -21.49302703668142 3.15873482135724" fill="#fff316" stroke="none" /><path d="M 120.77682067341334 96.94652285012252 l 20.73960169637888 -3.048007241959284 a41.962381226174614,41.962381226174614 0 0,0 0.09862255294820578,0.7135836643634372 l -20.7888687658823 2.691535269395761" fill="#ffe915" stroke="none" /><path d="M 120.86939407059847 97.66154086499901 l 20.83658699220893 -2.3347830334384185 a41.96698760664302,41.96698760664302 0 0,0 0.07407694406332514,0.716627236626212 l -20.87359632875392 1.976751274529275" fill="#ffe915" stroke="none" /><path d="M 120.93736805541906 98.37931529534042 l 21.0029871684956 -1.6257640390159767 a42.06581540578357,42.06581540578357 0 0,0 0.049549602071458275,0.7204403394761894 l -21.027800731732125 1.264980275385453" fill="#ffea16" stroke="none" /><path d="M 120.98066250479742 99.09900007780936 l 12.59668135264787 -0.5409556974666957 a33.60829148484315,33.60829148484315 0 0,0 0.01980538698219512,0.5766122324139056 l -12.604111426626915 0.3246372004886702" fill="#ff750a" stroke="none" /><path d="M 120.99303781780057 99.45929381324524 l 12.637810580349067 -0.325505171149425 a33.64200181463473,33.64200181463473 0 0,0 0.009914087113698506,0.5774458717647312 l -12.641536099061431 0.10851238341562744" fill="#ff760a" stroke="none" /><line stroke="#e1ed5e" stroke-width="0.3" x1="184.99686870605535" x2="189.99668451229388" y1="99.2704041080226" y2="99.22748670261217" /><path d="M 185.99683186730306 99.26182062694052 a86.0,86.0 0 0,1 -10.086455211305974,41.156179273409016" fill="none" id="id52" stroke="none" /><text fill="#e1ed5e" style="font-size:6.75px; font-family:Arial;" text-anchor="middle"><textPath startOffset="21.40746469413373" xlink:href="#id52">April</textPath></text><path d="M 120.98066250479742 100.90099992219065 l 21.00186023484711 0.9019102439271963 a42.0212172676121,42.0212172676121 0 0,0 -0.03713557150413824,0.7204201663326258 l -20.9832830738864 -1.262302203636553" fill="#ffe915" stroke="none" /><path d="M 120.96210409425399 101.26102812881392 l 12.616680439039271 0.7589881652312729 a33.63948924347014,33.63948924347014 0 0,0 -0.03962417677684853,0.5761268340239649 l -12.601792301097356 -0.9754584234095813" fill="#ff760a" stroke="none" /><path d="M 120.9064616781168 101.97986365728391 l 20.90736495410352 1.9799491984589872 a42.00090731736499,42.00090731736499 0 0,0 -0.07413681656447645,0.7172064487628962 l -20.870295745057376 -2.338560169504815" fill="#ffe915" stroke="none" /><path d="M 120.82617615685814 102.69636545807757 l 20.80755706933958 2.6939548444311776 a41.98122550990904,41.98122550990904 0 0,0 -0.09866684193553821,0.7139041174132078 l -20.758245710848833 -3.0507472700444707" fill="#ffe915" stroke="none" /><path d="M 120.7213421655516 103.40968896794604 l 16.60960674994954 2.733104470007547 a37.83297051717089,37.83297051717089 0 0,0 -0.11095001876718512,0.639930224429004 l -16.560241913690117 -3.017827727357139" fill="#ffb110" stroke="none" /><path d="M 120.592083275326 104.11899336999214 l 20.609808699050888 4.122538951166555 a42.01807655365636,42.01807655365636 0 0,0 -0.14754805484874847,0.706070855448362 l -20.536002933377777 -4.475726257900327" fill="#ffe915" stroke="none" /><path d="M 120.51834098615036 104.47187691870673 l 16.36587398800936 3.56686606343279 a37.75005566873943,37.75005566873943 0 0,0 -0.14343068656947325,0.6319820697628364 l -16.30223243988222 -3.8472824671346433" fill="#ffb010" stroke="none" /><path d="M 120.26092885502905 105.52220625578681 l 20.22140183911311 5.511432991830081 a41.95903113128849,41.95903113128849 0 0,0 -0.1953722540527163,0.6933072058697186 l -20.123811092985814 -5.857748121602809" fill="#ffe915" stroke="none" /><path d="M 119.58574465831526 107.57618678355244 l 19.54401981700947 7.560046718583685 a41.95526227454161,41.95526227454161 0 0,0 -0.26559943613911113,0.6694840814636677 l -19.411361705904234 -7.894431817260917" fill="#ffe915" stroke="none" /><path d="M 119.31412917781788 108.2440532568976 l 19.285307580338298 8.231751030771697 a41.96866265408609,41.96866265408609 0 0,0 -0.28851680496714094,0.6601829121631716 l -19.14115689335419 -8.561596012710714" fill="#ffe915" stroke="none" /><path d="M 119.0197475246899 108.90220220490707 l 18.97979737584464 8.883503518046222 a41.95589041733275,41.95589041733275 0 0,0 -0.3109146095094258,0.6496919537353876 l -18.824503508375305 -9.208007973846712" fill="#ffe915" stroke="none" /><path d="M 118.70294669586154 109.54985784667822 l 18.66888336049201 9.532464864927665 a41.961753083383456,41.961753083383456 0 0,0 -0.33308026907931265,0.638725334239273 l -18.50249502243775 -9.85153644227144" fill="#ffe915" stroke="none" /><line stroke="#e1ed5e" stroke-width="0.3" x1="174.33088141563837" x2="178.70328620479359" y1="141.23008692659167" y2="143.65538615756765" /><path d="M 175.20536237346943 141.71514677278685 a86.0,86.0 0 0,1 -30.301960400862466,31.631185727798858" fill="none" id="id53" stroke="none" /><text fill="#e1ed5e" style="font-size:6.75px; font-family:Arial;" text-anchor="middle"><textPath startOffset="22.145653131862474" xlink:href="#id53">May</textPath></text><path d="M 118.36410011445183 110.18625677009912 l 18.35097797383224 10.178978139897175 a41.98499436665592,41.98499436665592 0 0,0 -0.355006389013499,0.6272622733316555 l -18.173538219797365 -10.492497183327954" fill="#ffe915" stroke="none" /><path d="M 117.21940702142032 112.02048342749411 l 17.200407054219642 12.007219974776223 a41.97682851037101,41.97682851037101 0 0,0 -0.41753931844826603,0.5873213412788938 l -16.991752637241415 -12.30071854276462" fill="#ffe915" stroke="none" /><path d="M 116.79662413953412 112.60449989151573 l 16.798522145166604 12.605924190326618 a42.00237298387767,42.00237298387767 0 0,0 -0.43772077494993394,0.5729905454351106 l -16.579649392862365 -12.892435649002607" fill="#ffe915" stroke="none" /><path d="M 116.35404254752997 113.17365903436017 l 16.340726118358408 13.162932261640119 a41.982900557352096,41.982900557352096 0 0,0 -0.4569202599986294,0.5573684230032779 l -16.112359039121152 -13.44150296634189" fill="#ffe915" stroke="none" /><path d="M 115.89218393027572 113.72728997021213 l 9.600054395168463 8.292298339262961 a33.68555304815429,33.68555304815429 0 0,0 -0.38175185380461263,0.4343635324084072 l -9.456291477405266 -8.45587414948266" fill="#ff770a" stroke="none" /><path d="M 115.41159269507618 114.26474011684316 l 15.378760333034808 14.234350972696365 a41.95526227454161,41.95526227454161 0 0,0 -0.4937618245341967,0.5243579468677099 l -15.132142674764351 -14.496250379508572" fill="#ffe915" stroke="none" /><path d="M 115.16444852881244 114.52719865689866 l 15.16495252029525 14.52768146933844 a42.000697936434605,42.000697936434605 0 0,0 -0.5032347600802384,0.5163631964049917 l -14.913330959064204 -14.785867357811169" fill="#ffe915" stroke="none" /><path d="M 113.86319453409587 115.77377054828091 l 13.83766930445189 15.744727522547839 a41.9613343215227,41.9613343215227 0 0,0 -0.5451387171163127,0.47087784011792616 l -13.56535110757272 -15.979949495130484" fill="#ffe915" stroke="none" /><path d="M 112.7482090630111 116.68781488649013 l 7.969563739052832 10.432414760853058 a34.128184334982905,34.128184334982905 0 0,0 -0.4686076165187965,0.3516518916246005 l -7.78930313362327 -10.567685679741674" fill="#ff7d0b" stroke="none" /><path d="M 112.45986205192187 116.90419585922612 l 6.2596430142563895 8.492407948088415 a31.55007693918315,31.55007693918315 0 0,0 -0.4387248376382781,0.3176029489553994 l -6.112937166244143 -8.598611668416892" fill="#ff5708" stroke="none" /><path d="M 111.8722381534696 117.32195027204791 l 11.850023600895359 17.289538575952154 a41.96070617873154,41.96070617873154 0 0,0 -0.5976477605776005,0.4021240854887187 l -11.551479552220755 -17.490412335497993" fill="#ffe915" stroke="none" /><line stroke="#e1ed5e" stroke-width="0.3" x1="143.1302829299769" x2="145.66735839644613" y1="173.24464959558577" y2="177.55315839532614" /><path d="M 143.63769802327073 174.10635135553383 a86.0,86.0 0 0,1 -40.68552437913181,11.842963189579606" fill="none" id="id54" stroke="none" /><text fill="#e1ed5e" style="font-size:6.75px; font-family:Arial;" text-anchor="middle"><textPath startOffset="21.407464694133747" xlink:href="#id54">June</textPath></text><path d="M 110.34350942703117 118.27599006163325 l 9.29842263334724 16.429421835476223 a39.878203445147186,39.878203445147186 0 0,0 -0.5986588286655384,0.332065960676993 l -9.015019616525608 -16.58662071158636" fill="#ffcd13" stroke="none" /><path d="M 109.71004243097381 118.62028667847754 l 9.697682487702536 18.59658485753527 a41.9732690345545,41.9732690345545 0 0,0 -0.6417368620327465,0.3276754143100942 l -9.377018403956209 -18.7603182235182" fill="#ffe915" stroke="none" /><path d="M 109.06512990194946 118.94263497670748 l 9.051150500132485 18.913423403494974 a41.967615749434174,41.967615749434174 0 0,0 -0.6525190568616278,0.3054118662299217 l -8.725142729399352 -19.06601150129543" fill="#ffe915" stroke="none" /><path d="M 108.4095320186766 119.2426549942271 l 5.047530315290913 11.549737157113572 a33.60452262809626,33.60452262809626 0 0,0 -0.5305752866246801,0.22647103990332443 l -4.848519953495801 -11.634682846676302" fill="#ff750a" stroke="none" /><path d="M 108.07796709384702 119.3841803445677 l 12.804412925244753 30.72592973773238 a54.287170931279846,54.287170931279846 0 0,0 -0.8632837403377563,0.35108998174886025 l -12.275074723716557 -30.94120697606053" fill="#7eff26" stroke="none" /><path d="M 107.06938296918513 119.77432235084164 l 7.059608989866705 19.746982791146642 a41.9709658443203,41.9709658443203 0 0,0 -0.6805176957946,0.23671938005768806 l -6.719585522027083 -19.86526060377292" fill="#ffe915" stroke="none" /><path d="M 106.38641147887787 120.00534299687104 l 5.74235151644989 17.987834337816125 a39.88218168282445,39.88218168282445 0 0,0 -0.6539906116188726,0.20260796322090757 l -5.432720271959393 -18.08375888884368" fill="#ffcd13" stroke="none" /><path d="M 105.3480935250658 120.30758222061773 l 5.342938941709695 20.28800942802788 a41.97975984339635,41.97975984339635 0 0,0 -0.6984526609977004,0.17754393514772804 l -4.993880987486598 -20.37673859501088" fill="#ffe915" stroke="none" /><path d="M 104.64783097203109 120.47920084513623 l 3.715227878160609 16.369979536723918 a37.7862785696956,37.7862785696956 0 0,0 -0.633797497540272,0.13813321468326867 l -3.4336679640012013 -16.431344209540907" fill="#ffb010" stroke="none" /><path d="M 103.58742460773223 120.69131181640829 l 0.8154142796046855 4.703092876847383 a25.773257069929905,25.773257069929905 0 0,0 -0.43657749330335827,0.0718386603858449 l -0.7345592832482549 -4.716397535728898" fill="#ff0000" stroke="none" /><path d="M 103.2317021107853 120.74984581791261 l 3.22562294021727 20.710813181963115 a41.96049679780117,41.96049679780117 0 0,0 -0.7126788459049896,0.10473924790411518 l -2.8696189887045946 -20.763133503166113" fill="#ffe915" stroke="none" /><path d="M 102.15924093988457 120.88869738790638 l 2.156707722923449 20.864190811756746 a41.97536284385832,41.97536284385832 0 0,0 -0.7173798119872933,0.06793661405217544 l -1.7982283475511402 -20.898139181314104" fill="#ffe915" stroke="none" /><path d="M 101.80034050326958 120.92268563240118 l 0.9093458629498814 10.567977328217683 a31.607028552247186,31.607028552247186 0 0,0 -0.540978383081049,0.04187514823688635 l -0.7277984850935966 -10.582030243449625" fill="#ff5808" stroke="none" /><path d="M 100.72087961077811 120.9876233191556 l 0.7193726221904372 20.943748990694267 a41.95609979826314,41.95609979826314 0 0,0 -0.7200199886101517,0.018545160819866388 l -0.35973931950954163 -20.95301186886418" fill="#ffe915" stroke="none" /><line stroke="#e1ed5e" stroke-width="0.3" x1="101.45913802915013" x2="101.54496967792366" y1="184.9874750549273" y2="189.98673829345242" /><path d="M 101.47630435890484 185.9873277026323 a86.0,86.0 0 0,1 -42.54439059252881,-10.42667462771756" fill="none" id="id55" stroke="none" /><text fill="#e1ed5e" style="font-size:6.75px; font-family:Arial;" text-anchor="middle"><textPath startOffset="22.145653131862474" xlink:href="#id55">July</textPath></text><path d="M 100.0 121.0 l 2.567946201941337e-15 20.968872035016474 a41.968872035016474,41.968872035016474 0 0,0 -0.7204514967862041,-0.006184209611791657 l 0.3599585719373494 -20.965782223599117" fill="#ffe915" stroke="none" /><path d="M 98.91894614982273 120.97215588758144 l -0.8629510643435129 16.741020109034203 a37.76324666735353,37.76324666735353 0 0,0 -0.6471103616696543,-0.038928552441262136 l 1.1502057781456134 -16.72373957876825" fill="#ffb010" stroke="none" /><path d="M 98.55909050195518 120.95050786540614 l -1.155205361098545 16.796432417646244 a37.83611123112664,37.83611123112664 0 0,0 -0.6475938806476107,-0.05012786203207013 l 1.443368236521392 -16.77412678861912" fill="#ffb110" stroke="none" /><path d="M 98.19965949673042 120.92268563240118 l -1.3906840124396314 16.16185624521481 a37.22157820045399,37.22157820045399 0 0,0 -0.6361352698877016,-0.06024267144571213 l 1.6679188457123482 -16.135601818263915" fill="#ffa90f" stroke="none" /><path d="M 97.48249496171623 120.84855314841334 l -2.513421969029589 20.814739477711626 a41.96594070199111,41.96594070199111 0 0,0 -0.7144645012465544,-0.09250173376399802 l 2.8703642921669377 -20.76852614774723" fill="#ffe915" stroke="none" /><path d="M 96.76829788921471 120.74984581791261 l -3.227169584319371 20.720743746586315 a41.97054708245953,41.97054708245953 0 0,0 -0.7109460860191174,-0.11698590790772895 l 3.5823931733915524 -20.66229184018292" fill="#ffe915" stroke="none" /><path d="M 96.05791012581884 120.62667999033965 l -1.9830394176756978 10.376100185976195 a31.563896080588393,31.563896080588393 0 0,0 -0.5313308664201721,-0.10628105407281653 l 2.160866769626828 -10.340529735240517" fill="#ff5808" stroke="none" /><path d="M 95.00130118170881 120.39639698878247 l -4.99951286556507 20.399718579454216 a42.003419888529585,42.003419888529585 0 0,0 -0.69884631311829,-0.1776439999774218 l 5.348964471908738 -20.31088934764153" fill="#ffe915" stroke="none" /><path d="M 94.30408787586889 120.21278271476187 l -5.686219757868847 20.1783879261869 a41.96426565454806,41.96426565454806 0 0,0 -0.6916909711466775,-0.201341160888575 l 6.031770741397131 -20.07780307099581" fill="#ffe915" stroke="none" /><path d="M 93.61358852112213 120.00534299687104 l -9.544818368184966 29.899007592903423 a52.38557332154596,52.38557332154596 0 0,0 -0.8543270351388792,-0.28083426554126123 l 10.056668140971588 -29.730752405960143" fill="#94ff23" stroke="none" /><path d="M 93.27111125876986 119.89276391827306 l -10.074581310639024 29.783709509120254 a52.44147802995809,52.44147802995809 0 0,0 -0.8502866940299301,-0.2957738502994316 l 10.584373776713976 -29.60637722625223" fill="#93ff23" stroke="none" /><path d="M 92.59220618246901 119.65005319985036 l -5.913196379686038 15.68545592710905 a37.76303728642314,37.76303728642314 0 0,0 -0.6046181232469803,-0.23387927874854947 l 6.181586765426546 -15.58163676022246" fill="#ffb010" stroke="none" /><path d="M 91.92203290615298 119.3841803445677 l -6.45669281203914 15.493712272407391 a37.78523166504369,37.78523166504369 0 0,0 -0.5965836903184788,-0.2546461023378997 l 6.72171157752805 -15.380591520410087" fill="#ffb010" stroke="none" /><path d="M 91.26138138417905 119.09545874513695 l -8.713903143095102 19.04145097679831 a41.94060560941483,41.94060560941483 0 0,0 -0.6520990989780305,-0.3052153047354803 l 9.039490955944622 -18.8890594404923" fill="#ffe815" stroke="none" /><path d="M 90.93487009805054 118.94263497670748 l -9.053952406100116 18.91927830933283 a41.974106558276034,41.974106558276034 0 0,0 -0.6472802002514023,-0.31661718156743535 l 9.377392855613587 -18.761067377668173" fill="#ffe915" stroke="none" /><line stroke="#e1ed5e" stroke-width="0.3" x1="58.13341422392154" x2="55.67067388415222" y1="173.97424548756322" y2="178.32567169271397" /><path d="M 57.64086615596768 174.84453072859336 a86.0,86.0 0 0,1 -31.369924170532247,-30.572349798747897" fill="none" id="id56" stroke="none" /><text fill="#e1ed5e" style="font-size:6.75px; font-family:Arial;" text-anchor="middle"><textPath startOffset="22.145653131862474" xlink:href="#id56">August</textPath></text><path d="M 88.72937992617639 117.7192867562869 l -9.099030978382963 14.30518800689269 a37.953783314001605,37.953783314001605 0 0,0 -0.5467411791756978,-0.3543910268021619 l 9.34325778981567 -14.146883138386633" fill="#ffb310" stroke="none" /><path d="M 88.1277618465304 117.32195027204791 l -11.847419408231243 17.285738981027976 a41.95609979826314,41.95609979826314 0 0,0 -0.5905918597890464,-0.4122789858080466 l 12.142406359194053 -17.079815179414798" fill="#ffe915" stroke="none" /><path d="M 87.83215693770417 117.11559508785305 l -11.005640501974778 15.480811640147401 a39.99420048057909,39.99420048057909 0 0,0 -0.5561460007257254,-0.4026068157688284 l 11.269767513074457 -15.289604053005506" fill="#ffce13" stroke="none" /><path d="M 86.96720088162412 116.46651593811092 l -27.194636519627338 34.35953486386437 a64.8192411104501,64.8192411104501 0 0,0 -0.8665691432340669,-0.6980467605783139 l 27.780456433216663 -33.88763980949264" fill="#34ff59" stroke="none" /><path d="M 86.40962598614128 116.0094264158162 l -13.563047554827978 15.977235915789384 a41.9577748457062,41.9577748457062 0 0,0 -0.5450924743522974,-0.4708378967197498 l 13.835319508943138 -15.742053886604912" fill="#ffe915" stroke="none" /><path d="M 85.08716467003676 114.78537596483092 l -11.901492038369037 11.799770495431458 a37.75947781060664,37.75947781060664 0 0,0 -0.4524182380381793,-0.4642209680985919 l 12.102297077558026 -11.593726835265128" fill="#ffb010" stroke="none" /><path d="M 84.58840730492382 114.26474011684316 l -18.45368262699735 17.08045314206374 a46.145184072425856,46.145184072425856 0 0,0 -0.533091797668818,-0.5859612695757371 l 18.744172125508047 -16.76115429693033" fill="#e0ff1b" stroke="none" /><path d="M 83.8745106332314 113.45245675266167 l -16.109143448676875 13.43882040642684 a41.978712938744444,41.978712938744444 0 0,0 -0.45687468411516785,-0.5573128278359909 l 16.337464952030672 -13.160305296892354" fill="#ffe915" stroke="none" /><path d="M 83.4222238831116 112.89097897827486 l -29.2521960675846 22.746684592479937 a58.05539953537374,58.05539953537374 0 0,0 -0.6050147329629961,-0.7919837066823938 l 29.63836277790189 -22.241179972556672" fill="#54ff2b" stroke="none" /><path d="M 83.20337586046588 112.60449989151573 l -28.198111445009545 21.160388521941975 a56.25472353408422,56.25472353408422 0 0,0 -0.5729891310862182,-0.7773698020673673 l 28.55720259567959 -20.67321241060573" fill="#68ff28" stroke="none" /><path d="M 82.78059297857968 112.02048342749411 l -17.195256460701387 12.003624460485227 a41.97054708245953,41.97054708245953 0 0,0 -0.4073346784228986,-0.594313469163356 l 17.39878087593961 -11.70667625625182" fill="#ffe915" stroke="none" /><path d="M 82.37810715431573 111.42229804090323 l -17.57609385734205 11.392611689987474 a41.94542137081363,41.94542137081363 0 0,0 -0.3864617596452261,-0.6075820757544048 l 17.769073308613166 -11.089215939554398" fill="#ffe815" stroke="none" /><path d="M 81.99639281039703 110.81064883170644 l -37.89196055589455 22.753033589358257 a65.1984299753728,65.1984299753728 0 0,0 -0.5679289000361398,-0.9644674333782751 l 38.276963166060455 -22.099214987686423" fill="#34ff5d" stroke="none" /><line stroke="#e1ed5e" stroke-width="0.3" x1="26.387840678322732" x2="22.057713659400548" y1="142.50000000000003" y2="145.00000000000006" /><path d="M 25.521815274538298 143.00000000000003 a86.0,86.0 0 0,1 -11.493303480769221,-40.785679425670985" fill="none" id="id57" stroke="none" /><text fill="#e1ed5e" style="font-size:6.75px; font-family:Arial;" text-anchor="middle"><textPath startOffset="21.40746469413373" xlink:href="#id57">September</textPath></text><path d="M 81.81346652052679 110.50000000000001 l -18.07543912001177 10.4358596416595 a41.87171928331898,41.87171928331898 0 0,0 -0.3540485854242103,-0.625569926164352 l 18.251921070457357 -10.124032945396026" fill="#ffe715" stroke="none" /><path d="M 81.4637452351635 109.86951160357371 l -22.77230156607724 12.124967928949465 a46.799080718010416,46.799080718010416 0 0,0 -0.3714775778610655,-0.7123572367032214 l 22.97708721291325 -11.732264449141741" fill="#d7ff1c" stroke="none" /><path d="M 81.1358732173502 109.22738970284198 l -21.386411509450184 10.461165556019528 a44.807868070072814,44.807868070072814 0 0,0 -0.3320492227761475,-0.6938551669287555 l 21.562839990186244 -10.092497887025669" fill="#f0ff19" stroke="none" /><path d="M 80.83023694016515 108.57439118712176 l -12.444446949148222 5.566242833379088 a34.63258299627435,34.63258299627435 0 0,0 -0.23808436013796624,-0.5447836088240658 l 12.538165191303156 -5.351797154779173" fill="#ff840c" stroke="none" /><path d="M 80.68587082218212 108.24405325689762 l -28.707081377350967 12.253346011415331 a52.2128340539804,52.2128340539804 0 0,0 -0.3447890793710648,-0.8273682744334223 l 28.913196301258516 -11.758745227540627" fill="#96ff23" stroke="none" /><path d="M 80.41425534168474 107.57618678355246 l -21.187106313485522 8.195627872938758 a43.71699342277998,43.71699342277998 0 0,0 -0.2647361980601777,-0.7022442179070297 l 21.324673195360138 -7.830715374837583" fill="#feff18" stroke="none" /><path d="M 80.16572619554312 106.89939002012753 l -27.207352485252347 9.464129519511898 a49.8064190210943,49.8064190210943 0 0,0 -0.2739698807719873,-0.8099432712448557 l 27.3658077875967 -8.99568457379288" fill="#b3ff20" stroke="none" /><path d="M 79.73907114497094 105.5222062557868 l -24.25255142652073 6.610140737603997 a46.13722759707133,46.13722759707133 0 0,0 -0.20170870571034943,-0.7659208102156294 l 24.36244961303581 -6.192839423015565" fill="#e0ff1b" stroke="none" /><path d="M 79.64726062577567 105.17358676015961 l -48.6410902077868 12.364374921315745 a71.18798086989469,71.18798086989469 0 0,0 -0.2908960343217353,-1.186955088547793 l 48.84617376862483 -11.527564008159853" fill="#3cffa5" stroke="none" /><path d="M 79.48165901384964 104.47187691870673 l -22.253439770915445 4.850033623115941 a43.775829464217466,43.775829464217466 0 0,0 -0.153720470250168,-0.7356080975837052 l 22.333417951989983 -4.467309074246827" fill="#feff18" stroke="none" /><path d="M 79.34024301695615 103.76489593502545 l -43.434535533482425 7.915219254705577 a65.14985359952408,65.14985359952408 0 0,0 -0.19106026782290025,-1.1019848525121123 l 43.56401061879756 -7.168441369272872" fill="#34ff5d" stroke="none" /><path d="M 79.2786578344484 103.40968896794605 l -20.771615456790016 3.417961418888096 a42.0509493597264,42.0509493597264 0 0,0 -0.11109161545937597,-0.7132878629969843 l 20.82722856438766 -3.0608853739596613" fill="#ffea16" stroke="none" /><path d="M 79.17382384314188 102.69636545807758 l -32.11107359156948 4.157421362518489 a53.37908583621094,53.37908583621094 0 0,0 -0.10985393939083325,-0.9097482067061198 l 32.177709617219975 -3.60557947888897" fill="#89ff25" stroke="none" /><path d="M 79.03789590574601 101.26102812881392 l -23.588715574848248 1.4190385530347798 a44.631359945760366,44.631359945760366 0 0,0 -0.03944224290404282,-0.7651689752585579 l 23.609599407208865 -1.013897784399491" fill="#f3ff19" stroke="none" /><line stroke="#e1ed5e" stroke-width="0.3" x1="15.003131293944662" x2="10.003315487706104" y1="100.72959589197737" y2="100.7725132973878" /><path d="M 14.003168132696942 100.73817937305945 a86.0,86.0 0 0,1 10.791469493833604,-42.45332614584628" fill="none" id="id58" stroke="none" /><text fill="#e1ed5e" style="font-size:6.75px; font-family:Arial;" text-anchor="middle"><textPath startOffset="22.145653131862435" xlink:href="#id58">October</textPath></text><path d="M 79.13060592940154 97.66154086499901 l -21.19947628213296 -2.3754455352890402 a42.33214794923011,42.33214794923011 0 0,0 0.08711938659584693,-0.721473496211526 l 21.155574809277443 2.7390127084240024" fill="#ffee16" stroke="none" /><path d="M 79.22317932658666 96.9465228501225 l -21.175457323543178 -3.112063009639602 a42.4029187036994,42.4029187036994 0 0,0 0.11202145993636144,-0.7192581315646518 l 21.11891437146855 3.4751093231357038" fill="#ffee16" stroke="none" /><path d="M 79.407916724674 95.88100663000787 l -44.52989160717111 -8.90722545378315 a66.4120018478698,66.4120018478698 0 0,0 0.2332082402380143,-1.115985851872203 l 44.37042565610873 9.670327756940763" fill="#36ff6c" stroke="none" /><path d="M 79.56144815229197 95.17655741523228 l -41.48940368297032 -9.791386299391805 a63.62911990215595,63.62911990215595 0 0,0 0.2600081983045257,-1.0609221770976953 l 41.31520795814949 10.502164301097618" fill="#32ff4a" stroke="none" /><path d="M 79.64726062577567 94.8264132398404 l -20.303901512076116 -5.161172366580495 a41.94960898942128,41.94960898942128 0 0,0 0.18340073244559607,-0.6964024536976642 l 20.212311298825792 5.508955324650944" fill="#ffe815" stroke="none" /><path d="M 79.73907114497095 94.47779374421319 l -20.351093547212116 -5.546781043585883 a42.09345368859406,42.09345368859406 0 0,0 0.1959981607361654,-0.6955283278808392 l 20.252876894401368 5.895317295369734" fill="#ffea16" stroke="none" /><path d="M 79.83685265289637 94.1308016681162 l -20.136275391564883 -5.861376297262544 a41.972012748972205,41.972012748972205 0 0,0 0.20730912472276042,-0.6900646525633738 l 20.032689946838495 6.206178553416642" fill="#ffe915" stroke="none" /><path d="M 79.94057633289273 93.78553927170692 l -30.181036830811777 -9.350162359440022 a52.59621053751076,52.59621053751076 0 0,0 0.2745904995866292,-0.8601508290032536 l 30.016081615447888 9.866882222134667" fill="#92ff23" stroke="none" /><path d="M 80.05021161711548 93.44210830539832 l -20.15592521193459 -6.625652964708125 a42.21698843751973,42.21698843751973 0 0,0 0.23222274389735398,-0.6865252790550794 l 20.03921704646487 6.970679918237365" fill="#ffec16" stroke="none" /><path d="M 80.28708602549916 92.7611449362534 l -19.978319307767812 -7.336315578369158 a42.28273404965984,42.28273404965984 0 0,0 0.25605077978815743,-0.6792051140507305 l 19.84943784416522 7.678188972614033" fill="#ffed16" stroke="none" /><path d="M 80.41425534168474 92.42381321644754 l -19.905287943760204 -7.699792990934163 a42.34261699574924,42.34261699574924 0 0,0 0.26805160041983367,-0.6756651373233539 l 19.77017766837424 8.040359145471099" fill="#ffee16" stroke="none" /><path d="M 80.5471966667186 92.08871423366112 l -19.81517512961372 -8.058659221225026 a42.39119337159798,42.39119337159798 0 0,0 0.27993156856653234,-0.6717338590503233 l 19.67391771651071 8.397625589716613" fill="#ffee16" stroke="none" /><path d="M 80.68587082218212 91.75594674310238 l -20.205031074074398 -8.624326300108125 a42.96866597759292,42.96866597759292 0 0,0 0.295391404861632,-0.6759133420728655 l 20.054005787195788 8.969901711956856" fill="#fff617" stroke="none" /><path d="M 80.83023694016515 91.42560881287825 l -57.50928917950456 -25.72317356136523 a84.0,84.0 0 0,0 0.600062140579813,-1.3112440711413145 l 57.05924257406971 26.706606614721213" fill="#4dd2ff" stroke="none" /><line stroke="#e1ed5e" stroke-width="0.3" x1="26.387840678322718" x2="22.05771365940052" y1="57.49999999999999" y2="54.99999999999999" /><path d="M 25.521815274538284 56.99999999999999 a86.0,86.0 0 0,1 29.574782752854787,-30.34633250058573" fill="none" id="id59" stroke="none" /><text fill="#e1ed5e" style="font-size:6.75px; font-family:Arial;" text-anchor="middle"><textPath startOffset="21.40746469413373" xlink:href="#id59">November</textPath></text><line stroke="#e1ed5e" stroke-width="0.3" x1="56.869717070023135" x2="54.33264160355391" y1="26.7553504044142" y2="22.446841604673864" /><path d="M 56.362301976729285 25.89364864446614 a86.0,86.0 0 0,1 42.16139366436587,-11.88097634709845" fill="none" id="id60" stroke="none" /><text fill="#e1ed5e" style="font-size:6.75px; font-family:Arial;" text-anchor="middle"><textPath startOffset="22.145653131862474" xlink:href="#id60">December</textPath></text></svg>