<?xml version="1.0" encoding="utf-8" ?>
<svg baseProfile="full" height="200mm" version="1.1" viewBox="0,0,200,200" width="200mm" xmlns="http://www.w3.org/2000/svg" xmlns:ev="http://www.w3.org/2001/xml-events" xmlns:xlink="http://www.w3.org/1999/xlink"><defs /><rect fill="#1a1a1a" height="200" width="200" x="0" y="0" /><text alignment-baseline="middle" fill="#e1ed5e" style="dominant-baseline: central; font-size:9.0px; font-family:Arial;" text-anchor="middle" x="100.0" y="100.0">2024</text><line stroke="#e1ed5e" stroke-width="0.3" x1="100.0" x2="100.0" y1="15.0" y2="10.0" /><path d="M 100.0 14.0 a86.0,86.0 0 0,1 42.35913384403234,11.155469271406648" fill="none" id="id49" stroke="none" /><text fill="#e1ed5e" style="font-size:6.75px; font-family:Arial;" text-anchor="middle"><textPath startOffset="22.145653131862478" xlink:href="#id49">January</textPath></text><path d="M 100.0 79.0 l 0.0 -15.946890916808144 a36.946890916808144,36.946890916808144 0 0,0 0.6342425128891311,0.0054442091687121295 l -0.2737495880402763 15.944541105833867" fill="#ffb110" stroke="none" /><path d="M 100.36049292484886 79.00309439819443 l 0.2764190761828405 -16.10002540710846 a37.102398132427844,37.102398132427844 0 0,0 0.6367243001415993,0.016399759355064474 l -0.5527566903951812 16.09290793040335" fill="#ffb310" stroke="none" /><path d="M 101.80034050326958 79.07731436759882 l 1.3694410337370284 -15.914980632249861 a36.97379032258064,36.97379032258064 0 0,0 0.6319004519088178,0.05984162978018779 l -1.6424410490308592 15.88912724696449" fill="#ffb210" stroke="none" /><path d="M 102.15924093988457 79.11130261209362 l 1.3123915399154398 -12.696197643051178 a33.76384762308999,33.76384762308999 0 0,0 0.5760178298654485,0.0645439992946413 l -1.530145271381685 12.671797883249566" fill="#ff860c" stroke="none" /><path d="M 102.87502721639298 79.19773525538626 l 2.190177324348363 -15.84703208337101 a36.99766553480475,36.99766553480475 0 0,0 0.6283875451137518,0.09235132941816165 l -2.4618899750697967 15.807099680653964" fill="#ffb210" stroke="none" /><path d="M 103.58742460773223 79.30868818359171 l 2.728363448862079 -15.73647533866451 a36.97124363327674,36.97124363327674 0 0,0 0.6244007606735718,0.1137866184784303 l -2.998098943086704 15.687320546254714" fill="#ffb210" stroke="none" /><path d="M 104.29559338865022 79.4440306129975 l 3.2693927457865097 -15.645227822085193 a36.9831812393888,36.9831812393888 0 0,0 0.6203269707380422,0.13519737606306123 l -3.537482133143686 15.586798987888413" fill="#ffb210" stroke="none" /><path d="M 104.64783097203109 79.52079915486377 l 3.5328320475847157 -15.566309852917222 a36.962171052631575,36.962171052631575 0 0,0 0.6175636833492767,0.14574334773169875 l -3.799527884673877 15.503370361539297" fill="#ffb110" stroke="none" /><path d="M 105.3480935250658 79.69241777938227 l 4.059429011548894 -15.414313163077267 a36.93988752122241,36.93988752122241 0 0,0 0.6118276155838859,0.1667563373039456 l -4.323438028067472 15.342356331629178" fill="#ffb110" stroke="none" /><path d="M 106.72888874123014 80.10723608172694 l 5.134592551783326 -15.179510522041427 a37.024405772495754,37.024405772495754 0 0,0 0.6003141170951385,0.20882041204337737 l -5.394412440923483 15.08913167742946" fill="#ffb210" stroke="none" /><path d="M 107.06938296918511 80.22567764915836 l 5.384499787445287 -15.061404221428779 a36.99495967741935,36.99495967741935 0 0,0 0.5961664613789016,0.21892058238426051 l -5.642255400478312 14.966752790035796" fill="#ffb210" stroke="none" /><path d="M 108.07796709384702 80.6158196554323 l 6.194275488755938 -14.86400622619993 a37.10303480475382,37.10303480475382 0 0,0 0.5858126164755771,0.2500485714020096 l -6.448523180401945 14.755483005138517" fill="#ffb310" stroke="none" /><path d="M 108.73861861582097 80.90454125486305 l 5.313272991155998 -11.610460378781276 a33.76846349745331,33.76846349745331 0 0,0 0.5250373546255531,0.24574399265493785 l -5.511799059653056 11.517540154555805" fill="#ff860c" stroke="none" /><path d="M 109.3889696526874 81.21577127319529 l 8.749284894865367 -17.504430703329334 a40.56923811544992,40.56923811544992 0 0,0 0.6202703806995656,0.31671447598663804 l -9.048482497278512 17.351658275669863" fill="#ffe115" stroke="none" /><line stroke="#e1ed5e" stroke-width="0.3" x1="143.13028292997686" x2="145.6673583964461" y1="26.7553504044142" y2="22.446841604673864" /><path d="M 143.63769802327073 25.89364864446614 a86.0,86.0 0 0,1 29.32050498858742,28.57503671076993" fill="none" id="id50" stroke="none" /><text fill="#e1ed5e" style="font-size:6.75px; font-family:Arial;" text-anchor="middle"><textPath startOffset="20.669276256404974" xlink:href="#id50">February</textPath></text><path d="M 110.96478420261332 82.08984904055464 l 5.038850889739331 -8.23058424404356 a30.650519949066215,30.650519949066215 0 0,0 0.4463823081748077,0.2785755745938496 l -5.179397326703851 8.142872872608166" fill="#ff5908" stroke="none" /><path d="M 111.27062007382361 82.28071324371311 l 8.56675102688672 -13.468355513790586 a36.96201188455008,36.96201188455008 0 0,0 0.5324542693220785,0.3451304244445911 l -8.796690928465807 13.3193112476421" fill="#ffb110" stroke="none" /><path d="M 117.62189284568427 88.57770195909679 l 8.375394393299201 -5.428829457092212 a30.980952886247877,30.980952886247877 0 0,0 0.28544125143146604,0.44876105778194925 l -8.467353336356558 5.284254724631591" fill="#ff5e08" stroke="none" /><path d="M 117.81537515405839 88.88188828441811 l 8.49854536628461 -5.303720858259254 a31.017720713073004,31.017720713073004 0 0,0 0.278025176560741,0.45413323150878854 l -8.588338507300753 5.157050510625911" fill="#ff5f08" stroke="none" /><line stroke="#e1ed5e" stroke-width="0.3" x1="172.87174338648825" x2="177.1583165268699" y1="56.24261187166439" y2="53.66864786411523" /><path d="M 173.72905801456457 55.72781907015455 a86.0,86.0 0 0,1 12.242430191666344,42.057860355516425" fill="none" id="id51" stroke="none" /><text fill="#e1ed5e" style="font-size:6.75px; font-family:Arial;" text-anchor="middle"><textPath startOffset="22.145653131862474" xlink:href="#id51">March</textPath></text><path d="M 118.36410011445183 89.81374322990088 l 13.958475441711794 -7.742531029685756 a36.96201188455008,36.96201188455008 0 0,0 0.30300867778563423,0.5575018385469289 l -14.08932946911277 7.501774357664224" fill="#ffb110" stroke="none" /><path d="M 118.70294669586156 90.45014215332178 l 14.203698384711073 -7.252509600591333 a36.94816426146011,36.94816426146011 0 0,0 0.2835861105871018,0.5673621879785663 l -14.326104408509913 7.007615556449016" fill="#ffb110" stroke="none" /><path d="M 119.0197475246899 91.09779779509293 l 7.540519143933077 -3.529343702492681 a29.325604838709676,29.325604838709676 0 0,0 0.2094903001584917,0.45777411282606667 l -7.59999390894662 3.39938060745193" fill="#ff4606" stroke="none" /><path d="M 119.71291397450082 92.76114493625339 l 14.992817371841541 -5.505570211099727 a36.97172113752122,36.97172113752122 0 0,0 0.2136610376396345,0.5976479489819629 l -15.085118579525119 5.247387305736847" fill="#ffb210" stroke="none" /><path d="M 119.94978838288452 93.4421083053983 l 15.149234465986794 -4.9798542710007405 a36.94673174872665,36.94673174872665 0 0,0 0.1928888303034801,0.6042215136385859 l -15.232488012067531 4.719063723670768" fill="#ffb110" stroke="none" /><path d="M 120.16314734710363 94.1308016681162 l 12.317406544702424 -3.585417529356434 a33.828629032258064,33.828629032258064 0 0,0 0.1575149694201793,0.5589650580675252 l -12.377140006197184 3.3734445473858954" fill="#ff860c" stroke="none" /><path d="M 120.26092885502905 94.47779374421319 l 12.295135579743555 -3.351093876298472 a33.74363327674023,33.74363327674023 0 0,0 0.1475247852701096,0.5601756387412586 l -12.350849845818395 3.1395377331844148" fill="#ff850c" stroke="none" /><path d="M 120.43855184770803 95.1765574152323 l 15.526892218164688 -3.664304285951273 a36.953416808149406,36.953416808149406 0 0,0 0.1404038709344138,0.6186453615898013 l -15.587506950656767 3.3972245904224456" fill="#ffb110" stroke="none" /><path d="M 120.65975698304385 96.23510406497455 l 12.548747916468347 -2.2867998911674574 a33.7554117147708,33.7554117147708 0 0,0 0.09899205671804436,0.5709598770343063 l -12.586154790678627 2.0710469812125587" fill="#ff850c" stroke="none" /><path d="M 120.7213421655516 96.59031103205396 l 16.29503254382788 -2.6813414040997583 a37.51416595925296,37.51416595925296 0 0,0 0.09910618814746856,0.6363328218891018 l -16.338660224113614 2.4012204002792155" fill="#ffb911" stroke="none" /><path d="M 120.77682067341334 96.94652285012252 l 15.765918161377112 -2.3170470405130845 a36.935271646859086,36.935271646859086 0 0,0 0.08680753277596578,0.6280960640428218 l -15.803370210708291 2.0460626682701775" fill="#ffb110" stroke="none" /><path d="M 120.86939407059847 97.66154086499901 l 15.839644853880586 -1.774865244214835 a36.93877334465195,36.93877334465195 0 0,0 0.06520152154991685,0.6307655749432374 l -15.867778767912169 1.502695146988666" fill="#ffb110" stroke="none" /><path d="M 120.93736805541906 98.37931529534042 l 15.966139643885755 -1.2358801853610841 a37.01390067911714,37.01390067911714 0 0,0 0.04359891831576326,0.6339187036639446 l -15.985002523366585 0.9616180575428054" fill="#ffb210" stroke="none" /><path d="M 120.98066250479742 99.09900007780936 l 9.575798523916037 -0.4112259907421316 a30.584624363327674,30.584624363327674 0 0,0 0.0180235380752383,0.5247356456555501 l -9.581446748988125 0.24678408052246156" fill="#ff5808" stroke="none" /><path d="M 120.99303781780057 99.45929381324524 l 9.607064314236926 -0.2474438981315108 a30.610250424448218,30.610250424448218 0 0,0 0.009020648977793335,0.5254075794500741 l -9.609896394813386 0.08248940271237036" fill="#ff5908" stroke="none" /><line stroke="#e1ed5e" stroke-width="0.3" x1="184.99686870605535" x2="189.99668451229388" y1="99.2704041080226" y2="99.22748670261217" /><path d="M 185.99683186730306 99.26182062694052 a86.0,86.0 0 0,1 -10.086455211305974,41.156179273409016" fill="none" id="id52" stroke="none" /><text fill="#e1ed5e" style="font-size:6.75px; font-family:Arial;" text-anchor="middle"><textPath startOffset="21.40746469413373" xlink:href="#id52">April</textPath></text><path d="M 120.98066250479742 100.90099992219065 l 15.965282966697092 0.68561794497464 a36.97999787775892,36.97999787775892 0 0,0 -0.03268047535764387,0.6339924912791357 l -15.951160901882876 -0.9595822296305064" fill="#ffb210" stroke="none" /><path d="M 120.96210409425399 101.26102812881392 l 9.591001514019952 0.5769708345256842 a30.608340407470287,30.608340407470287 0 0,0 -0.03605376652343152,0.5242138525366196 l -9.579683786331454 -0.7415281112166473" fill="#ff5908" stroke="none" /><path d="M 120.9064616781168 101.97986365728391 l 15.893449144396643 1.5051261583311337 a36.96455857385399,36.96455857385399 0 0,0 -0.06524703568114693,0.6312058828757969 l -15.865269716233831 -1.777736563489862" fill="#ffb210" stroke="none" /><path d="M 120.82617615685814 102.69636545807757 l 15.817576764295767 2.0479019910571887 a36.94959677419355,36.94959677419355 0 0,0 -0.08684120056573182,0.6283396673979494 l -15.780091047174825 -2.3191299666552236" fill="#ffb110" stroke="none" /><path d="M 120.7213421655516 103.40968896794604 l 12.626361130073333 2.0776629190596467 a33.79615874363327,33.79615874363327 0 0,0 -0.09911155258514646,0.5716490974409678 l -12.588834759995953 -2.2941050494212027" fill="#ff860c" stroke="none" /><path d="M 120.592083275326 104.11899336999214 l 15.667251571548135 3.1338891012805483 a36.9776103565365,36.9776103565365 0 0,0 -0.12984826837788999,0.6213709697904767 l -15.61114559234588 -3.402376522356434" fill="#ffb210" stroke="none" /><path d="M 120.51834098615036 104.47187691870673 l 12.441079327932156 2.711475334576617 a33.73312818336163,33.73312818336163 0 0,0 -0.12816843974834785,0.564733794195431 l -12.392700026626144 -2.924643462711065" fill="#ff850c" stroke="none" /><path d="M 120.26092885502905 105.52220625578681 l 15.371990801512922 4.189704449159132 a36.93272495755518,36.93272495755518 0 0,0 -0.1719684541973595,0.6102553766162497 l -15.297803855240984 -4.452967749678391" fill="#ffb110" stroke="none" /><path d="M 119.58574465831526 107.57618678355244 l 14.857055670124218 5.747028299110903 a36.929859932088284,36.929859932088284 0 0,0 -0.23378592917558316,0.5892932617946828 l -14.75621106598251 -6.00122257811915" fill="#ffb110" stroke="none" /><path d="M 119.31412917781788 108.2440532568976 l 14.660386707507802 6.2576473249550375 a36.940046689303905,36.940046689303905 0 0,0 -0.25394719707842117,0.5810808840823006 l -14.550805628412416 -6.508390278813183" fill="#ffb110" stroke="none" /><path d="M 119.0197475246899 108.90220220490707 l 14.42814266772214 6.753099288125487 a36.93033743633276,36.93033743633276 0 0,0 -0.2736726912206165,0.57187066803869 l -14.310090718541613 -6.99978245822928" fill="#ffb110" stroke="none" /><path d="M 118.70294669586154 109.54985784667822 l 14.191790736135601 7.246429470383345 a36.9347941426146,36.9347941426146 0 0,0 -0.29317772179262674,0.562206938468979 l -14.065304945368027 -7.488982651956826" fill="#ffb110" stroke="none" /><line stroke="#e1ed5e" stroke-width="0.3" x1="174.33088141563837" x2="178.70328620479359" y1="141.23008692659167" y2="143.65538615756765" /><path d="M 175.20536237346943 141.71514677278685 a86.0,86.0 0 0,1 -30.301960400862466,31.631185727798858" fill="none" id="id53" stroke="none" /><text fill="#e1ed5e" style="font-size:6.75px; font-family:Arial;" text-anchor="middle"><textPath startOffset="22.145653131862474" xlink:href="#id53">May</textPath></text><path d="M 118.36410011445183 110.18625677009912 l 13.950124074330134 7.737898666978034 a36.95246179966044,36.95246179966044 0 0,0 -0.31245353790198893,0.5520754627530595 l -13.815237171406768 -7.976230899830217" fill="#ffb110" stroke="none" /><path d="M 117.21940702142032 112.02048342749411 l 13.075478204894761 9.12769927982884 a36.946254244482176,36.946254244482176 0 0,0 -0.36750069893074677,0.5169357564195006 l -12.916862407434053 -9.350812262957845" fill="#ffb110" stroke="none" /><path d="M 116.79662413953412 112.60449989151573 l 12.769971634461008 9.582824783366695 a36.965672750424446,36.965672750424446 0 0,0 -0.3852316374856315,0.5042805795703896 l -12.603588019621073 -9.800626276177962" fill="#ffb210" stroke="none" /><path d="M 116.35404254752997 113.17365903436017 l 12.421962313986848 10.006253535573082 a36.9508701188455,36.9508701188455 0 0,0 -0.40215423321726146,0.4905627751614031 l -12.24836126153096 -10.218018592432978" fill="#ffb110" stroke="none" /><path d="M 115.89218393027572 113.72728997021213 l 7.297809965435397 6.303674434083734 a30.643357385398982,30.643357385398982 0 0,0 -0.34727523908990116,0.395135473647937 l -7.1885236623869115 -6.4280221855429645" fill="#ff5908" stroke="none" /><path d="M 115.41159269507618 114.26474011684316 l 11.690691093474218 10.820729144235816 a36.929859932088284,36.929859932088284 0 0,0 -0.4346190211025075,0.4615503391538144 l -11.50321623863545 -11.019820943334128" fill="#ffb110" stroke="none" /><path d="M 115.16444852881244 114.52719865689866 l 11.528157765820998 11.043714362177713 a36.9643994057725,36.9643994057725 0 0,0 -0.44289194181074387,0.45444614894834634 l -11.336879022859447 -11.239983203193797" fill="#ffb210" stroke="none" /><path d="M 113.86319453409587 115.77377054828091 l 10.519177995413473 11.968893579909583 a36.934475806451616,36.934475806451616 0 0,0 -0.4798325192477311,0.4144679018157263 l -10.312165996402886 -12.147705614190027" fill="#ffb110" stroke="none" /><path d="M 112.7482090630111 116.68781488649013 l 6.058336680290414 7.930557189720249 a30.979838709677416,30.979838709677416 0 0,0 -0.42537828076009637,0.31921179215256784 l -5.921305410619551 -8.033388009136832" fill="#ff5e08" stroke="none" /><path d="M 112.45986205192187 116.90419585922612 l 4.758481909487837 6.455794603132018 a29.020002122241085,29.020002122241085 0 0,0 -0.4035424618420071,0.2921336220663539 l -4.646958437271861 -6.536528996571449" fill="#ff4206" stroke="none" /><path d="M 111.8722381534696 117.32195027204791 l 9.008201075275394 13.143234582177513 a36.93399830220713,36.93399830220713 0 0,0 -0.526052189886149,0.3539513903187104 l -8.781252597292243 -13.295935646553346" fill="#ffb110" stroke="none" /><line stroke="#e1ed5e" stroke-width="0.3" x1="143.1302829299769" x2="145.66735839644613" y1="173.24464959558577" y2="177.55315839532614" /><path d="M 143.63769802327073 174.10635135553383 a86.0,86.0 0 0,1 -40.68552437913181,11.842963189579606" fill="none" id="id54" stroke="none" /><text fill="#e1ed5e" style="font-size:6.75px; font-family:Arial;" text-anchor="middle"><textPath startOffset="21.407464694133747" xlink:href="#id54">June</textPath></text><path d="M 110.34350942703117 118.27599006163325 l 7.068514256609142 12.489387399473822 a35.35091256366724,35.35091256366724 0 0,0 -0.5306943161753255,0.29436719127554006 l -6.853075752277722 -12.608887506182505" fill="#ff9c0e" stroke="none" /><path d="M 109.71004243097381 118.62028667847754 l 7.372025301856841 14.136830554281909 a36.94354838709677,36.94354838709677 0 0,0 -0.5648365581144698,0.2884095711930634 l -7.128261522028789 -14.261298077147808" fill="#ffb110" stroke="none" /><path d="M 109.06512990194946 118.94263497670748 l 6.8805418802383045 14.37768622061048 a36.939250848896435,36.939250848896435 0 0,0 -0.5743372525379158,0.26881883417570096 l -6.632715913828883 -14.493681286356713" fill="#ffb110" stroke="none" /><path d="M 108.4095320186766 119.2426549942271 l 3.837052949856842 8.779928056008043 a30.58175933786078,30.58175933786078 0 0,0 -0.48284946361970355,0.2060997240153592 l -3.685768411066707 -8.844502429682807" fill="#ff5808" stroke="none" /><path d="M 108.07796709384702 119.3841803445677 l 9.733712789630626 23.3573672613921 a46.304382427843805,46.304382427843805 0 0,0 -0.7363400923385801,0.29946310523462494 l -9.331318236101605 -23.521017623206017" fill="#d4ff1c" stroke="none" /><path d="M 107.06938296918513 119.77432235084164 l 5.366603429273847 15.011344922487012 a36.94179753820034,36.94179753820034 0 0,0 -0.5989747062875542,0.20835449543610643 l -5.108122950941271 -15.10125785049171" fill="#ffb110" stroke="none" /><path d="M 106.38641147887787 120.00534299687104 l 4.365245070160427 13.674068008737773 a35.35393675721562,35.35393675721562 0 0,0 -0.5797361565338757,0.17960374322513625 l -4.129868280754926 -13.746988339769553" fill="#ff9c0e" stroke="none" /><path d="M 105.3480935250658 120.30758222061773 l 4.061617929284413 15.422624840253418 a36.948482597623084,36.948482597623084 0 0,0 -0.6147430591887155,0.15626528171173595 l -3.7962695768703 -15.490075353800425" fill="#ffb110" stroke="none" /><path d="M 104.64783097203109 120.47920084513623 l 2.824257646576399 12.444200301323495 a33.7606642614601,33.7606642614601 0 0,0 -0.5662749901328291,0.12341699846616021 l -2.6102202398244336 -12.490848757923374" fill="#ff860c" stroke="none" /><path d="M 103.58742460773223 120.69131181640829 l 0.6198650768741791 3.5752170406762347 a24.628554753820033,24.628554753820033 0 0,0 -0.41718719015347566,0.06864799338140755 l -0.5584003836676311 -3.585331032553313" fill="#ff0000" stroke="none" /><path d="M 103.2317021107853 120.74984581791261 l 2.452067693460348 15.744033586691867 a36.933839134125634,36.933839134125634 0 0,0 -0.627303484412714,0.09219200982679046 l -2.1814391034399487 -15.78380666981754" fill="#ffb110" stroke="none" /><path d="M 102.15924093988457 120.88869738790638 l 1.6394952012775579 15.860628842208977 a36.94514006791171,36.94514006791171 0 0,0 -0.6314108048178704,0.059795259691591295 l -1.3669848330746723 -15.886435857405752" fill="#ffb110" stroke="none" /><path d="M 101.80034050326958 120.92268563240118 l 0.6912703853014619 8.03360971570922 a29.06329584040747,29.06329584040747 0 0,0 -0.49744045900296974,0.03850503756016689 l -0.5532609315232563 -8.04429252026444" fill="#ff4206" stroke="none" /><path d="M 100.72087961077811 120.9876233191556 l 0.5468557234139128 15.921107715263522 a36.93049660441426,36.93049660441426 0 0,0 -0.6337742514755478,0.01632377656597013 l -0.27346815786762124 -15.928149209179537" fill="#ffb110" stroke="none" /><line stroke="#e1ed5e" stroke-width="0.3" x1="101.45913802915013" x2="101.54496967792366" y1="184.9874750549273" y2="189.98673829345242" /><path d="M 101.47630435890484 185.9873277026323 a86.0,86.0 0 0,1 -42.54439059252881,-10.42667462771756" fill="none" id="id55" stroke="none" /><text fill="#e1ed5e" style="font-size:6.75px; font-family:Arial;" text-anchor="middle"><textPath startOffset="22.145653131862474" xlink:href="#id55">July</textPath></text><path d="M 100.0 121.0 l 1.952112208099692e-15 15.9402058573854 a36.9402058573854,36.9402058573854 0 0,0 -0.6341277549546459,-0.005443224109864157 l 0.2736348301057918 -15.93785703146997" fill="#ffb110" stroke="none" /><path d="M 98.91894614982273 120.97215588758144 l -0.6560017910126286 12.726259493357821 a33.743155772495754,33.743155772495754 0 0,0 -0.5782221515051068,-0.03478440878227947 l 0.8743682946501817 -12.713123106750851" fill="#ff850c" stroke="none" /><path d="M 98.55909050195518 120.95050786540614 l -0.8781688987712677 12.768383056553494 a33.79854626485569,33.79854626485569 0 0,0 -0.5784878790053699,-0.04477862044806067 l 1.0972257725518737 -12.75142666911038" fill="#ff860c" stroke="none" /><path d="M 98.19965949673042 120.92268563240118 l -1.057176056196245 12.285988257068952 a33.33138794567063,33.33138794567063 0 0,0 -0.5696499850802204,-0.053946445849953624 l 1.2679256046614806 -12.266030055713816" fill="#ff7f0b" stroke="none" /><path d="M 97.48249496171623 120.84855314841334 l -1.9106637460470886 15.823036717878916 a36.93797750424448,36.93797750424448 0 0,0 -0.6288641034412542,-0.08141904848843425 l 2.182005671379137 -15.787906073190085" fill="#ffb110" stroke="none" /><path d="M 96.76829788921471 120.74984581791261 l -2.4532434279173296 15.751582645320749 a36.94147920203735,36.94147920203735 0 0,0 -0.6257578677458119,-0.10296821900877572 l 2.723278798716205 -15.707148427816305" fill="#ffb110" stroke="none" /><path d="M 96.05791012581884 120.62667999033965 l -1.5074752942492007 7.88774773793814 a29.030507215619693,29.030507215619693 0 0,0 -0.4886850632162115,-0.09775069906664866 l 1.6426568429963704 -7.86070764220863" fill="#ff4206" stroke="none" /><path d="M 95.00130118170881 120.39639698878247 l -3.8005508417749954 15.507544375596858 a36.96646859083192,36.96646859083192 0 0,0 -0.615042307323189,-0.15634134941732233 l 4.066198442323563 -15.440017794344271" fill="#ffb210" stroke="none" /><path d="M 94.30408787586889 120.21278271476187 l -4.322574592443517 15.33929230320407 a36.93670415959253,36.93670415959253 0 0,0 -0.6088223962126481,-0.1772193264648303 l 4.585257001037772 -15.262829282436725" fill="#ffb110" stroke="none" /><path d="M 93.61358852112213 120.00534299687104 l -7.255820408753914 22.728754086844962 a44.858817911714766,44.858817911714766 0 0,0 -0.7315773881315447,-0.24048401845215905 l 7.6449205345332025 -22.600849146990782" fill="#e6ff1a" stroke="none" /><path d="M 93.27111125876986 119.89276391827306 l -7.658537843636925 22.641106301718676 a44.901315789473685,44.901315789473685 0 0,0 -0.7280304216142626,-0.2532467724684744 l 8.04607403729621 -22.50630109668161" fill="#e6ff1a" stroke="none" /><path d="M 92.59220618246901 119.65005319985036 l -4.495118641095159 11.923836247726323 a33.74299660441426,33.74299660441426 0 0,0 -0.5402538764281317,-0.20898180537751598 l 4.699144780016819 -11.844914554210765" fill="#ff850c" stroke="none" /><path d="M 91.92203290615298 119.3841803445677 l -4.908276058432423 11.778075745078022 a33.75986842105263,33.75986842105263 0 0,0 -0.5330280112039262,-0.22751796217818573 l 5.10973914480678 -11.692083133240432" fill="#ff850c" stroke="none" /><path d="M 91.26138138417905 119.09545874513695 l -6.6241717575603705 14.475010762935339 a36.9187181663837,36.9187181663837 0 0,0 -0.5740180071772348,-0.2686694112272579 l 6.871678478609096 -14.359165120137556" fill="#ffb110" stroke="none" /><path d="M 90.93487009805054 118.94263497670748 l -6.882671844970908 14.382137027700871 a36.94418505942275,36.94418505942275 0 0,0 -0.5697140800409258,-0.2786757052846395 l 7.128546174273903 -14.26186757231901" fill="#ffb110" stroke="none" /><line stroke="#e1ed5e" stroke-width="0.3" x1="58.13341422392154" x2="55.67067388415222" y1="173.97424548756322" y2="178.32567169271397" /><path d="M 57.64086615596768 174.84453072859336 a86.0,86.0 0 0,1 -31.369924170532247,-30.572349798747897" fill="none" id="id56" stroke="none" /><text fill="#e1ed5e" style="font-size:6.75px; font-family:Arial;" text-anchor="middle"><textPath startOffset="22.145653131862474" xlink:href="#id56">August</textPath></text><path d="M 88.72937992617639 117.7192867562869 l -6.916939864764517 10.87457834058412 a33.88799872665535,33.88799872665535 0 0,0 -0.48817173851759066,-0.31642702298348363 l 7.102597235539117 -10.754237475896742" fill="#ff870c" stroke="none" /><path d="M 88.1277618465304 117.32195027204791 l -9.006221409078321 13.140346190032952 a36.93049660441426,36.93049660441426 0 0,0 -0.5198493372216878,-0.3628952109148553 l 9.230465837473774 -12.983806163312968" fill="#ffb110" stroke="none" /><path d="M 87.83215693770417 117.11559508785305 l -8.366314358774165 11.768268887867427 a35.43909168081494,35.43909168081494 0 0,0 -0.4928041783760188,-0.3567522211696902 l 8.567099547524139 -11.62291589532467" fill="#ff9d0e" stroke="none" /><path d="M 86.96720088162412 116.46651593811092 l -20.67293384287612 26.119576579006885 a54.310696095076395,54.310696095076395 0 0,0 -0.7260802900077231,-0.5848788851032896 l 21.1182649032391 -25.760849400110185" fill="#77ff26" stroke="none" /><path d="M 86.40962598614128 116.0094264158162 l -10.310414871931654 12.14564279396606 a36.93176994906621,36.93176994906621 0 0,0 -0.4797973662277391,-0.4144375374743093 l 10.517391717922255 -11.966861124027028" fill="#ffb110" stroke="none" /><path d="M 85.08716467003676 114.78537596483092 l -9.047326569823614 8.969999456956113 a33.740290747028865,33.740290747028865 0 0,0 -0.4042620230934132,-0.41480844923427357 l 9.199975394067838 -8.813368315654103" fill="#ff850c" stroke="none" /><path d="M 84.58840730492382 114.26474011684316 l -14.028198532089682 12.9842911324585 a40.114972410865875,40.114972410865875 0 0,0 -0.46342783512098185,-0.5093883714056433 l 14.249024068052544 -12.741565185495181" fill="#ffdb14" stroke="none" /><path d="M 83.8745106332314 113.45245675266167 l -12.24591682038271 10.21597935268755 a36.94768675721562,36.94768675721562 0 0,0 -0.40211958714935153,-0.4905205125919257 l 12.41948322677069 -10.004256558397127" fill="#ffb110" stroke="none" /><path d="M 83.4222238831116 112.89097897827486 l -22.23705816503791 17.29167092877736 a49.16893039049235,49.16893039049235 0 0,0 -0.5124058662649313,-0.6707557273900698 l 22.530616008657137 -16.90739428814642" fill="#b2ff20" stroke="none" /><path d="M 83.20337586046588 112.60449989151573 l -21.435759657092795 16.085793670672533 a47.80008488964346,47.80008488964346 0 0,0 -0.48687341055315236,-0.6605372881612616 l 21.70873508722978 -15.715450073242392" fill="#c2ff1e" stroke="none" /><path d="M 82.78059297857968 112.02048342749411 l -13.071562804923238 9.124966026563428 a36.94147920203735,36.94147920203735 0 0,0 -0.35852631421897285,-0.5231006071341922 l 13.226278855957535 -8.899230684359184" fill="#ffb110" stroke="none" /><path d="M 82.37810715431573 111.42229804090323 l -13.36106938832484 8.66048375365142 a36.922379032258064,36.922379032258064 0 0,0 -0.34018224408691095,-0.5348229904735159 l 13.507769324037639 -8.429847088499232" fill="#ffb110" stroke="none" /><path d="M 81.99639281039703 110.81064883170644 l -28.804870886342474 17.296497336085267 a54.59894949066213,54.59894949066213 0 0,0 -0.4755992029113764,-0.8076714224606277 l 29.09754379938362 -16.79947474533108" fill="#74ff27" stroke="none" /><line stroke="#e1ed5e" stroke-width="0.3" x1="26.387840678322732" x2="22.057713659400548" y1="142.50000000000003" y2="145.00000000000006" /><path d="M 25.521815274538298 143.00000000000003 a86.0,86.0 0 0,1 -11.493303480769221,-40.785679425670985" fill="none" id="id57" stroke="none" /><text fill="#e1ed5e" style="font-size:6.75px; font-family:Arial;" text-anchor="middle"><textPath startOffset="21.40746469413373" xlink:href="#id57">September</textPath></text><path d="M 81.81346652052679 110.50000000000001 l -13.740663782700148 7.933175933786082 a36.86635186757215,36.86635186757215 0 0,0 -0.3117254307172672,-0.5507889671235413 l 13.874822578438794 -7.696130196563419" fill="#ffb010" stroke="none" /><path d="M 81.4637452351635 109.86951160357371 l -17.311144548145265 9.217209417793015 a40.612054329371816,40.612054329371816 0 0,0 -0.32236675043129814,-0.618180749601321 l 17.466819367551512 -8.91868242508719" fill="#ffe215" stroke="none" /><path d="M 81.1358732173502 109.22738970284198 l -16.2576127815606 7.952413090826986 a39.098365874363324,39.098365874363324 0 0,0 -0.2897388909487274,-0.6054428462870145 l 16.391730930469237 -7.672157742474867" fill="#ffce13" stroke="none" /><path d="M 80.83023694016515 108.57439118712176 l -9.460072330999777 4.231370026393941 a31.363274617996602,31.363274617996602 0 0,0 -0.21560924780171098,-0.49335615344574457 l 9.531315460818456 -4.068351803172347" fill="#ff6409" stroke="none" /><path d="M 80.68587082218212 108.24405325689762 l -21.822670573578606 9.314800411655966 a44.727504244482176,44.727504244482176 0 0,0 -0.295359470337825,-0.7087552069709891 l 21.979355888452915 -8.938812695243696" fill="#e8ff1a" stroke="none" /><path d="M 80.41425534168474 107.57618678355246 l -16.10610411448409 6.2301870700059725 a38.269100169779286,38.269100169779286 0 0,0 -0.23174549045846116,-0.614732446461628 l 16.210680288756986 -5.9527863433501995" fill="#ffc312" stroke="none" /><path d="M 80.16572619554312 106.89939002012753 l -20.68260031942285 7.19448201839623 a42.89818548387096,42.89818548387096 0 0,0 -0.2359698005466546,-0.6976027862304172 l 20.803055541541873 -6.8383775576916515" fill="#ffff18" stroke="none" /><path d="M 79.73907114497094 105.5222062557868 l -18.43640714960673 5.024924751686306 a40.1089240237691,40.1089240237691 0 0,0 -0.17535338757075117,-0.6658453744436172 l 18.519950017982215 -4.707698872869886" fill="#ffdb14" stroke="none" /><path d="M 79.64726062577567 105.17358676015961 l -36.97618974187067 9.399202838118306 a59.152111629881155,59.152111629881155 0 0,0 -0.24171376241640102,-0.9862746356825894 l 37.132091030803366 -8.763072377827616" fill="#44ff2d" stroke="none" /><path d="M 79.48165901384964 104.47187691870673 l -16.91671399353079 3.6869190788424846 a38.31382640067912,38.31382640067912 0 0,0 -0.13454044123161377,-0.6438247154812585 l 16.977512145586772 -3.3959779120758173" fill="#ffc412" stroke="none" /><path d="M 79.34024301695615 103.76489593502545 l -33.018248981988556 6.017024860262039 a54.56202249575552,54.56202249575552 0 0,0 -0.16001010063780574,-0.9228957394493197 l 33.1166739001186 -5.449336087892126" fill="#75ff27" stroke="none" /><path d="M 79.2786578344484 103.40968896794605 l -15.790254517208291 2.598280371910074 a37.00259974533107,37.00259974533107 0 0,0 -0.09775471527980427,-0.6276553965974879 l 15.832530724626363 -2.3268367933811365" fill="#ffb210" stroke="none" /><path d="M 79.17382384314188 102.69636545807758 l -24.4103317763829 3.1604061603204086 a45.61407045840407,45.61407045840407 0 0,0 -0.09387356963890656,-0.7774078208725903 l 24.46098743228147 -2.740904662524419" fill="#ddff1b" stroke="none" /><path d="M 79.03789590574601 101.26102812881392 l -17.931769603366693 1.0787307308265008 a38.96418718166383,38.96418718166383 0 0,0 -0.034433970581346,-0.668009830168943 l 17.947645163404612 -0.7707491072808271" fill="#ffcc13" stroke="none" /><line stroke="#e1ed5e" stroke-width="0.3" x1="15.003131293944662" x2="10.003315487706104" y1="100.72959589197737" y2="100.7725132973878" /><path d="M 14.003168132696942 100.73817937305945 a86.0,86.0 0 0,1 10.791469493833604,-42.45332614584628" fill="none" id="id58" stroke="none" /><text fill="#e1ed5e" style="font-size:6.75px; font-family:Arial;" text-anchor="middle"><textPath startOffset="22.145653131862435" xlink:href="#id58">October</textPath></text><path d="M 79.13060592940154 97.66154086499901 l -16.115507569584594 -1.8057762369040378 a37.21636247877759,37.21636247877759 0 0,0 0.07659112111127268,-0.6342843549078037 l 16.082134362213655 2.0821542687352776" fill="#ffb510" stroke="none" /><path d="M 79.22317932658666 96.9465228501225 l -16.097248736025886 -2.365741224991487 a37.27016129032258,37.27016129032258 0 0,0 0.09846156838824754,-0.6321939006159001 l 16.05426567549937 2.6417233075388373" fill="#ffb610" stroke="none" /><path d="M 79.407916724674 95.88100663000787 l -33.85092139624993 -6.771132329595284 a55.521487691001695,55.521487691001695 0 0,0 0.19496579051291457,-0.9329818860149598 l 33.72969789491265 7.3512306668956535" fill="#6aff28" stroke="none" /><path d="M 79.56144815229197 95.17655741523228 l -31.539590422522767 -7.443257461863081 a53.40598471986417,53.40598471986417 0 0,0 0.2182333165544918,-0.8904664038442052 l 31.407169579451978 7.983579690315404" fill="#81ff25" stroke="none" /><path d="M 79.64726062577567 94.8264132398404 l -15.434705751940449 -3.9234418451959163 a36.925562393887944,36.925562393887944 0 0,0 0.16143595499811195,-0.6129986160718328 l 15.365080316137611 4.187820965640534" fill="#ffb110" stroke="none" /><path d="M 79.73907114497095 94.47779374421319 l -15.47058039286728 -4.2165754806912075 a37.034910865874366,37.034910865874366 0 0,0 0.17244425858803056,-0.6119438385436478 l 15.395917642204667 4.481527243137869" fill="#ffb210" stroke="none" /><path d="M 79.83685265289637 94.1308016681162 l -15.307279018468003 -4.45572583160127 a36.94259337860781,36.94259337860781 0 0,0 0.18246770161136885,-0.6073756342605526 l 15.228534996853005 4.717839069452546" fill="#ffb110" stroke="none" /><path d="M 79.94057633289273 93.78553927170692 l -22.94314826610999 -7.107845980487585 a45.01894100169779,45.01894100169779 0 0,0 0.23503163772038227,-0.7362332576382523 l 22.81775191261235 7.500648271817228" fill="#e4ff1a" stroke="none" /><path d="M 80.05021161711548 93.44210830539832 l -15.322216502049896 -5.036716902114495 a37.12882003395586,37.12882003395586 0 0,0 0.2042342854160924,-0.603782374778387 l 15.233496795061438 5.299000951367043" fill="#ffb410" stroke="none" /><path d="M 80.28708602549916 92.7611449362534 l -15.18720329441632 -5.5769514143947605 a37.17879881154499,37.17879881154499 0 0,0 0.22514297245070655,-0.5972184830197311 l 15.08922963815118 5.836838177608636" fill="#ffb410" stroke="none" /><path d="M 80.41425534168474 92.42381321644754 l -15.13168600314844 -5.853261211656175 a37.2243208828523,37.2243208828523 0 0,0 0.23565002579296612,-0.5939920029885234 l 15.028977302389341 6.112154231858281" fill="#ffb510" stroke="none" /><path d="M 80.5471966667186 92.08871423366112 l -15.063183662846841 -6.126065660867728 a37.26124787775891,37.26124787775891 0 0,0 0.24605581337929278,-0.5904443786366127 l 14.95580200493107 6.383742548945604" fill="#ffb610" stroke="none" /><path d="M 80.68587082218212 91.75594674310238 l -15.359546004085372 -6.556076854082366 a37.700233446519526,37.700233446519526 0 0,0 0.2591731595108446,-0.5930389088423761 l 15.24473896255755 6.818777832700609" fill="#ffbb11" stroke="none" /><path d="M 80.83023694016515 91.42560881287825 l -50.667449403214825 -22.662905654119474 a76.50493421052632,76.50493421052632 0 0,0 0.5465204117534069,-1.1942457309120114 l 50.27094452660637 23.529340367246157" fill="#43ffe1" stroke="none" /><path d="M 81.1358732173502 90.77261029715801 l -14.828390951890396 -7.25330907471609 a37.507321731748725,37.507321731748725 0 0,0 0.28787777961515715,-0.5759484009097758 l 14.701693259063495 7.506789331789636" fill="#ffb911" stroke="none" /><path d="M 81.29705330413844 90.45014215332179 l -14.462547983506267 -7.384680050112565 a37.23880517826825,37.23880517826825 0 0,0 0.2955908735348353,-0.5668344751206451 l 14.333649040996493 7.631860768337697" fill="#ffb510" stroke="none" /><path d="M 81.46374523516351 90.13048839642627 l -28.190038975788845 -15.009607944347751 a52.93691638370119,52.93691638370119 0 0,0 0.43396839678464266,-0.7984529712045509 l 27.92822522938885 15.49131574902692" fill="#87ff25" stroke="none" /><path d="M 81.63589988554816 89.8137432299009 l -8.36598227458107 -4.640469342460033 a30.56679753820034,30.56679753820034 0 0,0 0.2584592086157779,-0.456672656541033 l 8.285089700943923 4.783398769100171" fill="#ff5808" stroke="none" /><line stroke="#e1ed5e" stroke-width="0.3" x1="26.387840678322718" x2="22.05771365940052" y1="57.49999999999999" y2="54.99999999999999" /><path d="M 25.521815274538284 56.99999999999999 a86.0,86.0 0 0,1 29.574782752854787,-30.34633250058573" fill="none" id="id59" stroke="none" /><text fill="#e1ed5e" style="font-size:6.75px; font-family:Arial;" text-anchor="middle"><textPath startOffset="21.40746469413373" xlink:href="#id59">November</textPath></text><path d="M 81.81346652052679 89.5 l -9.195546692454355 -5.309051358234297 a31.61810271646859,31.61810271646859 0 0,0 0.2754182010790069,-0.4677203176021324 l 9.10305478124557 5.466122844130002" fill="#ff6709" stroke="none" /><path d="M 81.99639281039701 89.18935116829357 l -54.01082156880897 -32.43194649511929 a84.0,84.0 0 0,0 0.752928142178428,-1.2298515355018278 l 53.44612546217515 33.35433514674566" fill="#4dd2ff" stroke="none" /><path d="M 82.37810715431573 88.57770195909679 l -10.034659300693212 -6.50434492339512 a32.95829796264856,32.95829796264856 0 0,0 0.31180992094985693,-0.4721199620410198 l 9.921524940822625 6.675644763775201" fill="#ff7a0b" stroke="none" /><path d="M 82.576782715395 88.27688183743585 l -13.248860790802219 -8.914424817922413 a36.96869694397284,36.96869694397284 0 0,0 0.35879046922600116,-0.5234860171838134 l 13.093880584760905 9.140545570176261" fill="#ffb210" stroke="none" /><path d="M 82.78059297857968 87.97951657250589 l -26.73604767886714 -18.663837705951767 a53.6060589983022,53.6060589983022 0 0,0 0.533214112002707,-0.750032424764487 l 26.411718468334463 19.120047357425776" fill="#7fff26" stroke="none" /><path d="M 82.98947788004972 87.6856937992154 l -7.1379573135975605 -5.167330631473121 a29.812022495755517,29.812022495755517 0 0,0 0.3036538763792318,-0.4119648017239507 l 7.04820141763451 5.2891017424659355" fill="#ff4d07" stroke="none" /><path d="M 83.42222388311158 87.10902102172516 l -26.54949642379768 -20.645049002338567 a54.63173811544991,54.63173811544991 0 0,0 0.5820454175630978,-0.7353953711673208 l 26.19118457559302 21.09776431742057" fill="#74ff27" stroke="none" /><path d="M 83.64595745247003 86.82634096563983 l -12.53550450848674 -10.09771509023196 a37.09666808149406,37.09666808149406 0 0,0 0.4037410231273457,-0.49249840084328056 l 12.360316666120763 10.311415772773733" fill="#ffb310" stroke="none" /><path d="M 83.8745106332314 86.54754324733833 l -12.70033842984219 -10.595074021363237 a37.53947368421053,37.53947368421053 0 0,0 0.41705539493371074,-0.49129020656103684 l 12.516588471401366 10.81153101037383" fill="#ffb911" stroke="none" /><path d="M 84.10781606972428 86.27271002978789 l -12.323260227342939 -10.644538677711097 a37.28400891341256,37.28400891341256 0 0,0 0.42253245774578135,-0.4807643737012462 l 12.138716705638565 10.854515329223643" fill="#ffb610" stroke="none" /><path d="M 84.34580500576568 86.00192230759919 l -11.682982387690057 -10.446994891916829 a36.672644312393885,36.672644312393885 0 0,0 0.423660372685487,-0.4656769639549822 l 11.501924314162705 10.64600943142947" fill="#ffae10" stroke="none" /><path d="M 85.08716467003674 85.21462403516908 l -29.017952362661784 -28.76993716610464 a61.86258488964346,61.86258488964346 0 0,0 0.7541581701616167,-0.7477124125674821 l 28.519802272370192 29.263829588900798" fill="#30ff39" stroke="none" /><path d="M 85.60350026404147 84.71141617570332 l -11.000660326830124 -11.682320050982822 a37.04653013582343,37.04653013582343 0 0,0 0.46673375952663465,-0.43200179988741344 l 10.798496795989536 11.869439597002602" fill="#ffb310" stroke="none" /><path d="M 85.86807049272753 84.46653392183569 l -11.02407467876843 -12.117389205605367 a37.38173811544992,37.38173811544992 0 0,0 0.47837049475002014,-0.4277618461843175 l 10.814439157195018 12.304846581673084" fill="#ffb711" stroke="none" /><path d="M 86.40962598614128 83.9905735841838 l -10.30701563031104 -12.141638495884251 a36.92651740237691,36.92651740237691 0 0,0 0.4867717984283258,-0.4060823468878482 l 10.097069497720806 12.316783026683982" fill="#ffb110" stroke="none" /><path d="M 86.68645165197937 83.75963576809568 l -6.403694049883196 -7.811465514769647 a31.100806451612904,31.100806451612904 0 0,0 0.4157870215533777,-0.33492859254445356 l 6.268656257974572 7.920242401107499" fill="#ff6008" stroke="none" /><path d="M 86.96720088162412 83.53348406188908 l -10.434853017135232 -13.184095907396655 a37.81387945670628,37.81387945670628 0 0,0 0.5124501927685822,-0.39848436942413107 l 10.206992879731406 13.36128132844159" fill="#ffbd11" stroke="none" /><path d="M 87.25179093698888 83.31218511350988 l -20.617959423451534 -26.989570730686996 a54.963762733446515,54.963762733446515 0 0,0 0.7546969858289466,-0.5663386878806578 l 20.151609448711838 27.339528445831654" fill="#70ff27" stroke="none" /><path d="M 87.83215693770416 82.88440491214696 l -6.4561430218663425 -9.081373685196333 a32.14240237691001,32.14240237691001 0 0,0 0.4524500916229824,-0.31584530299776187 l 6.299297839069595 9.190863803999221" fill="#ff6f0a" stroke="none" /><path d="M 88.12776184653039 82.6780497279521 l -18.025310648437607 -26.29946692900555 a52.88375424448217,52.88375424448217 0 0,0 0.7532251044710101,-0.5068034656564645 l 17.57118925586961 26.605020068719124" fill="#87ff25" stroke="none" /><path d="M 88.4268655584334 82.4767994020092 l -5.490695112553517 -8.31361221676596 a30.96312606112054,30.96312606112054 0 0,0 0.44603764303456583,-0.289116211341085 l 5.347171837261926 8.406642269810952" fill="#ff5e08" stroke="none" /><path d="M 88.72937992617638 82.28071324371311 l -5.636335135754324 -8.861255003788267 a31.501910016977927,31.501910016977927 0 0,0 0.4587816235633793,-0.2863136644457203 l 5.483389383401246 8.956704465075525" fill="#ff6609" stroke="none" /><path d="M 89.03521579738668 82.08984904055464 l -18.614685829662445 -30.405690354803596 a56.651262733446515,56.651262733446515 0 0,0 0.8337642671698509,-0.5006514864423175 l 18.08998880593516 30.720755841781838" fill="#5eff2a" stroke="none" /><line stroke="#e1ed5e" stroke-width="0.3" x1="56.869717070023135" x2="54.33264160355391" y1="26.7553504044142" y2="22.446841604673864" /><path d="M 56.362301976729285 25.89364864446614 a86.0,86.0 0 0,1 42.16139366436587,-11.88097634709845" fill="none" id="id60" stroke="none" /><text fill="#e1ed5e" style="font-size:6.75px; font-family:Arial;" text-anchor="middle"><textPath startOffset="22.145653131862474" xlink:href="#id60">December</textPath></text><path d="M 89.34428304082924 81.90426304109057 l -13.85067138546711 -23.521468058514532 a48.29653013582343,48.29653013582343 0 0,0 0.7180257373624414,-0.4145523527512828 l 13.44485318024427 23.755767308541987" fill="#bcff1f" stroke="none" /><path d="M 89.65649057296885 81.72400993836675 l -7.873661008182704 -13.912004561832644 a36.98556876061121,36.98556876061121 0 0,0 0.5552340717207036,-0.3079789800102377 l 7.6336827483058975 14.045116457276027" fill="#ffb210" stroke="none" /><path d="M 89.97174638481275 81.54914285379989 l -7.619317147307907 -14.018685369471088 a36.955485993208825,36.955485993208825 0 0,0 0.5599832838610527,-0.29815955747210876 l 7.377545047660292 14.147415394665773" fill="#ffb110" stroke="none" /><path d="M 90.28995756902619 81.37971332152246 l -5.9432942980937025 -11.397050469321893 a33.85361842105263,33.85361842105263 0 0,0 0.5175940629283626,-0.2642872165349357 l 5.746773013451757 11.497395637529662" fill="#ff870c" stroke="none" /><path d="M 90.93487009805054 81.0573650232925 l -6.876694202011665 -14.369646052963319 a36.93033743633276,36.93033743633276 0 0,0 0.5741986654045557,-0.2687539683996109 l 6.629006822735586 14.485576252933473" fill="#ffb110" stroke="none" /></svg>