<?xml version="1.0" encoding="utf-8" ?>
<svg baseProfile="full" height="200mm" version="1.1" viewBox="0,0,200,200" width="200mm" xmlns="http://www.w3.org/2000/svg" xmlns:ev="http://www.w3.org/2001/xml-events" xmlns:xlink="http://www.w3.org/1999/xlink"><defs /><rect fill="#1a1a1a" height="200" width="200" x="0" y="0" /><text alignment-baseline="middle" fill="#e1ed5e" style="dominant-baseline: central; font-size:9.0px; font-family:Arial;" text-anchor="middle" x="100.0" y="100.0">2024</text><line stroke="#e1ed5e" stroke-width="0.3" x1="100.0" x2="100.0" y1="15.0" y2="10.0" /><path d="M 100.0 14.0 a86.0,86.0 0 0,1 42.35913384403234,11.155469271406648" fill="none" id="id49" stroke="none" /><text fill="#e1ed5e" style="font-size:6.75px; font-family:Arial;" text-anchor="middle"><textPath startOffset="22.145653131862478" xlink:href="#id49">January</textPath></text><path d="M 100.0 79.0 l 0.0 -30.160106077981652 a51.16010607798165,51.16010607798165 0 0,0 0.8782312512204419,0.007538559041657377 l -0.517738326371587 30.15566191713443" fill="#b1ff20" stroke="none" /><path d="M 100.36049292484886 79.00309439819443 l 0.5227870876613997 -30.44972695115054 a51.45421444954128,51.45421444954128 0 0,0 0.8830197058363598,0.022743455335811222 l -1.0454201075685008 30.436265778464684" fill="#adff20" stroke="none" /><path d="M 101.80034050326958 79.07731436759882 l 2.590002468852188 -30.099754654479906 a51.210980504587155,51.210980504587155 0 0,0 0.8752211077418057,0.08288434886710377 l -3.1063231399790068 30.05085855010762" fill="#b0ff20" stroke="none" /><path d="M 102.15924093988457 79.11130261209362 l 2.4821056509501638 -24.012120588211005 a45.14006594036697,45.14006594036697 0 0,0 0.7700983345621981,0.0862911246591057 l -2.8939398871131585 23.96597370304493" fill="#ffff18" stroke="none" /><path d="M 102.87502721639298 79.19773525538626 l 4.142248214811147 -29.971244623733334 a51.25613532110091,51.25613532110091 0 0,0 0.8705607929815252,0.12794245716092156 l -4.656134113400354 29.89572109327353" fill="#b0ff20" stroke="none" /><path d="M 103.58742460773223 79.30868818359171 l 5.16011123837539 -29.76215037674944 a51.206163990825694,51.206163990825694 0 0,0 0.8648117997921255,0.15759751831890467 l -5.670257771718569 29.669184684499168" fill="#b0ff20" stroke="none" /><path d="M 104.29559338865022 79.4440306129975 l 6.183351509576962 -29.589575371769378 a51.22874139908257,51.22874139908257 0 0,0 0.8592708604788649,0.18727408470725548 l -6.6903847866749615 29.479069828928402" fill="#b0ff20" stroke="none" /><path d="M 104.64783097203109 79.52079915486377 l 6.681590152381553 -29.440319047512716 a51.18900516055046,51.18900516055046 0 0,0 0.8552655234704882,0.20184033477174954 l -7.185987829591926 29.321282569094738" fill="#b1ff20" stroke="none" /><path d="M 105.3480935250658 79.69241777938227 l 7.677534777346831 -29.15285007860898 a51.146860665137616,51.146860665137616 0 0,0 0.8471347344350777,0.23089033891111732 l -8.176850912716601 29.01675924555372" fill="#b1ff20" stroke="none" /><path d="M 106.72888874123014 80.10723608172694 l 9.710974812386539 -28.708771505677436 a51.30670871559633,51.30670871559633 0 0,0 0.8318875320489573,0.2893736666677138 l -10.202368116480514 28.537839406441133" fill="#afff20" stroke="none" /><path d="M 107.06938296918511 80.22567764915836 l 10.18362046955822 -28.48539890135361 a51.25101777522936,51.25101777522936 0 0,0 0.8259000192335668,0.30328192696984074 l -10.671109640445911 28.306386125375045" fill="#b0ff20" stroke="none" /><path d="M 108.07796709384702 80.6158196554323 l 11.715136623917767 -28.11206315166161 a51.455418577981646,51.455418577981646 0 0,0 0.8124196187086926,0.3467736257700471 l -12.195991317796889 27.906814876232158" fill="#adff20" stroke="none" /><path d="M 108.73861861582097 80.90454125486305 l 10.048910340612924 -21.958682633814306 a45.14879587155963,45.14879587155963 0 0,0 0.7019805431988484,0.3285623392925942 l -10.424379597683277 21.782944062951177" fill="#ffff18" stroke="none" /><path d="M 109.3889696526874 81.21577127319529 l 16.547386064921973 -33.10585678432423 a58.010994839449545,58.010994839449545 0 0,0 0.8869405373457765,0.45287815807028664 l -17.113253823981328 32.81692067458111" fill="#5fff29" stroke="none" /><line stroke="#e1ed5e" stroke-width="0.3" x1="143.13028292997686" x2="145.6673583964461" y1="26.7553504044142" y2="22.446841604673864" /><path d="M 143.63769802327073 25.89364864446614 a86.0,86.0 0 0,1 29.32050498858742,28.57503671076993" fill="none" id="id50" stroke="none" /><text fill="#e1ed5e" style="font-size:6.75px; font-family:Arial;" text-anchor="middle"><textPath startOffset="20.669276256404974" xlink:href="#id50">February</textPath></text><path d="M 110.96478420261332 82.08984904055464 l 9.529900100181312 -15.56637561384936 a39.25187786697248,39.25187786697248 0 0,0 0.5716491554326346,0.3567513519786993 l -9.795713384403658 15.400488465029115" fill="#ffae10" stroke="none" /><path d="M 111.27062007382361 82.28071324371311 l 16.202162607272456 -25.472490726311282 a51.188704128440364,51.188704128440364 0 0,0 0.7373961173808693,0.47797125431913606 l -16.637044356910334 25.190605630288253" fill="#b1ff20" stroke="none" /><path d="M 117.62189284568427 88.57770195909679 l 15.84025279062964 -10.267460482381281 a39.87682052752294,39.87682052752294 0 0,0 0.3674028231564398,0.577618261988824 l -16.01417330541197 9.994028545713785" fill="#ffb710" stroke="none" /><path d="M 117.81537515405839 88.88188828441811 l 16.07316630513369 -10.030844540643535 a39.94635894495413,39.94635894495413 0 0,0 0.3580564027049458,0.5848582248352041 l -16.242990672294038 9.753449199683777" fill="#ffb811" stroke="none" /><line stroke="#e1ed5e" stroke-width="0.3" x1="172.87174338648825" x2="177.1583165268699" y1="56.24261187166439" y2="53.66864786411523" /><path d="M 173.72905801456457 55.72781907015455 a86.0,86.0 0 0,1 12.242430191666344,42.057860355516425" fill="none" id="id51" stroke="none" /><text fill="#e1ed5e" style="font-size:6.75px; font-family:Arial;" text-anchor="middle"><textPath startOffset="22.145653131862474" xlink:href="#id51">March</textPath></text><path d="M 118.36410011445183 89.81374322990088 l 26.39944690191639 -14.643328181373567 a51.188704128440364,51.188704128440364 0 0,0 0.41963683156549464,0.7720845053991479 l -26.64692908309723 14.187988842499816" fill="#b1ff20" stroke="none" /><path d="M 118.70294669586156 90.45014215332178 l 26.863233229432915 -13.716558295063333 a51.162514334862394,51.162514334862394 0 0,0 0.39268469051423194,0.7856324300742183 l -27.094737833158884 13.253394008825364" fill="#b1ff20" stroke="none" /><path d="M 119.0197475246899 91.09779779509293 l 14.261266252493614 -6.67499269971437 a36.74608658256881,36.74608658256881 0 0,0 0.2624992306269845,0.5736081924885341 l -14.373749947975652 6.429195525011151" fill="#ff890c" stroke="none" /><path d="M 119.71291397450082 92.76114493625339 l 28.35568166243242 -10.412599073561548 a51.20706708715596,51.20706708715596 0 0,0 0.29592766448788754,0.8277623458260343 l -28.530249496964252 9.924301771354598" fill="#b0ff20" stroke="none" /><path d="M 119.94978838288452 93.4421083053983 l 28.65151087305668 -9.418320715291769 a51.15980504587155,51.15980504587155 0 0,0 0.26709141747544,0.836660061098282 l -28.808967006309373 8.9250916205021" fill="#b1ff20" stroke="none" /><path d="M 120.16314734710363 94.1308016681162 l 23.29571889165509 -6.781044253915861 a45.26258600917431,45.26258600917431 0 0,0 0.2107544720276662,0.7478932708972298 l -23.408691855757336 6.3801430591156185" fill="#fdff18" stroke="none" /><path d="M 120.26092885502905 94.47779374421319 l 23.25359816297371 -6.337871583476423 a45.10183486238532,45.10183486238532 0 0,0 0.19718204168451964,0.7487323295993381 l -23.35896968546296 5.937758749504287" fill="#ffff18" stroke="none" /><path d="M 120.43855184770803 95.1765574152323 l 29.36576908967569 -6.9302415463197695 a51.17244839449541,51.17244839449541 0 0,0 0.19442883663721744,0.856689328751504 l -29.480408787870573 6.425117883629239" fill="#b1ff20" stroke="none" /><path d="M 120.65975698304385 96.23510406497455 l 23.733251219999534 -4.324988968478635 a45.12411123853211,45.12411123853211 0 0,0 0.13233222029170097,0.7632570807234661 l -23.80399825778347 3.9169388548345765" fill="#ffff18" stroke="none" /><path d="M 120.7213421655516 96.59031103205396 l 30.818540907432276 -5.071179178487755 a52.232984518348616,52.232984518348616 0 0,0 0.13799085915443218,0.8860003037346592 l -30.90105325872497 4.541390692821655" fill="#a4ff21" stroke="none" /><path d="M 120.77682067341334 96.94652285012252 l 29.81783512814579 -4.382194930291489 a51.138130733944955,51.138130733944955 0 0,0 0.12018796023031415,0.8696202086611562 l -29.888667604931317 3.8696864134302476" fill="#b1ff20" stroke="none" /><path d="M 120.86939407059847 97.66154086499901 l 29.957273271811772 -3.3567749549989747 a51.14475344036697,51.14475344036697 0 0,0 0.09027684034045153,0.8733465377461943 l -30.010482504633888 2.842023894969849" fill="#b1ff20" stroke="none" /><path d="M 120.93736805541906 98.37931529534042 l 30.196510895294036 -2.3374009193778678 a51.28684059633028,51.28684059633028 0 0,0 0.06041110860532815,0.8783642607056493 l -30.23218596506443 1.8186932345178846" fill="#afff20" stroke="none" /><path d="M 120.98066250479742 99.09900007780936 l 18.11055840096597 -0.777745302674224 a39.12725057339449,39.12725057339449 0 0,0 0.023057712990405245,0.671300155543999 l -18.121240800953224 0.466738882566105" fill="#ffac0f" stroke="none" /><path d="M 120.99303781780057 99.45929381324524 l 18.169690902568277 -0.46798678531936655 a39.17571674311927,39.17571674311927 0 0,0 0.011544838225527529,0.672428948532363 l -18.17504717239247 0.15601092081793716" fill="#ffad10" stroke="none" /><line stroke="#e1ed5e" stroke-width="0.3" x1="184.99686870605535" x2="189.99668451229388" y1="99.2704041080226" y2="99.22748670261217" /><path d="M 185.99683186730306 99.26182062694052 a86.0,86.0 0 0,1 -10.086455211305974,41.156179273409016" fill="none" id="id52" stroke="none" /><text fill="#e1ed5e" style="font-size:6.75px; font-family:Arial;" text-anchor="middle"><textPath startOffset="21.40746469413373" xlink:href="#id52">April</textPath></text><path d="M 120.98066250479742 100.90099992219065 l 30.194890675088118 1.296698526206624 a51.22272075688074,51.22272075688074 0 0,0 -0.04526725147416807,0.8781725853554423 l -30.16818183415738 -1.8148429049387969" fill="#b0ff20" stroke="none" /><path d="M 120.96210409425399 101.26102812881392 l 18.139311579038658 1.0912159407107325 a39.17210435779817,39.17210435779817 0 0,0 -0.046141080697170454,0.6708811867616385 l -18.117906537176424 -1.4024405516267147" fill="#ffac10" stroke="none" /><path d="M 120.9064616781168 101.97986365728391 l 30.059032487315296 2.846621628807001 a51.19352064220183,51.19352064220183 0 0,0 -0.09036292050699353,0.8741792852718561 l -30.005737174326637 -3.362205436361789" fill="#b1ff20" stroke="none" /><path d="M 120.82617615685814 102.69636545807757 l 29.915536238161206 3.8731650959306365 a51.16522362385321,51.16522362385321 0 0,0 -0.1202516355960026,0.8700809318873902 l -29.844640086009992 -4.386134336018111" fill="#b1ff20" stroke="none" /><path d="M 120.7213421655516 103.40968896794604 l 23.880039880409345 3.9294514749004255 a45.201175458715596,45.201175458715596 0 0,0 -0.13255822096145423,0.7645605925292722 l -23.80906684195566 -4.338805100350286" fill="#feff18" stroke="none" /><path d="M 120.592083275326 104.11899336999214 l 29.631228545638983 5.927075580082433 a51.218205275229366,51.218205275229366 0 0,0 -0.17985465259347735,0.86066962077692 l -29.52511618222114 -6.434861652144762" fill="#b0ff20" stroke="none" /><path d="M 120.51834098615036 104.47187691870673 l 23.52961929773591 5.128171011219906 a45.08196674311927,45.08196674311927 0 0,0 -0.17128815646283463,0.7547272221611339 l -23.438120279715413 -5.531332567320057" fill="#fffe18" stroke="none" /><path d="M 120.26092885502905 105.52220625578681 l 29.072806456255858 7.923922680680321 a51.133314220183486,51.133314220183486 0 0,0 -0.23809012236542273,0.8448978504276803 l -28.932497841815856 -8.42182845501101" fill="#b1ff20" stroke="none" /><path d="M 119.58574465831526 107.57618678355244 l 28.098917673358788 10.869264989557 a51.127895642201835,51.127895642201835 0 0,0 -0.3236671520413345,0.8158526581768039 l -27.908191846351325 -11.350018664947367" fill="#b1ff20" stroke="none" /><path d="M 119.31412917781788 108.2440532568976 l 27.72696073167646 11.834990789353037 a51.14716169724771,51.14716169724771 0 0,0 -0.35161510381343797,0.804564168186143 l -27.519711745846056 -12.309217027315025" fill="#b1ff20" stroke="none" /><path d="M 119.0197475246899 108.90220220490707 l 27.28772120138459 12.772031360064858 a51.12879873853211,51.12879873853211 0 0,0 -0.37889055234803254,0.7917355302000071 l -27.064451391076645 -13.238579392329969" fill="#b1ff20" stroke="none" /><path d="M 118.70294669586154 109.54985784667822 l 26.84071247939774 13.705059039628681 a51.13722763761467,51.13722763761467 0 0,0 -0.40591253438959923,0.7783908062658942 l -26.601491876033194 -14.163796088999078" fill="#b1ff20" stroke="none" /><line stroke="#e1ed5e" stroke-width="0.3" x1="174.33088141563837" x2="178.70328620479359" y1="141.23008692659167" y2="143.65538615756765" /><path d="M 175.20536237346943 141.71514677278685 a86.0,86.0 0 0,1 -30.301960400862466,31.631185727798858" fill="none" id="id53" stroke="none" /><text fill="#e1ed5e" style="font-size:6.75px; font-family:Arial;" text-anchor="middle"><textPath startOffset="22.145653131862474" xlink:href="#id53">May</textPath></text><path d="M 118.36410011445183 110.18625677009912 l 26.383652091038137 14.634567066032309 a51.17064220183486,51.17064220183486 0 0,0 -0.4326761307368983,0.7644972647859908 l -26.12854259527986 -15.085321100917422" fill="#b1ff20" stroke="none" /><path d="M 117.21940702142032 112.02048342749411 l 24.72944799944087 17.263075289327663 a51.15890194954129,51.15890194954129 0 0,0 -0.5088724853831113,0.7157928785386087 l -24.429460415527796 -17.685045394575777" fill="#b1ff20" stroke="none" /><path d="M 116.79662413953412 112.60449989151573 l 24.151648187560898 18.123847055881146 a51.19562786697249,51.19562786697249 0 0,0 -0.533526758418657,0.6984036532090557 l -23.836969451787937 -18.53577162233108" fill="#b1ff20" stroke="none" /><path d="M 116.35404254752997 113.17365903436017 l 23.49346358741641 18.92467125099441 a51.16763188073394,51.16763188073394 0 0,0 -0.5568821437318451,0.6793056675828608 l -23.165134624445937 -19.325179200275763" fill="#b1ff20" stroke="none" /><path d="M 115.89218393027572 113.72728997021213 l 13.80223416857346 11.922041142994145 a39.23833142201835,39.23833142201835 0 0,0 -0.4446804165317404,0.5059646851549481 l -13.595542688083134 -12.157218105960386" fill="#ffad10" stroke="none" /><path d="M 115.41159269507618 114.26474011684316 l 22.11042173320835 20.465076266827648 a51.127895642201835,51.127895642201835 0 0,0 -0.6017124353005466,0.6389977545886857 l -21.755853464171544 -20.84161548136083" fill="#b1ff20" stroke="none" /><path d="M 115.16444852881244 114.52719865689866 l 21.803024985541274 20.88680473177005 a51.193219610091745,51.193219610091745 0 0,0 -0.6133757021659245,0.6293775058723146 l -21.44126248222454 -21.2580049297101" fill="#b1ff20" stroke="none" /><path d="M 113.86319453409587 115.77377054828091 l 19.89475728215126 22.63658175686569 a51.1366255733945,51.1366255733945 0 0,0 -0.6643390853383595,0.5738402791583421 l -19.503238717050046 -22.97476616848875" fill="#b1ff20" stroke="none" /><path d="M 112.7482090630111 116.68781488649013 l 11.45803767561348 14.998939125328716 a39.8747133027523,39.8747133027523 0 0,0 -0.5475121142327967,0.41086329771514607 l -11.198872572469918 -15.193421450307877" fill="#ffb610" stroke="none" /><path d="M 112.45986205192187 116.90419585922612 l 8.999642620558877 12.209743646198769 a36.16810493119266,36.16810493119266 0 0,0 -0.5029415932711996,0.3640909277786541 l -8.78872001691371 -12.3624353453505" fill="#ff810b" stroke="none" /><path d="M 111.8722381534696 117.32195027204791 l 17.0370701987892 24.857594579044907 a51.13572247706422,51.13572247706422 0 0,0 -0.7283278287491146,0.4900514674206557 l -16.60784608194308 -25.146395720522683" fill="#b1ff20" stroke="none" /><line stroke="#e1ed5e" stroke-width="0.3" x1="143.1302829299769" x2="145.66735839644613" y1="173.24464959558577" y2="177.55315839532614" /><path d="M 143.63769802327073 174.10635135553383 a86.0,86.0 0 0,1 -40.68552437913181,11.842963189579606" fill="none" id="id54" stroke="none" /><text fill="#e1ed5e" style="font-size:6.75px; font-family:Arial;" text-anchor="middle"><textPath startOffset="21.407464694133747" xlink:href="#id54">June</textPath></text><path d="M 110.34350942703117 118.27599006163325 l 13.368570770641965 23.620983600014014 a48.14165711009174,48.14165711009174 0 0,0 -0.7227112950358524,0.4008757726218577 l -12.961115287450019 -23.846992288069014" fill="#d7ff1c" stroke="none" /><path d="M 109.71004243097381 118.62028667847754 l 13.94259647686044 26.736767144635007 a51.15378440366972,51.15378440366972 0 0,0 -0.7820994132547933,0.39934553308684456 l -13.481569841892064 -26.97217062939469" fill="#b1ff20" stroke="none" /><path d="M 109.06512990194946 118.94263497670748 l 13.013061546891068 27.192293709897708 a51.145656536697246,51.145656536697246 0 0,0 -0.7952206712230107,0.3722034271779641 l -12.544352161796551 -27.411673368646206" fill="#b1ff20" stroke="none" /><path d="M 108.4095320186766 119.2426549942271 l 7.256958400119154 16.605340997670254 a39.12183199541284,39.12183199541284 0 0,0 -0.6176870135597181,0.2636538561484164 l -6.970836311389005 -16.727469503478076" fill="#ffac0f" stroke="none" /><path d="M 108.07796709384702 119.3841803445677 l 18.409219188828928 44.1754244122567 a68.85778383027522,68.85778383027522 0 0,0 -1.0949880820206386,0.4453221203742759 l -17.64817664561785 -44.48493378921027" fill="#38ff83" stroke="none" /><path d="M 107.06938296918513 119.77432235084164 l 10.14977336646609 28.390722530006403 a51.15047305045872,51.15047305045872 0 0,0 -0.8293543252784695,0.2884924858549716 l -9.660913269142599 -28.560773448429966" fill="#b1ff20" stroke="none" /><path d="M 106.38641147887787 120.00534299687104 l 8.255919919390568 25.861551559644877 a48.14737672018349,48.14737672018349 0 0,0 -0.7895238179168511,0.24459649698419575 l -7.810755468602092 -25.99946464443572" fill="#d7ff1c" stroke="none" /><path d="M 105.3480935250658 120.30758222061773 l 7.681674643320937 29.16856982402058 a51.16311639908257,51.16311639908257 0 0,0 -0.8512439072348723,0.2163828724556959 l -7.179825442860667 -29.296137928311545" fill="#b1ff20" stroke="none" /><path d="M 104.64783097203109 120.47920084513623 l 5.341474438914906 23.535521946035225 a45.13404529816514,45.13404529816514 0 0,0 -0.7570431925727688,0.16499404028889642 l -4.9366688297230015 -23.623747444457837" fill="#ffff18" stroke="none" /><path d="M 103.58742460773223 120.69131181640829 l 1.17234115227167 6.76175222876519 a27.862629013761467,27.862629013761467 0 0,0 -0.47196971258481635,0.07766243660028967 l -1.0560939366337814 -6.780880663861151" fill="#ff0000" stroke="none" /><path d="M 103.2317021107853 120.74984581791261 l 4.637557385383953 29.776445173362653 a51.13542144495413,51.13542144495413 0 0,0 -0.8685105258850243,0.12764113850256223 l -4.125721753891243 -29.8516673851641" fill="#b1ff20" stroke="none" /><path d="M 102.15924093988457 120.88869738790638 l 3.100751704067602 29.996959961664047 a51.156794724770634,51.156794724770634 0 0,0 -0.8742950458353966,0.08279664984174442 l -2.5853570948471902 -30.045768367010975" fill="#b1ff20" stroke="none" /><path d="M 101.80034050326958 120.92268563240118 l 1.3073888984394162 15.19384076049042 a36.249985665137615,36.249985665137615 0 0,0 -0.6204461327144621,0.04802645464768685 l -1.0463737709497183 -15.21404498213316" fill="#ff820c" stroke="none" /><path d="M 100.72087961077811 120.9876233191556 l 1.034259700750258 30.111342711023628 a51.1290997706422,51.1290997706422 0 0,0 -0.8774403248041921,0.022599750271849763 l -0.5172060618753221 -30.12466017864552" fill="#b1ff20" stroke="none" /><line stroke="#e1ed5e" stroke-width="0.3" x1="101.45913802915013" x2="101.54496967792366" y1="184.9874750549273" y2="189.98673829345242" /><path d="M 101.47630435890484 185.9873277026323 a86.0,86.0 0 0,1 -42.54439059252881,-10.42667462771756" fill="none" id="id55" stroke="none" /><text fill="#e1ed5e" style="font-size:6.75px; font-family:Arial;" text-anchor="middle"><textPath startOffset="22.145653131862474" xlink:href="#id55">July</textPath></text><path d="M 100.0 121.0 l 3.691999373392216e-15 30.147462729357798 a51.1474627293578,51.1474627293578 0 0,0 -0.8780142113287547,-0.007536696015221508 l 0.5175212864798988 -30.14302043153701" fill="#b1ff20" stroke="none" /><path d="M 98.91894614982273 120.97215588758144 l -1.2406859561215908 24.068976096841425 a45.10093176605505,45.10093176605505 0 0,0 -0.7728488104811462,-0.04649266528564877 l 1.6536791187351834 -24.044131453731087" fill="#ffff18" stroke="none" /><path d="M 98.55909050195518 120.95050786540614 l -1.6608671420339158 24.14864373494039 a45.20569094036697,45.20569094036697 0 0,0 -0.7737298541226715,-0.059891584118689625 l 2.0751659909318234 -24.116574383826645" fill="#feff18" stroke="none" /><path d="M 98.19965949673042 120.92268563240118 l -1.999420587017027 23.2362979742639 a44.32216169724771,44.32216169724771 0 0,0 -0.7574877707077217,-0.07173487944308748 l 2.398007921109764 -23.198551339315628" fill="#fff417" stroke="none" /><path d="M 97.48249496171623 120.84855314841334 l -3.61360854355603 29.92586256321778 a51.143248279816504,51.143248279816504 0 0,0 -0.8707069295514237,-0.11273044419045221 l 4.126793294998248 -29.85942052282693" fill="#b1ff20" stroke="none" /><path d="M 96.76829788921471 120.74984581791261 l -4.639781033625298 29.790722590209842 a51.14987098623853,51.14987098623853 0 0,0 -0.8664361821780205,-0.142571744059755 l 5.1504947188563825 -29.70668484765442" fill="#b1ff20" stroke="none" /><path d="M 96.05791012581884 120.62667999033965 l -2.851064512930943 14.917974276843559 a36.187973050458716,36.187973050458716 0 0,0 -0.6091702692784824,-0.12185111466409738 l 3.1067312677403836 -14.8668337655166" fill="#ff810b" stroke="none" /><path d="M 95.00130118170881 120.39639698878247 l -7.187922532402891 29.32917681678249 a51.19713302752294,51.19713302752294 0 0,0 -0.8518098705644123,-0.21652673812088805 l 7.690337696192682 -29.20146484682634" fill="#b0ff20" stroke="none" /><path d="M 94.30408787586889 120.21278271476187 l -8.175217910387438 29.010964296380905 a51.14084002293578,51.14084002293578 0 0,0 -0.8429471301111056,-0.24536962433224024 l 8.672025052880151 -28.86635097774615" fill="#b1ff20" stroke="none" /><path d="M 93.61358852112213 120.00534299687104 l -13.72281997490477 42.98653811929441 a66.12381020642202,66.12381020642202 0 0,0 -1.0783762617045527,-0.35448369649650446 l 14.458718974257065 -42.74463350139588" fill="#34ff60" stroke="none" /><path d="M 93.27111125876986 119.89276391827306 l -14.48447317858488 42.82077123026885 a66.20418577981651,66.20418577981651 0 0,0 -1.0734353868803128,-0.3733965492515096 l 15.217414337510215 -42.565816248448755" fill="#35ff61" stroke="none" /><path d="M 92.59220618246901 119.65005319985036 l -8.501547778548323 22.55136552723653 a45.10063073394495,45.10063073394495 0 0,0 -0.7220991919899599,-0.2793234799191336 l 8.88741923303181 -22.402102159179357" fill="#ffff18" stroke="none" /><path d="M 91.92203290615298 119.3841803445677 l -9.282945958218756 22.275690961906744 a45.13254013761468,45.13254013761468 0 0,0 -0.7125889180045577,-0.30416183593985396 l 9.663969951393744 -22.113054476307486" fill="#ffff18" stroke="none" /><path d="M 91.26138138417905 119.09545874513695 l -12.528192732303404 27.376362098891025 a51.10682339449542,51.10682339449542 0 0,0 -0.7946168874513966,-0.3719208258860173 l 12.99629833362629 -27.15726504143448" fill="#b2ff20" stroke="none" /><path d="M 90.93487009805054 118.94263497670748 l -13.01708991597021 27.20071145193151 a51.154988532110096,51.154988532110096 0 0,0 -0.7888580350114396,-0.3858699951043437 l 13.482108200243719 -26.973247706729946" fill="#b1ff20" stroke="none" /><line stroke="#e1ed5e" stroke-width="0.3" x1="58.13341422392154" x2="55.67067388415222" y1="173.97424548756322" y2="178.32567169271397" /><path d="M 57.64086615596768 174.84453072859336 a86.0,86.0 0 0,1 -31.369924170532247,-30.572349798747897" fill="none" id="id56" stroke="none" /><text fill="#e1ed5e" style="font-size:6.75px; font-family:Arial;" text-anchor="middle"><textPath startOffset="22.145653131862474" xlink:href="#id56">August</textPath></text><path d="M 88.72937992617639 117.7192867562869 l -13.081900487350508 20.566920412031347 a45.374870986238534,45.374870986238534 0 0,0 -0.6536452575153193,-0.4236849588034726 l 13.433031377122838 -20.339321611523978" fill="#fcff18" stroke="none" /><path d="M 88.1277618465304 117.32195027204791 l -17.033326086986204 24.85213180803021 a51.1290997706422,51.1290997706422 0 0,0 -0.7197148988603875,-0.5024168952804193 l 17.457436077020358 -24.556070096944666" fill="#b1ff20" stroke="none" /><path d="M 87.83215693770417 117.11559508785305 l -15.823079862947655 22.257143405815324 a48.30842889908257,48.30842889908257 0 0,0 -0.6717608855967514,-0.48630307644977006 l 16.20282175891836 -21.98223955799249" fill="#d5ff1c" stroke="none" /><path d="M 86.96720088162412 116.46651593811092 l -39.09839735512764 49.399547814332756 a84.0,84.0 0 0,0 -1.1229969185789526,-0.9046068248263577 l 39.94064504406185 -48.72109269571299" fill="#4dd2ff" stroke="none" /><path d="M 86.40962598614128 116.0094264158162 l -19.499926842648726 22.970864788771596 a51.13150802752293,51.13150802752293 0 0,0 -0.6642726009799131,-0.5737828515529967 l 19.8913789233915 -22.632737804753877" fill="#b1ff20" stroke="none" /><path d="M 85.08716467003676 114.78537596483092 l -17.11106763641411 16.964820073867 a45.0955131880734,45.0955131880734 0 0,0 -0.5403155393808098,-0.5544113426057447 l 17.39976997694573 -16.668586039193517" fill="#ffff18" stroke="none" /><path d="M 84.58840730492382 114.26474011684316 l -26.531313095323735 24.556987311525862 a57.1518491972477,57.1518491972477 0 0,0 -0.6602461912566884,-0.7257262223000128 l 26.948956987422306 -24.097923513668178" fill="#69ff28" stroke="none" /><path d="M 83.8745106332314 113.45245675266167 l -23.160511491026558 19.321322417949887 a51.1616112385321,51.1616112385321 0 0,0 -0.5568166181639606,-0.6792257370443512 l 23.488774928429148 -18.92089439920704" fill="#b1ff20" stroke="none" /><path d="M 83.4222238831116 112.89097897827486 l -42.05660129103273 32.70346754098582 a74.27545871559633,74.27545871559633 0 0,0 -0.774049393857664,-1.0132555038790227 l 42.611802662244685 -31.976691123865926" fill="#40ffc4" stroke="none" /><path d="M 83.20337586046588 112.60449989151573 l -40.54111792027229 30.422810689992133 a71.68658256880732,71.68658256880732 0 0,0 -0.7301721540192797,-0.9906187605496855 l 41.0573920938754 -29.72238562017357" fill="#3cffa5" stroke="none" /><path d="M 82.78059297857968 112.02048342749411 l -24.7220428645406 17.25790593005551 a51.14987098623853,51.14987098623853 0 0,0 -0.49642231750321175,-0.7242949969978825 l 25.01465491885914 -16.830976197987578" fill="#b1ff20" stroke="none" /><line stroke="#e1ed5e" stroke-width="0.3" x1="26.387840678322732" x2="22.057713659400548" y1="142.50000000000003" y2="145.00000000000006" /><path d="M 25.521815274538298 143.00000000000003 a86.0,86.0 0 0,1 -11.493303480769221,-40.785679425670985" fill="none" id="id57" stroke="none" /><text fill="#e1ed5e" style="font-size:6.75px; font-family:Arial;" text-anchor="middle"><textPath startOffset="21.40746469413373" xlink:href="#id57">September</textPath></text><line stroke="#e1ed5e" stroke-width="0.3" x1="15.003131293944662" x2="10.003315487706104" y1="100.72959589197737" y2="100.7725132973878" /><path d="M 14.003168132696942 100.73817937305945 a86.0,86.0 0 0,1 10.791469493833604,-42.45332614584628" fill="none" id="id58" stroke="none" /><text fill="#e1ed5e" style="font-size:6.75px; font-family:Arial;" text-anchor="middle"><textPath startOffset="22.145653131862435" xlink:href="#id58">October</textPath></text><line stroke="#e1ed5e" stroke-width="0.3" x1="26.387840678322718" x2="22.05771365940052" y1="57.49999999999999" y2="54.99999999999999" /><path d="M 25.521815274538284 56.99999999999999 a86.0,86.0 0 0,1 29.574782752854787,-30.34633250058573" fill="none" id="id59" stroke="none" /><text fill="#e1ed5e" style="font-size:6.75px; font-family:Arial;" text-anchor="middle"><textPath startOffset="21.40746469413373" xlink:href="#id59">November</textPath></text><line stroke="#e1ed5e" stroke-width="0.3" x1="56.869717070023135" x2="54.33264160355391" y1="26.7553504044142" y2="22.446841604673864" /><path d="M 56.362301976729285 25.89364864446614 a86.0,86.0 0 0,1 42.16139366436587,-11.88097634709845" fill="none" id="id60" stroke="none" /><text fill="#e1ed5e" style="font-size:6.75px; font-family:Arial;" text-anchor="middle"><textPath startOffset="22.145653131862474" xlink:href="#id60">December</textPath></text></svg>